ISO-10303-21;
HEADER;
FILE_DESCRIPTION(('FreeCAD Model'),'2;1');
FILE_NAME('Open CASCADE Shape Model','2026-09-28T14:18:20',(''),(''),
  'Open CASCADE STEP processor 7.9','FreeCAD','Unknown');
FILE_SCHEMA(('AUTOMOTIVE_DESIGN { 1 0 10303 214 1 1 1 1 }'));
ENDSEC;
DATA;
#1 = APPLICATION_PROTOCOL_DEFINITION('international standard',
  'automotive_design',2000,#2);
#2 = APPLICATION_CONTEXT(
  'core data for automotive mechanical design processes');
#3 = SHAPE_DEFINITION_REPRESENTATION(#4,#10);
#4 = PRODUCT_DEFINITION_SHAPE('','',#5);
#5 = PRODUCT_DEFINITION('design','',#6,#9);
#6 = PRODUCT_DEFINITION_FORMATION('','',#7);
#7 = PRODUCT('Pocket','Pocket','',(#8));
#8 = PRODUCT_CONTEXT('',#2,'mechanical');
#9 = PRODUCT_DEFINITION_CONTEXT('part definition',#2,'design');
#10 = ADVANCED_BREP_SHAPE_REPRESENTATION('',(#11,#15),#1996);
#11 = AXIS2_PLACEMENT_3D('',#12,#13,#14);
#12 = CARTESIAN_POINT('',(0.,0.,0.));
#13 = DIRECTION('',(0.,0.,1.));
#14 = DIRECTION('',(1.,0.,-0.));
#15 = MANIFOLD_SOLID_BREP('',#16);
#16 = CLOSED_SHELL('',(#17,#57,#88,#524,#548,#933,#950,#967,#984,#1001,
    #1018,#1035,#1052,#1069,#1086,#1103,#1120,#1137,#1154,#1171,#1188,
    #1205,#1222,#1239,#1256,#1273,#1290,#1307,#1324,#1341,#1358,#1375,
    #1392,#1409,#1426,#1443,#1460,#1477,#1494,#1511,#1528,#1540,#1564,
    #1589,#1613,#1637,#1661,#1686,#1710,#1735,#1759,#1783,#1808,#1832,
    #1848,#1864,#1880,#1896,#1912,#1928,#1944,#1960,#1969,#1978,#1987));
#17 = ADVANCED_FACE('',(#18),#52,.F.);
#18 = FACE_BOUND('',#19,.T.);
#19 = EDGE_LOOP('',(#20,#30,#38,#46));
#20 = ORIENTED_EDGE('',*,*,#21,.F.);
#21 = EDGE_CURVE('',#22,#24,#26,.T.);
#22 = VERTEX_POINT('',#23);
#23 = CARTESIAN_POINT('',(-89.38934587131,70.42891014221,0.));
#24 = VERTEX_POINT('',#25);
#25 = CARTESIAN_POINT('',(-89.38934587131,70.428910142203,3.));
#26 = LINE('',#27,#28);
#27 = CARTESIAN_POINT('',(-89.38934587131,70.428910142203,3.));
#28 = VECTOR('',#29,1.);
#29 = DIRECTION('',(0.,0.,1.));
#30 = ORIENTED_EDGE('',*,*,#31,.F.);
#31 = EDGE_CURVE('',#32,#22,#34,.T.);
#32 = VERTEX_POINT('',#33);
#33 = CARTESIAN_POINT('',(-89.41198317195,64.466657338712,
    -3.252606517457E-16));
#34 = LINE('',#35,#36);
#35 = CARTESIAN_POINT('',(-89.38934587131,70.428910142203,0.));
#36 = VECTOR('',#37,1.);
#37 = DIRECTION('',(3.796742309604E-03,0.999992792348,0.));
#38 = ORIENTED_EDGE('',*,*,#39,.T.);
#39 = EDGE_CURVE('',#32,#40,#42,.T.);
#40 = VERTEX_POINT('',#41);
#41 = CARTESIAN_POINT('',(-89.41198317195,64.466657339089,3.));
#42 = LINE('',#43,#44);
#43 = CARTESIAN_POINT('',(-89.41198317195,64.466657339497,3.));
#44 = VECTOR('',#45,1.);
#45 = DIRECTION('',(0.,0.,1.));
#46 = ORIENTED_EDGE('',*,*,#47,.F.);
#47 = EDGE_CURVE('',#24,#40,#48,.T.);
#48 = LINE('',#49,#50);
#49 = CARTESIAN_POINT('',(-89.38934587131,70.428910142203,3.));
#50 = VECTOR('',#51,1.);
#51 = DIRECTION('',(-3.796742309875E-03,-0.999992792348,0.));
#52 = PLANE('',#53);
#53 = AXIS2_PLACEMENT_3D('',#54,#55,#56);
#54 = CARTESIAN_POINT('',(-89.38934587131,70.428910142203,3.));
#55 = DIRECTION('',(0.999992792348,-3.796742309604E-03,0.));
#56 = DIRECTION('',(3.796742309604E-03,0.999992792348,0.));
#57 = ADVANCED_FACE('',(#58),#83,.F.);
#58 = FACE_BOUND('',#59,.T.);
#59 = EDGE_LOOP('',(#60,#70,#76,#77));
#60 = ORIENTED_EDGE('',*,*,#61,.F.);
#61 = EDGE_CURVE('',#62,#64,#66,.T.);
#62 = VERTEX_POINT('',#63);
#63 = CARTESIAN_POINT('',(-87.03958590856,91.348159674307,
    -2.168404344971E-16));
#64 = VERTEX_POINT('',#65);
#65 = CARTESIAN_POINT('',(-87.03958590856,91.348159674307,3.));
#66 = LINE('',#67,#68);
#67 = CARTESIAN_POINT('',(-87.03958590856,91.348159674307,3.));
#68 = VECTOR('',#69,1.);
#69 = DIRECTION('',(0.,0.,1.));
#70 = ORIENTED_EDGE('',*,*,#71,.F.);
#71 = EDGE_CURVE('',#22,#62,#72,.T.);
#72 = LINE('',#73,#74);
#73 = CARTESIAN_POINT('',(-87.03958590856,91.348159674307,0.));
#74 = VECTOR('',#75,1.);
#75 = DIRECTION('',(0.111623285248,0.993750593555,0.));
#76 = ORIENTED_EDGE('',*,*,#21,.T.);
#77 = ORIENTED_EDGE('',*,*,#78,.F.);
#78 = EDGE_CURVE('',#64,#24,#79,.T.);
#79 = LINE('',#80,#81);
#80 = CARTESIAN_POINT('',(-87.03958590856,91.348159674307,3.));
#81 = VECTOR('',#82,1.);
#82 = DIRECTION('',(-0.111623285248,-0.993750593555,0.));
#83 = PLANE('',#84);
#84 = AXIS2_PLACEMENT_3D('',#85,#86,#87);
#85 = CARTESIAN_POINT('',(-87.03958590856,91.348159674307,3.));
#86 = DIRECTION('',(0.993750593555,-0.111623285248,0.));
#87 = DIRECTION('',(0.111623285248,0.993750593555,0.));
#88 = ADVANCED_FACE('',(#89,#387,#398,#409,#420,#431,#442,#453,#464,#475
    ,#486,#497,#508),#519,.T.);
#89 = FACE_BOUND('',#90,.T.);
#90 = EDGE_LOOP('',(#91,#92,#100,#108,#116,#124,#132,#140,#148,#156,#164
    ,#172,#180,#188,#196,#204,#212,#220,#228,#236,#244,#252,#260,#268,
    #276,#284,#292,#300,#308,#316,#324,#332,#340,#348,#356,#364,#372,
    #380,#386));
#91 = ORIENTED_EDGE('',*,*,#71,.T.);
#92 = ORIENTED_EDGE('',*,*,#93,.T.);
#93 = EDGE_CURVE('',#62,#94,#96,.T.);
#94 = VERTEX_POINT('',#95);
#95 = CARTESIAN_POINT('',(-63.42148462741,93.271001034143,
    -8.673617379884E-16));
#96 = LINE('',#97,#98);
#97 = CARTESIAN_POINT('',(-63.42148462742,93.271001034143,
    -8.673617379884E-16));
#98 = VECTOR('',#99,1.);
#99 = DIRECTION('',(0.996702274255,8.114540341604E-02,0.));
#100 = ORIENTED_EDGE('',*,*,#101,.T.);
#101 = EDGE_CURVE('',#94,#102,#104,.T.);
#102 = VERTEX_POINT('',#103);
#103 = CARTESIAN_POINT('',(-60.79660364376,93.268957050612,
    -4.336808689942E-16));
#104 = LINE('',#105,#106);
#105 = CARTESIAN_POINT('',(-60.79660364376,93.268957050612,
    -1.301042606983E-15));
#106 = VECTOR('',#107,1.);
#107 = DIRECTION('',(0.999999696817,-7.786954625275E-04,0.));
#108 = ORIENTED_EDGE('',*,*,#109,.T.);
#109 = EDGE_CURVE('',#102,#110,#112,.T.);
#110 = VERTEX_POINT('',#111);
#111 = CARTESIAN_POINT('',(-45.58163365394,92.654081702323,
    3.252606517457E-16));
#112 = LINE('',#113,#114);
#113 = CARTESIAN_POINT('',(-45.58163365395,92.654081702323,
    8.673617379884E-16));
#114 = VECTOR('',#115,1.);
#115 = DIRECTION('',(0.99918441279,-4.037956461493E-02,0.));
#116 = ORIENTED_EDGE('',*,*,#117,.T.);
#117 = EDGE_CURVE('',#110,#118,#120,.T.);
#118 = VERTEX_POINT('',#119);
#119 = CARTESIAN_POINT('',(-45.36474981215,99.671799487341,
    -7.589415207399E-16));
#120 = LINE('',#121,#122);
#121 = CARTESIAN_POINT('',(-45.36474981215,99.671799487344,
    -8.673617379884E-16));
#122 = VECTOR('',#123,1.);
#123 = DIRECTION('',(3.08904328184E-02,0.999522776709,0.));
#124 = ORIENTED_EDGE('',*,*,#125,.T.);
#125 = EDGE_CURVE('',#118,#126,#128,.T.);
#126 = VERTEX_POINT('',#127);
#127 = CARTESIAN_POINT('',(-21.23202920156,100.26638480345,
    -5.421010862428E-16));
#128 = LINE('',#129,#130);
#129 = CARTESIAN_POINT('',(-21.23202920156,100.26638480345,
    -8.673617379884E-16));
#130 = VECTOR('',#131,1.);
#131 = DIRECTION('',(0.999696619178,2.463066389908E-02,0.));
#132 = ORIENTED_EDGE('',*,*,#133,.T.);
#133 = EDGE_CURVE('',#126,#134,#136,.T.);
#134 = VERTEX_POINT('',#135);
#135 = CARTESIAN_POINT('',(-18.86068044071,103.1277292105,
    -2.168404344971E-16));
#136 = LINE('',#137,#138);
#137 = CARTESIAN_POINT('',(-18.86068044071,103.1277292105,0.));
#138 = VECTOR('',#139,1.);
#139 = DIRECTION('',(0.638100913412,0.769952741604,0.));
#140 = ORIENTED_EDGE('',*,*,#141,.T.);
#141 = EDGE_CURVE('',#134,#142,#144,.T.);
#142 = VERTEX_POINT('',#143);
#143 = CARTESIAN_POINT('',(1.738420937724,103.03127756283,
    -7.589415207399E-16));
#144 = LINE('',#145,#146);
#145 = CARTESIAN_POINT('',(1.738420937725,103.03127756283,
    -8.673617379884E-16));
#146 = VECTOR('',#147,1.);
#147 = DIRECTION('',(0.999989038106,-4.682271746048E-03,0.));
#148 = ORIENTED_EDGE('',*,*,#149,.T.);
#149 = EDGE_CURVE('',#142,#150,#152,.T.);
#150 = VERTEX_POINT('',#151);
#151 = CARTESIAN_POINT('',(3.708916324367,100.14960323875,
    -5.421010862428E-16));
#152 = LINE('',#153,#154);
#153 = CARTESIAN_POINT('',(3.708916324367,100.14960323875,
    -8.673617379884E-16));
#154 = VECTOR('',#155,1.);
#155 = DIRECTION('',(0.56445434032,-0.825464292198,0.));
#156 = ORIENTED_EDGE('',*,*,#157,.T.);
#157 = EDGE_CURVE('',#150,#158,#160,.T.);
#158 = VERTEX_POINT('',#159);
#159 = CARTESIAN_POINT('',(20.541969641527,100.05854787071,
    -2.168404344971E-16));
#160 = LINE('',#161,#162);
#161 = CARTESIAN_POINT('',(20.541969641929,100.05854787071,0.));
#162 = VECTOR('',#163,1.);
#163 = DIRECTION('',(0.999985369951,-5.409240627811E-03,0.));
#164 = ORIENTED_EDGE('',*,*,#165,.T.);
#165 = EDGE_CURVE('',#158,#166,#168,.T.);
#166 = VERTEX_POINT('',#167);
#167 = CARTESIAN_POINT('',(23.462480011873,100.03746233017,
    -7.589415207399E-16));
#168 = LINE('',#169,#170);
#169 = CARTESIAN_POINT('',(23.46248001185,100.03746233017,
    -8.673617379884E-16));
#170 = VECTOR('',#171,1.);
#171 = DIRECTION('',(0.999973938165,-7.21962545591E-03,0.));
#172 = ORIENTED_EDGE('',*,*,#173,.T.);
#173 = EDGE_CURVE('',#166,#174,#176,.T.);
#174 = VERTEX_POINT('',#175);
#175 = CARTESIAN_POINT('',(45.412285492775,97.937884527188,
    -5.421010862428E-16));
#176 = LINE('',#177,#178);
#177 = CARTESIAN_POINT('',(45.412285492779,97.937884527188,
    -8.673617379884E-16));
#178 = VECTOR('',#179,1.);
#179 = DIRECTION('',(0.995456350685,-9.521897857168E-02,0.));
#180 = ORIENTED_EDGE('',*,*,#181,.T.);
#181 = EDGE_CURVE('',#174,#182,#184,.T.);
#182 = VERTEX_POINT('',#183);
#183 = CARTESIAN_POINT('',(52.492805425727,76.982059382006,
    -2.168404344971E-16));
#184 = LINE('',#185,#186);
#185 = CARTESIAN_POINT('',(52.492805425728,76.982059382003,0.));
#186 = VECTOR('',#187,1.);
#187 = DIRECTION('',(0.320100427129,-0.947383616362,0.));
#188 = ORIENTED_EDGE('',*,*,#189,.T.);
#189 = EDGE_CURVE('',#182,#190,#192,.T.);
#190 = VERTEX_POINT('',#191);
#191 = CARTESIAN_POINT('',(53.5236326075,71.015720686908,
    -5.421010862428E-16));
#192 = LINE('',#193,#194);
#193 = CARTESIAN_POINT('',(53.523632607508,71.01572068686,
    -8.673617379884E-16));
#194 = VECTOR('',#195,1.);
#195 = DIRECTION('',(0.170251443875,-0.985400652455,0.));
#196 = ORIENTED_EDGE('',*,*,#197,.T.);
#197 = EDGE_CURVE('',#190,#198,#200,.T.);
#198 = VERTEX_POINT('',#199);
#199 = CARTESIAN_POINT('',(55.662183570806,51.826539045588,0.));
#200 = LINE('',#201,#202);
#201 = CARTESIAN_POINT('',(55.662183570806,51.82653904559,0.));
#202 = VECTOR('',#203,1.);
#203 = DIRECTION('',(0.11075995322,-0.993847187833,0.));
#204 = ORIENTED_EDGE('',*,*,#205,.T.);
#205 = EDGE_CURVE('',#198,#206,#208,.T.);
#206 = VERTEX_POINT('',#207);
#207 = CARTESIAN_POINT('',(56.013037621395,45.395075400141,
    1.084202172485E-16));
#208 = LINE('',#209,#210);
#209 = CARTESIAN_POINT('',(56.013037621395,45.395075400138,0.));
#210 = VECTOR('',#211,1.);
#211 = DIRECTION('',(5.447175960962E-02,-0.998515311553,0.));
#212 = ORIENTED_EDGE('',*,*,#213,.T.);
#213 = EDGE_CURVE('',#206,#214,#216,.T.);
#214 = VERTEX_POINT('',#215);
#215 = CARTESIAN_POINT('',(56.00967094243,25.444449255287,
    4.336808689942E-16));
#216 = LINE('',#217,#218);
#217 = CARTESIAN_POINT('',(56.00967094243,25.444449255295,
    4.336808689942E-16));
#218 = VECTOR('',#219,1.);
#219 = DIRECTION('',(-1.687505390661E-04,-0.999999985762,0.));
#220 = ORIENTED_EDGE('',*,*,#221,.T.);
#221 = EDGE_CURVE('',#214,#222,#224,.T.);
#222 = VERTEX_POINT('',#223);
#223 = CARTESIAN_POINT('',(55.656641738095,18.986154278469,
    1.084202172485E-16));
#224 = LINE('',#225,#226);
#225 = CARTESIAN_POINT('',(55.656641738095,18.986154278477,
    4.336808689942E-16));
#226 = VECTOR('',#227,1.);
#227 = DIRECTION('',(-5.458142637441E-02,-0.998509322888,0.));
#228 = ORIENTED_EDGE('',*,*,#229,.T.);
#229 = EDGE_CURVE('',#222,#230,#232,.T.);
#230 = VERTEX_POINT('',#231);
#231 = CARTESIAN_POINT('',(51.505615884171,3.917575356604,
    -7.589415207399E-16));
#232 = LINE('',#233,#234);
#233 = CARTESIAN_POINT('',(51.505615884171,3.917575356603,
    -8.673617379884E-16));
#234 = VECTOR('',#235,1.);
#235 = DIRECTION('',(-0.265582741806,-0.964088070279,0.));
#236 = ORIENTED_EDGE('',*,*,#237,.T.);
#237 = EDGE_CURVE('',#230,#238,#240,.T.);
#238 = VERTEX_POINT('',#239);
#239 = CARTESIAN_POINT('',(52.75105328756,-4.170959716842,
    -5.421010862428E-16));
#240 = LINE('',#241,#242);
#241 = CARTESIAN_POINT('',(52.75105328756,-4.170959716841,
    -8.673617379884E-16));
#242 = VECTOR('',#243,1.);
#243 = DIRECTION('',(0.152182206598,-0.988352455349,0.));
#244 = ORIENTED_EDGE('',*,*,#245,.T.);
#245 = EDGE_CURVE('',#238,#246,#248,.T.);
#246 = VERTEX_POINT('',#247);
#247 = CARTESIAN_POINT('',(64.216408080952,-15.0007881163,
    -2.168404344971E-16));
#248 = LINE('',#249,#250);
#249 = CARTESIAN_POINT('',(64.216408080953,-15.00078811631,0.));
#250 = VECTOR('',#251,1.);
#251 = DIRECTION('',(0.726967644256,-0.686671715017,0.));
#252 = ORIENTED_EDGE('',*,*,#253,.T.);
#253 = EDGE_CURVE('',#246,#254,#256,.T.);
#254 = VERTEX_POINT('',#255);
#255 = CARTESIAN_POINT('',(53.032501959447,-33.18178307025,
    -7.589415207399E-16));
#256 = LINE('',#257,#258);
#257 = CARTESIAN_POINT('',(53.032501959448,-33.18178307025,
    -8.673617379884E-16));
#258 = VECTOR('',#259,1.);
#259 = DIRECTION('',(-0.52394795703,-0.851750279321,0.));
#260 = ORIENTED_EDGE('',*,*,#261,.T.);
#261 = EDGE_CURVE('',#254,#262,#264,.T.);
#262 = VERTEX_POINT('',#263);
#263 = CARTESIAN_POINT('',(52.500989806681,-38.12149768516,
    -5.421010862428E-16));
#264 = LINE('',#265,#266);
#265 = CARTESIAN_POINT('',(52.500989806681,-38.12149768517,
    -8.673617379884E-16));
#266 = VECTOR('',#267,1.);
#267 = DIRECTION('',(-0.106982246756,-0.994260930983,0.));
#268 = ORIENTED_EDGE('',*,*,#269,.T.);
#269 = EDGE_CURVE('',#262,#270,#272,.T.);
#270 = VERTEX_POINT('',#271);
#271 = CARTESIAN_POINT('',(37.16741212963,-56.89717106023,
    -3.252606517457E-16));
#272 = LINE('',#273,#274);
#273 = CARTESIAN_POINT('',(37.167412129627,-56.89717106024,0.));
#274 = VECTOR('',#275,1.);
#275 = DIRECTION('',(-0.632537319932,-0.774529882505,0.));
#276 = ORIENTED_EDGE('',*,*,#277,.T.);
#277 = EDGE_CURVE('',#270,#278,#280,.T.);
#278 = VERTEX_POINT('',#279);
#279 = CARTESIAN_POINT('',(17.245198861672,-45.986375404,
    -6.505213034913E-16));
#280 = LINE('',#281,#282);
#281 = CARTESIAN_POINT('',(17.245198861781,-45.98637540406,
    -1.301042606983E-15));
#282 = VECTOR('',#283,1.);
#283 = DIRECTION('',(-0.877077493908,0.48034890411,0.));
#284 = ORIENTED_EDGE('',*,*,#285,.T.);
#285 = EDGE_CURVE('',#278,#286,#288,.T.);
#286 = VERTEX_POINT('',#287);
#287 = CARTESIAN_POINT('',(1.549978118132,-38.13915533977,
    2.168404344971E-16));
#288 = LINE('',#289,#290);
#289 = CARTESIAN_POINT('',(1.549978118131,-38.13915533977,0.));
#290 = VECTOR('',#291,1.);
#291 = DIRECTION('',(-0.89443608793,0.447195801197,0.));
#292 = ORIENTED_EDGE('',*,*,#293,.T.);
#293 = EDGE_CURVE('',#286,#294,#296,.T.);
#294 = VERTEX_POINT('',#295);
#295 = CARTESIAN_POINT('',(-1.863769287397,-21.26685824843,
    3.252606517457E-16));
#296 = LINE('',#297,#298);
#297 = CARTESIAN_POINT('',(-1.863769287397,-21.26685824843,
    8.673617379884E-16));
#298 = VECTOR('',#299,1.);
#299 = DIRECTION('',(-0.198310166503,0.980139315537,0.));
#300 = ORIENTED_EDGE('',*,*,#301,.T.);
#301 = EDGE_CURVE('',#294,#302,#304,.T.);
#302 = VERTEX_POINT('',#303);
#303 = CARTESIAN_POINT('',(-21.93854614942,-27.27886087769,
    -3.252606517457E-16));
#304 = LINE('',#305,#306);
#305 = CARTESIAN_POINT('',(-21.93854614942,-27.27886087769,
    -8.673617379884E-16));
#306 = VECTOR('',#307,1.);
#307 = DIRECTION('',(-0.957963168314,-0.286891213099,0.));
#308 = ORIENTED_EDGE('',*,*,#309,.T.);
#309 = EDGE_CURVE('',#302,#310,#312,.T.);
#310 = VERTEX_POINT('',#311);
#311 = CARTESIAN_POINT('',(-43.41892903705,-27.01381154885,
    5.421010862428E-16));
#312 = LINE('',#313,#314);
#313 = CARTESIAN_POINT('',(-43.41892903705,-27.01381154885,
    8.673617379884E-16));
#314 = VECTOR('',#315,1.);
#315 = DIRECTION('',(-0.999923881575,1.23381950448E-02,0.));
#316 = ORIENTED_EDGE('',*,*,#317,.T.);
#317 = EDGE_CURVE('',#310,#318,#320,.T.);
#318 = VERTEX_POINT('',#319);
#319 = CARTESIAN_POINT('',(-46.11978948326,-12.60910778186,0.));
#320 = LINE('',#321,#322);
#321 = CARTESIAN_POINT('',(-46.11978948326,-12.60910778187,0.));
#322 = VECTOR('',#323,1.);
#323 = DIRECTION('',(-0.184287117203,0.98287245278,0.));
#324 = ORIENTED_EDGE('',*,*,#325,.T.);
#325 = EDGE_CURVE('',#318,#326,#328,.T.);
#326 = VERTEX_POINT('',#327);
#327 = CARTESIAN_POINT('',(-59.78227654759,-13.40338462505,
    -2.168404344971E-16));
#328 = LINE('',#329,#330);
#329 = CARTESIAN_POINT('',(-59.78227654754,-13.40338462505,0.));
#330 = VECTOR('',#331,1.);
#331 = DIRECTION('',(-0.998314397657,-5.803760358914E-02,0.));
#332 = ORIENTED_EDGE('',*,*,#333,.T.);
#333 = EDGE_CURVE('',#326,#334,#336,.T.);
#334 = VERTEX_POINT('',#335);
#335 = CARTESIAN_POINT('',(-63.48891979871,-13.4004982779,
    -5.421010862428E-16));
#336 = LINE('',#337,#338);
#337 = CARTESIAN_POINT('',(-63.4889197987,-13.4004982779,
    -8.673617379884E-16));
#338 = VECTOR('',#339,1.);
#339 = DIRECTION('',(-0.999999696817,7.786954625453E-04,0.));
#340 = ORIENTED_EDGE('',*,*,#341,.T.);
#341 = EDGE_CURVE('',#334,#342,#344,.T.);
#342 = VERTEX_POINT('',#343);
#343 = CARTESIAN_POINT('',(-87.1745880362,-11.22378316333,0.));
#344 = LINE('',#345,#346);
#345 = CARTESIAN_POINT('',(-87.17458803621,-11.22378316333,0.));
#346 = VECTOR('',#347,1.);
#347 = DIRECTION('',(-0.995803747808,9.151445706595E-02,0.));
#348 = ORIENTED_EDGE('',*,*,#349,.T.);
#349 = EDGE_CURVE('',#342,#350,#352,.T.);
#350 = VERTEX_POINT('',#351);
#351 = CARTESIAN_POINT('',(-89.41645195509,12.48055271279,
    -2.168404344971E-16));
#352 = LINE('',#353,#354);
#353 = CARTESIAN_POINT('',(-89.41645195509,12.480552712793,0.));
#354 = VECTOR('',#355,1.);
#355 = DIRECTION('',(-9.415595360627E-02,0.99555746012,0.));
#356 = ORIENTED_EDGE('',*,*,#357,.T.);
#357 = EDGE_CURVE('',#350,#358,#360,.T.);
#358 = VERTEX_POINT('',#359);
#359 = CARTESIAN_POINT('',(-89.23707542717,18.949699753545,
    -3.252606517457E-16));
#360 = LINE('',#361,#362);
#361 = CARTESIAN_POINT('',(-89.23707542718,18.949699753516,
    -8.673617379884E-16));
#362 = VECTOR('',#363,1.);
#363 = DIRECTION('',(2.771734981446E-02,0.999615800455,0.));
#364 = ORIENTED_EDGE('',*,*,#365,.T.);
#365 = EDGE_CURVE('',#358,#366,#368,.T.);
#366 = VERTEX_POINT('',#367);
#367 = CARTESIAN_POINT('',(-89.32156254747,38.807710755429,
    3.252606517457E-16));
#368 = LINE('',#369,#370);
#369 = CARTESIAN_POINT('',(-89.32156254748,38.807710755652,
    8.673617379884E-16));
#370 = VECTOR('',#371,1.);
#371 = DIRECTION('',(-4.254522552138E-03,0.999990949478,0.));
#372 = ORIENTED_EDGE('',*,*,#373,.T.);
#373 = EDGE_CURVE('',#366,#374,#376,.T.);
#374 = VERTEX_POINT('',#375);
#375 = CARTESIAN_POINT('',(-89.46011997639,45.285956829797,
    -7.589415207399E-16));
#376 = LINE('',#377,#378);
#377 = CARTESIAN_POINT('',(-89.4601199764,45.285956829922,
    -8.673617379884E-16));
#378 = VECTOR('',#379,1.);
#379 = DIRECTION('',(-2.138321801359E-02,0.999771352854,0.));
#380 = ORIENTED_EDGE('',*,*,#381,.T.);
#381 = EDGE_CURVE('',#374,#32,#382,.T.);
#382 = LINE('',#383,#384);
#383 = CARTESIAN_POINT('',(-89.41198317195,64.466657339497,
    -8.673617379884E-16));
#384 = VECTOR('',#385,1.);
#385 = DIRECTION('',(2.509639980566E-03,0.999996850849,0.));
#386 = ORIENTED_EDGE('',*,*,#31,.T.);
#387 = FACE_BOUND('',#388,.T.);
#388 = EDGE_LOOP('',(#389));
#389 = ORIENTED_EDGE('',*,*,#390,.F.);
#390 = EDGE_CURVE('',#391,#391,#393,.T.);
#391 = VERTEX_POINT('',#392);
#392 = CARTESIAN_POINT('',(41.387388351726,-33.4582886089,0.));
#393 = CIRCLE('',#394,3.149999999999);
#394 = AXIS2_PLACEMENT_3D('',#395,#396,#397);
#395 = CARTESIAN_POINT('',(44.537388351725,-33.4582886089,0.));
#396 = DIRECTION('',(0.,0.,-1.));
#397 = DIRECTION('',(-1.,0.,0.));
#398 = FACE_BOUND('',#399,.T.);
#399 = EDGE_LOOP('',(#400));
#400 = ORIENTED_EDGE('',*,*,#401,.F.);
#401 = EDGE_CURVE('',#402,#402,#404,.T.);
#402 = VERTEX_POINT('',#403);
#403 = CARTESIAN_POINT('',(39.998126074617,-25.07866756041,0.));
#404 = CIRCLE('',#405,5.);
#405 = AXIS2_PLACEMENT_3D('',#406,#407,#408);
#406 = CARTESIAN_POINT('',(34.998126074617,-25.07866756041,0.));
#407 = DIRECTION('',(0.,0.,-1.));
#408 = DIRECTION('',(1.,0.,0.));
#409 = FACE_BOUND('',#410,.T.);
#410 = EDGE_LOOP('',(#411));
#411 = ORIENTED_EDGE('',*,*,#412,.F.);
#412 = EDGE_CURVE('',#413,#413,#415,.T.);
#413 = VERTEX_POINT('',#414);
#414 = CARTESIAN_POINT('',(-14.66803738571,-16.62038451986,0.));
#415 = CIRCLE('',#416,3.149999999999);
#416 = AXIS2_PLACEMENT_3D('',#417,#418,#419);
#417 = CARTESIAN_POINT('',(-11.51803738572,-16.62038451986,0.));
#418 = DIRECTION('',(0.,0.,-1.));
#419 = DIRECTION('',(-1.,0.,0.));
#420 = FACE_BOUND('',#421,.T.);
#421 = EDGE_LOOP('',(#422));
#422 = ORIENTED_EDGE('',*,*,#423,.F.);
#423 = EDGE_CURVE('',#424,#424,#426,.T.);
#424 = VERTEX_POINT('',#425);
#425 = CARTESIAN_POINT('',(44.534053496372,22.559164116739,0.));
#426 = CIRCLE('',#427,3.149999999999);
#427 = AXIS2_PLACEMENT_3D('',#428,#429,#430);
#428 = CARTESIAN_POINT('',(47.684053496371,22.559164116739,0.));
#429 = DIRECTION('',(0.,0.,-1.));
#430 = DIRECTION('',(-1.,0.,0.));
#431 = FACE_BOUND('',#432,.T.);
#432 = EDGE_LOOP('',(#433));
#433 = ORIENTED_EDGE('',*,*,#434,.F.);
#434 = EDGE_CURVE('',#435,#435,#437,.T.);
#435 = VERTEX_POINT('',#436);
#436 = CARTESIAN_POINT('',(-76.85138861973,-4.75166172086,0.));
#437 = CIRCLE('',#438,3.149999999999);
#438 = AXIS2_PLACEMENT_3D('',#439,#440,#441);
#439 = CARTESIAN_POINT('',(-73.70138861974,-4.75166172086,0.));
#440 = DIRECTION('',(0.,0.,-1.));
#441 = DIRECTION('',(-1.,0.,0.));
#442 = FACE_BOUND('',#443,.T.);
#443 = EDGE_LOOP('',(#444));
#444 = ORIENTED_EDGE('',*,*,#445,.F.);
#445 = EDGE_CURVE('',#446,#446,#448,.T.);
#446 = VERTEX_POINT('',#447);
#447 = CARTESIAN_POINT('',(-58.48891979871,12.48055271279,0.));
#448 = CIRCLE('',#449,5.);
#449 = AXIS2_PLACEMENT_3D('',#450,#451,#452);
#450 = CARTESIAN_POINT('',(-63.48891979871,12.48055271279,0.));
#451 = DIRECTION('',(0.,0.,-1.));
#452 = DIRECTION('',(1.,0.,0.));
#453 = FACE_BOUND('',#454,.T.);
#454 = EDGE_LOOP('',(#455));
#455 = ORIENTED_EDGE('',*,*,#456,.F.);
#456 = EDGE_CURVE('',#457,#457,#459,.T.);
#457 = VERTEX_POINT('',#458);
#458 = CARTESIAN_POINT('',(38.549083441776,84.531427981148,0.));
#459 = CIRCLE('',#460,3.149999999999);
#460 = AXIS2_PLACEMENT_3D('',#461,#462,#463);
#461 = CARTESIAN_POINT('',(41.699083441775,84.531427981148,0.));
#462 = DIRECTION('',(0.,0.,-1.));
#463 = DIRECTION('',(-1.,0.,0.));
#464 = FACE_BOUND('',#465,.T.);
#465 = EDGE_LOOP('',(#466));
#466 = ORIENTED_EDGE('',*,*,#467,.F.);
#467 = EDGE_CURVE('',#468,#468,#470,.T.);
#468 = VERTEX_POINT('',#469);
#469 = CARTESIAN_POINT('',(28.462480011873,87.459971954551,0.));
#470 = CIRCLE('',#471,5.);
#471 = AXIS2_PLACEMENT_3D('',#472,#473,#474);
#472 = CARTESIAN_POINT('',(23.462480011873,87.459971954551,0.));
#473 = DIRECTION('',(0.,0.,-1.));
#474 = DIRECTION('',(1.,0.,0.));
#475 = FACE_BOUND('',#476,.T.);
#476 = EDGE_LOOP('',(#477));
#477 = ORIENTED_EDGE('',*,*,#478,.F.);
#478 = EDGE_CURVE('',#479,#479,#481,.T.);
#479 = VERTEX_POINT('',#480);
#480 = CARTESIAN_POINT('',(-19.47597328652,95.013083618946,0.));
#481 = CIRCLE('',#482,3.149999999999);
#482 = AXIS2_PLACEMENT_3D('',#483,#484,#485);
#483 = CARTESIAN_POINT('',(-16.32597328653,95.013083618946,0.));
#484 = DIRECTION('',(0.,0.,-1.));
#485 = DIRECTION('',(-1.,0.,0.));
#486 = FACE_BOUND('',#487,.T.);
#487 = EDGE_LOOP('',(#488));
#488 = ORIENTED_EDGE('',*,*,#489,.F.);
#489 = EDGE_CURVE('',#490,#490,#492,.T.);
#490 = VERTEX_POINT('',#491);
#491 = CARTESIAN_POINT('',(-84.38837446357,54.853895526734,0.));
#492 = CIRCLE('',#493,3.149999999999);
#493 = AXIS2_PLACEMENT_3D('',#494,#495,#496);
#494 = CARTESIAN_POINT('',(-81.23837446358,54.853895526734,0.));
#495 = DIRECTION('',(0.,0.,-1.));
#496 = DIRECTION('',(-1.,0.,0.));
#497 = FACE_BOUND('',#498,.T.);
#498 = EDGE_LOOP('',(#499));
#499 = ORIENTED_EDGE('',*,*,#500,.F.);
#500 = EDGE_CURVE('',#501,#501,#503,.T.);
#501 = VERTEX_POINT('',#502);
#502 = CARTESIAN_POINT('',(-70.23053526798,80.888534908259,0.));
#503 = CIRCLE('',#504,5.);
#504 = AXIS2_PLACEMENT_3D('',#505,#506,#507);
#505 = CARTESIAN_POINT('',(-75.23053526798,80.888534908259,0.));
#506 = DIRECTION('',(0.,0.,-1.));
#507 = DIRECTION('',(1.,0.,0.));
#508 = FACE_BOUND('',#509,.T.);
#509 = EDGE_LOOP('',(#510));
#510 = ORIENTED_EDGE('',*,*,#511,.F.);
#511 = EDGE_CURVE('',#512,#512,#514,.T.);
#512 = VERTEX_POINT('',#513);
#513 = CARTESIAN_POINT('',(-55.44040594038,85.007880863003,0.));
#514 = CIRCLE('',#515,3.149999999999);
#515 = AXIS2_PLACEMENT_3D('',#516,#517,#518);
#516 = CARTESIAN_POINT('',(-52.29040594039,85.007880863003,0.));
#517 = DIRECTION('',(0.,0.,-1.));
#518 = DIRECTION('',(-1.,0.,0.));
#519 = PLANE('',#520);
#520 = AXIS2_PLACEMENT_3D('',#521,#522,#523);
#521 = CARTESIAN_POINT('',(-11.76097075972,29.171150871107,0.));
#522 = DIRECTION('',(0.,0.,-1.));
#523 = DIRECTION('',(-1.,0.,0.));
#524 = ADVANCED_FACE('',(#525),#543,.F.);
#525 = FACE_BOUND('',#526,.T.);
#526 = EDGE_LOOP('',(#527,#528,#529,#537));
#527 = ORIENTED_EDGE('',*,*,#39,.F.);
#528 = ORIENTED_EDGE('',*,*,#381,.F.);
#529 = ORIENTED_EDGE('',*,*,#530,.T.);
#530 = EDGE_CURVE('',#374,#531,#533,.T.);
#531 = VERTEX_POINT('',#532);
#532 = CARTESIAN_POINT('',(-89.4601199764,45.285956829925,3.));
#533 = LINE('',#534,#535);
#534 = CARTESIAN_POINT('',(-89.4601199764,45.285956829922,3.));
#535 = VECTOR('',#536,1.);
#536 = DIRECTION('',(0.,0.,1.));
#537 = ORIENTED_EDGE('',*,*,#538,.F.);
#538 = EDGE_CURVE('',#40,#531,#539,.T.);
#539 = LINE('',#540,#541);
#540 = CARTESIAN_POINT('',(-89.41198317195,64.466657339497,3.));
#541 = VECTOR('',#542,1.);
#542 = DIRECTION('',(-2.509639980869E-03,-0.999996850849,0.));
#543 = PLANE('',#544);
#544 = AXIS2_PLACEMENT_3D('',#545,#546,#547);
#545 = CARTESIAN_POINT('',(-89.41198317195,64.466657339497,3.));
#546 = DIRECTION('',(0.999996850849,-2.509639980566E-03,0.));
#547 = DIRECTION('',(2.509639980566E-03,0.999996850849,0.));
#548 = ADVANCED_FACE('',(#549,#840,#851,#862,#873,#884,#895,#906,#917),
  #928,.F.);
#549 = FACE_BOUND('',#550,.T.);
#550 = EDGE_LOOP('',(#551,#552,#553,#561,#569,#577,#585,#593,#601,#609,
    #617,#625,#633,#641,#649,#657,#665,#673,#681,#689,#697,#705,#713,
    #721,#729,#737,#745,#753,#761,#769,#777,#785,#793,#801,#809,#817,
    #825,#833,#839));
#551 = ORIENTED_EDGE('',*,*,#47,.T.);
#552 = ORIENTED_EDGE('',*,*,#538,.T.);
#553 = ORIENTED_EDGE('',*,*,#554,.T.);
#554 = EDGE_CURVE('',#531,#555,#557,.T.);
#555 = VERTEX_POINT('',#556);
#556 = CARTESIAN_POINT('',(-89.32156254748,38.807710755652,3.));
#557 = LINE('',#558,#559);
#558 = CARTESIAN_POINT('',(-89.4601199764,45.285956829922,3.));
#559 = VECTOR('',#560,1.);
#560 = DIRECTION('',(2.138321801475E-02,-0.999771352854,0.));
#561 = ORIENTED_EDGE('',*,*,#562,.T.);
#562 = EDGE_CURVE('',#555,#563,#565,.T.);
#563 = VERTEX_POINT('',#564);
#564 = CARTESIAN_POINT('',(-89.23707542718,18.949699753518,3.));
#565 = LINE('',#566,#567);
#566 = CARTESIAN_POINT('',(-89.32156254748,38.807710755652,3.));
#567 = VECTOR('',#568,1.);
#568 = DIRECTION('',(4.254522552051E-03,-0.999990949478,0.));
#569 = ORIENTED_EDGE('',*,*,#570,.T.);
#570 = EDGE_CURVE('',#563,#571,#573,.T.);
#571 = VERTEX_POINT('',#572);
#572 = CARTESIAN_POINT('',(-89.41645195509,12.480552712793,3.));
#573 = LINE('',#574,#575);
#574 = CARTESIAN_POINT('',(-89.23707542718,18.949699753516,3.));
#575 = VECTOR('',#576,1.);
#576 = DIRECTION('',(-2.771734981457E-02,-0.999615800455,0.));
#577 = ORIENTED_EDGE('',*,*,#578,.T.);
#578 = EDGE_CURVE('',#571,#579,#581,.T.);
#579 = VERTEX_POINT('',#580);
#580 = CARTESIAN_POINT('',(-87.17458803621,-11.22378316333,3.));
#581 = LINE('',#582,#583);
#582 = CARTESIAN_POINT('',(-89.41645195509,12.480552712793,3.));
#583 = VECTOR('',#584,1.);
#584 = DIRECTION('',(9.415595360606E-02,-0.99555746012,0.));
#585 = ORIENTED_EDGE('',*,*,#586,.T.);
#586 = EDGE_CURVE('',#579,#587,#589,.T.);
#587 = VERTEX_POINT('',#588);
#588 = CARTESIAN_POINT('',(-63.4889197987,-13.4004982779,3.));
#589 = LINE('',#590,#591);
#590 = CARTESIAN_POINT('',(-87.17458803621,-11.22378316333,3.));
#591 = VECTOR('',#592,1.);
#592 = DIRECTION('',(0.995803747808,-9.151445706587E-02,0.));
#593 = ORIENTED_EDGE('',*,*,#594,.T.);
#594 = EDGE_CURVE('',#587,#595,#597,.T.);
#595 = VERTEX_POINT('',#596);
#596 = CARTESIAN_POINT('',(-59.78227654754,-13.40338462505,3.));
#597 = LINE('',#598,#599);
#598 = CARTESIAN_POINT('',(-63.4889197987,-13.4004982779,3.));
#599 = VECTOR('',#600,1.);
#600 = DIRECTION('',(0.999999696817,-7.786954609152E-04,0.));
#601 = ORIENTED_EDGE('',*,*,#602,.T.);
#602 = EDGE_CURVE('',#595,#603,#605,.T.);
#603 = VERTEX_POINT('',#604);
#604 = CARTESIAN_POINT('',(-46.11978948326,-12.60910778187,3.));
#605 = LINE('',#606,#607);
#606 = CARTESIAN_POINT('',(-59.78227654754,-13.40338462505,3.));
#607 = VECTOR('',#608,1.);
#608 = DIRECTION('',(0.998314397657,5.80376035887E-02,0.));
#609 = ORIENTED_EDGE('',*,*,#610,.T.);
#610 = EDGE_CURVE('',#603,#611,#613,.T.);
#611 = VERTEX_POINT('',#612);
#612 = CARTESIAN_POINT('',(-43.41892903705,-27.01381154885,3.));
#613 = LINE('',#614,#615);
#614 = CARTESIAN_POINT('',(-46.11978948326,-12.60910778187,3.));
#615 = VECTOR('',#616,1.);
#616 = DIRECTION('',(0.184287117203,-0.98287245278,0.));
#617 = ORIENTED_EDGE('',*,*,#618,.T.);
#618 = EDGE_CURVE('',#611,#619,#621,.T.);
#619 = VERTEX_POINT('',#620);
#620 = CARTESIAN_POINT('',(-21.93854614942,-27.27886087769,3.));
#621 = LINE('',#622,#623);
#622 = CARTESIAN_POINT('',(-43.41892903705,-27.01381154885,3.));
#623 = VECTOR('',#624,1.);
#624 = DIRECTION('',(0.999923881575,-1.233819504469E-02,0.));
#625 = ORIENTED_EDGE('',*,*,#626,.T.);
#626 = EDGE_CURVE('',#619,#627,#629,.T.);
#627 = VERTEX_POINT('',#628);
#628 = CARTESIAN_POINT('',(-1.863769287397,-21.26685824843,3.));
#629 = LINE('',#630,#631);
#630 = CARTESIAN_POINT('',(-21.93854614942,-27.27886087769,3.));
#631 = VECTOR('',#632,1.);
#632 = DIRECTION('',(0.957963168314,0.286891213099,0.));
#633 = ORIENTED_EDGE('',*,*,#634,.T.);
#634 = EDGE_CURVE('',#627,#635,#637,.T.);
#635 = VERTEX_POINT('',#636);
#636 = CARTESIAN_POINT('',(1.549978118131,-38.13915533977,3.));
#637 = LINE('',#638,#639);
#638 = CARTESIAN_POINT('',(-1.863769287397,-21.26685824843,3.));
#639 = VECTOR('',#640,1.);
#640 = DIRECTION('',(0.198310166503,-0.980139315537,0.));
#641 = ORIENTED_EDGE('',*,*,#642,.T.);
#642 = EDGE_CURVE('',#635,#643,#645,.T.);
#643 = VERTEX_POINT('',#644);
#644 = CARTESIAN_POINT('',(17.245198861779,-45.98637540405,3.));
#645 = LINE('',#646,#647);
#646 = CARTESIAN_POINT('',(1.549978118131,-38.13915533977,3.));
#647 = VECTOR('',#648,1.);
#648 = DIRECTION('',(0.89443608793,-0.447195801198,0.));
#649 = ORIENTED_EDGE('',*,*,#650,.T.);
#650 = EDGE_CURVE('',#643,#651,#653,.T.);
#651 = VERTEX_POINT('',#652);
#652 = CARTESIAN_POINT('',(37.167412129627,-56.89717106024,3.));
#653 = LINE('',#654,#655);
#654 = CARTESIAN_POINT('',(17.24519886178,-45.98637540406,3.));
#655 = VECTOR('',#656,1.);
#656 = DIRECTION('',(0.877077493908,-0.48034890411,0.));
#657 = ORIENTED_EDGE('',*,*,#658,.T.);
#658 = EDGE_CURVE('',#651,#659,#661,.T.);
#659 = VERTEX_POINT('',#660);
#660 = CARTESIAN_POINT('',(52.50098980668,-38.12149768517,3.));
#661 = LINE('',#662,#663);
#662 = CARTESIAN_POINT('',(37.167412129627,-56.89717106024,3.));
#663 = VECTOR('',#664,1.);
#664 = DIRECTION('',(0.632537319932,0.774529882505,0.));
#665 = ORIENTED_EDGE('',*,*,#666,.T.);
#666 = EDGE_CURVE('',#659,#667,#669,.T.);
#667 = VERTEX_POINT('',#668);
#668 = CARTESIAN_POINT('',(53.032501959448,-33.18178307025,3.));
#669 = LINE('',#670,#671);
#670 = CARTESIAN_POINT('',(52.50098980668,-38.12149768517,3.));
#671 = VECTOR('',#672,1.);
#672 = DIRECTION('',(0.106982246756,0.994260930983,0.));
#673 = ORIENTED_EDGE('',*,*,#674,.T.);
#674 = EDGE_CURVE('',#667,#675,#677,.T.);
#675 = VERTEX_POINT('',#676);
#676 = CARTESIAN_POINT('',(64.216408080953,-15.00078811631,3.));
#677 = LINE('',#678,#679);
#678 = CARTESIAN_POINT('',(53.032501959448,-33.18178307025,3.));
#679 = VECTOR('',#680,1.);
#680 = DIRECTION('',(0.52394795703,0.851750279321,0.));
#681 = ORIENTED_EDGE('',*,*,#682,.T.);
#682 = EDGE_CURVE('',#675,#683,#685,.T.);
#683 = VERTEX_POINT('',#684);
#684 = CARTESIAN_POINT('',(52.75105328756,-4.170959716841,3.));
#685 = LINE('',#686,#687);
#686 = CARTESIAN_POINT('',(64.216408080953,-15.00078811631,3.));
#687 = VECTOR('',#688,1.);
#688 = DIRECTION('',(-0.726967644256,0.686671715017,0.));
#689 = ORIENTED_EDGE('',*,*,#690,.T.);
#690 = EDGE_CURVE('',#683,#691,#693,.T.);
#691 = VERTEX_POINT('',#692);
#692 = CARTESIAN_POINT('',(51.505615884171,3.917575356603,3.));
#693 = LINE('',#694,#695);
#694 = CARTESIAN_POINT('',(52.75105328756,-4.170959716841,3.));
#695 = VECTOR('',#696,1.);
#696 = DIRECTION('',(-0.152182206598,0.988352455349,0.));
#697 = ORIENTED_EDGE('',*,*,#698,.T.);
#698 = EDGE_CURVE('',#691,#699,#701,.T.);
#699 = VERTEX_POINT('',#700);
#700 = CARTESIAN_POINT('',(55.656641738095,18.986154278477,3.));
#701 = LINE('',#702,#703);
#702 = CARTESIAN_POINT('',(51.505615884171,3.917575356603,3.));
#703 = VECTOR('',#704,1.);
#704 = DIRECTION('',(0.265582741806,0.964088070279,0.));
#705 = ORIENTED_EDGE('',*,*,#706,.T.);
#706 = EDGE_CURVE('',#699,#707,#709,.T.);
#707 = VERTEX_POINT('',#708);
#708 = CARTESIAN_POINT('',(56.00967094243,25.444449255295,3.));
#709 = LINE('',#710,#711);
#710 = CARTESIAN_POINT('',(55.656641738095,18.986154278477,3.));
#711 = VECTOR('',#712,1.);
#712 = DIRECTION('',(5.458142637427E-02,0.998509322888,0.));
#713 = ORIENTED_EDGE('',*,*,#714,.T.);
#714 = EDGE_CURVE('',#707,#715,#717,.T.);
#715 = VERTEX_POINT('',#716);
#716 = CARTESIAN_POINT('',(56.013037621395,45.395075400138,3.));
#717 = LINE('',#718,#719);
#718 = CARTESIAN_POINT('',(56.00967094243,25.444449255295,3.));
#719 = VECTOR('',#720,1.);
#720 = DIRECTION('',(1.687505390868E-04,0.999999985762,0.));
#721 = ORIENTED_EDGE('',*,*,#722,.T.);
#722 = EDGE_CURVE('',#715,#723,#725,.T.);
#723 = VERTEX_POINT('',#724);
#724 = CARTESIAN_POINT('',(55.662183570806,51.82653904559,3.));
#725 = LINE('',#726,#727);
#726 = CARTESIAN_POINT('',(56.013037621395,45.395075400138,3.));
#727 = VECTOR('',#728,1.);
#728 = DIRECTION('',(-5.447175960965E-02,0.998515311553,0.));
#729 = ORIENTED_EDGE('',*,*,#730,.T.);
#730 = EDGE_CURVE('',#723,#731,#733,.T.);
#731 = VERTEX_POINT('',#732);
#732 = CARTESIAN_POINT('',(53.523632607508,71.01572068686,3.));
#733 = LINE('',#734,#735);
#734 = CARTESIAN_POINT('',(55.662183570806,51.82653904559,3.));
#735 = VECTOR('',#736,1.);
#736 = DIRECTION('',(-0.11075995322,0.993847187833,0.));
#737 = ORIENTED_EDGE('',*,*,#738,.T.);
#738 = EDGE_CURVE('',#731,#739,#741,.T.);
#739 = VERTEX_POINT('',#740);
#740 = CARTESIAN_POINT('',(52.492805425728,76.982059382003,3.));
#741 = LINE('',#742,#743);
#742 = CARTESIAN_POINT('',(53.523632607508,71.01572068686,3.));
#743 = VECTOR('',#744,1.);
#744 = DIRECTION('',(-0.170251443875,0.985400652455,0.));
#745 = ORIENTED_EDGE('',*,*,#746,.T.);
#746 = EDGE_CURVE('',#739,#747,#749,.T.);
#747 = VERTEX_POINT('',#748);
#748 = CARTESIAN_POINT('',(45.412285492779,97.937884527188,3.));
#749 = LINE('',#750,#751);
#750 = CARTESIAN_POINT('',(52.492805425728,76.982059382003,3.));
#751 = VECTOR('',#752,1.);
#752 = DIRECTION('',(-0.320100427129,0.947383616362,0.));
#753 = ORIENTED_EDGE('',*,*,#754,.T.);
#754 = EDGE_CURVE('',#747,#755,#757,.T.);
#755 = VERTEX_POINT('',#756);
#756 = CARTESIAN_POINT('',(23.46248001185,100.03746233017,3.));
#757 = LINE('',#758,#759);
#758 = CARTESIAN_POINT('',(45.412285492779,97.937884527188,3.));
#759 = VECTOR('',#760,1.);
#760 = DIRECTION('',(-0.995456350685,9.52189785715E-02,0.));
#761 = ORIENTED_EDGE('',*,*,#762,.T.);
#762 = EDGE_CURVE('',#755,#763,#765,.T.);
#763 = VERTEX_POINT('',#764);
#764 = CARTESIAN_POINT('',(20.541969641929,100.05854787071,3.));
#765 = LINE('',#766,#767);
#766 = CARTESIAN_POINT('',(23.46248001185,100.03746233017,3.));
#767 = VECTOR('',#768,1.);
#768 = DIRECTION('',(-0.999973938165,7.219625456308E-03,0.));
#769 = ORIENTED_EDGE('',*,*,#770,.T.);
#770 = EDGE_CURVE('',#763,#771,#773,.T.);
#771 = VERTEX_POINT('',#772);
#772 = CARTESIAN_POINT('',(3.708916324367,100.14960323875,3.));
#773 = LINE('',#774,#775);
#774 = CARTESIAN_POINT('',(20.541969641929,100.05854787071,3.));
#775 = VECTOR('',#776,1.);
#776 = DIRECTION('',(-0.999985369951,5.409240627811E-03,0.));
#777 = ORIENTED_EDGE('',*,*,#778,.T.);
#778 = EDGE_CURVE('',#771,#779,#781,.T.);
#779 = VERTEX_POINT('',#780);
#780 = CARTESIAN_POINT('',(1.738420937725,103.03127756283,3.));
#781 = LINE('',#782,#783);
#782 = CARTESIAN_POINT('',(3.708916324367,100.14960323875,3.));
#783 = VECTOR('',#784,1.);
#784 = DIRECTION('',(-0.56445434032,0.825464292198,0.));
#785 = ORIENTED_EDGE('',*,*,#786,.T.);
#786 = EDGE_CURVE('',#779,#787,#789,.T.);
#787 = VERTEX_POINT('',#788);
#788 = CARTESIAN_POINT('',(-18.86068044071,103.1277292105,3.));
#789 = LINE('',#790,#791);
#790 = CARTESIAN_POINT('',(1.738420937725,103.03127756283,3.));
#791 = VECTOR('',#792,1.);
#792 = DIRECTION('',(-0.999989038106,4.682271745996E-03,0.));
#793 = ORIENTED_EDGE('',*,*,#794,.T.);
#794 = EDGE_CURVE('',#787,#795,#797,.T.);
#795 = VERTEX_POINT('',#796);
#796 = CARTESIAN_POINT('',(-21.23202920156,100.26638480345,3.));
#797 = LINE('',#798,#799);
#798 = CARTESIAN_POINT('',(-18.86068044071,103.1277292105,3.));
#799 = VECTOR('',#800,1.);
#800 = DIRECTION('',(-0.63810091341,-0.769952741605,0.));
#801 = ORIENTED_EDGE('',*,*,#802,.T.);
#802 = EDGE_CURVE('',#795,#803,#805,.T.);
#803 = VERTEX_POINT('',#804);
#804 = CARTESIAN_POINT('',(-45.36474981215,99.671799487344,3.));
#805 = LINE('',#806,#807);
#806 = CARTESIAN_POINT('',(-21.23202920156,100.26638480345,3.));
#807 = VECTOR('',#808,1.);
#808 = DIRECTION('',(-0.999696619178,-2.463066389884E-02,0.));
#809 = ORIENTED_EDGE('',*,*,#810,.T.);
#810 = EDGE_CURVE('',#803,#811,#813,.T.);
#811 = VERTEX_POINT('',#812);
#812 = CARTESIAN_POINT('',(-45.58163365395,92.654081702323,3.));
#813 = LINE('',#814,#815);
#814 = CARTESIAN_POINT('',(-45.36474981215,99.671799487344,3.));
#815 = VECTOR('',#816,1.);
#816 = DIRECTION('',(-3.089043281877E-02,-0.999522776709,0.));
#817 = ORIENTED_EDGE('',*,*,#818,.T.);
#818 = EDGE_CURVE('',#811,#819,#821,.T.);
#819 = VERTEX_POINT('',#820);
#820 = CARTESIAN_POINT('',(-60.79660364376,93.268957050612,3.));
#821 = LINE('',#822,#823);
#822 = CARTESIAN_POINT('',(-45.58163365395,92.654081702323,3.));
#823 = VECTOR('',#824,1.);
#824 = DIRECTION('',(-0.99918441279,4.037956461499E-02,0.));
#825 = ORIENTED_EDGE('',*,*,#826,.T.);
#826 = EDGE_CURVE('',#819,#827,#829,.T.);
#827 = VERTEX_POINT('',#828);
#828 = CARTESIAN_POINT('',(-63.42148462742,93.271001034143,3.));
#829 = LINE('',#830,#831);
#830 = CARTESIAN_POINT('',(-60.79660364376,93.268957050612,3.));
#831 = VECTOR('',#832,1.);
#832 = DIRECTION('',(-0.999999696817,7.786954623876E-04,0.));
#833 = ORIENTED_EDGE('',*,*,#834,.T.);
#834 = EDGE_CURVE('',#827,#64,#835,.T.);
#835 = LINE('',#836,#837);
#836 = CARTESIAN_POINT('',(-63.42148462742,93.271001034143,3.));
#837 = VECTOR('',#838,1.);
#838 = DIRECTION('',(-0.996702274255,-8.114540341603E-02,0.));
#839 = ORIENTED_EDGE('',*,*,#78,.T.);
#840 = FACE_BOUND('',#841,.T.);
#841 = EDGE_LOOP('',(#842));
#842 = ORIENTED_EDGE('',*,*,#843,.T.);
#843 = EDGE_CURVE('',#844,#844,#846,.T.);
#844 = VERTEX_POINT('',#845);
#845 = CARTESIAN_POINT('',(-75.40138861974,-4.75166172086,3.));
#846 = CIRCLE('',#847,1.7);
#847 = AXIS2_PLACEMENT_3D('',#848,#849,#850);
#848 = CARTESIAN_POINT('',(-73.70138861974,-4.75166172086,3.));
#849 = DIRECTION('',(0.,0.,-1.));
#850 = DIRECTION('',(-1.,0.,0.));
#851 = FACE_BOUND('',#852,.T.);
#852 = EDGE_LOOP('',(#853));
#853 = ORIENTED_EDGE('',*,*,#854,.T.);
#854 = EDGE_CURVE('',#855,#855,#857,.T.);
#855 = VERTEX_POINT('',#856);
#856 = CARTESIAN_POINT('',(-13.21803738572,-16.62038451986,3.));
#857 = CIRCLE('',#858,1.7);
#858 = AXIS2_PLACEMENT_3D('',#859,#860,#861);
#859 = CARTESIAN_POINT('',(-11.51803738572,-16.62038451986,3.));
#860 = DIRECTION('',(0.,0.,-1.));
#861 = DIRECTION('',(-1.,0.,0.));
#862 = FACE_BOUND('',#863,.T.);
#863 = EDGE_LOOP('',(#864));
#864 = ORIENTED_EDGE('',*,*,#865,.T.);
#865 = EDGE_CURVE('',#866,#866,#868,.T.);
#866 = VERTEX_POINT('',#867);
#867 = CARTESIAN_POINT('',(42.837388351725,-33.4582886089,3.));
#868 = CIRCLE('',#869,1.7);
#869 = AXIS2_PLACEMENT_3D('',#870,#871,#872);
#870 = CARTESIAN_POINT('',(44.537388351725,-33.4582886089,3.));
#871 = DIRECTION('',(0.,0.,-1.));
#872 = DIRECTION('',(-1.,0.,0.));
#873 = FACE_BOUND('',#874,.T.);
#874 = EDGE_LOOP('',(#875));
#875 = ORIENTED_EDGE('',*,*,#876,.T.);
#876 = EDGE_CURVE('',#877,#877,#879,.T.);
#877 = VERTEX_POINT('',#878);
#878 = CARTESIAN_POINT('',(45.984053496371,22.559164116739,3.));
#879 = CIRCLE('',#880,1.7);
#880 = AXIS2_PLACEMENT_3D('',#881,#882,#883);
#881 = CARTESIAN_POINT('',(47.684053496371,22.559164116739,3.));
#882 = DIRECTION('',(0.,0.,-1.));
#883 = DIRECTION('',(-1.,0.,0.));
#884 = FACE_BOUND('',#885,.T.);
#885 = EDGE_LOOP('',(#886));
#886 = ORIENTED_EDGE('',*,*,#887,.T.);
#887 = EDGE_CURVE('',#888,#888,#890,.T.);
#888 = VERTEX_POINT('',#889);
#889 = CARTESIAN_POINT('',(-82.93837446358,54.853895526734,3.));
#890 = CIRCLE('',#891,1.7);
#891 = AXIS2_PLACEMENT_3D('',#892,#893,#894);
#892 = CARTESIAN_POINT('',(-81.23837446358,54.853895526734,3.));
#893 = DIRECTION('',(0.,0.,-1.));
#894 = DIRECTION('',(-1.,0.,0.));
#895 = FACE_BOUND('',#896,.T.);
#896 = EDGE_LOOP('',(#897));
#897 = ORIENTED_EDGE('',*,*,#898,.T.);
#898 = EDGE_CURVE('',#899,#899,#901,.T.);
#899 = VERTEX_POINT('',#900);
#900 = CARTESIAN_POINT('',(-53.99040594039,85.007880863003,3.));
#901 = CIRCLE('',#902,1.7);
#902 = AXIS2_PLACEMENT_3D('',#903,#904,#905);
#903 = CARTESIAN_POINT('',(-52.29040594039,85.007880863003,3.));
#904 = DIRECTION('',(0.,0.,-1.));
#905 = DIRECTION('',(-1.,0.,0.));
#906 = FACE_BOUND('',#907,.T.);
#907 = EDGE_LOOP('',(#908));
#908 = ORIENTED_EDGE('',*,*,#909,.T.);
#909 = EDGE_CURVE('',#910,#910,#912,.T.);
#910 = VERTEX_POINT('',#911);
#911 = CARTESIAN_POINT('',(-18.02597328653,95.013083618946,3.));
#912 = CIRCLE('',#913,1.7);
#913 = AXIS2_PLACEMENT_3D('',#914,#915,#916);
#914 = CARTESIAN_POINT('',(-16.32597328653,95.013083618946,3.));
#915 = DIRECTION('',(0.,0.,-1.));
#916 = DIRECTION('',(-1.,0.,0.));
#917 = FACE_BOUND('',#918,.T.);
#918 = EDGE_LOOP('',(#919));
#919 = ORIENTED_EDGE('',*,*,#920,.T.);
#920 = EDGE_CURVE('',#921,#921,#923,.T.);
#921 = VERTEX_POINT('',#922);
#922 = CARTESIAN_POINT('',(39.999083441775,84.531427981148,3.));
#923 = CIRCLE('',#924,1.7);
#924 = AXIS2_PLACEMENT_3D('',#925,#926,#927);
#925 = CARTESIAN_POINT('',(41.699083441775,84.531427981148,3.));
#926 = DIRECTION('',(0.,0.,-1.));
#927 = DIRECTION('',(-1.,0.,0.));
#928 = PLANE('',#929);
#929 = AXIS2_PLACEMENT_3D('',#930,#931,#932);
#930 = CARTESIAN_POINT('',(-11.76097075972,29.171150871107,3.));
#931 = DIRECTION('',(0.,0.,-1.));
#932 = DIRECTION('',(-1.,0.,0.));
#933 = ADVANCED_FACE('',(#934),#945,.F.);
#934 = FACE_BOUND('',#935,.T.);
#935 = EDGE_LOOP('',(#936,#942,#943,#944));
#936 = ORIENTED_EDGE('',*,*,#937,.F.);
#937 = EDGE_CURVE('',#94,#827,#938,.T.);
#938 = LINE('',#939,#940);
#939 = CARTESIAN_POINT('',(-63.42148462742,93.271001034143,3.));
#940 = VECTOR('',#941,1.);
#941 = DIRECTION('',(0.,0.,1.));
#942 = ORIENTED_EDGE('',*,*,#93,.F.);
#943 = ORIENTED_EDGE('',*,*,#61,.T.);
#944 = ORIENTED_EDGE('',*,*,#834,.F.);
#945 = PLANE('',#946);
#946 = AXIS2_PLACEMENT_3D('',#947,#948,#949);
#947 = CARTESIAN_POINT('',(-63.42148462742,93.271001034143,3.));
#948 = DIRECTION('',(8.114540341604E-02,-0.996702274255,0.));
#949 = DIRECTION('',(0.996702274255,8.114540341604E-02,0.));
#950 = ADVANCED_FACE('',(#951),#962,.F.);
#951 = FACE_BOUND('',#952,.T.);
#952 = EDGE_LOOP('',(#953,#959,#960,#961));
#953 = ORIENTED_EDGE('',*,*,#954,.F.);
#954 = EDGE_CURVE('',#102,#819,#955,.T.);
#955 = LINE('',#956,#957);
#956 = CARTESIAN_POINT('',(-60.79660364376,93.268957050612,3.));
#957 = VECTOR('',#958,1.);
#958 = DIRECTION('',(0.,0.,1.));
#959 = ORIENTED_EDGE('',*,*,#101,.F.);
#960 = ORIENTED_EDGE('',*,*,#937,.T.);
#961 = ORIENTED_EDGE('',*,*,#826,.F.);
#962 = PLANE('',#963);
#963 = AXIS2_PLACEMENT_3D('',#964,#965,#966);
#964 = CARTESIAN_POINT('',(-60.79660364376,93.268957050612,3.));
#965 = DIRECTION('',(-7.786954625275E-04,-0.999999696817,0.));
#966 = DIRECTION('',(0.999999696817,-7.786954625275E-04,0.));
#967 = ADVANCED_FACE('',(#968),#979,.F.);
#968 = FACE_BOUND('',#969,.T.);
#969 = EDGE_LOOP('',(#970,#971,#972,#978));
#970 = ORIENTED_EDGE('',*,*,#530,.F.);
#971 = ORIENTED_EDGE('',*,*,#373,.F.);
#972 = ORIENTED_EDGE('',*,*,#973,.T.);
#973 = EDGE_CURVE('',#366,#555,#974,.T.);
#974 = LINE('',#975,#976);
#975 = CARTESIAN_POINT('',(-89.32156254748,38.807710755652,3.));
#976 = VECTOR('',#977,1.);
#977 = DIRECTION('',(0.,0.,1.));
#978 = ORIENTED_EDGE('',*,*,#554,.F.);
#979 = PLANE('',#980);
#980 = AXIS2_PLACEMENT_3D('',#981,#982,#983);
#981 = CARTESIAN_POINT('',(-89.4601199764,45.285956829922,3.));
#982 = DIRECTION('',(0.999771352854,2.138321801359E-02,0.));
#983 = DIRECTION('',(-2.138321801359E-02,0.999771352854,0.));
#984 = ADVANCED_FACE('',(#985),#996,.F.);
#985 = FACE_BOUND('',#986,.T.);
#986 = EDGE_LOOP('',(#987,#993,#994,#995));
#987 = ORIENTED_EDGE('',*,*,#988,.F.);
#988 = EDGE_CURVE('',#110,#811,#989,.T.);
#989 = LINE('',#990,#991);
#990 = CARTESIAN_POINT('',(-45.58163365395,92.654081702323,3.));
#991 = VECTOR('',#992,1.);
#992 = DIRECTION('',(0.,0.,1.));
#993 = ORIENTED_EDGE('',*,*,#109,.F.);
#994 = ORIENTED_EDGE('',*,*,#954,.T.);
#995 = ORIENTED_EDGE('',*,*,#818,.F.);
#996 = PLANE('',#997);
#997 = AXIS2_PLACEMENT_3D('',#998,#999,#1000);
#998 = CARTESIAN_POINT('',(-45.58163365395,92.654081702323,3.));
#999 = DIRECTION('',(-4.037956461493E-02,-0.99918441279,0.));
#1000 = DIRECTION('',(0.99918441279,-4.037956461493E-02,0.));
#1001 = ADVANCED_FACE('',(#1002),#1013,.F.);
#1002 = FACE_BOUND('',#1003,.T.);
#1003 = EDGE_LOOP('',(#1004,#1005,#1006,#1012));
#1004 = ORIENTED_EDGE('',*,*,#973,.F.);
#1005 = ORIENTED_EDGE('',*,*,#365,.F.);
#1006 = ORIENTED_EDGE('',*,*,#1007,.T.);
#1007 = EDGE_CURVE('',#358,#563,#1008,.T.);
#1008 = LINE('',#1009,#1010);
#1009 = CARTESIAN_POINT('',(-89.23707542718,18.949699753516,3.));
#1010 = VECTOR('',#1011,1.);
#1011 = DIRECTION('',(0.,0.,1.));
#1012 = ORIENTED_EDGE('',*,*,#562,.F.);
#1013 = PLANE('',#1014);
#1014 = AXIS2_PLACEMENT_3D('',#1015,#1016,#1017);
#1015 = CARTESIAN_POINT('',(-89.32156254748,38.807710755652,3.));
#1016 = DIRECTION('',(0.999990949478,4.254522552138E-03,0.));
#1017 = DIRECTION('',(-4.254522552138E-03,0.999990949478,0.));
#1018 = ADVANCED_FACE('',(#1019),#1030,.F.);
#1019 = FACE_BOUND('',#1020,.T.);
#1020 = EDGE_LOOP('',(#1021,#1027,#1028,#1029));
#1021 = ORIENTED_EDGE('',*,*,#1022,.F.);
#1022 = EDGE_CURVE('',#118,#803,#1023,.T.);
#1023 = LINE('',#1024,#1025);
#1024 = CARTESIAN_POINT('',(-45.36474981215,99.671799487344,3.));
#1025 = VECTOR('',#1026,1.);
#1026 = DIRECTION('',(0.,0.,1.));
#1027 = ORIENTED_EDGE('',*,*,#117,.F.);
#1028 = ORIENTED_EDGE('',*,*,#988,.T.);
#1029 = ORIENTED_EDGE('',*,*,#810,.F.);
#1030 = PLANE('',#1031);
#1031 = AXIS2_PLACEMENT_3D('',#1032,#1033,#1034);
#1032 = CARTESIAN_POINT('',(-45.36474981215,99.671799487344,3.));
#1033 = DIRECTION('',(0.999522776709,-3.08904328184E-02,0.));
#1034 = DIRECTION('',(3.08904328184E-02,0.999522776709,0.));
#1035 = ADVANCED_FACE('',(#1036),#1047,.F.);
#1036 = FACE_BOUND('',#1037,.T.);
#1037 = EDGE_LOOP('',(#1038,#1039,#1040,#1046));
#1038 = ORIENTED_EDGE('',*,*,#1007,.F.);
#1039 = ORIENTED_EDGE('',*,*,#357,.F.);
#1040 = ORIENTED_EDGE('',*,*,#1041,.T.);
#1041 = EDGE_CURVE('',#350,#571,#1042,.T.);
#1042 = LINE('',#1043,#1044);
#1043 = CARTESIAN_POINT('',(-89.41645195509,12.480552712793,3.));
#1044 = VECTOR('',#1045,1.);
#1045 = DIRECTION('',(0.,0.,1.));
#1046 = ORIENTED_EDGE('',*,*,#570,.F.);
#1047 = PLANE('',#1048);
#1048 = AXIS2_PLACEMENT_3D('',#1049,#1050,#1051);
#1049 = CARTESIAN_POINT('',(-89.23707542718,18.949699753516,3.));
#1050 = DIRECTION('',(0.999615800455,-2.771734981446E-02,0.));
#1051 = DIRECTION('',(2.771734981446E-02,0.999615800455,0.));
#1052 = ADVANCED_FACE('',(#1053),#1064,.F.);
#1053 = FACE_BOUND('',#1054,.T.);
#1054 = EDGE_LOOP('',(#1055,#1061,#1062,#1063));
#1055 = ORIENTED_EDGE('',*,*,#1056,.F.);
#1056 = EDGE_CURVE('',#126,#795,#1057,.T.);
#1057 = LINE('',#1058,#1059);
#1058 = CARTESIAN_POINT('',(-21.23202920156,100.26638480345,3.));
#1059 = VECTOR('',#1060,1.);
#1060 = DIRECTION('',(0.,0.,1.));
#1061 = ORIENTED_EDGE('',*,*,#125,.F.);
#1062 = ORIENTED_EDGE('',*,*,#1022,.T.);
#1063 = ORIENTED_EDGE('',*,*,#802,.F.);
#1064 = PLANE('',#1065);
#1065 = AXIS2_PLACEMENT_3D('',#1066,#1067,#1068);
#1066 = CARTESIAN_POINT('',(-21.23202920156,100.26638480345,3.));
#1067 = DIRECTION('',(2.463066389908E-02,-0.999696619178,0.));
#1068 = DIRECTION('',(0.999696619178,2.463066389908E-02,0.));
#1069 = ADVANCED_FACE('',(#1070),#1081,.F.);
#1070 = FACE_BOUND('',#1071,.T.);
#1071 = EDGE_LOOP('',(#1072,#1073,#1074,#1080));
#1072 = ORIENTED_EDGE('',*,*,#1041,.F.);
#1073 = ORIENTED_EDGE('',*,*,#349,.F.);
#1074 = ORIENTED_EDGE('',*,*,#1075,.T.);
#1075 = EDGE_CURVE('',#342,#579,#1076,.T.);
#1076 = LINE('',#1077,#1078);
#1077 = CARTESIAN_POINT('',(-87.17458803621,-11.22378316333,3.));
#1078 = VECTOR('',#1079,1.);
#1079 = DIRECTION('',(0.,0.,1.));
#1080 = ORIENTED_EDGE('',*,*,#578,.F.);
#1081 = PLANE('',#1082);
#1082 = AXIS2_PLACEMENT_3D('',#1083,#1084,#1085);
#1083 = CARTESIAN_POINT('',(-89.41645195509,12.480552712793,3.));
#1084 = DIRECTION('',(0.99555746012,9.415595360627E-02,0.));
#1085 = DIRECTION('',(-9.415595360627E-02,0.99555746012,0.));
#1086 = ADVANCED_FACE('',(#1087),#1098,.F.);
#1087 = FACE_BOUND('',#1088,.T.);
#1088 = EDGE_LOOP('',(#1089,#1095,#1096,#1097));
#1089 = ORIENTED_EDGE('',*,*,#1090,.F.);
#1090 = EDGE_CURVE('',#134,#787,#1091,.T.);
#1091 = LINE('',#1092,#1093);
#1092 = CARTESIAN_POINT('',(-18.86068044071,103.1277292105,3.));
#1093 = VECTOR('',#1094,1.);
#1094 = DIRECTION('',(0.,0.,1.));
#1095 = ORIENTED_EDGE('',*,*,#133,.F.);
#1096 = ORIENTED_EDGE('',*,*,#1056,.T.);
#1097 = ORIENTED_EDGE('',*,*,#794,.F.);
#1098 = PLANE('',#1099);
#1099 = AXIS2_PLACEMENT_3D('',#1100,#1101,#1102);
#1100 = CARTESIAN_POINT('',(-18.86068044071,103.1277292105,3.));
#1101 = DIRECTION('',(0.769952741604,-0.638100913412,0.));
#1102 = DIRECTION('',(0.638100913412,0.769952741604,0.));
#1103 = ADVANCED_FACE('',(#1104),#1115,.F.);
#1104 = FACE_BOUND('',#1105,.T.);
#1105 = EDGE_LOOP('',(#1106,#1107,#1108,#1114));
#1106 = ORIENTED_EDGE('',*,*,#1075,.F.);
#1107 = ORIENTED_EDGE('',*,*,#341,.F.);
#1108 = ORIENTED_EDGE('',*,*,#1109,.T.);
#1109 = EDGE_CURVE('',#334,#587,#1110,.T.);
#1110 = LINE('',#1111,#1112);
#1111 = CARTESIAN_POINT('',(-63.4889197987,-13.4004982779,3.));
#1112 = VECTOR('',#1113,1.);
#1113 = DIRECTION('',(0.,0.,1.));
#1114 = ORIENTED_EDGE('',*,*,#586,.F.);
#1115 = PLANE('',#1116);
#1116 = AXIS2_PLACEMENT_3D('',#1117,#1118,#1119);
#1117 = CARTESIAN_POINT('',(-87.17458803621,-11.22378316333,3.));
#1118 = DIRECTION('',(9.151445706595E-02,0.995803747808,0.));
#1119 = DIRECTION('',(-0.995803747808,9.151445706595E-02,0.));
#1120 = ADVANCED_FACE('',(#1121),#1132,.F.);
#1121 = FACE_BOUND('',#1122,.T.);
#1122 = EDGE_LOOP('',(#1123,#1129,#1130,#1131));
#1123 = ORIENTED_EDGE('',*,*,#1124,.F.);
#1124 = EDGE_CURVE('',#142,#779,#1125,.T.);
#1125 = LINE('',#1126,#1127);
#1126 = CARTESIAN_POINT('',(1.738420937725,103.03127756283,3.));
#1127 = VECTOR('',#1128,1.);
#1128 = DIRECTION('',(0.,0.,1.));
#1129 = ORIENTED_EDGE('',*,*,#141,.F.);
#1130 = ORIENTED_EDGE('',*,*,#1090,.T.);
#1131 = ORIENTED_EDGE('',*,*,#786,.F.);
#1132 = PLANE('',#1133);
#1133 = AXIS2_PLACEMENT_3D('',#1134,#1135,#1136);
#1134 = CARTESIAN_POINT('',(1.738420937725,103.03127756283,3.));
#1135 = DIRECTION('',(-4.682271746048E-03,-0.999989038106,0.));
#1136 = DIRECTION('',(0.999989038106,-4.682271746048E-03,0.));
#1137 = ADVANCED_FACE('',(#1138),#1149,.F.);
#1138 = FACE_BOUND('',#1139,.T.);
#1139 = EDGE_LOOP('',(#1140,#1141,#1142,#1148));
#1140 = ORIENTED_EDGE('',*,*,#1109,.F.);
#1141 = ORIENTED_EDGE('',*,*,#333,.F.);
#1142 = ORIENTED_EDGE('',*,*,#1143,.T.);
#1143 = EDGE_CURVE('',#326,#595,#1144,.T.);
#1144 = LINE('',#1145,#1146);
#1145 = CARTESIAN_POINT('',(-59.78227654754,-13.40338462505,3.));
#1146 = VECTOR('',#1147,1.);
#1147 = DIRECTION('',(0.,0.,1.));
#1148 = ORIENTED_EDGE('',*,*,#594,.F.);
#1149 = PLANE('',#1150);
#1150 = AXIS2_PLACEMENT_3D('',#1151,#1152,#1153);
#1151 = CARTESIAN_POINT('',(-63.4889197987,-13.4004982779,3.));
#1152 = DIRECTION('',(7.786954625453E-04,0.999999696817,0.));
#1153 = DIRECTION('',(-0.999999696817,7.786954625453E-04,0.));
#1154 = ADVANCED_FACE('',(#1155),#1166,.F.);
#1155 = FACE_BOUND('',#1156,.T.);
#1156 = EDGE_LOOP('',(#1157,#1163,#1164,#1165));
#1157 = ORIENTED_EDGE('',*,*,#1158,.F.);
#1158 = EDGE_CURVE('',#150,#771,#1159,.T.);
#1159 = LINE('',#1160,#1161);
#1160 = CARTESIAN_POINT('',(3.708916324367,100.14960323875,3.));
#1161 = VECTOR('',#1162,1.);
#1162 = DIRECTION('',(0.,0.,1.));
#1163 = ORIENTED_EDGE('',*,*,#149,.F.);
#1164 = ORIENTED_EDGE('',*,*,#1124,.T.);
#1165 = ORIENTED_EDGE('',*,*,#778,.F.);
#1166 = PLANE('',#1167);
#1167 = AXIS2_PLACEMENT_3D('',#1168,#1169,#1170);
#1168 = CARTESIAN_POINT('',(3.708916324367,100.14960323875,3.));
#1169 = DIRECTION('',(-0.825464292198,-0.56445434032,0.));
#1170 = DIRECTION('',(0.56445434032,-0.825464292198,0.));
#1171 = ADVANCED_FACE('',(#1172),#1183,.F.);
#1172 = FACE_BOUND('',#1173,.T.);
#1173 = EDGE_LOOP('',(#1174,#1175,#1176,#1182));
#1174 = ORIENTED_EDGE('',*,*,#1143,.F.);
#1175 = ORIENTED_EDGE('',*,*,#325,.F.);
#1176 = ORIENTED_EDGE('',*,*,#1177,.T.);
#1177 = EDGE_CURVE('',#318,#603,#1178,.T.);
#1178 = LINE('',#1179,#1180);
#1179 = CARTESIAN_POINT('',(-46.11978948326,-12.60910778187,3.));
#1180 = VECTOR('',#1181,1.);
#1181 = DIRECTION('',(0.,0.,1.));
#1182 = ORIENTED_EDGE('',*,*,#602,.F.);
#1183 = PLANE('',#1184);
#1184 = AXIS2_PLACEMENT_3D('',#1185,#1186,#1187);
#1185 = CARTESIAN_POINT('',(-59.78227654754,-13.40338462505,3.));
#1186 = DIRECTION('',(-5.803760358914E-02,0.998314397657,0.));
#1187 = DIRECTION('',(-0.998314397657,-5.803760358914E-02,0.));
#1188 = ADVANCED_FACE('',(#1189),#1200,.F.);
#1189 = FACE_BOUND('',#1190,.T.);
#1190 = EDGE_LOOP('',(#1191,#1197,#1198,#1199));
#1191 = ORIENTED_EDGE('',*,*,#1192,.F.);
#1192 = EDGE_CURVE('',#158,#763,#1193,.T.);
#1193 = LINE('',#1194,#1195);
#1194 = CARTESIAN_POINT('',(20.541969641929,100.05854787071,3.));
#1195 = VECTOR('',#1196,1.);
#1196 = DIRECTION('',(0.,0.,1.));
#1197 = ORIENTED_EDGE('',*,*,#157,.F.);
#1198 = ORIENTED_EDGE('',*,*,#1158,.T.);
#1199 = ORIENTED_EDGE('',*,*,#770,.F.);
#1200 = PLANE('',#1201);
#1201 = AXIS2_PLACEMENT_3D('',#1202,#1203,#1204);
#1202 = CARTESIAN_POINT('',(20.541969641929,100.05854787071,3.));
#1203 = DIRECTION('',(-5.409240627811E-03,-0.999985369951,0.));
#1204 = DIRECTION('',(0.999985369951,-5.409240627811E-03,0.));
#1205 = ADVANCED_FACE('',(#1206),#1217,.F.);
#1206 = FACE_BOUND('',#1207,.T.);
#1207 = EDGE_LOOP('',(#1208,#1209,#1210,#1216));
#1208 = ORIENTED_EDGE('',*,*,#1177,.F.);
#1209 = ORIENTED_EDGE('',*,*,#317,.F.);
#1210 = ORIENTED_EDGE('',*,*,#1211,.T.);
#1211 = EDGE_CURVE('',#310,#611,#1212,.T.);
#1212 = LINE('',#1213,#1214);
#1213 = CARTESIAN_POINT('',(-43.41892903705,-27.01381154885,3.));
#1214 = VECTOR('',#1215,1.);
#1215 = DIRECTION('',(0.,0.,1.));
#1216 = ORIENTED_EDGE('',*,*,#610,.F.);
#1217 = PLANE('',#1218);
#1218 = AXIS2_PLACEMENT_3D('',#1219,#1220,#1221);
#1219 = CARTESIAN_POINT('',(-46.11978948326,-12.60910778187,3.));
#1220 = DIRECTION('',(0.98287245278,0.184287117203,0.));
#1221 = DIRECTION('',(-0.184287117203,0.98287245278,0.));
#1222 = ADVANCED_FACE('',(#1223),#1234,.F.);
#1223 = FACE_BOUND('',#1224,.T.);
#1224 = EDGE_LOOP('',(#1225,#1231,#1232,#1233));
#1225 = ORIENTED_EDGE('',*,*,#1226,.F.);
#1226 = EDGE_CURVE('',#166,#755,#1227,.T.);
#1227 = LINE('',#1228,#1229);
#1228 = CARTESIAN_POINT('',(23.46248001185,100.03746233017,3.));
#1229 = VECTOR('',#1230,1.);
#1230 = DIRECTION('',(0.,0.,1.));
#1231 = ORIENTED_EDGE('',*,*,#165,.F.);
#1232 = ORIENTED_EDGE('',*,*,#1192,.T.);
#1233 = ORIENTED_EDGE('',*,*,#762,.F.);
#1234 = PLANE('',#1235);
#1235 = AXIS2_PLACEMENT_3D('',#1236,#1237,#1238);
#1236 = CARTESIAN_POINT('',(23.46248001185,100.03746233017,3.));
#1237 = DIRECTION('',(-7.21962545591E-03,-0.999973938165,0.));
#1238 = DIRECTION('',(0.999973938165,-7.21962545591E-03,0.));
#1239 = ADVANCED_FACE('',(#1240),#1251,.F.);
#1240 = FACE_BOUND('',#1241,.T.);
#1241 = EDGE_LOOP('',(#1242,#1243,#1244,#1250));
#1242 = ORIENTED_EDGE('',*,*,#1211,.F.);
#1243 = ORIENTED_EDGE('',*,*,#309,.F.);
#1244 = ORIENTED_EDGE('',*,*,#1245,.T.);
#1245 = EDGE_CURVE('',#302,#619,#1246,.T.);
#1246 = LINE('',#1247,#1248);
#1247 = CARTESIAN_POINT('',(-21.93854614942,-27.27886087769,3.));
#1248 = VECTOR('',#1249,1.);
#1249 = DIRECTION('',(0.,0.,1.));
#1250 = ORIENTED_EDGE('',*,*,#618,.F.);
#1251 = PLANE('',#1252);
#1252 = AXIS2_PLACEMENT_3D('',#1253,#1254,#1255);
#1253 = CARTESIAN_POINT('',(-43.41892903705,-27.01381154885,3.));
#1254 = DIRECTION('',(1.23381950448E-02,0.999923881575,0.));
#1255 = DIRECTION('',(-0.999923881575,1.23381950448E-02,0.));
#1256 = ADVANCED_FACE('',(#1257),#1268,.F.);
#1257 = FACE_BOUND('',#1258,.T.);
#1258 = EDGE_LOOP('',(#1259,#1265,#1266,#1267));
#1259 = ORIENTED_EDGE('',*,*,#1260,.F.);
#1260 = EDGE_CURVE('',#174,#747,#1261,.T.);
#1261 = LINE('',#1262,#1263);
#1262 = CARTESIAN_POINT('',(45.412285492779,97.937884527188,3.));
#1263 = VECTOR('',#1264,1.);
#1264 = DIRECTION('',(0.,0.,1.));
#1265 = ORIENTED_EDGE('',*,*,#173,.F.);
#1266 = ORIENTED_EDGE('',*,*,#1226,.T.);
#1267 = ORIENTED_EDGE('',*,*,#754,.F.);
#1268 = PLANE('',#1269);
#1269 = AXIS2_PLACEMENT_3D('',#1270,#1271,#1272);
#1270 = CARTESIAN_POINT('',(45.412285492779,97.937884527188,3.));
#1271 = DIRECTION('',(-9.521897857168E-02,-0.995456350685,0.));
#1272 = DIRECTION('',(0.995456350685,-9.521897857168E-02,0.));
#1273 = ADVANCED_FACE('',(#1274),#1285,.F.);
#1274 = FACE_BOUND('',#1275,.T.);
#1275 = EDGE_LOOP('',(#1276,#1277,#1278,#1284));
#1276 = ORIENTED_EDGE('',*,*,#1245,.F.);
#1277 = ORIENTED_EDGE('',*,*,#301,.F.);
#1278 = ORIENTED_EDGE('',*,*,#1279,.T.);
#1279 = EDGE_CURVE('',#294,#627,#1280,.T.);
#1280 = LINE('',#1281,#1282);
#1281 = CARTESIAN_POINT('',(-1.863769287397,-21.26685824843,3.));
#1282 = VECTOR('',#1283,1.);
#1283 = DIRECTION('',(0.,0.,1.));
#1284 = ORIENTED_EDGE('',*,*,#626,.F.);
#1285 = PLANE('',#1286);
#1286 = AXIS2_PLACEMENT_3D('',#1287,#1288,#1289);
#1287 = CARTESIAN_POINT('',(-21.93854614942,-27.27886087769,3.));
#1288 = DIRECTION('',(-0.286891213099,0.957963168314,0.));
#1289 = DIRECTION('',(-0.957963168314,-0.286891213099,0.));
#1290 = ADVANCED_FACE('',(#1291),#1302,.F.);
#1291 = FACE_BOUND('',#1292,.T.);
#1292 = EDGE_LOOP('',(#1293,#1299,#1300,#1301));
#1293 = ORIENTED_EDGE('',*,*,#1294,.F.);
#1294 = EDGE_CURVE('',#182,#739,#1295,.T.);
#1295 = LINE('',#1296,#1297);
#1296 = CARTESIAN_POINT('',(52.492805425728,76.982059382003,3.));
#1297 = VECTOR('',#1298,1.);
#1298 = DIRECTION('',(0.,0.,1.));
#1299 = ORIENTED_EDGE('',*,*,#181,.F.);
#1300 = ORIENTED_EDGE('',*,*,#1260,.T.);
#1301 = ORIENTED_EDGE('',*,*,#746,.F.);
#1302 = PLANE('',#1303);
#1303 = AXIS2_PLACEMENT_3D('',#1304,#1305,#1306);
#1304 = CARTESIAN_POINT('',(52.492805425728,76.982059382003,3.));
#1305 = DIRECTION('',(-0.947383616362,-0.320100427129,0.));
#1306 = DIRECTION('',(0.320100427129,-0.947383616362,0.));
#1307 = ADVANCED_FACE('',(#1308),#1319,.F.);
#1308 = FACE_BOUND('',#1309,.T.);
#1309 = EDGE_LOOP('',(#1310,#1311,#1312,#1318));
#1310 = ORIENTED_EDGE('',*,*,#1279,.F.);
#1311 = ORIENTED_EDGE('',*,*,#293,.F.);
#1312 = ORIENTED_EDGE('',*,*,#1313,.T.);
#1313 = EDGE_CURVE('',#286,#635,#1314,.T.);
#1314 = LINE('',#1315,#1316);
#1315 = CARTESIAN_POINT('',(1.549978118131,-38.13915533977,3.));
#1316 = VECTOR('',#1317,1.);
#1317 = DIRECTION('',(0.,0.,1.));
#1318 = ORIENTED_EDGE('',*,*,#634,.F.);
#1319 = PLANE('',#1320);
#1320 = AXIS2_PLACEMENT_3D('',#1321,#1322,#1323);
#1321 = CARTESIAN_POINT('',(-1.863769287397,-21.26685824843,3.));
#1322 = DIRECTION('',(0.980139315537,0.198310166503,0.));
#1323 = DIRECTION('',(-0.198310166503,0.980139315537,0.));
#1324 = ADVANCED_FACE('',(#1325),#1336,.F.);
#1325 = FACE_BOUND('',#1326,.T.);
#1326 = EDGE_LOOP('',(#1327,#1333,#1334,#1335));
#1327 = ORIENTED_EDGE('',*,*,#1328,.F.);
#1328 = EDGE_CURVE('',#190,#731,#1329,.T.);
#1329 = LINE('',#1330,#1331);
#1330 = CARTESIAN_POINT('',(53.523632607508,71.01572068686,3.));
#1331 = VECTOR('',#1332,1.);
#1332 = DIRECTION('',(0.,0.,1.));
#1333 = ORIENTED_EDGE('',*,*,#189,.F.);
#1334 = ORIENTED_EDGE('',*,*,#1294,.T.);
#1335 = ORIENTED_EDGE('',*,*,#738,.F.);
#1336 = PLANE('',#1337);
#1337 = AXIS2_PLACEMENT_3D('',#1338,#1339,#1340);
#1338 = CARTESIAN_POINT('',(53.523632607508,71.01572068686,3.));
#1339 = DIRECTION('',(-0.985400652455,-0.170251443875,0.));
#1340 = DIRECTION('',(0.170251443875,-0.985400652455,0.));
#1341 = ADVANCED_FACE('',(#1342),#1353,.F.);
#1342 = FACE_BOUND('',#1343,.T.);
#1343 = EDGE_LOOP('',(#1344,#1345,#1346,#1352));
#1344 = ORIENTED_EDGE('',*,*,#1313,.F.);
#1345 = ORIENTED_EDGE('',*,*,#285,.F.);
#1346 = ORIENTED_EDGE('',*,*,#1347,.T.);
#1347 = EDGE_CURVE('',#278,#643,#1348,.T.);
#1348 = LINE('',#1349,#1350);
#1349 = CARTESIAN_POINT('',(17.245198861781,-45.98637540406,3.));
#1350 = VECTOR('',#1351,1.);
#1351 = DIRECTION('',(0.,0.,1.));
#1352 = ORIENTED_EDGE('',*,*,#642,.F.);
#1353 = PLANE('',#1354);
#1354 = AXIS2_PLACEMENT_3D('',#1355,#1356,#1357);
#1355 = CARTESIAN_POINT('',(1.549978118131,-38.13915533977,3.));
#1356 = DIRECTION('',(0.447195801197,0.89443608793,0.));
#1357 = DIRECTION('',(-0.89443608793,0.447195801197,0.));
#1358 = ADVANCED_FACE('',(#1359),#1370,.F.);
#1359 = FACE_BOUND('',#1360,.T.);
#1360 = EDGE_LOOP('',(#1361,#1367,#1368,#1369));
#1361 = ORIENTED_EDGE('',*,*,#1362,.F.);
#1362 = EDGE_CURVE('',#198,#723,#1363,.T.);
#1363 = LINE('',#1364,#1365);
#1364 = CARTESIAN_POINT('',(55.662183570806,51.82653904559,3.));
#1365 = VECTOR('',#1366,1.);
#1366 = DIRECTION('',(0.,0.,1.));
#1367 = ORIENTED_EDGE('',*,*,#197,.F.);
#1368 = ORIENTED_EDGE('',*,*,#1328,.T.);
#1369 = ORIENTED_EDGE('',*,*,#730,.F.);
#1370 = PLANE('',#1371);
#1371 = AXIS2_PLACEMENT_3D('',#1372,#1373,#1374);
#1372 = CARTESIAN_POINT('',(55.662183570806,51.82653904559,3.));
#1373 = DIRECTION('',(-0.993847187833,-0.11075995322,0.));
#1374 = DIRECTION('',(0.11075995322,-0.993847187833,0.));
#1375 = ADVANCED_FACE('',(#1376),#1387,.F.);
#1376 = FACE_BOUND('',#1377,.T.);
#1377 = EDGE_LOOP('',(#1378,#1379,#1380,#1386));
#1378 = ORIENTED_EDGE('',*,*,#1347,.F.);
#1379 = ORIENTED_EDGE('',*,*,#277,.F.);
#1380 = ORIENTED_EDGE('',*,*,#1381,.T.);
#1381 = EDGE_CURVE('',#270,#651,#1382,.T.);
#1382 = LINE('',#1383,#1384);
#1383 = CARTESIAN_POINT('',(37.167412129627,-56.89717106024,3.));
#1384 = VECTOR('',#1385,1.);
#1385 = DIRECTION('',(0.,0.,1.));
#1386 = ORIENTED_EDGE('',*,*,#650,.F.);
#1387 = PLANE('',#1388);
#1388 = AXIS2_PLACEMENT_3D('',#1389,#1390,#1391);
#1389 = CARTESIAN_POINT('',(17.245198861781,-45.98637540406,3.));
#1390 = DIRECTION('',(0.48034890411,0.877077493908,0.));
#1391 = DIRECTION('',(-0.877077493908,0.48034890411,0.));
#1392 = ADVANCED_FACE('',(#1393),#1404,.F.);
#1393 = FACE_BOUND('',#1394,.T.);
#1394 = EDGE_LOOP('',(#1395,#1401,#1402,#1403));
#1395 = ORIENTED_EDGE('',*,*,#1396,.F.);
#1396 = EDGE_CURVE('',#206,#715,#1397,.T.);
#1397 = LINE('',#1398,#1399);
#1398 = CARTESIAN_POINT('',(56.013037621395,45.395075400138,3.));
#1399 = VECTOR('',#1400,1.);
#1400 = DIRECTION('',(0.,0.,1.));
#1401 = ORIENTED_EDGE('',*,*,#205,.F.);
#1402 = ORIENTED_EDGE('',*,*,#1362,.T.);
#1403 = ORIENTED_EDGE('',*,*,#722,.F.);
#1404 = PLANE('',#1405);
#1405 = AXIS2_PLACEMENT_3D('',#1406,#1407,#1408);
#1406 = CARTESIAN_POINT('',(56.013037621395,45.395075400138,3.));
#1407 = DIRECTION('',(-0.998515311553,-5.447175960962E-02,0.));
#1408 = DIRECTION('',(5.447175960962E-02,-0.998515311553,0.));
#1409 = ADVANCED_FACE('',(#1410),#1421,.F.);
#1410 = FACE_BOUND('',#1411,.T.);
#1411 = EDGE_LOOP('',(#1412,#1413,#1414,#1420));
#1412 = ORIENTED_EDGE('',*,*,#1381,.F.);
#1413 = ORIENTED_EDGE('',*,*,#269,.F.);
#1414 = ORIENTED_EDGE('',*,*,#1415,.T.);
#1415 = EDGE_CURVE('',#262,#659,#1416,.T.);
#1416 = LINE('',#1417,#1418);
#1417 = CARTESIAN_POINT('',(52.500989806681,-38.12149768517,3.));
#1418 = VECTOR('',#1419,1.);
#1419 = DIRECTION('',(0.,0.,1.));
#1420 = ORIENTED_EDGE('',*,*,#658,.F.);
#1421 = PLANE('',#1422);
#1422 = AXIS2_PLACEMENT_3D('',#1423,#1424,#1425);
#1423 = CARTESIAN_POINT('',(37.167412129627,-56.89717106024,3.));
#1424 = DIRECTION('',(-0.774529882505,0.632537319932,0.));
#1425 = DIRECTION('',(-0.632537319932,-0.774529882505,0.));
#1426 = ADVANCED_FACE('',(#1427),#1438,.F.);
#1427 = FACE_BOUND('',#1428,.T.);
#1428 = EDGE_LOOP('',(#1429,#1435,#1436,#1437));
#1429 = ORIENTED_EDGE('',*,*,#1430,.F.);
#1430 = EDGE_CURVE('',#214,#707,#1431,.T.);
#1431 = LINE('',#1432,#1433);
#1432 = CARTESIAN_POINT('',(56.00967094243,25.444449255295,3.));
#1433 = VECTOR('',#1434,1.);
#1434 = DIRECTION('',(0.,0.,1.));
#1435 = ORIENTED_EDGE('',*,*,#213,.F.);
#1436 = ORIENTED_EDGE('',*,*,#1396,.T.);
#1437 = ORIENTED_EDGE('',*,*,#714,.F.);
#1438 = PLANE('',#1439);
#1439 = AXIS2_PLACEMENT_3D('',#1440,#1441,#1442);
#1440 = CARTESIAN_POINT('',(56.00967094243,25.444449255295,3.));
#1441 = DIRECTION('',(-0.999999985762,1.687505390661E-04,0.));
#1442 = DIRECTION('',(-1.687505390661E-04,-0.999999985762,0.));
#1443 = ADVANCED_FACE('',(#1444),#1455,.F.);
#1444 = FACE_BOUND('',#1445,.T.);
#1445 = EDGE_LOOP('',(#1446,#1447,#1448,#1454));
#1446 = ORIENTED_EDGE('',*,*,#1415,.F.);
#1447 = ORIENTED_EDGE('',*,*,#261,.F.);
#1448 = ORIENTED_EDGE('',*,*,#1449,.T.);
#1449 = EDGE_CURVE('',#254,#667,#1450,.T.);
#1450 = LINE('',#1451,#1452);
#1451 = CARTESIAN_POINT('',(53.032501959448,-33.18178307025,3.));
#1452 = VECTOR('',#1453,1.);
#1453 = DIRECTION('',(0.,0.,1.));
#1454 = ORIENTED_EDGE('',*,*,#666,.F.);
#1455 = PLANE('',#1456);
#1456 = AXIS2_PLACEMENT_3D('',#1457,#1458,#1459);
#1457 = CARTESIAN_POINT('',(52.500989806681,-38.12149768517,3.));
#1458 = DIRECTION('',(-0.994260930983,0.106982246756,0.));
#1459 = DIRECTION('',(-0.106982246756,-0.994260930983,0.));
#1460 = ADVANCED_FACE('',(#1461),#1472,.F.);
#1461 = FACE_BOUND('',#1462,.T.);
#1462 = EDGE_LOOP('',(#1463,#1469,#1470,#1471));
#1463 = ORIENTED_EDGE('',*,*,#1464,.F.);
#1464 = EDGE_CURVE('',#222,#699,#1465,.T.);
#1465 = LINE('',#1466,#1467);
#1466 = CARTESIAN_POINT('',(55.656641738095,18.986154278477,3.));
#1467 = VECTOR('',#1468,1.);
#1468 = DIRECTION('',(0.,0.,1.));
#1469 = ORIENTED_EDGE('',*,*,#221,.F.);
#1470 = ORIENTED_EDGE('',*,*,#1430,.T.);
#1471 = ORIENTED_EDGE('',*,*,#706,.F.);
#1472 = PLANE('',#1473);
#1473 = AXIS2_PLACEMENT_3D('',#1474,#1475,#1476);
#1474 = CARTESIAN_POINT('',(55.656641738095,18.986154278477,3.));
#1475 = DIRECTION('',(-0.998509322888,5.458142637441E-02,0.));
#1476 = DIRECTION('',(-5.458142637441E-02,-0.998509322888,0.));
#1477 = ADVANCED_FACE('',(#1478),#1489,.F.);
#1478 = FACE_BOUND('',#1479,.T.);
#1479 = EDGE_LOOP('',(#1480,#1481,#1482,#1488));
#1480 = ORIENTED_EDGE('',*,*,#1449,.F.);
#1481 = ORIENTED_EDGE('',*,*,#253,.F.);
#1482 = ORIENTED_EDGE('',*,*,#1483,.T.);
#1483 = EDGE_CURVE('',#246,#675,#1484,.T.);
#1484 = LINE('',#1485,#1486);
#1485 = CARTESIAN_POINT('',(64.216408080953,-15.00078811631,3.));
#1486 = VECTOR('',#1487,1.);
#1487 = DIRECTION('',(0.,0.,1.));
#1488 = ORIENTED_EDGE('',*,*,#674,.F.);
#1489 = PLANE('',#1490);
#1490 = AXIS2_PLACEMENT_3D('',#1491,#1492,#1493);
#1491 = CARTESIAN_POINT('',(53.032501959448,-33.18178307025,3.));
#1492 = DIRECTION('',(-0.851750279321,0.52394795703,0.));
#1493 = DIRECTION('',(-0.52394795703,-0.851750279321,0.));
#1494 = ADVANCED_FACE('',(#1495),#1506,.F.);
#1495 = FACE_BOUND('',#1496,.T.);
#1496 = EDGE_LOOP('',(#1497,#1503,#1504,#1505));
#1497 = ORIENTED_EDGE('',*,*,#1498,.F.);
#1498 = EDGE_CURVE('',#230,#691,#1499,.T.);
#1499 = LINE('',#1500,#1501);
#1500 = CARTESIAN_POINT('',(51.505615884171,3.917575356603,3.));
#1501 = VECTOR('',#1502,1.);
#1502 = DIRECTION('',(0.,0.,1.));
#1503 = ORIENTED_EDGE('',*,*,#229,.F.);
#1504 = ORIENTED_EDGE('',*,*,#1464,.T.);
#1505 = ORIENTED_EDGE('',*,*,#698,.F.);
#1506 = PLANE('',#1507);
#1507 = AXIS2_PLACEMENT_3D('',#1508,#1509,#1510);
#1508 = CARTESIAN_POINT('',(51.505615884171,3.917575356603,3.));
#1509 = DIRECTION('',(-0.964088070279,0.265582741806,0.));
#1510 = DIRECTION('',(-0.265582741806,-0.964088070279,0.));
#1511 = ADVANCED_FACE('',(#1512),#1523,.F.);
#1512 = FACE_BOUND('',#1513,.T.);
#1513 = EDGE_LOOP('',(#1514,#1515,#1516,#1522));
#1514 = ORIENTED_EDGE('',*,*,#1483,.F.);
#1515 = ORIENTED_EDGE('',*,*,#245,.F.);
#1516 = ORIENTED_EDGE('',*,*,#1517,.T.);
#1517 = EDGE_CURVE('',#238,#683,#1518,.T.);
#1518 = LINE('',#1519,#1520);
#1519 = CARTESIAN_POINT('',(52.75105328756,-4.170959716841,3.));
#1520 = VECTOR('',#1521,1.);
#1521 = DIRECTION('',(0.,0.,1.));
#1522 = ORIENTED_EDGE('',*,*,#682,.F.);
#1523 = PLANE('',#1524);
#1524 = AXIS2_PLACEMENT_3D('',#1525,#1526,#1527);
#1525 = CARTESIAN_POINT('',(64.216408080953,-15.00078811631,3.));
#1526 = DIRECTION('',(-0.686671715017,-0.726967644256,0.));
#1527 = DIRECTION('',(0.726967644256,-0.686671715017,0.));
#1528 = ADVANCED_FACE('',(#1529),#1535,.F.);
#1529 = FACE_BOUND('',#1530,.T.);
#1530 = EDGE_LOOP('',(#1531,#1532,#1533,#1534));
#1531 = ORIENTED_EDGE('',*,*,#1517,.F.);
#1532 = ORIENTED_EDGE('',*,*,#237,.F.);
#1533 = ORIENTED_EDGE('',*,*,#1498,.T.);
#1534 = ORIENTED_EDGE('',*,*,#690,.F.);
#1535 = PLANE('',#1536);
#1536 = AXIS2_PLACEMENT_3D('',#1537,#1538,#1539);
#1537 = CARTESIAN_POINT('',(52.75105328756,-4.170959716841,3.));
#1538 = DIRECTION('',(-0.988352455349,-0.152182206598,0.));
#1539 = DIRECTION('',(0.152182206598,-0.988352455349,0.));
#1540 = ADVANCED_FACE('',(#1541),#1559,.F.);
#1541 = FACE_BOUND('',#1542,.F.);
#1542 = EDGE_LOOP('',(#1543,#1544,#1551,#1558));
#1543 = ORIENTED_EDGE('',*,*,#390,.F.);
#1544 = ORIENTED_EDGE('',*,*,#1545,.F.);
#1545 = EDGE_CURVE('',#1546,#391,#1548,.T.);
#1546 = VERTEX_POINT('',#1547);
#1547 = CARTESIAN_POINT('',(42.837388351725,-33.4582886089,1.45));
#1548 = B_SPLINE_CURVE_WITH_KNOTS('',1,(#1549,#1550),.UNSPECIFIED.,.F.,
  .F.,(2,2),(2.041120196288E-15,2.05060966544),
  .PIECEWISE_BEZIER_KNOTS.);
#1549 = CARTESIAN_POINT('',(42.837388351725,-33.4582886089,1.45));
#1550 = CARTESIAN_POINT('',(41.387388351726,-33.4582886089,
    8.881784197001E-16));
#1551 = ORIENTED_EDGE('',*,*,#1552,.T.);
#1552 = EDGE_CURVE('',#1546,#1546,#1553,.T.);
#1553 = CIRCLE('',#1554,1.7);
#1554 = AXIS2_PLACEMENT_3D('',#1555,#1556,#1557);
#1555 = CARTESIAN_POINT('',(44.537388351725,-33.4582886089,1.45));
#1556 = DIRECTION('',(0.,0.,-1.));
#1557 = DIRECTION('',(-1.,0.,0.));
#1558 = ORIENTED_EDGE('',*,*,#1545,.T.);
#1559 = CONICAL_SURFACE('',#1560,1.7,0.785398163397);
#1560 = AXIS2_PLACEMENT_3D('',#1561,#1562,#1563);
#1561 = CARTESIAN_POINT('',(44.537388351725,-33.4582886089,1.45));
#1562 = DIRECTION('',(0.,0.,-1.));
#1563 = DIRECTION('',(-1.,0.,0.));
#1564 = ADVANCED_FACE('',(#1565),#1584,.F.);
#1565 = FACE_BOUND('',#1566,.F.);
#1566 = EDGE_LOOP('',(#1567,#1575,#1582,#1583));
#1567 = ORIENTED_EDGE('',*,*,#1568,.T.);
#1568 = EDGE_CURVE('',#402,#1569,#1571,.T.);
#1569 = VERTEX_POINT('',#1570);
#1570 = CARTESIAN_POINT('',(39.998126074617,-25.07866756041,2.));
#1571 = LINE('',#1572,#1573);
#1572 = CARTESIAN_POINT('',(39.998126074617,-25.07866756041,0.));
#1573 = VECTOR('',#1574,1.);
#1574 = DIRECTION('',(0.,0.,1.));
#1575 = ORIENTED_EDGE('',*,*,#1576,.T.);
#1576 = EDGE_CURVE('',#1569,#1569,#1577,.T.);
#1577 = CIRCLE('',#1578,5.);
#1578 = AXIS2_PLACEMENT_3D('',#1579,#1580,#1581);
#1579 = CARTESIAN_POINT('',(34.998126074617,-25.07866756041,2.));
#1580 = DIRECTION('',(0.,0.,-1.));
#1581 = DIRECTION('',(1.,0.,0.));
#1582 = ORIENTED_EDGE('',*,*,#1568,.F.);
#1583 = ORIENTED_EDGE('',*,*,#401,.F.);
#1584 = CYLINDRICAL_SURFACE('',#1585,5.);
#1585 = AXIS2_PLACEMENT_3D('',#1586,#1587,#1588);
#1586 = CARTESIAN_POINT('',(34.998126074617,-25.07866756041,0.));
#1587 = DIRECTION('',(0.,0.,-1.));
#1588 = DIRECTION('',(1.,0.,0.));
#1589 = ADVANCED_FACE('',(#1590),#1608,.F.);
#1590 = FACE_BOUND('',#1591,.F.);
#1591 = EDGE_LOOP('',(#1592,#1593,#1600,#1607));
#1592 = ORIENTED_EDGE('',*,*,#412,.F.);
#1593 = ORIENTED_EDGE('',*,*,#1594,.F.);
#1594 = EDGE_CURVE('',#1595,#413,#1597,.T.);
#1595 = VERTEX_POINT('',#1596);
#1596 = CARTESIAN_POINT('',(-13.21803738572,-16.62038451986,1.45));
#1597 = B_SPLINE_CURVE_WITH_KNOTS('',1,(#1598,#1599),.UNSPECIFIED.,.F.,
  .F.,(2,2),(-4.710277376049E-16,2.05060966544),
  .PIECEWISE_BEZIER_KNOTS.);
#1598 = CARTESIAN_POINT('',(-13.21803738572,-16.62038451986,1.45));
#1599 = CARTESIAN_POINT('',(-14.66803738571,-16.62038451986,0.));
#1600 = ORIENTED_EDGE('',*,*,#1601,.T.);
#1601 = EDGE_CURVE('',#1595,#1595,#1602,.T.);
#1602 = CIRCLE('',#1603,1.7);
#1603 = AXIS2_PLACEMENT_3D('',#1604,#1605,#1606);
#1604 = CARTESIAN_POINT('',(-11.51803738572,-16.62038451986,1.45));
#1605 = DIRECTION('',(0.,0.,-1.));
#1606 = DIRECTION('',(-1.,0.,0.));
#1607 = ORIENTED_EDGE('',*,*,#1594,.T.);
#1608 = CONICAL_SURFACE('',#1609,1.7,0.785398163397);
#1609 = AXIS2_PLACEMENT_3D('',#1610,#1611,#1612);
#1610 = CARTESIAN_POINT('',(-11.51803738572,-16.62038451986,1.45));
#1611 = DIRECTION('',(0.,0.,-1.));
#1612 = DIRECTION('',(-1.,0.,0.));
#1613 = ADVANCED_FACE('',(#1614),#1632,.F.);
#1614 = FACE_BOUND('',#1615,.F.);
#1615 = EDGE_LOOP('',(#1616,#1617,#1624,#1631));
#1616 = ORIENTED_EDGE('',*,*,#423,.F.);
#1617 = ORIENTED_EDGE('',*,*,#1618,.F.);
#1618 = EDGE_CURVE('',#1619,#424,#1621,.T.);
#1619 = VERTEX_POINT('',#1620);
#1620 = CARTESIAN_POINT('',(45.984053496371,22.559164116739,1.45));
#1621 = B_SPLINE_CURVE_WITH_KNOTS('',1,(#1622,#1623),.UNSPECIFIED.,.F.,
  .F.,(2,2),(2.041120196288E-15,2.05060966544),
  .PIECEWISE_BEZIER_KNOTS.);
#1622 = CARTESIAN_POINT('',(45.984053496371,22.559164116739,1.45));
#1623 = CARTESIAN_POINT('',(44.534053496372,22.559164116739,
    8.881784197001E-16));
#1624 = ORIENTED_EDGE('',*,*,#1625,.T.);
#1625 = EDGE_CURVE('',#1619,#1619,#1626,.T.);
#1626 = CIRCLE('',#1627,1.7);
#1627 = AXIS2_PLACEMENT_3D('',#1628,#1629,#1630);
#1628 = CARTESIAN_POINT('',(47.684053496371,22.559164116739,1.45));
#1629 = DIRECTION('',(0.,0.,-1.));
#1630 = DIRECTION('',(-1.,0.,0.));
#1631 = ORIENTED_EDGE('',*,*,#1618,.T.);
#1632 = CONICAL_SURFACE('',#1633,1.7,0.785398163397);
#1633 = AXIS2_PLACEMENT_3D('',#1634,#1635,#1636);
#1634 = CARTESIAN_POINT('',(47.684053496371,22.559164116739,1.45));
#1635 = DIRECTION('',(0.,0.,-1.));
#1636 = DIRECTION('',(-1.,0.,0.));
#1637 = ADVANCED_FACE('',(#1638),#1656,.F.);
#1638 = FACE_BOUND('',#1639,.F.);
#1639 = EDGE_LOOP('',(#1640,#1641,#1648,#1655));
#1640 = ORIENTED_EDGE('',*,*,#434,.F.);
#1641 = ORIENTED_EDGE('',*,*,#1642,.F.);
#1642 = EDGE_CURVE('',#1643,#435,#1645,.T.);
#1643 = VERTEX_POINT('',#1644);
#1644 = CARTESIAN_POINT('',(-75.40138861974,-4.75166172086,1.45));
#1645 = B_SPLINE_CURVE_WITH_KNOTS('',1,(#1646,#1647),.UNSPECIFIED.,.F.,
  .F.,(2,2),(2.041120196288E-15,2.05060966544),
  .PIECEWISE_BEZIER_KNOTS.);
#1646 = CARTESIAN_POINT('',(-75.40138861974,-4.75166172086,1.45));
#1647 = CARTESIAN_POINT('',(-76.85138861973,-4.75166172086,
    8.881784197001E-16));
#1648 = ORIENTED_EDGE('',*,*,#1649,.T.);
#1649 = EDGE_CURVE('',#1643,#1643,#1650,.T.);
#1650 = CIRCLE('',#1651,1.7);
#1651 = AXIS2_PLACEMENT_3D('',#1652,#1653,#1654);
#1652 = CARTESIAN_POINT('',(-73.70138861974,-4.75166172086,1.45));
#1653 = DIRECTION('',(0.,0.,-1.));
#1654 = DIRECTION('',(-1.,0.,0.));
#1655 = ORIENTED_EDGE('',*,*,#1642,.T.);
#1656 = CONICAL_SURFACE('',#1657,1.7,0.785398163397);
#1657 = AXIS2_PLACEMENT_3D('',#1658,#1659,#1660);
#1658 = CARTESIAN_POINT('',(-73.70138861974,-4.75166172086,1.45));
#1659 = DIRECTION('',(0.,0.,-1.));
#1660 = DIRECTION('',(-1.,0.,0.));
#1661 = ADVANCED_FACE('',(#1662),#1681,.F.);
#1662 = FACE_BOUND('',#1663,.F.);
#1663 = EDGE_LOOP('',(#1664,#1672,#1679,#1680));
#1664 = ORIENTED_EDGE('',*,*,#1665,.T.);
#1665 = EDGE_CURVE('',#446,#1666,#1668,.T.);
#1666 = VERTEX_POINT('',#1667);
#1667 = CARTESIAN_POINT('',(-58.48891979871,12.48055271279,2.));
#1668 = LINE('',#1669,#1670);
#1669 = CARTESIAN_POINT('',(-58.48891979871,12.48055271279,0.));
#1670 = VECTOR('',#1671,1.);
#1671 = DIRECTION('',(0.,0.,1.));
#1672 = ORIENTED_EDGE('',*,*,#1673,.T.);
#1673 = EDGE_CURVE('',#1666,#1666,#1674,.T.);
#1674 = CIRCLE('',#1675,5.);
#1675 = AXIS2_PLACEMENT_3D('',#1676,#1677,#1678);
#1676 = CARTESIAN_POINT('',(-63.48891979871,12.48055271279,2.));
#1677 = DIRECTION('',(0.,0.,-1.));
#1678 = DIRECTION('',(1.,0.,0.));
#1679 = ORIENTED_EDGE('',*,*,#1665,.F.);
#1680 = ORIENTED_EDGE('',*,*,#445,.F.);
#1681 = CYLINDRICAL_SURFACE('',#1682,5.);
#1682 = AXIS2_PLACEMENT_3D('',#1683,#1684,#1685);
#1683 = CARTESIAN_POINT('',(-63.48891979871,12.48055271279,0.));
#1684 = DIRECTION('',(0.,0.,-1.));
#1685 = DIRECTION('',(1.,0.,0.));
#1686 = ADVANCED_FACE('',(#1687),#1705,.F.);
#1687 = FACE_BOUND('',#1688,.F.);
#1688 = EDGE_LOOP('',(#1689,#1690,#1697,#1704));
#1689 = ORIENTED_EDGE('',*,*,#456,.F.);
#1690 = ORIENTED_EDGE('',*,*,#1691,.F.);
#1691 = EDGE_CURVE('',#1692,#457,#1694,.T.);
#1692 = VERTEX_POINT('',#1693);
#1693 = CARTESIAN_POINT('',(39.999083441775,84.531427981148,1.45));
#1694 = B_SPLINE_CURVE_WITH_KNOTS('',1,(#1695,#1696),.UNSPECIFIED.,.F.,
  .F.,(2,2),(2.041120196288E-15,2.05060966544),
  .PIECEWISE_BEZIER_KNOTS.);
#1695 = CARTESIAN_POINT('',(39.999083441775,84.531427981148,1.45));
#1696 = CARTESIAN_POINT('',(38.549083441776,84.531427981148,
    8.881784197001E-16));
#1697 = ORIENTED_EDGE('',*,*,#1698,.T.);
#1698 = EDGE_CURVE('',#1692,#1692,#1699,.T.);
#1699 = CIRCLE('',#1700,1.7);
#1700 = AXIS2_PLACEMENT_3D('',#1701,#1702,#1703);
#1701 = CARTESIAN_POINT('',(41.699083441775,84.531427981148,1.45));
#1702 = DIRECTION('',(0.,0.,-1.));
#1703 = DIRECTION('',(-1.,0.,0.));
#1704 = ORIENTED_EDGE('',*,*,#1691,.T.);
#1705 = CONICAL_SURFACE('',#1706,1.7,0.785398163397);
#1706 = AXIS2_PLACEMENT_3D('',#1707,#1708,#1709);
#1707 = CARTESIAN_POINT('',(41.699083441775,84.531427981148,1.45));
#1708 = DIRECTION('',(0.,0.,-1.));
#1709 = DIRECTION('',(-1.,0.,0.));
#1710 = ADVANCED_FACE('',(#1711),#1730,.F.);
#1711 = FACE_BOUND('',#1712,.F.);
#1712 = EDGE_LOOP('',(#1713,#1721,#1728,#1729));
#1713 = ORIENTED_EDGE('',*,*,#1714,.T.);
#1714 = EDGE_CURVE('',#468,#1715,#1717,.T.);
#1715 = VERTEX_POINT('',#1716);
#1716 = CARTESIAN_POINT('',(28.462480011873,87.459971954551,2.));
#1717 = LINE('',#1718,#1719);
#1718 = CARTESIAN_POINT('',(28.462480011873,87.459971954551,0.));
#1719 = VECTOR('',#1720,1.);
#1720 = DIRECTION('',(0.,0.,1.));
#1721 = ORIENTED_EDGE('',*,*,#1722,.T.);
#1722 = EDGE_CURVE('',#1715,#1715,#1723,.T.);
#1723 = CIRCLE('',#1724,5.);
#1724 = AXIS2_PLACEMENT_3D('',#1725,#1726,#1727);
#1725 = CARTESIAN_POINT('',(23.462480011873,87.459971954551,2.));
#1726 = DIRECTION('',(0.,0.,-1.));
#1727 = DIRECTION('',(1.,0.,0.));
#1728 = ORIENTED_EDGE('',*,*,#1714,.F.);
#1729 = ORIENTED_EDGE('',*,*,#467,.F.);
#1730 = CYLINDRICAL_SURFACE('',#1731,5.);
#1731 = AXIS2_PLACEMENT_3D('',#1732,#1733,#1734);
#1732 = CARTESIAN_POINT('',(23.462480011873,87.459971954551,0.));
#1733 = DIRECTION('',(0.,0.,-1.));
#1734 = DIRECTION('',(1.,0.,0.));
#1735 = ADVANCED_FACE('',(#1736),#1754,.F.);
#1736 = FACE_BOUND('',#1737,.F.);
#1737 = EDGE_LOOP('',(#1738,#1739,#1746,#1753));
#1738 = ORIENTED_EDGE('',*,*,#478,.F.);
#1739 = ORIENTED_EDGE('',*,*,#1740,.F.);
#1740 = EDGE_CURVE('',#1741,#479,#1743,.T.);
#1741 = VERTEX_POINT('',#1742);
#1742 = CARTESIAN_POINT('',(-18.02597328653,95.013083618946,1.45));
#1743 = B_SPLINE_CURVE_WITH_KNOTS('',1,(#1744,#1745),.UNSPECIFIED.,.F.,
  .F.,(2,2),(-4.710277376049E-16,2.05060966544),
  .PIECEWISE_BEZIER_KNOTS.);
#1744 = CARTESIAN_POINT('',(-18.02597328653,95.013083618946,1.45));
#1745 = CARTESIAN_POINT('',(-19.47597328652,95.013083618946,
    8.881784197001E-16));
#1746 = ORIENTED_EDGE('',*,*,#1747,.T.);
#1747 = EDGE_CURVE('',#1741,#1741,#1748,.T.);
#1748 = CIRCLE('',#1749,1.7);
#1749 = AXIS2_PLACEMENT_3D('',#1750,#1751,#1752);
#1750 = CARTESIAN_POINT('',(-16.32597328653,95.013083618946,1.45));
#1751 = DIRECTION('',(0.,0.,-1.));
#1752 = DIRECTION('',(-1.,0.,0.));
#1753 = ORIENTED_EDGE('',*,*,#1740,.T.);
#1754 = CONICAL_SURFACE('',#1755,1.7,0.785398163397);
#1755 = AXIS2_PLACEMENT_3D('',#1756,#1757,#1758);
#1756 = CARTESIAN_POINT('',(-16.32597328653,95.013083618946,1.45));
#1757 = DIRECTION('',(0.,0.,-1.));
#1758 = DIRECTION('',(-1.,0.,0.));
#1759 = ADVANCED_FACE('',(#1760),#1778,.F.);
#1760 = FACE_BOUND('',#1761,.F.);
#1761 = EDGE_LOOP('',(#1762,#1763,#1770,#1777));
#1762 = ORIENTED_EDGE('',*,*,#489,.F.);
#1763 = ORIENTED_EDGE('',*,*,#1764,.F.);
#1764 = EDGE_CURVE('',#1765,#490,#1767,.T.);
#1765 = VERTEX_POINT('',#1766);
#1766 = CARTESIAN_POINT('',(-82.93837446358,54.853895526734,1.45));
#1767 = B_SPLINE_CURVE_WITH_KNOTS('',1,(#1768,#1769),.UNSPECIFIED.,.F.,
  .F.,(2,2),(2.041120196288E-15,2.05060966544),
  .PIECEWISE_BEZIER_KNOTS.);
#1768 = CARTESIAN_POINT('',(-82.93837446358,54.853895526734,1.45));
#1769 = CARTESIAN_POINT('',(-84.38837446357,54.853895526734,
    8.881784197001E-16));
#1770 = ORIENTED_EDGE('',*,*,#1771,.T.);
#1771 = EDGE_CURVE('',#1765,#1765,#1772,.T.);
#1772 = CIRCLE('',#1773,1.7);
#1773 = AXIS2_PLACEMENT_3D('',#1774,#1775,#1776);
#1774 = CARTESIAN_POINT('',(-81.23837446358,54.853895526734,1.45));
#1775 = DIRECTION('',(0.,0.,-1.));
#1776 = DIRECTION('',(-1.,0.,0.));
#1777 = ORIENTED_EDGE('',*,*,#1764,.T.);
#1778 = CONICAL_SURFACE('',#1779,1.7,0.785398163397);
#1779 = AXIS2_PLACEMENT_3D('',#1780,#1781,#1782);
#1780 = CARTESIAN_POINT('',(-81.23837446358,54.853895526734,1.45));
#1781 = DIRECTION('',(0.,0.,-1.));
#1782 = DIRECTION('',(-1.,0.,0.));
#1783 = ADVANCED_FACE('',(#1784),#1803,.F.);
#1784 = FACE_BOUND('',#1785,.F.);
#1785 = EDGE_LOOP('',(#1786,#1794,#1801,#1802));
#1786 = ORIENTED_EDGE('',*,*,#1787,.T.);
#1787 = EDGE_CURVE('',#501,#1788,#1790,.T.);
#1788 = VERTEX_POINT('',#1789);
#1789 = CARTESIAN_POINT('',(-70.23053526798,80.888534908259,2.));
#1790 = LINE('',#1791,#1792);
#1791 = CARTESIAN_POINT('',(-70.23053526798,80.888534908259,0.));
#1792 = VECTOR('',#1793,1.);
#1793 = DIRECTION('',(0.,0.,1.));
#1794 = ORIENTED_EDGE('',*,*,#1795,.T.);
#1795 = EDGE_CURVE('',#1788,#1788,#1796,.T.);
#1796 = CIRCLE('',#1797,5.);
#1797 = AXIS2_PLACEMENT_3D('',#1798,#1799,#1800);
#1798 = CARTESIAN_POINT('',(-75.23053526798,80.888534908259,2.));
#1799 = DIRECTION('',(0.,0.,-1.));
#1800 = DIRECTION('',(1.,0.,0.));
#1801 = ORIENTED_EDGE('',*,*,#1787,.F.);
#1802 = ORIENTED_EDGE('',*,*,#500,.F.);
#1803 = CYLINDRICAL_SURFACE('',#1804,5.);
#1804 = AXIS2_PLACEMENT_3D('',#1805,#1806,#1807);
#1805 = CARTESIAN_POINT('',(-75.23053526798,80.888534908259,0.));
#1806 = DIRECTION('',(0.,0.,-1.));
#1807 = DIRECTION('',(1.,0.,0.));
#1808 = ADVANCED_FACE('',(#1809),#1827,.F.);
#1809 = FACE_BOUND('',#1810,.F.);
#1810 = EDGE_LOOP('',(#1811,#1812,#1819,#1826));
#1811 = ORIENTED_EDGE('',*,*,#511,.F.);
#1812 = ORIENTED_EDGE('',*,*,#1813,.F.);
#1813 = EDGE_CURVE('',#1814,#512,#1816,.T.);
#1814 = VERTEX_POINT('',#1815);
#1815 = CARTESIAN_POINT('',(-53.99040594039,85.007880863003,1.45));
#1816 = B_SPLINE_CURVE_WITH_KNOTS('',1,(#1817,#1818),.UNSPECIFIED.,.F.,
  .F.,(2,2),(2.041120196288E-15,2.05060966544),
  .PIECEWISE_BEZIER_KNOTS.);
#1817 = CARTESIAN_POINT('',(-53.99040594039,85.007880863003,1.45));
#1818 = CARTESIAN_POINT('',(-55.44040594038,85.007880863003,
    8.881784197001E-16));
#1819 = ORIENTED_EDGE('',*,*,#1820,.T.);
#1820 = EDGE_CURVE('',#1814,#1814,#1821,.T.);
#1821 = CIRCLE('',#1822,1.7);
#1822 = AXIS2_PLACEMENT_3D('',#1823,#1824,#1825);
#1823 = CARTESIAN_POINT('',(-52.29040594039,85.007880863003,1.45));
#1824 = DIRECTION('',(0.,0.,-1.));
#1825 = DIRECTION('',(-1.,0.,0.));
#1826 = ORIENTED_EDGE('',*,*,#1813,.T.);
#1827 = CONICAL_SURFACE('',#1828,1.7,0.785398163397);
#1828 = AXIS2_PLACEMENT_3D('',#1829,#1830,#1831);
#1829 = CARTESIAN_POINT('',(-52.29040594039,85.007880863003,1.45));
#1830 = DIRECTION('',(0.,0.,-1.));
#1831 = DIRECTION('',(-1.,0.,0.));
#1832 = ADVANCED_FACE('',(#1833),#1843,.F.);
#1833 = FACE_BOUND('',#1834,.F.);
#1834 = EDGE_LOOP('',(#1835,#1836,#1841,#1842));
#1835 = ORIENTED_EDGE('',*,*,#1649,.F.);
#1836 = ORIENTED_EDGE('',*,*,#1837,.F.);
#1837 = EDGE_CURVE('',#844,#1643,#1838,.T.);
#1838 = B_SPLINE_CURVE_WITH_KNOTS('',1,(#1839,#1840),.UNSPECIFIED.,.F.,
  .F.,(2,2),(1.,2.55),.PIECEWISE_BEZIER_KNOTS.);
#1839 = CARTESIAN_POINT('',(-75.40138861974,-4.75166172086,3.));
#1840 = CARTESIAN_POINT('',(-75.40138861974,-4.75166172086,1.45));
#1841 = ORIENTED_EDGE('',*,*,#843,.T.);
#1842 = ORIENTED_EDGE('',*,*,#1837,.T.);
#1843 = CYLINDRICAL_SURFACE('',#1844,1.7);
#1844 = AXIS2_PLACEMENT_3D('',#1845,#1846,#1847);
#1845 = CARTESIAN_POINT('',(-73.70138861974,-4.75166172086,4.));
#1846 = DIRECTION('',(0.,0.,-1.));
#1847 = DIRECTION('',(-1.,0.,0.));
#1848 = ADVANCED_FACE('',(#1849),#1859,.F.);
#1849 = FACE_BOUND('',#1850,.F.);
#1850 = EDGE_LOOP('',(#1851,#1852,#1857,#1858));
#1851 = ORIENTED_EDGE('',*,*,#1601,.F.);
#1852 = ORIENTED_EDGE('',*,*,#1853,.F.);
#1853 = EDGE_CURVE('',#855,#1595,#1854,.T.);
#1854 = B_SPLINE_CURVE_WITH_KNOTS('',1,(#1855,#1856),.UNSPECIFIED.,.F.,
  .F.,(2,2),(1.,2.55),.PIECEWISE_BEZIER_KNOTS.);
#1855 = CARTESIAN_POINT('',(-13.21803738572,-16.62038451986,3.));
#1856 = CARTESIAN_POINT('',(-13.21803738572,-16.62038451986,1.45));
#1857 = ORIENTED_EDGE('',*,*,#854,.T.);
#1858 = ORIENTED_EDGE('',*,*,#1853,.T.);
#1859 = CYLINDRICAL_SURFACE('',#1860,1.7);
#1860 = AXIS2_PLACEMENT_3D('',#1861,#1862,#1863);
#1861 = CARTESIAN_POINT('',(-11.51803738572,-16.62038451986,4.));
#1862 = DIRECTION('',(0.,0.,-1.));
#1863 = DIRECTION('',(-1.,0.,0.));
#1864 = ADVANCED_FACE('',(#1865),#1875,.F.);
#1865 = FACE_BOUND('',#1866,.F.);
#1866 = EDGE_LOOP('',(#1867,#1868,#1873,#1874));
#1867 = ORIENTED_EDGE('',*,*,#1552,.F.);
#1868 = ORIENTED_EDGE('',*,*,#1869,.F.);
#1869 = EDGE_CURVE('',#866,#1546,#1870,.T.);
#1870 = B_SPLINE_CURVE_WITH_KNOTS('',1,(#1871,#1872),.UNSPECIFIED.,.F.,
  .F.,(2,2),(1.,2.55),.PIECEWISE_BEZIER_KNOTS.);
#1871 = CARTESIAN_POINT('',(42.837388351725,-33.4582886089,3.));
#1872 = CARTESIAN_POINT('',(42.837388351725,-33.4582886089,1.45));
#1873 = ORIENTED_EDGE('',*,*,#865,.T.);
#1874 = ORIENTED_EDGE('',*,*,#1869,.T.);
#1875 = CYLINDRICAL_SURFACE('',#1876,1.7);
#1876 = AXIS2_PLACEMENT_3D('',#1877,#1878,#1879);
#1877 = CARTESIAN_POINT('',(44.537388351725,-33.4582886089,4.));
#1878 = DIRECTION('',(0.,0.,-1.));
#1879 = DIRECTION('',(-1.,0.,0.));
#1880 = ADVANCED_FACE('',(#1881),#1891,.F.);
#1881 = FACE_BOUND('',#1882,.F.);
#1882 = EDGE_LOOP('',(#1883,#1884,#1889,#1890));
#1883 = ORIENTED_EDGE('',*,*,#1625,.F.);
#1884 = ORIENTED_EDGE('',*,*,#1885,.F.);
#1885 = EDGE_CURVE('',#877,#1619,#1886,.T.);
#1886 = B_SPLINE_CURVE_WITH_KNOTS('',1,(#1887,#1888),.UNSPECIFIED.,.F.,
  .F.,(2,2),(1.,2.55),.PIECEWISE_BEZIER_KNOTS.);
#1887 = CARTESIAN_POINT('',(45.984053496371,22.559164116739,3.));
#1888 = CARTESIAN_POINT('',(45.984053496371,22.559164116739,1.45));
#1889 = ORIENTED_EDGE('',*,*,#876,.T.);
#1890 = ORIENTED_EDGE('',*,*,#1885,.T.);
#1891 = CYLINDRICAL_SURFACE('',#1892,1.7);
#1892 = AXIS2_PLACEMENT_3D('',#1893,#1894,#1895);
#1893 = CARTESIAN_POINT('',(47.684053496371,22.559164116739,4.));
#1894 = DIRECTION('',(0.,0.,-1.));
#1895 = DIRECTION('',(-1.,0.,0.));
#1896 = ADVANCED_FACE('',(#1897),#1907,.F.);
#1897 = FACE_BOUND('',#1898,.F.);
#1898 = EDGE_LOOP('',(#1899,#1900,#1905,#1906));
#1899 = ORIENTED_EDGE('',*,*,#1771,.F.);
#1900 = ORIENTED_EDGE('',*,*,#1901,.F.);
#1901 = EDGE_CURVE('',#888,#1765,#1902,.T.);
#1902 = B_SPLINE_CURVE_WITH_KNOTS('',1,(#1903,#1904),.UNSPECIFIED.,.F.,
  .F.,(2,2),(1.,2.55),.PIECEWISE_BEZIER_KNOTS.);
#1903 = CARTESIAN_POINT('',(-82.93837446358,54.853895526734,3.));
#1904 = CARTESIAN_POINT('',(-82.93837446358,54.853895526734,1.45));
#1905 = ORIENTED_EDGE('',*,*,#887,.T.);
#1906 = ORIENTED_EDGE('',*,*,#1901,.T.);
#1907 = CYLINDRICAL_SURFACE('',#1908,1.7);
#1908 = AXIS2_PLACEMENT_3D('',#1909,#1910,#1911);
#1909 = CARTESIAN_POINT('',(-81.23837446358,54.853895526734,4.));
#1910 = DIRECTION('',(0.,0.,-1.));
#1911 = DIRECTION('',(-1.,0.,0.));
#1912 = ADVANCED_FACE('',(#1913),#1923,.F.);
#1913 = FACE_BOUND('',#1914,.F.);
#1914 = EDGE_LOOP('',(#1915,#1916,#1921,#1922));
#1915 = ORIENTED_EDGE('',*,*,#1820,.F.);
#1916 = ORIENTED_EDGE('',*,*,#1917,.F.);
#1917 = EDGE_CURVE('',#899,#1814,#1918,.T.);
#1918 = B_SPLINE_CURVE_WITH_KNOTS('',1,(#1919,#1920),.UNSPECIFIED.,.F.,
  .F.,(2,2),(1.,2.55),.PIECEWISE_BEZIER_KNOTS.);
#1919 = CARTESIAN_POINT('',(-53.99040594039,85.007880863003,3.));
#1920 = CARTESIAN_POINT('',(-53.99040594039,85.007880863003,1.45));
#1921 = ORIENTED_EDGE('',*,*,#898,.T.);
#1922 = ORIENTED_EDGE('',*,*,#1917,.T.);
#1923 = CYLINDRICAL_SURFACE('',#1924,1.7);
#1924 = AXIS2_PLACEMENT_3D('',#1925,#1926,#1927);
#1925 = CARTESIAN_POINT('',(-52.29040594039,85.007880863003,4.));
#1926 = DIRECTION('',(0.,0.,-1.));
#1927 = DIRECTION('',(-1.,0.,0.));
#1928 = ADVANCED_FACE('',(#1929),#1939,.F.);
#1929 = FACE_BOUND('',#1930,.F.);
#1930 = EDGE_LOOP('',(#1931,#1932,#1937,#1938));
#1931 = ORIENTED_EDGE('',*,*,#1747,.F.);
#1932 = ORIENTED_EDGE('',*,*,#1933,.F.);
#1933 = EDGE_CURVE('',#910,#1741,#1934,.T.);
#1934 = B_SPLINE_CURVE_WITH_KNOTS('',1,(#1935,#1936),.UNSPECIFIED.,.F.,
  .F.,(2,2),(1.,2.55),.PIECEWISE_BEZIER_KNOTS.);
#1935 = CARTESIAN_POINT('',(-18.02597328653,95.013083618946,3.));
#1936 = CARTESIAN_POINT('',(-18.02597328653,95.013083618946,1.45));
#1937 = ORIENTED_EDGE('',*,*,#909,.T.);
#1938 = ORIENTED_EDGE('',*,*,#1933,.T.);
#1939 = CYLINDRICAL_SURFACE('',#1940,1.7);
#1940 = AXIS2_PLACEMENT_3D('',#1941,#1942,#1943);
#1941 = CARTESIAN_POINT('',(-16.32597328653,95.013083618946,4.));
#1942 = DIRECTION('',(0.,0.,-1.));
#1943 = DIRECTION('',(-1.,0.,0.));
#1944 = ADVANCED_FACE('',(#1945),#1955,.F.);
#1945 = FACE_BOUND('',#1946,.F.);
#1946 = EDGE_LOOP('',(#1947,#1948,#1953,#1954));
#1947 = ORIENTED_EDGE('',*,*,#1698,.F.);
#1948 = ORIENTED_EDGE('',*,*,#1949,.F.);
#1949 = EDGE_CURVE('',#921,#1692,#1950,.T.);
#1950 = B_SPLINE_CURVE_WITH_KNOTS('',1,(#1951,#1952),.UNSPECIFIED.,.F.,
  .F.,(2,2),(1.,2.55),.PIECEWISE_BEZIER_KNOTS.);
#1951 = CARTESIAN_POINT('',(39.999083441775,84.531427981148,3.));
#1952 = CARTESIAN_POINT('',(39.999083441775,84.531427981148,1.45));
#1953 = ORIENTED_EDGE('',*,*,#920,.T.);
#1954 = ORIENTED_EDGE('',*,*,#1949,.T.);
#1955 = CYLINDRICAL_SURFACE('',#1956,1.7);
#1956 = AXIS2_PLACEMENT_3D('',#1957,#1958,#1959);
#1957 = CARTESIAN_POINT('',(41.699083441775,84.531427981148,4.));
#1958 = DIRECTION('',(0.,0.,-1.));
#1959 = DIRECTION('',(-1.,0.,0.));
#1960 = ADVANCED_FACE('',(#1961),#1964,.F.);
#1961 = FACE_BOUND('',#1962,.T.);
#1962 = EDGE_LOOP('',(#1963));
#1963 = ORIENTED_EDGE('',*,*,#1576,.T.);
#1964 = PLANE('',#1965);
#1965 = AXIS2_PLACEMENT_3D('',#1966,#1967,#1968);
#1966 = CARTESIAN_POINT('',(-20.06471224505,38.937598003795,2.));
#1967 = DIRECTION('',(0.,0.,1.));
#1968 = DIRECTION('',(1.,0.,0.));
#1969 = ADVANCED_FACE('',(#1970),#1973,.F.);
#1970 = FACE_BOUND('',#1971,.T.);
#1971 = EDGE_LOOP('',(#1972));
#1972 = ORIENTED_EDGE('',*,*,#1673,.T.);
#1973 = PLANE('',#1974);
#1974 = AXIS2_PLACEMENT_3D('',#1975,#1976,#1977);
#1975 = CARTESIAN_POINT('',(-20.06471224505,38.937598003795,2.));
#1976 = DIRECTION('',(0.,0.,1.));
#1977 = DIRECTION('',(1.,0.,0.));
#1978 = ADVANCED_FACE('',(#1979),#1982,.F.);
#1979 = FACE_BOUND('',#1980,.T.);
#1980 = EDGE_LOOP('',(#1981));
#1981 = ORIENTED_EDGE('',*,*,#1722,.T.);
#1982 = PLANE('',#1983);
#1983 = AXIS2_PLACEMENT_3D('',#1984,#1985,#1986);
#1984 = CARTESIAN_POINT('',(-20.06471224505,38.937598003795,2.));
#1985 = DIRECTION('',(0.,0.,1.));
#1986 = DIRECTION('',(1.,0.,0.));
#1987 = ADVANCED_FACE('',(#1988),#1991,.F.);
#1988 = FACE_BOUND('',#1989,.T.);
#1989 = EDGE_LOOP('',(#1990));
#1990 = ORIENTED_EDGE('',*,*,#1795,.T.);
#1991 = PLANE('',#1992);
#1992 = AXIS2_PLACEMENT_3D('',#1993,#1994,#1995);
#1993 = CARTESIAN_POINT('',(-20.06471224505,38.937598003795,2.));
#1994 = DIRECTION('',(0.,0.,1.));
#1995 = DIRECTION('',(1.,0.,0.));
#1996 = ( GEOMETRIC_REPRESENTATION_CONTEXT(3) 
GLOBAL_UNCERTAINTY_ASSIGNED_CONTEXT((#2000)) 
GLOBAL_UNIT_ASSIGNED_CONTEXT((#1997,#1998,#1999)) REPRESENTATION_CONTEXT
('Context #1','3D Context with UNIT and UNCERTAINTY') );
#1997 = ( LENGTH_UNIT() NAMED_UNIT(*) SI_UNIT(.MILLI.,.METRE.) );
#1998 = ( NAMED_UNIT(*) PLANE_ANGLE_UNIT() SI_UNIT($,.RADIAN.) );
#1999 = ( NAMED_UNIT(*) SI_UNIT($,.STERADIAN.) SOLID_ANGLE_UNIT() );
#2000 = UNCERTAINTY_MEASURE_WITH_UNIT(LENGTH_MEASURE(1.E-07),#1997,
  'distance_accuracy_value','confusion accuracy');
#2001 = PRODUCT_RELATED_PRODUCT_CATEGORY('part',$,(#7));
#2002 = MECHANICAL_DESIGN_GEOMETRIC_PRESENTATION_REPRESENTATION('',(
    #2003),#1996);
#2003 = STYLED_ITEM('color',(#2004),#15);
#2004 = PRESENTATION_STYLE_ASSIGNMENT((#2005,#2011));
#2005 = SURFACE_STYLE_USAGE(.BOTH.,#2006);
#2006 = SURFACE_SIDE_STYLE('',(#2007));
#2007 = SURFACE_STYLE_FILL_AREA(#2008);
#2008 = FILL_AREA_STYLE('',(#2009));
#2009 = FILL_AREA_STYLE_COLOUR('',#2010);
#2010 = COLOUR_RGB('',0.447058818107,0.474509808674,0.501960817233);
#2011 = CURVE_STYLE('',#2012,POSITIVE_LENGTH_MEASURE(0.1),#2013);
#2012 = DRAUGHTING_PRE_DEFINED_CURVE_FONT('continuous');
#2013 = COLOUR_RGB('',0.678431390124,0.709803936702,0.741176476869);
ENDSEC;
END-ISO-10303-21;
