ISO-10303-21;
HEADER;
FILE_DESCRIPTION(('FreeCAD Model'),'2;1');
FILE_NAME('Open CASCADE Shape Model','2026-09-28T14:10:52',(''),(''),
  'Open CASCADE STEP processor 7.9','FreeCAD','Unknown');
FILE_SCHEMA(('AUTOMOTIVE_DESIGN { 1 0 10303 214 1 1 1 1 }'));
ENDSEC;
DATA;
#1 = APPLICATION_PROTOCOL_DEFINITION('international standard',
  'automotive_design',2000,#2);
#2 = APPLICATION_CONTEXT(
  'core data for automotive mechanical design processes');
#3 = SHAPE_DEFINITION_REPRESENTATION(#4,#10);
#4 = PRODUCT_DEFINITION_SHAPE('','',#5);
#5 = PRODUCT_DEFINITION('design','',#6,#9);
#6 = PRODUCT_DEFINITION_FORMATION('','',#7);
#7 = PRODUCT('Part 44','Part 44','',(#8));
#8 = PRODUCT_CONTEXT('',#2,'mechanical');
#9 = PRODUCT_DEFINITION_CONTEXT('part definition',#2,'design');
#10 = ADVANCED_BREP_SHAPE_REPRESENTATION('',(#11,#15),#1816);
#11 = AXIS2_PLACEMENT_3D('',#12,#13,#14);
#12 = CARTESIAN_POINT('',(0.,0.,0.));
#13 = DIRECTION('',(0.,0.,1.));
#14 = DIRECTION('',(1.,0.,-0.));
#15 = MANIFOLD_SOLID_BREP('',#16);
#16 = CLOSED_SHELL('',(#17,#57,#88,#119,#504,#889,#906,#923,#940,#957,
    #974,#991,#1008,#1025,#1042,#1059,#1076,#1093,#1110,#1127,#1144,
    #1161,#1178,#1195,#1212,#1229,#1246,#1263,#1280,#1297,#1314,#1331,
    #1348,#1365,#1382,#1399,#1416,#1433,#1450,#1467,#1484,#1496,#1520,
    #1544,#1568,#1592,#1616,#1640,#1664,#1688,#1704,#1720,#1736,#1752,
    #1768,#1784,#1800));
#17 = ADVANCED_FACE('',(#18),#52,.F.);
#18 = FACE_BOUND('',#19,.T.);
#19 = EDGE_LOOP('',(#20,#30,#38,#46));
#20 = ORIENTED_EDGE('',*,*,#21,.F.);
#21 = EDGE_CURVE('',#22,#24,#26,.T.);
#22 = VERTEX_POINT('',#23);
#23 = CARTESIAN_POINT('',(-89.38934587131,70.42891014221,0.));
#24 = VERTEX_POINT('',#25);
#25 = CARTESIAN_POINT('',(-89.38934587131,70.428910142203,3.));
#26 = LINE('',#27,#28);
#27 = CARTESIAN_POINT('',(-89.38934587131,70.428910142203,3.));
#28 = VECTOR('',#29,1.);
#29 = DIRECTION('',(0.,0.,1.));
#30 = ORIENTED_EDGE('',*,*,#31,.F.);
#31 = EDGE_CURVE('',#32,#22,#34,.T.);
#32 = VERTEX_POINT('',#33);
#33 = CARTESIAN_POINT('',(-89.41198317195,64.466657338712,
    -3.252606517457E-16));
#34 = LINE('',#35,#36);
#35 = CARTESIAN_POINT('',(-89.38934587131,70.428910142203,0.));
#36 = VECTOR('',#37,1.);
#37 = DIRECTION('',(3.796742309604E-03,0.999992792348,0.));
#38 = ORIENTED_EDGE('',*,*,#39,.T.);
#39 = EDGE_CURVE('',#32,#40,#42,.T.);
#40 = VERTEX_POINT('',#41);
#41 = CARTESIAN_POINT('',(-89.41198317195,64.466657339089,3.));
#42 = LINE('',#43,#44);
#43 = CARTESIAN_POINT('',(-89.41198317195,64.466657339497,3.));
#44 = VECTOR('',#45,1.);
#45 = DIRECTION('',(0.,0.,1.));
#46 = ORIENTED_EDGE('',*,*,#47,.F.);
#47 = EDGE_CURVE('',#24,#40,#48,.T.);
#48 = LINE('',#49,#50);
#49 = CARTESIAN_POINT('',(-89.38934587131,70.428910142203,3.));
#50 = VECTOR('',#51,1.);
#51 = DIRECTION('',(-3.796742309875E-03,-0.999992792348,0.));
#52 = PLANE('',#53);
#53 = AXIS2_PLACEMENT_3D('',#54,#55,#56);
#54 = CARTESIAN_POINT('',(-89.38934587131,70.428910142203,3.));
#55 = DIRECTION('',(0.999992792348,-3.796742309604E-03,0.));
#56 = DIRECTION('',(3.796742309604E-03,0.999992792348,0.));
#57 = ADVANCED_FACE('',(#58),#83,.F.);
#58 = FACE_BOUND('',#59,.T.);
#59 = EDGE_LOOP('',(#60,#70,#76,#77));
#60 = ORIENTED_EDGE('',*,*,#61,.F.);
#61 = EDGE_CURVE('',#62,#64,#66,.T.);
#62 = VERTEX_POINT('',#63);
#63 = CARTESIAN_POINT('',(-87.03958590856,91.348159674307,
    -2.168404344971E-16));
#64 = VERTEX_POINT('',#65);
#65 = CARTESIAN_POINT('',(-87.03958590856,91.348159674307,3.));
#66 = LINE('',#67,#68);
#67 = CARTESIAN_POINT('',(-87.03958590856,91.348159674307,3.));
#68 = VECTOR('',#69,1.);
#69 = DIRECTION('',(0.,0.,1.));
#70 = ORIENTED_EDGE('',*,*,#71,.F.);
#71 = EDGE_CURVE('',#22,#62,#72,.T.);
#72 = LINE('',#73,#74);
#73 = CARTESIAN_POINT('',(-87.03958590856,91.348159674307,0.));
#74 = VECTOR('',#75,1.);
#75 = DIRECTION('',(0.111623285248,0.993750593555,0.));
#76 = ORIENTED_EDGE('',*,*,#21,.T.);
#77 = ORIENTED_EDGE('',*,*,#78,.F.);
#78 = EDGE_CURVE('',#64,#24,#79,.T.);
#79 = LINE('',#80,#81);
#80 = CARTESIAN_POINT('',(-87.03958590856,91.348159674307,3.));
#81 = VECTOR('',#82,1.);
#82 = DIRECTION('',(-0.111623285248,-0.993750593555,0.));
#83 = PLANE('',#84);
#84 = AXIS2_PLACEMENT_3D('',#85,#86,#87);
#85 = CARTESIAN_POINT('',(-87.03958590856,91.348159674307,3.));
#86 = DIRECTION('',(0.993750593555,-0.111623285248,0.));
#87 = DIRECTION('',(0.111623285248,0.993750593555,0.));
#88 = ADVANCED_FACE('',(#89),#114,.F.);
#89 = FACE_BOUND('',#90,.T.);
#90 = EDGE_LOOP('',(#91,#92,#100,#108));
#91 = ORIENTED_EDGE('',*,*,#39,.F.);
#92 = ORIENTED_EDGE('',*,*,#93,.F.);
#93 = EDGE_CURVE('',#94,#32,#96,.T.);
#94 = VERTEX_POINT('',#95);
#95 = CARTESIAN_POINT('',(-89.46011997639,45.285956829797,
    -7.589415207399E-16));
#96 = LINE('',#97,#98);
#97 = CARTESIAN_POINT('',(-89.41198317195,64.466657339497,
    -8.673617379884E-16));
#98 = VECTOR('',#99,1.);
#99 = DIRECTION('',(2.509639980567E-03,0.999996850849,0.));
#100 = ORIENTED_EDGE('',*,*,#101,.T.);
#101 = EDGE_CURVE('',#94,#102,#104,.T.);
#102 = VERTEX_POINT('',#103);
#103 = CARTESIAN_POINT('',(-89.4601199764,45.285956829925,3.));
#104 = LINE('',#105,#106);
#105 = CARTESIAN_POINT('',(-89.4601199764,45.285956829922,3.));
#106 = VECTOR('',#107,1.);
#107 = DIRECTION('',(0.,0.,1.));
#108 = ORIENTED_EDGE('',*,*,#109,.F.);
#109 = EDGE_CURVE('',#40,#102,#110,.T.);
#110 = LINE('',#111,#112);
#111 = CARTESIAN_POINT('',(-89.41198317195,64.466657339497,3.));
#112 = VECTOR('',#113,1.);
#113 = DIRECTION('',(-2.50963998087E-03,-0.999996850849,0.));
#114 = PLANE('',#115);
#115 = AXIS2_PLACEMENT_3D('',#116,#117,#118);
#116 = CARTESIAN_POINT('',(-89.41198317195,64.466657339497,3.));
#117 = DIRECTION('',(0.999996850849,-2.509639980567E-03,0.));
#118 = DIRECTION('',(2.509639980567E-03,0.999996850849,0.));
#119 = ADVANCED_FACE('',(#120,#411,#422,#433,#444,#455,#466,#477,#488),
  #499,.F.);
#120 = FACE_BOUND('',#121,.T.);
#121 = EDGE_LOOP('',(#122,#123,#124,#132,#140,#148,#156,#164,#172,#180,
    #188,#196,#204,#212,#220,#228,#236,#244,#252,#260,#268,#276,#284,
    #292,#300,#308,#316,#324,#332,#340,#348,#356,#364,#372,#380,#388,
    #396,#404,#410));
#122 = ORIENTED_EDGE('',*,*,#47,.T.);
#123 = ORIENTED_EDGE('',*,*,#109,.T.);
#124 = ORIENTED_EDGE('',*,*,#125,.T.);
#125 = EDGE_CURVE('',#102,#126,#128,.T.);
#126 = VERTEX_POINT('',#127);
#127 = CARTESIAN_POINT('',(-89.32156254748,38.807710755652,3.));
#128 = LINE('',#129,#130);
#129 = CARTESIAN_POINT('',(-89.4601199764,45.285956829922,3.));
#130 = VECTOR('',#131,1.);
#131 = DIRECTION('',(2.138321801475E-02,-0.999771352854,0.));
#132 = ORIENTED_EDGE('',*,*,#133,.T.);
#133 = EDGE_CURVE('',#126,#134,#136,.T.);
#134 = VERTEX_POINT('',#135);
#135 = CARTESIAN_POINT('',(-89.23707542718,18.949699753518,3.));
#136 = LINE('',#137,#138);
#137 = CARTESIAN_POINT('',(-89.32156254748,38.807710755652,3.));
#138 = VECTOR('',#139,1.);
#139 = DIRECTION('',(4.254522552051E-03,-0.999990949478,0.));
#140 = ORIENTED_EDGE('',*,*,#141,.T.);
#141 = EDGE_CURVE('',#134,#142,#144,.T.);
#142 = VERTEX_POINT('',#143);
#143 = CARTESIAN_POINT('',(-89.41645195509,12.480552712793,3.));
#144 = LINE('',#145,#146);
#145 = CARTESIAN_POINT('',(-89.23707542718,18.949699753516,3.));
#146 = VECTOR('',#147,1.);
#147 = DIRECTION('',(-2.771734981457E-02,-0.999615800455,0.));
#148 = ORIENTED_EDGE('',*,*,#149,.T.);
#149 = EDGE_CURVE('',#142,#150,#152,.T.);
#150 = VERTEX_POINT('',#151);
#151 = CARTESIAN_POINT('',(-87.17458803621,-11.22378316333,3.));
#152 = LINE('',#153,#154);
#153 = CARTESIAN_POINT('',(-89.41645195509,12.480552712793,3.));
#154 = VECTOR('',#155,1.);
#155 = DIRECTION('',(9.415595360606E-02,-0.99555746012,0.));
#156 = ORIENTED_EDGE('',*,*,#157,.T.);
#157 = EDGE_CURVE('',#150,#158,#160,.T.);
#158 = VERTEX_POINT('',#159);
#159 = CARTESIAN_POINT('',(-63.4889197987,-13.4004982779,3.));
#160 = LINE('',#161,#162);
#161 = CARTESIAN_POINT('',(-87.17458803621,-11.22378316333,3.));
#162 = VECTOR('',#163,1.);
#163 = DIRECTION('',(0.995803747808,-9.151445706589E-02,0.));
#164 = ORIENTED_EDGE('',*,*,#165,.T.);
#165 = EDGE_CURVE('',#158,#166,#168,.T.);
#166 = VERTEX_POINT('',#167);
#167 = CARTESIAN_POINT('',(-59.78227654754,-13.40338462505,3.));
#168 = LINE('',#169,#170);
#169 = CARTESIAN_POINT('',(-63.4889197987,-13.4004982779,3.));
#170 = VECTOR('',#171,1.);
#171 = DIRECTION('',(0.999999696817,-7.786954609155E-04,0.));
#172 = ORIENTED_EDGE('',*,*,#173,.T.);
#173 = EDGE_CURVE('',#166,#174,#176,.T.);
#174 = VERTEX_POINT('',#175);
#175 = CARTESIAN_POINT('',(-46.11978948326,-12.60910778187,3.));
#176 = LINE('',#177,#178);
#177 = CARTESIAN_POINT('',(-59.78227654754,-13.40338462505,3.));
#178 = VECTOR('',#179,1.);
#179 = DIRECTION('',(0.998314397657,5.803760358869E-02,0.));
#180 = ORIENTED_EDGE('',*,*,#181,.T.);
#181 = EDGE_CURVE('',#174,#182,#184,.T.);
#182 = VERTEX_POINT('',#183);
#183 = CARTESIAN_POINT('',(-43.41892903705,-27.01381154885,3.));
#184 = LINE('',#185,#186);
#185 = CARTESIAN_POINT('',(-46.11978948326,-12.60910778187,3.));
#186 = VECTOR('',#187,1.);
#187 = DIRECTION('',(0.184287117203,-0.98287245278,0.));
#188 = ORIENTED_EDGE('',*,*,#189,.T.);
#189 = EDGE_CURVE('',#182,#190,#192,.T.);
#190 = VERTEX_POINT('',#191);
#191 = CARTESIAN_POINT('',(-21.93854614942,-27.27886087769,3.));
#192 = LINE('',#193,#194);
#193 = CARTESIAN_POINT('',(-43.41892903705,-27.01381154885,3.));
#194 = VECTOR('',#195,1.);
#195 = DIRECTION('',(0.999923881575,-1.23381950447E-02,0.));
#196 = ORIENTED_EDGE('',*,*,#197,.T.);
#197 = EDGE_CURVE('',#190,#198,#200,.T.);
#198 = VERTEX_POINT('',#199);
#199 = CARTESIAN_POINT('',(-1.863769287397,-21.26685824843,3.));
#200 = LINE('',#201,#202);
#201 = CARTESIAN_POINT('',(-21.93854614942,-27.27886087769,3.));
#202 = VECTOR('',#203,1.);
#203 = DIRECTION('',(0.957963168314,0.286891213099,0.));
#204 = ORIENTED_EDGE('',*,*,#205,.T.);
#205 = EDGE_CURVE('',#198,#206,#208,.T.);
#206 = VERTEX_POINT('',#207);
#207 = CARTESIAN_POINT('',(1.549978118131,-38.13915533977,3.));
#208 = LINE('',#209,#210);
#209 = CARTESIAN_POINT('',(-1.863769287397,-21.26685824843,3.));
#210 = VECTOR('',#211,1.);
#211 = DIRECTION('',(0.198310166503,-0.980139315537,0.));
#212 = ORIENTED_EDGE('',*,*,#213,.T.);
#213 = EDGE_CURVE('',#206,#214,#216,.T.);
#214 = VERTEX_POINT('',#215);
#215 = CARTESIAN_POINT('',(17.245198861779,-45.98637540405,3.));
#216 = LINE('',#217,#218);
#217 = CARTESIAN_POINT('',(1.549978118131,-38.13915533977,3.));
#218 = VECTOR('',#219,1.);
#219 = DIRECTION('',(0.89443608793,-0.447195801198,0.));
#220 = ORIENTED_EDGE('',*,*,#221,.T.);
#221 = EDGE_CURVE('',#214,#222,#224,.T.);
#222 = VERTEX_POINT('',#223);
#223 = CARTESIAN_POINT('',(37.167412129627,-56.89717106024,3.));
#224 = LINE('',#225,#226);
#225 = CARTESIAN_POINT('',(17.24519886178,-45.98637540406,3.));
#226 = VECTOR('',#227,1.);
#227 = DIRECTION('',(0.877077493908,-0.48034890411,0.));
#228 = ORIENTED_EDGE('',*,*,#229,.T.);
#229 = EDGE_CURVE('',#222,#230,#232,.T.);
#230 = VERTEX_POINT('',#231);
#231 = CARTESIAN_POINT('',(52.50098980668,-38.12149768517,3.));
#232 = LINE('',#233,#234);
#233 = CARTESIAN_POINT('',(37.167412129627,-56.89717106024,3.));
#234 = VECTOR('',#235,1.);
#235 = DIRECTION('',(0.632537319932,0.774529882505,0.));
#236 = ORIENTED_EDGE('',*,*,#237,.T.);
#237 = EDGE_CURVE('',#230,#238,#240,.T.);
#238 = VERTEX_POINT('',#239);
#239 = CARTESIAN_POINT('',(53.032501959448,-33.18178307025,3.));
#240 = LINE('',#241,#242);
#241 = CARTESIAN_POINT('',(52.50098980668,-38.12149768517,3.));
#242 = VECTOR('',#243,1.);
#243 = DIRECTION('',(0.106982246756,0.994260930983,0.));
#244 = ORIENTED_EDGE('',*,*,#245,.T.);
#245 = EDGE_CURVE('',#238,#246,#248,.T.);
#246 = VERTEX_POINT('',#247);
#247 = CARTESIAN_POINT('',(64.216408080953,-15.00078811631,3.));
#248 = LINE('',#249,#250);
#249 = CARTESIAN_POINT('',(53.032501959448,-33.18178307025,3.));
#250 = VECTOR('',#251,1.);
#251 = DIRECTION('',(0.52394795703,0.851750279321,0.));
#252 = ORIENTED_EDGE('',*,*,#253,.T.);
#253 = EDGE_CURVE('',#246,#254,#256,.T.);
#254 = VERTEX_POINT('',#255);
#255 = CARTESIAN_POINT('',(52.75105328756,-4.170959716841,3.));
#256 = LINE('',#257,#258);
#257 = CARTESIAN_POINT('',(64.216408080953,-15.00078811631,3.));
#258 = VECTOR('',#259,1.);
#259 = DIRECTION('',(-0.726967644256,0.686671715017,0.));
#260 = ORIENTED_EDGE('',*,*,#261,.T.);
#261 = EDGE_CURVE('',#254,#262,#264,.T.);
#262 = VERTEX_POINT('',#263);
#263 = CARTESIAN_POINT('',(51.505615884171,3.917575356603,3.));
#264 = LINE('',#265,#266);
#265 = CARTESIAN_POINT('',(52.75105328756,-4.170959716841,3.));
#266 = VECTOR('',#267,1.);
#267 = DIRECTION('',(-0.152182206598,0.988352455349,0.));
#268 = ORIENTED_EDGE('',*,*,#269,.T.);
#269 = EDGE_CURVE('',#262,#270,#272,.T.);
#270 = VERTEX_POINT('',#271);
#271 = CARTESIAN_POINT('',(55.656641738095,18.986154278477,3.));
#272 = LINE('',#273,#274);
#273 = CARTESIAN_POINT('',(51.505615884171,3.917575356603,3.));
#274 = VECTOR('',#275,1.);
#275 = DIRECTION('',(0.265582741806,0.964088070279,0.));
#276 = ORIENTED_EDGE('',*,*,#277,.T.);
#277 = EDGE_CURVE('',#270,#278,#280,.T.);
#278 = VERTEX_POINT('',#279);
#279 = CARTESIAN_POINT('',(56.00967094243,25.444449255295,3.));
#280 = LINE('',#281,#282);
#281 = CARTESIAN_POINT('',(55.656641738095,18.986154278477,3.));
#282 = VECTOR('',#283,1.);
#283 = DIRECTION('',(5.458142637425E-02,0.998509322888,0.));
#284 = ORIENTED_EDGE('',*,*,#285,.T.);
#285 = EDGE_CURVE('',#278,#286,#288,.T.);
#286 = VERTEX_POINT('',#287);
#287 = CARTESIAN_POINT('',(56.013037621395,45.395075400138,3.));
#288 = LINE('',#289,#290);
#289 = CARTESIAN_POINT('',(56.00967094243,25.444449255295,3.));
#290 = VECTOR('',#291,1.);
#291 = DIRECTION('',(1.687505390869E-04,0.999999985762,0.));
#292 = ORIENTED_EDGE('',*,*,#293,.T.);
#293 = EDGE_CURVE('',#286,#294,#296,.T.);
#294 = VERTEX_POINT('',#295);
#295 = CARTESIAN_POINT('',(55.662183570806,51.82653904559,3.));
#296 = LINE('',#297,#298);
#297 = CARTESIAN_POINT('',(56.013037621395,45.395075400138,3.));
#298 = VECTOR('',#299,1.);
#299 = DIRECTION('',(-5.447175960967E-02,0.998515311553,0.));
#300 = ORIENTED_EDGE('',*,*,#301,.T.);
#301 = EDGE_CURVE('',#294,#302,#304,.T.);
#302 = VERTEX_POINT('',#303);
#303 = CARTESIAN_POINT('',(53.523632607508,71.01572068686,3.));
#304 = LINE('',#305,#306);
#305 = CARTESIAN_POINT('',(55.662183570806,51.82653904559,3.));
#306 = VECTOR('',#307,1.);
#307 = DIRECTION('',(-0.11075995322,0.993847187833,0.));
#308 = ORIENTED_EDGE('',*,*,#309,.T.);
#309 = EDGE_CURVE('',#302,#310,#312,.T.);
#310 = VERTEX_POINT('',#311);
#311 = CARTESIAN_POINT('',(52.492805425728,76.982059382003,3.));
#312 = LINE('',#313,#314);
#313 = CARTESIAN_POINT('',(53.523632607508,71.01572068686,3.));
#314 = VECTOR('',#315,1.);
#315 = DIRECTION('',(-0.170251443875,0.985400652455,0.));
#316 = ORIENTED_EDGE('',*,*,#317,.T.);
#317 = EDGE_CURVE('',#310,#318,#320,.T.);
#318 = VERTEX_POINT('',#319);
#319 = CARTESIAN_POINT('',(45.412285492779,97.937884527188,3.));
#320 = LINE('',#321,#322);
#321 = CARTESIAN_POINT('',(52.492805425728,76.982059382003,3.));
#322 = VECTOR('',#323,1.);
#323 = DIRECTION('',(-0.320100427129,0.947383616363,0.));
#324 = ORIENTED_EDGE('',*,*,#325,.T.);
#325 = EDGE_CURVE('',#318,#326,#328,.T.);
#326 = VERTEX_POINT('',#327);
#327 = CARTESIAN_POINT('',(23.46248001185,100.03746233017,3.));
#328 = LINE('',#329,#330);
#329 = CARTESIAN_POINT('',(45.412285492779,97.937884527188,3.));
#330 = VECTOR('',#331,1.);
#331 = DIRECTION('',(-0.995456350685,9.521897857147E-02,0.));
#332 = ORIENTED_EDGE('',*,*,#333,.T.);
#333 = EDGE_CURVE('',#326,#334,#336,.T.);
#334 = VERTEX_POINT('',#335);
#335 = CARTESIAN_POINT('',(20.541969641929,100.05854787071,3.));
#336 = LINE('',#337,#338);
#337 = CARTESIAN_POINT('',(23.46248001185,100.03746233017,3.));
#338 = VECTOR('',#339,1.);
#339 = DIRECTION('',(-0.999973938165,7.219625456311E-03,0.));
#340 = ORIENTED_EDGE('',*,*,#341,.T.);
#341 = EDGE_CURVE('',#334,#342,#344,.T.);
#342 = VERTEX_POINT('',#343);
#343 = CARTESIAN_POINT('',(3.708916324367,100.14960323875,3.));
#344 = LINE('',#345,#346);
#345 = CARTESIAN_POINT('',(20.541969641929,100.05854787071,3.));
#346 = VECTOR('',#347,1.);
#347 = DIRECTION('',(-0.999985369951,5.409240627812E-03,0.));
#348 = ORIENTED_EDGE('',*,*,#349,.T.);
#349 = EDGE_CURVE('',#342,#350,#352,.T.);
#350 = VERTEX_POINT('',#351);
#351 = CARTESIAN_POINT('',(1.738420937725,103.03127756283,3.));
#352 = LINE('',#353,#354);
#353 = CARTESIAN_POINT('',(3.708916324367,100.14960323875,3.));
#354 = VECTOR('',#355,1.);
#355 = DIRECTION('',(-0.56445434032,0.825464292198,0.));
#356 = ORIENTED_EDGE('',*,*,#357,.T.);
#357 = EDGE_CURVE('',#350,#358,#360,.T.);
#358 = VERTEX_POINT('',#359);
#359 = CARTESIAN_POINT('',(-18.86068044071,103.1277292105,3.));
#360 = LINE('',#361,#362);
#361 = CARTESIAN_POINT('',(1.738420937725,103.03127756283,3.));
#362 = VECTOR('',#363,1.);
#363 = DIRECTION('',(-0.999989038106,4.682271745998E-03,0.));
#364 = ORIENTED_EDGE('',*,*,#365,.T.);
#365 = EDGE_CURVE('',#358,#366,#368,.T.);
#366 = VERTEX_POINT('',#367);
#367 = CARTESIAN_POINT('',(-21.23202920156,100.26638480345,3.));
#368 = LINE('',#369,#370);
#369 = CARTESIAN_POINT('',(-18.86068044071,103.1277292105,3.));
#370 = VECTOR('',#371,1.);
#371 = DIRECTION('',(-0.63810091341,-0.769952741605,0.));
#372 = ORIENTED_EDGE('',*,*,#373,.T.);
#373 = EDGE_CURVE('',#366,#374,#376,.T.);
#374 = VERTEX_POINT('',#375);
#375 = CARTESIAN_POINT('',(-45.36474981215,99.671799487344,3.));
#376 = LINE('',#377,#378);
#377 = CARTESIAN_POINT('',(-21.23202920156,100.26638480345,3.));
#378 = VECTOR('',#379,1.);
#379 = DIRECTION('',(-0.999696619178,-2.463066389884E-02,0.));
#380 = ORIENTED_EDGE('',*,*,#381,.T.);
#381 = EDGE_CURVE('',#374,#382,#384,.T.);
#382 = VERTEX_POINT('',#383);
#383 = CARTESIAN_POINT('',(-45.58163365395,92.654081702323,3.));
#384 = LINE('',#385,#386);
#385 = CARTESIAN_POINT('',(-45.36474981215,99.671799487344,3.));
#386 = VECTOR('',#387,1.);
#387 = DIRECTION('',(-3.089043281877E-02,-0.999522776709,0.));
#388 = ORIENTED_EDGE('',*,*,#389,.T.);
#389 = EDGE_CURVE('',#382,#390,#392,.T.);
#390 = VERTEX_POINT('',#391);
#391 = CARTESIAN_POINT('',(-60.79660364376,93.268957050612,3.));
#392 = LINE('',#393,#394);
#393 = CARTESIAN_POINT('',(-45.58163365395,92.654081702323,3.));
#394 = VECTOR('',#395,1.);
#395 = DIRECTION('',(-0.99918441279,4.037956461501E-02,0.));
#396 = ORIENTED_EDGE('',*,*,#397,.T.);
#397 = EDGE_CURVE('',#390,#398,#400,.T.);
#398 = VERTEX_POINT('',#399);
#399 = CARTESIAN_POINT('',(-63.42148462742,93.271001034143,3.));
#400 = LINE('',#401,#402);
#401 = CARTESIAN_POINT('',(-60.79660364376,93.268957050612,3.));
#402 = VECTOR('',#403,1.);
#403 = DIRECTION('',(-0.999999696817,7.786954623879E-04,0.));
#404 = ORIENTED_EDGE('',*,*,#405,.T.);
#405 = EDGE_CURVE('',#398,#64,#406,.T.);
#406 = LINE('',#407,#408);
#407 = CARTESIAN_POINT('',(-63.42148462742,93.271001034143,3.));
#408 = VECTOR('',#409,1.);
#409 = DIRECTION('',(-0.996702274255,-8.114540341606E-02,0.));
#410 = ORIENTED_EDGE('',*,*,#78,.T.);
#411 = FACE_BOUND('',#412,.T.);
#412 = EDGE_LOOP('',(#413));
#413 = ORIENTED_EDGE('',*,*,#414,.T.);
#414 = EDGE_CURVE('',#415,#415,#417,.T.);
#415 = VERTEX_POINT('',#416);
#416 = CARTESIAN_POINT('',(-75.40138861974,-4.75166172086,3.));
#417 = CIRCLE('',#418,1.7);
#418 = AXIS2_PLACEMENT_3D('',#419,#420,#421);
#419 = CARTESIAN_POINT('',(-73.70138861974,-4.75166172086,3.));
#420 = DIRECTION('',(0.,0.,-1.));
#421 = DIRECTION('',(-1.,0.,0.));
#422 = FACE_BOUND('',#423,.T.);
#423 = EDGE_LOOP('',(#424));
#424 = ORIENTED_EDGE('',*,*,#425,.T.);
#425 = EDGE_CURVE('',#426,#426,#428,.T.);
#426 = VERTEX_POINT('',#427);
#427 = CARTESIAN_POINT('',(-13.21803738572,-16.62038451986,3.));
#428 = CIRCLE('',#429,1.7);
#429 = AXIS2_PLACEMENT_3D('',#430,#431,#432);
#430 = CARTESIAN_POINT('',(-11.51803738572,-16.62038451986,3.));
#431 = DIRECTION('',(0.,0.,-1.));
#432 = DIRECTION('',(-1.,0.,0.));
#433 = FACE_BOUND('',#434,.T.);
#434 = EDGE_LOOP('',(#435));
#435 = ORIENTED_EDGE('',*,*,#436,.T.);
#436 = EDGE_CURVE('',#437,#437,#439,.T.);
#437 = VERTEX_POINT('',#438);
#438 = CARTESIAN_POINT('',(42.837388351725,-33.4582886089,3.));
#439 = CIRCLE('',#440,1.7);
#440 = AXIS2_PLACEMENT_3D('',#441,#442,#443);
#441 = CARTESIAN_POINT('',(44.537388351725,-33.4582886089,3.));
#442 = DIRECTION('',(0.,0.,-1.));
#443 = DIRECTION('',(-1.,0.,0.));
#444 = FACE_BOUND('',#445,.T.);
#445 = EDGE_LOOP('',(#446));
#446 = ORIENTED_EDGE('',*,*,#447,.T.);
#447 = EDGE_CURVE('',#448,#448,#450,.T.);
#448 = VERTEX_POINT('',#449);
#449 = CARTESIAN_POINT('',(45.984053496371,22.559164116739,3.));
#450 = CIRCLE('',#451,1.7);
#451 = AXIS2_PLACEMENT_3D('',#452,#453,#454);
#452 = CARTESIAN_POINT('',(47.684053496371,22.559164116739,3.));
#453 = DIRECTION('',(0.,0.,-1.));
#454 = DIRECTION('',(-1.,0.,0.));
#455 = FACE_BOUND('',#456,.T.);
#456 = EDGE_LOOP('',(#457));
#457 = ORIENTED_EDGE('',*,*,#458,.T.);
#458 = EDGE_CURVE('',#459,#459,#461,.T.);
#459 = VERTEX_POINT('',#460);
#460 = CARTESIAN_POINT('',(-82.93837446358,54.853895526734,3.));
#461 = CIRCLE('',#462,1.7);
#462 = AXIS2_PLACEMENT_3D('',#463,#464,#465);
#463 = CARTESIAN_POINT('',(-81.23837446358,54.853895526734,3.));
#464 = DIRECTION('',(0.,0.,-1.));
#465 = DIRECTION('',(-1.,0.,0.));
#466 = FACE_BOUND('',#467,.T.);
#467 = EDGE_LOOP('',(#468));
#468 = ORIENTED_EDGE('',*,*,#469,.T.);
#469 = EDGE_CURVE('',#470,#470,#472,.T.);
#470 = VERTEX_POINT('',#471);
#471 = CARTESIAN_POINT('',(-53.99040594039,85.007880863003,3.));
#472 = CIRCLE('',#473,1.7);
#473 = AXIS2_PLACEMENT_3D('',#474,#475,#476);
#474 = CARTESIAN_POINT('',(-52.29040594039,85.007880863003,3.));
#475 = DIRECTION('',(0.,0.,-1.));
#476 = DIRECTION('',(-1.,0.,0.));
#477 = FACE_BOUND('',#478,.T.);
#478 = EDGE_LOOP('',(#479));
#479 = ORIENTED_EDGE('',*,*,#480,.T.);
#480 = EDGE_CURVE('',#481,#481,#483,.T.);
#481 = VERTEX_POINT('',#482);
#482 = CARTESIAN_POINT('',(-18.02597328653,95.013083618946,3.));
#483 = CIRCLE('',#484,1.7);
#484 = AXIS2_PLACEMENT_3D('',#485,#486,#487);
#485 = CARTESIAN_POINT('',(-16.32597328653,95.013083618946,3.));
#486 = DIRECTION('',(0.,0.,-1.));
#487 = DIRECTION('',(-1.,0.,0.));
#488 = FACE_BOUND('',#489,.T.);
#489 = EDGE_LOOP('',(#490));
#490 = ORIENTED_EDGE('',*,*,#491,.T.);
#491 = EDGE_CURVE('',#492,#492,#494,.T.);
#492 = VERTEX_POINT('',#493);
#493 = CARTESIAN_POINT('',(39.999083441775,84.531427981148,3.));
#494 = CIRCLE('',#495,1.7);
#495 = AXIS2_PLACEMENT_3D('',#496,#497,#498);
#496 = CARTESIAN_POINT('',(41.699083441775,84.531427981148,3.));
#497 = DIRECTION('',(0.,0.,-1.));
#498 = DIRECTION('',(-1.,0.,0.));
#499 = PLANE('',#500);
#500 = AXIS2_PLACEMENT_3D('',#501,#502,#503);
#501 = CARTESIAN_POINT('',(-11.76097075972,29.171150871107,3.));
#502 = DIRECTION('',(0.,0.,-1.));
#503 = DIRECTION('',(-1.,0.,0.));
#504 = ADVANCED_FACE('',(#505,#796,#807,#818,#829,#840,#851,#862,#873),
  #884,.T.);
#505 = FACE_BOUND('',#506,.T.);
#506 = EDGE_LOOP('',(#507,#508,#516,#524,#532,#540,#548,#556,#564,#572,
    #580,#588,#596,#604,#612,#620,#628,#636,#644,#652,#660,#668,#676,
    #684,#692,#700,#708,#716,#724,#732,#740,#748,#756,#764,#772,#780,
    #788,#794,#795));
#507 = ORIENTED_EDGE('',*,*,#71,.T.);
#508 = ORIENTED_EDGE('',*,*,#509,.T.);
#509 = EDGE_CURVE('',#62,#510,#512,.T.);
#510 = VERTEX_POINT('',#511);
#511 = CARTESIAN_POINT('',(-63.42148462741,93.271001034143,
    -8.673617379884E-16));
#512 = LINE('',#513,#514);
#513 = CARTESIAN_POINT('',(-63.42148462742,93.271001034143,
    -8.673617379884E-16));
#514 = VECTOR('',#515,1.);
#515 = DIRECTION('',(0.996702274255,8.114540341607E-02,0.));
#516 = ORIENTED_EDGE('',*,*,#517,.T.);
#517 = EDGE_CURVE('',#510,#518,#520,.T.);
#518 = VERTEX_POINT('',#519);
#519 = CARTESIAN_POINT('',(-60.79660364376,93.268957050612,
    -4.336808689942E-16));
#520 = LINE('',#521,#522);
#521 = CARTESIAN_POINT('',(-60.79660364376,93.268957050612,
    -1.301042606983E-15));
#522 = VECTOR('',#523,1.);
#523 = DIRECTION('',(0.999999696817,-7.786954625278E-04,0.));
#524 = ORIENTED_EDGE('',*,*,#525,.T.);
#525 = EDGE_CURVE('',#518,#526,#528,.T.);
#526 = VERTEX_POINT('',#527);
#527 = CARTESIAN_POINT('',(-45.58163365394,92.654081702323,
    3.252606517457E-16));
#528 = LINE('',#529,#530);
#529 = CARTESIAN_POINT('',(-45.58163365395,92.654081702323,
    8.673617379884E-16));
#530 = VECTOR('',#531,1.);
#531 = DIRECTION('',(0.99918441279,-4.037956461495E-02,0.));
#532 = ORIENTED_EDGE('',*,*,#533,.T.);
#533 = EDGE_CURVE('',#526,#534,#536,.T.);
#534 = VERTEX_POINT('',#535);
#535 = CARTESIAN_POINT('',(-45.36474981215,99.671799487341,
    -7.589415207399E-16));
#536 = LINE('',#537,#538);
#537 = CARTESIAN_POINT('',(-45.36474981215,99.671799487344,
    -8.673617379884E-16));
#538 = VECTOR('',#539,1.);
#539 = DIRECTION('',(3.08904328184E-02,0.999522776709,0.));
#540 = ORIENTED_EDGE('',*,*,#541,.T.);
#541 = EDGE_CURVE('',#534,#542,#544,.T.);
#542 = VERTEX_POINT('',#543);
#543 = CARTESIAN_POINT('',(-21.23202920156,100.26638480345,
    -5.421010862428E-16));
#544 = LINE('',#545,#546);
#545 = CARTESIAN_POINT('',(-21.23202920156,100.26638480345,
    -8.673617379884E-16));
#546 = VECTOR('',#547,1.);
#547 = DIRECTION('',(0.999696619178,2.463066389908E-02,0.));
#548 = ORIENTED_EDGE('',*,*,#549,.T.);
#549 = EDGE_CURVE('',#542,#550,#552,.T.);
#550 = VERTEX_POINT('',#551);
#551 = CARTESIAN_POINT('',(-18.86068044071,103.1277292105,
    -2.168404344971E-16));
#552 = LINE('',#553,#554);
#553 = CARTESIAN_POINT('',(-18.86068044071,103.1277292105,0.));
#554 = VECTOR('',#555,1.);
#555 = DIRECTION('',(0.638100913412,0.769952741604,0.));
#556 = ORIENTED_EDGE('',*,*,#557,.T.);
#557 = EDGE_CURVE('',#550,#558,#560,.T.);
#558 = VERTEX_POINT('',#559);
#559 = CARTESIAN_POINT('',(1.738420937724,103.03127756283,
    -7.589415207399E-16));
#560 = LINE('',#561,#562);
#561 = CARTESIAN_POINT('',(1.738420937725,103.03127756283,
    -8.673617379884E-16));
#562 = VECTOR('',#563,1.);
#563 = DIRECTION('',(0.999989038106,-4.68227174605E-03,0.));
#564 = ORIENTED_EDGE('',*,*,#565,.T.);
#565 = EDGE_CURVE('',#558,#566,#568,.T.);
#566 = VERTEX_POINT('',#567);
#567 = CARTESIAN_POINT('',(3.708916324367,100.14960323875,
    -5.421010862428E-16));
#568 = LINE('',#569,#570);
#569 = CARTESIAN_POINT('',(3.708916324367,100.14960323875,
    -8.673617379884E-16));
#570 = VECTOR('',#571,1.);
#571 = DIRECTION('',(0.56445434032,-0.825464292198,0.));
#572 = ORIENTED_EDGE('',*,*,#573,.T.);
#573 = EDGE_CURVE('',#566,#574,#576,.T.);
#574 = VERTEX_POINT('',#575);
#575 = CARTESIAN_POINT('',(20.541969641527,100.05854787071,
    -2.168404344971E-16));
#576 = LINE('',#577,#578);
#577 = CARTESIAN_POINT('',(20.541969641929,100.05854787071,0.));
#578 = VECTOR('',#579,1.);
#579 = DIRECTION('',(0.999985369951,-5.409240627812E-03,0.));
#580 = ORIENTED_EDGE('',*,*,#581,.T.);
#581 = EDGE_CURVE('',#574,#582,#584,.T.);
#582 = VERTEX_POINT('',#583);
#583 = CARTESIAN_POINT('',(23.462480011873,100.03746233017,
    -7.589415207399E-16));
#584 = LINE('',#585,#586);
#585 = CARTESIAN_POINT('',(23.46248001185,100.03746233017,
    -8.673617379884E-16));
#586 = VECTOR('',#587,1.);
#587 = DIRECTION('',(0.999973938165,-7.219625455913E-03,0.));
#588 = ORIENTED_EDGE('',*,*,#589,.T.);
#589 = EDGE_CURVE('',#582,#590,#592,.T.);
#590 = VERTEX_POINT('',#591);
#591 = CARTESIAN_POINT('',(45.412285492775,97.937884527188,
    -5.421010862428E-16));
#592 = LINE('',#593,#594);
#593 = CARTESIAN_POINT('',(45.412285492779,97.937884527188,
    -8.673617379884E-16));
#594 = VECTOR('',#595,1.);
#595 = DIRECTION('',(0.995456350685,-9.521897857165E-02,0.));
#596 = ORIENTED_EDGE('',*,*,#597,.T.);
#597 = EDGE_CURVE('',#590,#598,#600,.T.);
#598 = VERTEX_POINT('',#599);
#599 = CARTESIAN_POINT('',(52.492805425727,76.982059382006,
    -2.168404344971E-16));
#600 = LINE('',#601,#602);
#601 = CARTESIAN_POINT('',(52.492805425728,76.982059382003,0.));
#602 = VECTOR('',#603,1.);
#603 = DIRECTION('',(0.320100427129,-0.947383616362,0.));
#604 = ORIENTED_EDGE('',*,*,#605,.T.);
#605 = EDGE_CURVE('',#598,#606,#608,.T.);
#606 = VERTEX_POINT('',#607);
#607 = CARTESIAN_POINT('',(53.5236326075,71.015720686908,
    -5.421010862428E-16));
#608 = LINE('',#609,#610);
#609 = CARTESIAN_POINT('',(53.523632607508,71.01572068686,
    -8.673617379884E-16));
#610 = VECTOR('',#611,1.);
#611 = DIRECTION('',(0.170251443875,-0.985400652455,0.));
#612 = ORIENTED_EDGE('',*,*,#613,.T.);
#613 = EDGE_CURVE('',#606,#614,#616,.T.);
#614 = VERTEX_POINT('',#615);
#615 = CARTESIAN_POINT('',(55.662183570806,51.826539045588,0.));
#616 = LINE('',#617,#618);
#617 = CARTESIAN_POINT('',(55.662183570806,51.82653904559,0.));
#618 = VECTOR('',#619,1.);
#619 = DIRECTION('',(0.11075995322,-0.993847187833,0.));
#620 = ORIENTED_EDGE('',*,*,#621,.T.);
#621 = EDGE_CURVE('',#614,#622,#624,.T.);
#622 = VERTEX_POINT('',#623);
#623 = CARTESIAN_POINT('',(56.013037621395,45.395075400141,
    1.084202172485E-16));
#624 = LINE('',#625,#626);
#625 = CARTESIAN_POINT('',(56.013037621395,45.395075400138,0.));
#626 = VECTOR('',#627,1.);
#627 = DIRECTION('',(5.447175960964E-02,-0.998515311553,0.));
#628 = ORIENTED_EDGE('',*,*,#629,.T.);
#629 = EDGE_CURVE('',#622,#630,#632,.T.);
#630 = VERTEX_POINT('',#631);
#631 = CARTESIAN_POINT('',(56.00967094243,25.444449255287,
    4.336808689942E-16));
#632 = LINE('',#633,#634);
#633 = CARTESIAN_POINT('',(56.00967094243,25.444449255295,
    4.336808689942E-16));
#634 = VECTOR('',#635,1.);
#635 = DIRECTION('',(-1.687505390662E-04,-0.999999985762,0.));
#636 = ORIENTED_EDGE('',*,*,#637,.T.);
#637 = EDGE_CURVE('',#630,#638,#640,.T.);
#638 = VERTEX_POINT('',#639);
#639 = CARTESIAN_POINT('',(55.656641738095,18.986154278469,
    1.084202172485E-16));
#640 = LINE('',#641,#642);
#641 = CARTESIAN_POINT('',(55.656641738095,18.986154278477,
    4.336808689942E-16));
#642 = VECTOR('',#643,1.);
#643 = DIRECTION('',(-5.458142637439E-02,-0.998509322888,0.));
#644 = ORIENTED_EDGE('',*,*,#645,.T.);
#645 = EDGE_CURVE('',#638,#646,#648,.T.);
#646 = VERTEX_POINT('',#647);
#647 = CARTESIAN_POINT('',(51.505615884171,3.917575356604,
    -7.589415207399E-16));
#648 = LINE('',#649,#650);
#649 = CARTESIAN_POINT('',(51.505615884171,3.917575356603,
    -8.673617379884E-16));
#650 = VECTOR('',#651,1.);
#651 = DIRECTION('',(-0.265582741806,-0.964088070279,0.));
#652 = ORIENTED_EDGE('',*,*,#653,.T.);
#653 = EDGE_CURVE('',#646,#654,#656,.T.);
#654 = VERTEX_POINT('',#655);
#655 = CARTESIAN_POINT('',(52.75105328756,-4.170959716842,
    -5.421010862428E-16));
#656 = LINE('',#657,#658);
#657 = CARTESIAN_POINT('',(52.75105328756,-4.170959716841,
    -8.673617379884E-16));
#658 = VECTOR('',#659,1.);
#659 = DIRECTION('',(0.152182206598,-0.988352455349,0.));
#660 = ORIENTED_EDGE('',*,*,#661,.T.);
#661 = EDGE_CURVE('',#654,#662,#664,.T.);
#662 = VERTEX_POINT('',#663);
#663 = CARTESIAN_POINT('',(64.216408080952,-15.0007881163,
    -2.168404344971E-16));
#664 = LINE('',#665,#666);
#665 = CARTESIAN_POINT('',(64.216408080953,-15.00078811631,0.));
#666 = VECTOR('',#667,1.);
#667 = DIRECTION('',(0.726967644256,-0.686671715017,0.));
#668 = ORIENTED_EDGE('',*,*,#669,.T.);
#669 = EDGE_CURVE('',#662,#670,#672,.T.);
#670 = VERTEX_POINT('',#671);
#671 = CARTESIAN_POINT('',(53.032501959447,-33.18178307025,
    -7.589415207399E-16));
#672 = LINE('',#673,#674);
#673 = CARTESIAN_POINT('',(53.032501959448,-33.18178307025,
    -8.673617379884E-16));
#674 = VECTOR('',#675,1.);
#675 = DIRECTION('',(-0.52394795703,-0.851750279321,0.));
#676 = ORIENTED_EDGE('',*,*,#677,.T.);
#677 = EDGE_CURVE('',#670,#678,#680,.T.);
#678 = VERTEX_POINT('',#679);
#679 = CARTESIAN_POINT('',(52.500989806681,-38.12149768516,
    -5.421010862428E-16));
#680 = LINE('',#681,#682);
#681 = CARTESIAN_POINT('',(52.500989806681,-38.12149768517,
    -8.673617379884E-16));
#682 = VECTOR('',#683,1.);
#683 = DIRECTION('',(-0.106982246756,-0.994260930983,0.));
#684 = ORIENTED_EDGE('',*,*,#685,.T.);
#685 = EDGE_CURVE('',#678,#686,#688,.T.);
#686 = VERTEX_POINT('',#687);
#687 = CARTESIAN_POINT('',(37.16741212963,-56.89717106023,
    -3.252606517457E-16));
#688 = LINE('',#689,#690);
#689 = CARTESIAN_POINT('',(37.167412129627,-56.89717106024,0.));
#690 = VECTOR('',#691,1.);
#691 = DIRECTION('',(-0.632537319932,-0.774529882505,0.));
#692 = ORIENTED_EDGE('',*,*,#693,.T.);
#693 = EDGE_CURVE('',#686,#694,#696,.T.);
#694 = VERTEX_POINT('',#695);
#695 = CARTESIAN_POINT('',(17.245198861672,-45.986375404,
    -6.505213034913E-16));
#696 = LINE('',#697,#698);
#697 = CARTESIAN_POINT('',(17.245198861781,-45.98637540406,
    -1.301042606983E-15));
#698 = VECTOR('',#699,1.);
#699 = DIRECTION('',(-0.877077493908,0.48034890411,0.));
#700 = ORIENTED_EDGE('',*,*,#701,.T.);
#701 = EDGE_CURVE('',#694,#702,#704,.T.);
#702 = VERTEX_POINT('',#703);
#703 = CARTESIAN_POINT('',(1.549978118132,-38.13915533977,
    2.168404344971E-16));
#704 = LINE('',#705,#706);
#705 = CARTESIAN_POINT('',(1.549978118131,-38.13915533977,0.));
#706 = VECTOR('',#707,1.);
#707 = DIRECTION('',(-0.89443608793,0.447195801197,0.));
#708 = ORIENTED_EDGE('',*,*,#709,.T.);
#709 = EDGE_CURVE('',#702,#710,#712,.T.);
#710 = VERTEX_POINT('',#711);
#711 = CARTESIAN_POINT('',(-1.863769287397,-21.26685824843,
    3.252606517457E-16));
#712 = LINE('',#713,#714);
#713 = CARTESIAN_POINT('',(-1.863769287397,-21.26685824843,
    8.673617379884E-16));
#714 = VECTOR('',#715,1.);
#715 = DIRECTION('',(-0.198310166503,0.980139315537,0.));
#716 = ORIENTED_EDGE('',*,*,#717,.T.);
#717 = EDGE_CURVE('',#710,#718,#720,.T.);
#718 = VERTEX_POINT('',#719);
#719 = CARTESIAN_POINT('',(-21.93854614942,-27.27886087769,
    -3.252606517457E-16));
#720 = LINE('',#721,#722);
#721 = CARTESIAN_POINT('',(-21.93854614942,-27.27886087769,
    -8.673617379884E-16));
#722 = VECTOR('',#723,1.);
#723 = DIRECTION('',(-0.957963168314,-0.286891213099,0.));
#724 = ORIENTED_EDGE('',*,*,#725,.T.);
#725 = EDGE_CURVE('',#718,#726,#728,.T.);
#726 = VERTEX_POINT('',#727);
#727 = CARTESIAN_POINT('',(-43.41892903705,-27.01381154885,
    5.421010862428E-16));
#728 = LINE('',#729,#730);
#729 = CARTESIAN_POINT('',(-43.41892903705,-27.01381154885,
    8.673617379884E-16));
#730 = VECTOR('',#731,1.);
#731 = DIRECTION('',(-0.999923881575,1.233819504481E-02,0.));
#732 = ORIENTED_EDGE('',*,*,#733,.T.);
#733 = EDGE_CURVE('',#726,#734,#736,.T.);
#734 = VERTEX_POINT('',#735);
#735 = CARTESIAN_POINT('',(-46.11978948326,-12.60910778186,0.));
#736 = LINE('',#737,#738);
#737 = CARTESIAN_POINT('',(-46.11978948326,-12.60910778187,0.));
#738 = VECTOR('',#739,1.);
#739 = DIRECTION('',(-0.184287117203,0.98287245278,0.));
#740 = ORIENTED_EDGE('',*,*,#741,.T.);
#741 = EDGE_CURVE('',#734,#742,#744,.T.);
#742 = VERTEX_POINT('',#743);
#743 = CARTESIAN_POINT('',(-59.78227654759,-13.40338462505,
    -2.168404344971E-16));
#744 = LINE('',#745,#746);
#745 = CARTESIAN_POINT('',(-59.78227654754,-13.40338462505,0.));
#746 = VECTOR('',#747,1.);
#747 = DIRECTION('',(-0.998314397657,-5.803760358913E-02,0.));
#748 = ORIENTED_EDGE('',*,*,#749,.T.);
#749 = EDGE_CURVE('',#742,#750,#752,.T.);
#750 = VERTEX_POINT('',#751);
#751 = CARTESIAN_POINT('',(-63.48891979871,-13.4004982779,
    -5.421010862428E-16));
#752 = LINE('',#753,#754);
#753 = CARTESIAN_POINT('',(-63.4889197987,-13.4004982779,
    -8.673617379884E-16));
#754 = VECTOR('',#755,1.);
#755 = DIRECTION('',(-0.999999696817,7.786954625456E-04,0.));
#756 = ORIENTED_EDGE('',*,*,#757,.T.);
#757 = EDGE_CURVE('',#750,#758,#760,.T.);
#758 = VERTEX_POINT('',#759);
#759 = CARTESIAN_POINT('',(-87.1745880362,-11.22378316333,0.));
#760 = LINE('',#761,#762);
#761 = CARTESIAN_POINT('',(-87.17458803621,-11.22378316333,0.));
#762 = VECTOR('',#763,1.);
#763 = DIRECTION('',(-0.995803747808,9.151445706597E-02,0.));
#764 = ORIENTED_EDGE('',*,*,#765,.T.);
#765 = EDGE_CURVE('',#758,#766,#768,.T.);
#766 = VERTEX_POINT('',#767);
#767 = CARTESIAN_POINT('',(-89.41645195509,12.48055271279,
    -2.168404344971E-16));
#768 = LINE('',#769,#770);
#769 = CARTESIAN_POINT('',(-89.41645195509,12.480552712793,0.));
#770 = VECTOR('',#771,1.);
#771 = DIRECTION('',(-9.415595360627E-02,0.99555746012,0.));
#772 = ORIENTED_EDGE('',*,*,#773,.T.);
#773 = EDGE_CURVE('',#766,#774,#776,.T.);
#774 = VERTEX_POINT('',#775);
#775 = CARTESIAN_POINT('',(-89.23707542717,18.949699753545,
    -3.252606517457E-16));
#776 = LINE('',#777,#778);
#777 = CARTESIAN_POINT('',(-89.23707542718,18.949699753516,
    -8.673617379884E-16));
#778 = VECTOR('',#779,1.);
#779 = DIRECTION('',(2.771734981446E-02,0.999615800455,0.));
#780 = ORIENTED_EDGE('',*,*,#781,.T.);
#781 = EDGE_CURVE('',#774,#782,#784,.T.);
#782 = VERTEX_POINT('',#783);
#783 = CARTESIAN_POINT('',(-89.32156254747,38.807710755429,
    3.252606517457E-16));
#784 = LINE('',#785,#786);
#785 = CARTESIAN_POINT('',(-89.32156254748,38.807710755652,
    8.673617379884E-16));
#786 = VECTOR('',#787,1.);
#787 = DIRECTION('',(-4.254522552138E-03,0.999990949478,0.));
#788 = ORIENTED_EDGE('',*,*,#789,.T.);
#789 = EDGE_CURVE('',#782,#94,#790,.T.);
#790 = LINE('',#791,#792);
#791 = CARTESIAN_POINT('',(-89.4601199764,45.285956829922,
    -8.673617379884E-16));
#792 = VECTOR('',#793,1.);
#793 = DIRECTION('',(-2.138321801359E-02,0.999771352854,0.));
#794 = ORIENTED_EDGE('',*,*,#93,.T.);
#795 = ORIENTED_EDGE('',*,*,#31,.T.);
#796 = FACE_BOUND('',#797,.T.);
#797 = EDGE_LOOP('',(#798));
#798 = ORIENTED_EDGE('',*,*,#799,.F.);
#799 = EDGE_CURVE('',#800,#800,#802,.T.);
#800 = VERTEX_POINT('',#801);
#801 = CARTESIAN_POINT('',(-76.85138861973,-4.75166172086,0.));
#802 = CIRCLE('',#803,3.149999999999);
#803 = AXIS2_PLACEMENT_3D('',#804,#805,#806);
#804 = CARTESIAN_POINT('',(-73.70138861974,-4.75166172086,0.));
#805 = DIRECTION('',(0.,0.,-1.));
#806 = DIRECTION('',(-1.,0.,0.));
#807 = FACE_BOUND('',#808,.T.);
#808 = EDGE_LOOP('',(#809));
#809 = ORIENTED_EDGE('',*,*,#810,.F.);
#810 = EDGE_CURVE('',#811,#811,#813,.T.);
#811 = VERTEX_POINT('',#812);
#812 = CARTESIAN_POINT('',(-14.66803738571,-16.62038451986,0.));
#813 = CIRCLE('',#814,3.149999999999);
#814 = AXIS2_PLACEMENT_3D('',#815,#816,#817);
#815 = CARTESIAN_POINT('',(-11.51803738572,-16.62038451986,0.));
#816 = DIRECTION('',(0.,0.,-1.));
#817 = DIRECTION('',(-1.,0.,0.));
#818 = FACE_BOUND('',#819,.T.);
#819 = EDGE_LOOP('',(#820));
#820 = ORIENTED_EDGE('',*,*,#821,.F.);
#821 = EDGE_CURVE('',#822,#822,#824,.T.);
#822 = VERTEX_POINT('',#823);
#823 = CARTESIAN_POINT('',(41.387388351726,-33.4582886089,0.));
#824 = CIRCLE('',#825,3.149999999999);
#825 = AXIS2_PLACEMENT_3D('',#826,#827,#828);
#826 = CARTESIAN_POINT('',(44.537388351725,-33.4582886089,0.));
#827 = DIRECTION('',(0.,0.,-1.));
#828 = DIRECTION('',(-1.,0.,0.));
#829 = FACE_BOUND('',#830,.T.);
#830 = EDGE_LOOP('',(#831));
#831 = ORIENTED_EDGE('',*,*,#832,.F.);
#832 = EDGE_CURVE('',#833,#833,#835,.T.);
#833 = VERTEX_POINT('',#834);
#834 = CARTESIAN_POINT('',(44.534053496372,22.559164116739,0.));
#835 = CIRCLE('',#836,3.149999999999);
#836 = AXIS2_PLACEMENT_3D('',#837,#838,#839);
#837 = CARTESIAN_POINT('',(47.684053496371,22.559164116739,0.));
#838 = DIRECTION('',(0.,0.,-1.));
#839 = DIRECTION('',(-1.,0.,0.));
#840 = FACE_BOUND('',#841,.T.);
#841 = EDGE_LOOP('',(#842));
#842 = ORIENTED_EDGE('',*,*,#843,.F.);
#843 = EDGE_CURVE('',#844,#844,#846,.T.);
#844 = VERTEX_POINT('',#845);
#845 = CARTESIAN_POINT('',(-84.38837446357,54.853895526734,0.));
#846 = CIRCLE('',#847,3.149999999999);
#847 = AXIS2_PLACEMENT_3D('',#848,#849,#850);
#848 = CARTESIAN_POINT('',(-81.23837446358,54.853895526734,0.));
#849 = DIRECTION('',(0.,0.,-1.));
#850 = DIRECTION('',(-1.,0.,0.));
#851 = FACE_BOUND('',#852,.T.);
#852 = EDGE_LOOP('',(#853));
#853 = ORIENTED_EDGE('',*,*,#854,.F.);
#854 = EDGE_CURVE('',#855,#855,#857,.T.);
#855 = VERTEX_POINT('',#856);
#856 = CARTESIAN_POINT('',(-55.44040594038,85.007880863003,0.));
#857 = CIRCLE('',#858,3.149999999999);
#858 = AXIS2_PLACEMENT_3D('',#859,#860,#861);
#859 = CARTESIAN_POINT('',(-52.29040594039,85.007880863003,0.));
#860 = DIRECTION('',(0.,0.,-1.));
#861 = DIRECTION('',(-1.,0.,0.));
#862 = FACE_BOUND('',#863,.T.);
#863 = EDGE_LOOP('',(#864));
#864 = ORIENTED_EDGE('',*,*,#865,.F.);
#865 = EDGE_CURVE('',#866,#866,#868,.T.);
#866 = VERTEX_POINT('',#867);
#867 = CARTESIAN_POINT('',(-19.47597328652,95.013083618946,0.));
#868 = CIRCLE('',#869,3.149999999999);
#869 = AXIS2_PLACEMENT_3D('',#870,#871,#872);
#870 = CARTESIAN_POINT('',(-16.32597328653,95.013083618946,0.));
#871 = DIRECTION('',(0.,0.,-1.));
#872 = DIRECTION('',(-1.,0.,0.));
#873 = FACE_BOUND('',#874,.T.);
#874 = EDGE_LOOP('',(#875));
#875 = ORIENTED_EDGE('',*,*,#876,.F.);
#876 = EDGE_CURVE('',#877,#877,#879,.T.);
#877 = VERTEX_POINT('',#878);
#878 = CARTESIAN_POINT('',(38.549083441776,84.531427981148,0.));
#879 = CIRCLE('',#880,3.149999999999);
#880 = AXIS2_PLACEMENT_3D('',#881,#882,#883);
#881 = CARTESIAN_POINT('',(41.699083441775,84.531427981148,0.));
#882 = DIRECTION('',(0.,0.,-1.));
#883 = DIRECTION('',(-1.,0.,0.));
#884 = PLANE('',#885);
#885 = AXIS2_PLACEMENT_3D('',#886,#887,#888);
#886 = CARTESIAN_POINT('',(-11.76097075972,29.171150871107,0.));
#887 = DIRECTION('',(0.,0.,-1.));
#888 = DIRECTION('',(-1.,0.,0.));
#889 = ADVANCED_FACE('',(#890),#901,.F.);
#890 = FACE_BOUND('',#891,.T.);
#891 = EDGE_LOOP('',(#892,#898,#899,#900));
#892 = ORIENTED_EDGE('',*,*,#893,.F.);
#893 = EDGE_CURVE('',#510,#398,#894,.T.);
#894 = LINE('',#895,#896);
#895 = CARTESIAN_POINT('',(-63.42148462742,93.271001034143,3.));
#896 = VECTOR('',#897,1.);
#897 = DIRECTION('',(0.,0.,1.));
#898 = ORIENTED_EDGE('',*,*,#509,.F.);
#899 = ORIENTED_EDGE('',*,*,#61,.T.);
#900 = ORIENTED_EDGE('',*,*,#405,.F.);
#901 = PLANE('',#902);
#902 = AXIS2_PLACEMENT_3D('',#903,#904,#905);
#903 = CARTESIAN_POINT('',(-63.42148462742,93.271001034143,3.));
#904 = DIRECTION('',(8.114540341607E-02,-0.996702274255,0.));
#905 = DIRECTION('',(0.996702274255,8.114540341607E-02,0.));
#906 = ADVANCED_FACE('',(#907),#918,.F.);
#907 = FACE_BOUND('',#908,.T.);
#908 = EDGE_LOOP('',(#909,#910,#911,#917));
#909 = ORIENTED_EDGE('',*,*,#101,.F.);
#910 = ORIENTED_EDGE('',*,*,#789,.F.);
#911 = ORIENTED_EDGE('',*,*,#912,.T.);
#912 = EDGE_CURVE('',#782,#126,#913,.T.);
#913 = LINE('',#914,#915);
#914 = CARTESIAN_POINT('',(-89.32156254748,38.807710755652,3.));
#915 = VECTOR('',#916,1.);
#916 = DIRECTION('',(0.,0.,1.));
#917 = ORIENTED_EDGE('',*,*,#125,.F.);
#918 = PLANE('',#919);
#919 = AXIS2_PLACEMENT_3D('',#920,#921,#922);
#920 = CARTESIAN_POINT('',(-89.4601199764,45.285956829922,3.));
#921 = DIRECTION('',(0.999771352854,2.138321801359E-02,0.));
#922 = DIRECTION('',(-2.138321801359E-02,0.999771352854,0.));
#923 = ADVANCED_FACE('',(#924),#935,.F.);
#924 = FACE_BOUND('',#925,.T.);
#925 = EDGE_LOOP('',(#926,#932,#933,#934));
#926 = ORIENTED_EDGE('',*,*,#927,.F.);
#927 = EDGE_CURVE('',#518,#390,#928,.T.);
#928 = LINE('',#929,#930);
#929 = CARTESIAN_POINT('',(-60.79660364376,93.268957050612,3.));
#930 = VECTOR('',#931,1.);
#931 = DIRECTION('',(0.,0.,1.));
#932 = ORIENTED_EDGE('',*,*,#517,.F.);
#933 = ORIENTED_EDGE('',*,*,#893,.T.);
#934 = ORIENTED_EDGE('',*,*,#397,.F.);
#935 = PLANE('',#936);
#936 = AXIS2_PLACEMENT_3D('',#937,#938,#939);
#937 = CARTESIAN_POINT('',(-60.79660364376,93.268957050612,3.));
#938 = DIRECTION('',(-7.786954625278E-04,-0.999999696817,0.));
#939 = DIRECTION('',(0.999999696817,-7.786954625278E-04,0.));
#940 = ADVANCED_FACE('',(#941),#952,.F.);
#941 = FACE_BOUND('',#942,.T.);
#942 = EDGE_LOOP('',(#943,#944,#945,#951));
#943 = ORIENTED_EDGE('',*,*,#912,.F.);
#944 = ORIENTED_EDGE('',*,*,#781,.F.);
#945 = ORIENTED_EDGE('',*,*,#946,.T.);
#946 = EDGE_CURVE('',#774,#134,#947,.T.);
#947 = LINE('',#948,#949);
#948 = CARTESIAN_POINT('',(-89.23707542718,18.949699753516,3.));
#949 = VECTOR('',#950,1.);
#950 = DIRECTION('',(0.,0.,1.));
#951 = ORIENTED_EDGE('',*,*,#133,.F.);
#952 = PLANE('',#953);
#953 = AXIS2_PLACEMENT_3D('',#954,#955,#956);
#954 = CARTESIAN_POINT('',(-89.32156254748,38.807710755652,3.));
#955 = DIRECTION('',(0.999990949478,4.254522552138E-03,0.));
#956 = DIRECTION('',(-4.254522552138E-03,0.999990949478,0.));
#957 = ADVANCED_FACE('',(#958),#969,.F.);
#958 = FACE_BOUND('',#959,.T.);
#959 = EDGE_LOOP('',(#960,#966,#967,#968));
#960 = ORIENTED_EDGE('',*,*,#961,.F.);
#961 = EDGE_CURVE('',#526,#382,#962,.T.);
#962 = LINE('',#963,#964);
#963 = CARTESIAN_POINT('',(-45.58163365395,92.654081702323,3.));
#964 = VECTOR('',#965,1.);
#965 = DIRECTION('',(0.,0.,1.));
#966 = ORIENTED_EDGE('',*,*,#525,.F.);
#967 = ORIENTED_EDGE('',*,*,#927,.T.);
#968 = ORIENTED_EDGE('',*,*,#389,.F.);
#969 = PLANE('',#970);
#970 = AXIS2_PLACEMENT_3D('',#971,#972,#973);
#971 = CARTESIAN_POINT('',(-45.58163365395,92.654081702323,3.));
#972 = DIRECTION('',(-4.037956461495E-02,-0.99918441279,0.));
#973 = DIRECTION('',(0.99918441279,-4.037956461495E-02,0.));
#974 = ADVANCED_FACE('',(#975),#986,.F.);
#975 = FACE_BOUND('',#976,.T.);
#976 = EDGE_LOOP('',(#977,#978,#979,#985));
#977 = ORIENTED_EDGE('',*,*,#946,.F.);
#978 = ORIENTED_EDGE('',*,*,#773,.F.);
#979 = ORIENTED_EDGE('',*,*,#980,.T.);
#980 = EDGE_CURVE('',#766,#142,#981,.T.);
#981 = LINE('',#982,#983);
#982 = CARTESIAN_POINT('',(-89.41645195509,12.480552712793,3.));
#983 = VECTOR('',#984,1.);
#984 = DIRECTION('',(0.,0.,1.));
#985 = ORIENTED_EDGE('',*,*,#141,.F.);
#986 = PLANE('',#987);
#987 = AXIS2_PLACEMENT_3D('',#988,#989,#990);
#988 = CARTESIAN_POINT('',(-89.23707542718,18.949699753516,3.));
#989 = DIRECTION('',(0.999615800455,-2.771734981446E-02,0.));
#990 = DIRECTION('',(2.771734981446E-02,0.999615800455,0.));
#991 = ADVANCED_FACE('',(#992),#1003,.F.);
#992 = FACE_BOUND('',#993,.T.);
#993 = EDGE_LOOP('',(#994,#1000,#1001,#1002));
#994 = ORIENTED_EDGE('',*,*,#995,.F.);
#995 = EDGE_CURVE('',#534,#374,#996,.T.);
#996 = LINE('',#997,#998);
#997 = CARTESIAN_POINT('',(-45.36474981215,99.671799487344,3.));
#998 = VECTOR('',#999,1.);
#999 = DIRECTION('',(0.,0.,1.));
#1000 = ORIENTED_EDGE('',*,*,#533,.F.);
#1001 = ORIENTED_EDGE('',*,*,#961,.T.);
#1002 = ORIENTED_EDGE('',*,*,#381,.F.);
#1003 = PLANE('',#1004);
#1004 = AXIS2_PLACEMENT_3D('',#1005,#1006,#1007);
#1005 = CARTESIAN_POINT('',(-45.36474981215,99.671799487344,3.));
#1006 = DIRECTION('',(0.999522776709,-3.08904328184E-02,0.));
#1007 = DIRECTION('',(3.08904328184E-02,0.999522776709,0.));
#1008 = ADVANCED_FACE('',(#1009),#1020,.F.);
#1009 = FACE_BOUND('',#1010,.T.);
#1010 = EDGE_LOOP('',(#1011,#1012,#1013,#1019));
#1011 = ORIENTED_EDGE('',*,*,#980,.F.);
#1012 = ORIENTED_EDGE('',*,*,#765,.F.);
#1013 = ORIENTED_EDGE('',*,*,#1014,.T.);
#1014 = EDGE_CURVE('',#758,#150,#1015,.T.);
#1015 = LINE('',#1016,#1017);
#1016 = CARTESIAN_POINT('',(-87.17458803621,-11.22378316333,3.));
#1017 = VECTOR('',#1018,1.);
#1018 = DIRECTION('',(0.,0.,1.));
#1019 = ORIENTED_EDGE('',*,*,#149,.F.);
#1020 = PLANE('',#1021);
#1021 = AXIS2_PLACEMENT_3D('',#1022,#1023,#1024);
#1022 = CARTESIAN_POINT('',(-89.41645195509,12.480552712793,3.));
#1023 = DIRECTION('',(0.99555746012,9.415595360627E-02,0.));
#1024 = DIRECTION('',(-9.415595360627E-02,0.99555746012,0.));
#1025 = ADVANCED_FACE('',(#1026),#1037,.F.);
#1026 = FACE_BOUND('',#1027,.T.);
#1027 = EDGE_LOOP('',(#1028,#1034,#1035,#1036));
#1028 = ORIENTED_EDGE('',*,*,#1029,.F.);
#1029 = EDGE_CURVE('',#542,#366,#1030,.T.);
#1030 = LINE('',#1031,#1032);
#1031 = CARTESIAN_POINT('',(-21.23202920156,100.26638480345,3.));
#1032 = VECTOR('',#1033,1.);
#1033 = DIRECTION('',(0.,0.,1.));
#1034 = ORIENTED_EDGE('',*,*,#541,.F.);
#1035 = ORIENTED_EDGE('',*,*,#995,.T.);
#1036 = ORIENTED_EDGE('',*,*,#373,.F.);
#1037 = PLANE('',#1038);
#1038 = AXIS2_PLACEMENT_3D('',#1039,#1040,#1041);
#1039 = CARTESIAN_POINT('',(-21.23202920156,100.26638480345,3.));
#1040 = DIRECTION('',(2.463066389908E-02,-0.999696619178,0.));
#1041 = DIRECTION('',(0.999696619178,2.463066389908E-02,0.));
#1042 = ADVANCED_FACE('',(#1043),#1054,.F.);
#1043 = FACE_BOUND('',#1044,.T.);
#1044 = EDGE_LOOP('',(#1045,#1046,#1047,#1053));
#1045 = ORIENTED_EDGE('',*,*,#1014,.F.);
#1046 = ORIENTED_EDGE('',*,*,#757,.F.);
#1047 = ORIENTED_EDGE('',*,*,#1048,.T.);
#1048 = EDGE_CURVE('',#750,#158,#1049,.T.);
#1049 = LINE('',#1050,#1051);
#1050 = CARTESIAN_POINT('',(-63.4889197987,-13.4004982779,3.));
#1051 = VECTOR('',#1052,1.);
#1052 = DIRECTION('',(0.,0.,1.));
#1053 = ORIENTED_EDGE('',*,*,#157,.F.);
#1054 = PLANE('',#1055);
#1055 = AXIS2_PLACEMENT_3D('',#1056,#1057,#1058);
#1056 = CARTESIAN_POINT('',(-87.17458803621,-11.22378316333,3.));
#1057 = DIRECTION('',(9.151445706597E-02,0.995803747808,0.));
#1058 = DIRECTION('',(-0.995803747808,9.151445706597E-02,0.));
#1059 = ADVANCED_FACE('',(#1060),#1071,.F.);
#1060 = FACE_BOUND('',#1061,.T.);
#1061 = EDGE_LOOP('',(#1062,#1068,#1069,#1070));
#1062 = ORIENTED_EDGE('',*,*,#1063,.F.);
#1063 = EDGE_CURVE('',#550,#358,#1064,.T.);
#1064 = LINE('',#1065,#1066);
#1065 = CARTESIAN_POINT('',(-18.86068044071,103.1277292105,3.));
#1066 = VECTOR('',#1067,1.);
#1067 = DIRECTION('',(0.,0.,1.));
#1068 = ORIENTED_EDGE('',*,*,#549,.F.);
#1069 = ORIENTED_EDGE('',*,*,#1029,.T.);
#1070 = ORIENTED_EDGE('',*,*,#365,.F.);
#1071 = PLANE('',#1072);
#1072 = AXIS2_PLACEMENT_3D('',#1073,#1074,#1075);
#1073 = CARTESIAN_POINT('',(-18.86068044071,103.1277292105,3.));
#1074 = DIRECTION('',(0.769952741604,-0.638100913412,0.));
#1075 = DIRECTION('',(0.638100913412,0.769952741604,0.));
#1076 = ADVANCED_FACE('',(#1077),#1088,.F.);
#1077 = FACE_BOUND('',#1078,.T.);
#1078 = EDGE_LOOP('',(#1079,#1080,#1081,#1087));
#1079 = ORIENTED_EDGE('',*,*,#1048,.F.);
#1080 = ORIENTED_EDGE('',*,*,#749,.F.);
#1081 = ORIENTED_EDGE('',*,*,#1082,.T.);
#1082 = EDGE_CURVE('',#742,#166,#1083,.T.);
#1083 = LINE('',#1084,#1085);
#1084 = CARTESIAN_POINT('',(-59.78227654754,-13.40338462505,3.));
#1085 = VECTOR('',#1086,1.);
#1086 = DIRECTION('',(0.,0.,1.));
#1087 = ORIENTED_EDGE('',*,*,#165,.F.);
#1088 = PLANE('',#1089);
#1089 = AXIS2_PLACEMENT_3D('',#1090,#1091,#1092);
#1090 = CARTESIAN_POINT('',(-63.4889197987,-13.4004982779,3.));
#1091 = DIRECTION('',(7.786954625456E-04,0.999999696817,0.));
#1092 = DIRECTION('',(-0.999999696817,7.786954625456E-04,0.));
#1093 = ADVANCED_FACE('',(#1094),#1105,.F.);
#1094 = FACE_BOUND('',#1095,.T.);
#1095 = EDGE_LOOP('',(#1096,#1102,#1103,#1104));
#1096 = ORIENTED_EDGE('',*,*,#1097,.F.);
#1097 = EDGE_CURVE('',#558,#350,#1098,.T.);
#1098 = LINE('',#1099,#1100);
#1099 = CARTESIAN_POINT('',(1.738420937725,103.03127756283,3.));
#1100 = VECTOR('',#1101,1.);
#1101 = DIRECTION('',(0.,0.,1.));
#1102 = ORIENTED_EDGE('',*,*,#557,.F.);
#1103 = ORIENTED_EDGE('',*,*,#1063,.T.);
#1104 = ORIENTED_EDGE('',*,*,#357,.F.);
#1105 = PLANE('',#1106);
#1106 = AXIS2_PLACEMENT_3D('',#1107,#1108,#1109);
#1107 = CARTESIAN_POINT('',(1.738420937725,103.03127756283,3.));
#1108 = DIRECTION('',(-4.68227174605E-03,-0.999989038106,0.));
#1109 = DIRECTION('',(0.999989038106,-4.68227174605E-03,0.));
#1110 = ADVANCED_FACE('',(#1111),#1122,.F.);
#1111 = FACE_BOUND('',#1112,.T.);
#1112 = EDGE_LOOP('',(#1113,#1114,#1115,#1121));
#1113 = ORIENTED_EDGE('',*,*,#1082,.F.);
#1114 = ORIENTED_EDGE('',*,*,#741,.F.);
#1115 = ORIENTED_EDGE('',*,*,#1116,.T.);
#1116 = EDGE_CURVE('',#734,#174,#1117,.T.);
#1117 = LINE('',#1118,#1119);
#1118 = CARTESIAN_POINT('',(-46.11978948326,-12.60910778187,3.));
#1119 = VECTOR('',#1120,1.);
#1120 = DIRECTION('',(0.,0.,1.));
#1121 = ORIENTED_EDGE('',*,*,#173,.F.);
#1122 = PLANE('',#1123);
#1123 = AXIS2_PLACEMENT_3D('',#1124,#1125,#1126);
#1124 = CARTESIAN_POINT('',(-59.78227654754,-13.40338462505,3.));
#1125 = DIRECTION('',(-5.803760358913E-02,0.998314397657,0.));
#1126 = DIRECTION('',(-0.998314397657,-5.803760358913E-02,0.));
#1127 = ADVANCED_FACE('',(#1128),#1139,.F.);
#1128 = FACE_BOUND('',#1129,.T.);
#1129 = EDGE_LOOP('',(#1130,#1136,#1137,#1138));
#1130 = ORIENTED_EDGE('',*,*,#1131,.F.);
#1131 = EDGE_CURVE('',#566,#342,#1132,.T.);
#1132 = LINE('',#1133,#1134);
#1133 = CARTESIAN_POINT('',(3.708916324367,100.14960323875,3.));
#1134 = VECTOR('',#1135,1.);
#1135 = DIRECTION('',(0.,0.,1.));
#1136 = ORIENTED_EDGE('',*,*,#565,.F.);
#1137 = ORIENTED_EDGE('',*,*,#1097,.T.);
#1138 = ORIENTED_EDGE('',*,*,#349,.F.);
#1139 = PLANE('',#1140);
#1140 = AXIS2_PLACEMENT_3D('',#1141,#1142,#1143);
#1141 = CARTESIAN_POINT('',(3.708916324367,100.14960323875,3.));
#1142 = DIRECTION('',(-0.825464292198,-0.56445434032,0.));
#1143 = DIRECTION('',(0.56445434032,-0.825464292198,0.));
#1144 = ADVANCED_FACE('',(#1145),#1156,.F.);
#1145 = FACE_BOUND('',#1146,.T.);
#1146 = EDGE_LOOP('',(#1147,#1148,#1149,#1155));
#1147 = ORIENTED_EDGE('',*,*,#1116,.F.);
#1148 = ORIENTED_EDGE('',*,*,#733,.F.);
#1149 = ORIENTED_EDGE('',*,*,#1150,.T.);
#1150 = EDGE_CURVE('',#726,#182,#1151,.T.);
#1151 = LINE('',#1152,#1153);
#1152 = CARTESIAN_POINT('',(-43.41892903705,-27.01381154885,3.));
#1153 = VECTOR('',#1154,1.);
#1154 = DIRECTION('',(0.,0.,1.));
#1155 = ORIENTED_EDGE('',*,*,#181,.F.);
#1156 = PLANE('',#1157);
#1157 = AXIS2_PLACEMENT_3D('',#1158,#1159,#1160);
#1158 = CARTESIAN_POINT('',(-46.11978948326,-12.60910778187,3.));
#1159 = DIRECTION('',(0.98287245278,0.184287117203,0.));
#1160 = DIRECTION('',(-0.184287117203,0.98287245278,0.));
#1161 = ADVANCED_FACE('',(#1162),#1173,.F.);
#1162 = FACE_BOUND('',#1163,.T.);
#1163 = EDGE_LOOP('',(#1164,#1170,#1171,#1172));
#1164 = ORIENTED_EDGE('',*,*,#1165,.F.);
#1165 = EDGE_CURVE('',#574,#334,#1166,.T.);
#1166 = LINE('',#1167,#1168);
#1167 = CARTESIAN_POINT('',(20.541969641929,100.05854787071,3.));
#1168 = VECTOR('',#1169,1.);
#1169 = DIRECTION('',(0.,0.,1.));
#1170 = ORIENTED_EDGE('',*,*,#573,.F.);
#1171 = ORIENTED_EDGE('',*,*,#1131,.T.);
#1172 = ORIENTED_EDGE('',*,*,#341,.F.);
#1173 = PLANE('',#1174);
#1174 = AXIS2_PLACEMENT_3D('',#1175,#1176,#1177);
#1175 = CARTESIAN_POINT('',(20.541969641929,100.05854787071,3.));
#1176 = DIRECTION('',(-5.409240627812E-03,-0.999985369951,0.));
#1177 = DIRECTION('',(0.999985369951,-5.409240627812E-03,0.));
#1178 = ADVANCED_FACE('',(#1179),#1190,.F.);
#1179 = FACE_BOUND('',#1180,.T.);
#1180 = EDGE_LOOP('',(#1181,#1182,#1183,#1189));
#1181 = ORIENTED_EDGE('',*,*,#1150,.F.);
#1182 = ORIENTED_EDGE('',*,*,#725,.F.);
#1183 = ORIENTED_EDGE('',*,*,#1184,.T.);
#1184 = EDGE_CURVE('',#718,#190,#1185,.T.);
#1185 = LINE('',#1186,#1187);
#1186 = CARTESIAN_POINT('',(-21.93854614942,-27.27886087769,3.));
#1187 = VECTOR('',#1188,1.);
#1188 = DIRECTION('',(0.,0.,1.));
#1189 = ORIENTED_EDGE('',*,*,#189,.F.);
#1190 = PLANE('',#1191);
#1191 = AXIS2_PLACEMENT_3D('',#1192,#1193,#1194);
#1192 = CARTESIAN_POINT('',(-43.41892903705,-27.01381154885,3.));
#1193 = DIRECTION('',(1.233819504481E-02,0.999923881575,0.));
#1194 = DIRECTION('',(-0.999923881575,1.233819504481E-02,0.));
#1195 = ADVANCED_FACE('',(#1196),#1207,.F.);
#1196 = FACE_BOUND('',#1197,.T.);
#1197 = EDGE_LOOP('',(#1198,#1204,#1205,#1206));
#1198 = ORIENTED_EDGE('',*,*,#1199,.F.);
#1199 = EDGE_CURVE('',#582,#326,#1200,.T.);
#1200 = LINE('',#1201,#1202);
#1201 = CARTESIAN_POINT('',(23.46248001185,100.03746233017,3.));
#1202 = VECTOR('',#1203,1.);
#1203 = DIRECTION('',(0.,0.,1.));
#1204 = ORIENTED_EDGE('',*,*,#581,.F.);
#1205 = ORIENTED_EDGE('',*,*,#1165,.T.);
#1206 = ORIENTED_EDGE('',*,*,#333,.F.);
#1207 = PLANE('',#1208);
#1208 = AXIS2_PLACEMENT_3D('',#1209,#1210,#1211);
#1209 = CARTESIAN_POINT('',(23.46248001185,100.03746233017,3.));
#1210 = DIRECTION('',(-7.219625455913E-03,-0.999973938165,0.));
#1211 = DIRECTION('',(0.999973938165,-7.219625455913E-03,0.));
#1212 = ADVANCED_FACE('',(#1213),#1224,.F.);
#1213 = FACE_BOUND('',#1214,.T.);
#1214 = EDGE_LOOP('',(#1215,#1216,#1217,#1223));
#1215 = ORIENTED_EDGE('',*,*,#1184,.F.);
#1216 = ORIENTED_EDGE('',*,*,#717,.F.);
#1217 = ORIENTED_EDGE('',*,*,#1218,.T.);
#1218 = EDGE_CURVE('',#710,#198,#1219,.T.);
#1219 = LINE('',#1220,#1221);
#1220 = CARTESIAN_POINT('',(-1.863769287397,-21.26685824843,3.));
#1221 = VECTOR('',#1222,1.);
#1222 = DIRECTION('',(0.,0.,1.));
#1223 = ORIENTED_EDGE('',*,*,#197,.F.);
#1224 = PLANE('',#1225);
#1225 = AXIS2_PLACEMENT_3D('',#1226,#1227,#1228);
#1226 = CARTESIAN_POINT('',(-21.93854614942,-27.27886087769,3.));
#1227 = DIRECTION('',(-0.286891213099,0.957963168314,0.));
#1228 = DIRECTION('',(-0.957963168314,-0.286891213099,0.));
#1229 = ADVANCED_FACE('',(#1230),#1241,.F.);
#1230 = FACE_BOUND('',#1231,.T.);
#1231 = EDGE_LOOP('',(#1232,#1238,#1239,#1240));
#1232 = ORIENTED_EDGE('',*,*,#1233,.F.);
#1233 = EDGE_CURVE('',#590,#318,#1234,.T.);
#1234 = LINE('',#1235,#1236);
#1235 = CARTESIAN_POINT('',(45.412285492779,97.937884527188,3.));
#1236 = VECTOR('',#1237,1.);
#1237 = DIRECTION('',(0.,0.,1.));
#1238 = ORIENTED_EDGE('',*,*,#589,.F.);
#1239 = ORIENTED_EDGE('',*,*,#1199,.T.);
#1240 = ORIENTED_EDGE('',*,*,#325,.F.);
#1241 = PLANE('',#1242);
#1242 = AXIS2_PLACEMENT_3D('',#1243,#1244,#1245);
#1243 = CARTESIAN_POINT('',(45.412285492779,97.937884527188,3.));
#1244 = DIRECTION('',(-9.521897857165E-02,-0.995456350685,0.));
#1245 = DIRECTION('',(0.995456350685,-9.521897857165E-02,0.));
#1246 = ADVANCED_FACE('',(#1247),#1258,.F.);
#1247 = FACE_BOUND('',#1248,.T.);
#1248 = EDGE_LOOP('',(#1249,#1250,#1251,#1257));
#1249 = ORIENTED_EDGE('',*,*,#1218,.F.);
#1250 = ORIENTED_EDGE('',*,*,#709,.F.);
#1251 = ORIENTED_EDGE('',*,*,#1252,.T.);
#1252 = EDGE_CURVE('',#702,#206,#1253,.T.);
#1253 = LINE('',#1254,#1255);
#1254 = CARTESIAN_POINT('',(1.549978118131,-38.13915533977,3.));
#1255 = VECTOR('',#1256,1.);
#1256 = DIRECTION('',(0.,0.,1.));
#1257 = ORIENTED_EDGE('',*,*,#205,.F.);
#1258 = PLANE('',#1259);
#1259 = AXIS2_PLACEMENT_3D('',#1260,#1261,#1262);
#1260 = CARTESIAN_POINT('',(-1.863769287397,-21.26685824843,3.));
#1261 = DIRECTION('',(0.980139315537,0.198310166503,0.));
#1262 = DIRECTION('',(-0.198310166503,0.980139315537,0.));
#1263 = ADVANCED_FACE('',(#1264),#1275,.F.);
#1264 = FACE_BOUND('',#1265,.T.);
#1265 = EDGE_LOOP('',(#1266,#1272,#1273,#1274));
#1266 = ORIENTED_EDGE('',*,*,#1267,.F.);
#1267 = EDGE_CURVE('',#598,#310,#1268,.T.);
#1268 = LINE('',#1269,#1270);
#1269 = CARTESIAN_POINT('',(52.492805425728,76.982059382003,3.));
#1270 = VECTOR('',#1271,1.);
#1271 = DIRECTION('',(0.,0.,1.));
#1272 = ORIENTED_EDGE('',*,*,#597,.F.);
#1273 = ORIENTED_EDGE('',*,*,#1233,.T.);
#1274 = ORIENTED_EDGE('',*,*,#317,.F.);
#1275 = PLANE('',#1276);
#1276 = AXIS2_PLACEMENT_3D('',#1277,#1278,#1279);
#1277 = CARTESIAN_POINT('',(52.492805425728,76.982059382003,3.));
#1278 = DIRECTION('',(-0.947383616362,-0.320100427129,0.));
#1279 = DIRECTION('',(0.320100427129,-0.947383616362,0.));
#1280 = ADVANCED_FACE('',(#1281),#1292,.F.);
#1281 = FACE_BOUND('',#1282,.T.);
#1282 = EDGE_LOOP('',(#1283,#1284,#1285,#1291));
#1283 = ORIENTED_EDGE('',*,*,#1252,.F.);
#1284 = ORIENTED_EDGE('',*,*,#701,.F.);
#1285 = ORIENTED_EDGE('',*,*,#1286,.T.);
#1286 = EDGE_CURVE('',#694,#214,#1287,.T.);
#1287 = LINE('',#1288,#1289);
#1288 = CARTESIAN_POINT('',(17.245198861781,-45.98637540406,3.));
#1289 = VECTOR('',#1290,1.);
#1290 = DIRECTION('',(0.,0.,1.));
#1291 = ORIENTED_EDGE('',*,*,#213,.F.);
#1292 = PLANE('',#1293);
#1293 = AXIS2_PLACEMENT_3D('',#1294,#1295,#1296);
#1294 = CARTESIAN_POINT('',(1.549978118131,-38.13915533977,3.));
#1295 = DIRECTION('',(0.447195801197,0.89443608793,0.));
#1296 = DIRECTION('',(-0.89443608793,0.447195801197,0.));
#1297 = ADVANCED_FACE('',(#1298),#1309,.F.);
#1298 = FACE_BOUND('',#1299,.T.);
#1299 = EDGE_LOOP('',(#1300,#1306,#1307,#1308));
#1300 = ORIENTED_EDGE('',*,*,#1301,.F.);
#1301 = EDGE_CURVE('',#606,#302,#1302,.T.);
#1302 = LINE('',#1303,#1304);
#1303 = CARTESIAN_POINT('',(53.523632607508,71.01572068686,3.));
#1304 = VECTOR('',#1305,1.);
#1305 = DIRECTION('',(0.,0.,1.));
#1306 = ORIENTED_EDGE('',*,*,#605,.F.);
#1307 = ORIENTED_EDGE('',*,*,#1267,.T.);
#1308 = ORIENTED_EDGE('',*,*,#309,.F.);
#1309 = PLANE('',#1310);
#1310 = AXIS2_PLACEMENT_3D('',#1311,#1312,#1313);
#1311 = CARTESIAN_POINT('',(53.523632607508,71.01572068686,3.));
#1312 = DIRECTION('',(-0.985400652455,-0.170251443875,0.));
#1313 = DIRECTION('',(0.170251443875,-0.985400652455,0.));
#1314 = ADVANCED_FACE('',(#1315),#1326,.F.);
#1315 = FACE_BOUND('',#1316,.T.);
#1316 = EDGE_LOOP('',(#1317,#1318,#1319,#1325));
#1317 = ORIENTED_EDGE('',*,*,#1286,.F.);
#1318 = ORIENTED_EDGE('',*,*,#693,.F.);
#1319 = ORIENTED_EDGE('',*,*,#1320,.T.);
#1320 = EDGE_CURVE('',#686,#222,#1321,.T.);
#1321 = LINE('',#1322,#1323);
#1322 = CARTESIAN_POINT('',(37.167412129627,-56.89717106024,3.));
#1323 = VECTOR('',#1324,1.);
#1324 = DIRECTION('',(0.,0.,1.));
#1325 = ORIENTED_EDGE('',*,*,#221,.F.);
#1326 = PLANE('',#1327);
#1327 = AXIS2_PLACEMENT_3D('',#1328,#1329,#1330);
#1328 = CARTESIAN_POINT('',(17.245198861781,-45.98637540406,3.));
#1329 = DIRECTION('',(0.48034890411,0.877077493908,0.));
#1330 = DIRECTION('',(-0.877077493908,0.48034890411,0.));
#1331 = ADVANCED_FACE('',(#1332),#1343,.F.);
#1332 = FACE_BOUND('',#1333,.T.);
#1333 = EDGE_LOOP('',(#1334,#1340,#1341,#1342));
#1334 = ORIENTED_EDGE('',*,*,#1335,.F.);
#1335 = EDGE_CURVE('',#614,#294,#1336,.T.);
#1336 = LINE('',#1337,#1338);
#1337 = CARTESIAN_POINT('',(55.662183570806,51.82653904559,3.));
#1338 = VECTOR('',#1339,1.);
#1339 = DIRECTION('',(0.,0.,1.));
#1340 = ORIENTED_EDGE('',*,*,#613,.F.);
#1341 = ORIENTED_EDGE('',*,*,#1301,.T.);
#1342 = ORIENTED_EDGE('',*,*,#301,.F.);
#1343 = PLANE('',#1344);
#1344 = AXIS2_PLACEMENT_3D('',#1345,#1346,#1347);
#1345 = CARTESIAN_POINT('',(55.662183570806,51.82653904559,3.));
#1346 = DIRECTION('',(-0.993847187833,-0.11075995322,0.));
#1347 = DIRECTION('',(0.11075995322,-0.993847187833,0.));
#1348 = ADVANCED_FACE('',(#1349),#1360,.F.);
#1349 = FACE_BOUND('',#1350,.T.);
#1350 = EDGE_LOOP('',(#1351,#1352,#1353,#1359));
#1351 = ORIENTED_EDGE('',*,*,#1320,.F.);
#1352 = ORIENTED_EDGE('',*,*,#685,.F.);
#1353 = ORIENTED_EDGE('',*,*,#1354,.T.);
#1354 = EDGE_CURVE('',#678,#230,#1355,.T.);
#1355 = LINE('',#1356,#1357);
#1356 = CARTESIAN_POINT('',(52.500989806681,-38.12149768517,3.));
#1357 = VECTOR('',#1358,1.);
#1358 = DIRECTION('',(0.,0.,1.));
#1359 = ORIENTED_EDGE('',*,*,#229,.F.);
#1360 = PLANE('',#1361);
#1361 = AXIS2_PLACEMENT_3D('',#1362,#1363,#1364);
#1362 = CARTESIAN_POINT('',(37.167412129627,-56.89717106024,3.));
#1363 = DIRECTION('',(-0.774529882505,0.632537319932,0.));
#1364 = DIRECTION('',(-0.632537319932,-0.774529882505,0.));
#1365 = ADVANCED_FACE('',(#1366),#1377,.F.);
#1366 = FACE_BOUND('',#1367,.T.);
#1367 = EDGE_LOOP('',(#1368,#1374,#1375,#1376));
#1368 = ORIENTED_EDGE('',*,*,#1369,.F.);
#1369 = EDGE_CURVE('',#622,#286,#1370,.T.);
#1370 = LINE('',#1371,#1372);
#1371 = CARTESIAN_POINT('',(56.013037621395,45.395075400138,3.));
#1372 = VECTOR('',#1373,1.);
#1373 = DIRECTION('',(0.,0.,1.));
#1374 = ORIENTED_EDGE('',*,*,#621,.F.);
#1375 = ORIENTED_EDGE('',*,*,#1335,.T.);
#1376 = ORIENTED_EDGE('',*,*,#293,.F.);
#1377 = PLANE('',#1378);
#1378 = AXIS2_PLACEMENT_3D('',#1379,#1380,#1381);
#1379 = CARTESIAN_POINT('',(56.013037621395,45.395075400138,3.));
#1380 = DIRECTION('',(-0.998515311553,-5.447175960964E-02,0.));
#1381 = DIRECTION('',(5.447175960964E-02,-0.998515311553,0.));
#1382 = ADVANCED_FACE('',(#1383),#1394,.F.);
#1383 = FACE_BOUND('',#1384,.T.);
#1384 = EDGE_LOOP('',(#1385,#1386,#1387,#1393));
#1385 = ORIENTED_EDGE('',*,*,#1354,.F.);
#1386 = ORIENTED_EDGE('',*,*,#677,.F.);
#1387 = ORIENTED_EDGE('',*,*,#1388,.T.);
#1388 = EDGE_CURVE('',#670,#238,#1389,.T.);
#1389 = LINE('',#1390,#1391);
#1390 = CARTESIAN_POINT('',(53.032501959448,-33.18178307025,3.));
#1391 = VECTOR('',#1392,1.);
#1392 = DIRECTION('',(0.,0.,1.));
#1393 = ORIENTED_EDGE('',*,*,#237,.F.);
#1394 = PLANE('',#1395);
#1395 = AXIS2_PLACEMENT_3D('',#1396,#1397,#1398);
#1396 = CARTESIAN_POINT('',(52.500989806681,-38.12149768517,3.));
#1397 = DIRECTION('',(-0.994260930983,0.106982246756,0.));
#1398 = DIRECTION('',(-0.106982246756,-0.994260930983,0.));
#1399 = ADVANCED_FACE('',(#1400),#1411,.F.);
#1400 = FACE_BOUND('',#1401,.T.);
#1401 = EDGE_LOOP('',(#1402,#1408,#1409,#1410));
#1402 = ORIENTED_EDGE('',*,*,#1403,.F.);
#1403 = EDGE_CURVE('',#630,#278,#1404,.T.);
#1404 = LINE('',#1405,#1406);
#1405 = CARTESIAN_POINT('',(56.00967094243,25.444449255295,3.));
#1406 = VECTOR('',#1407,1.);
#1407 = DIRECTION('',(0.,0.,1.));
#1408 = ORIENTED_EDGE('',*,*,#629,.F.);
#1409 = ORIENTED_EDGE('',*,*,#1369,.T.);
#1410 = ORIENTED_EDGE('',*,*,#285,.F.);
#1411 = PLANE('',#1412);
#1412 = AXIS2_PLACEMENT_3D('',#1413,#1414,#1415);
#1413 = CARTESIAN_POINT('',(56.00967094243,25.444449255295,3.));
#1414 = DIRECTION('',(-0.999999985762,1.687505390662E-04,0.));
#1415 = DIRECTION('',(-1.687505390662E-04,-0.999999985762,0.));
#1416 = ADVANCED_FACE('',(#1417),#1428,.F.);
#1417 = FACE_BOUND('',#1418,.T.);
#1418 = EDGE_LOOP('',(#1419,#1420,#1421,#1427));
#1419 = ORIENTED_EDGE('',*,*,#1388,.F.);
#1420 = ORIENTED_EDGE('',*,*,#669,.F.);
#1421 = ORIENTED_EDGE('',*,*,#1422,.T.);
#1422 = EDGE_CURVE('',#662,#246,#1423,.T.);
#1423 = LINE('',#1424,#1425);
#1424 = CARTESIAN_POINT('',(64.216408080953,-15.00078811631,3.));
#1425 = VECTOR('',#1426,1.);
#1426 = DIRECTION('',(0.,0.,1.));
#1427 = ORIENTED_EDGE('',*,*,#245,.F.);
#1428 = PLANE('',#1429);
#1429 = AXIS2_PLACEMENT_3D('',#1430,#1431,#1432);
#1430 = CARTESIAN_POINT('',(53.032501959448,-33.18178307025,3.));
#1431 = DIRECTION('',(-0.851750279321,0.52394795703,0.));
#1432 = DIRECTION('',(-0.52394795703,-0.851750279321,0.));
#1433 = ADVANCED_FACE('',(#1434),#1445,.F.);
#1434 = FACE_BOUND('',#1435,.T.);
#1435 = EDGE_LOOP('',(#1436,#1442,#1443,#1444));
#1436 = ORIENTED_EDGE('',*,*,#1437,.F.);
#1437 = EDGE_CURVE('',#638,#270,#1438,.T.);
#1438 = LINE('',#1439,#1440);
#1439 = CARTESIAN_POINT('',(55.656641738095,18.986154278477,3.));
#1440 = VECTOR('',#1441,1.);
#1441 = DIRECTION('',(0.,0.,1.));
#1442 = ORIENTED_EDGE('',*,*,#637,.F.);
#1443 = ORIENTED_EDGE('',*,*,#1403,.T.);
#1444 = ORIENTED_EDGE('',*,*,#277,.F.);
#1445 = PLANE('',#1446);
#1446 = AXIS2_PLACEMENT_3D('',#1447,#1448,#1449);
#1447 = CARTESIAN_POINT('',(55.656641738095,18.986154278477,3.));
#1448 = DIRECTION('',(-0.998509322888,5.458142637439E-02,0.));
#1449 = DIRECTION('',(-5.458142637439E-02,-0.998509322888,0.));
#1450 = ADVANCED_FACE('',(#1451),#1462,.F.);
#1451 = FACE_BOUND('',#1452,.T.);
#1452 = EDGE_LOOP('',(#1453,#1454,#1455,#1461));
#1453 = ORIENTED_EDGE('',*,*,#1422,.F.);
#1454 = ORIENTED_EDGE('',*,*,#661,.F.);
#1455 = ORIENTED_EDGE('',*,*,#1456,.T.);
#1456 = EDGE_CURVE('',#654,#254,#1457,.T.);
#1457 = LINE('',#1458,#1459);
#1458 = CARTESIAN_POINT('',(52.75105328756,-4.170959716841,3.));
#1459 = VECTOR('',#1460,1.);
#1460 = DIRECTION('',(0.,0.,1.));
#1461 = ORIENTED_EDGE('',*,*,#253,.F.);
#1462 = PLANE('',#1463);
#1463 = AXIS2_PLACEMENT_3D('',#1464,#1465,#1466);
#1464 = CARTESIAN_POINT('',(64.216408080953,-15.00078811631,3.));
#1465 = DIRECTION('',(-0.686671715017,-0.726967644256,0.));
#1466 = DIRECTION('',(0.726967644256,-0.686671715017,0.));
#1467 = ADVANCED_FACE('',(#1468),#1479,.F.);
#1468 = FACE_BOUND('',#1469,.T.);
#1469 = EDGE_LOOP('',(#1470,#1476,#1477,#1478));
#1470 = ORIENTED_EDGE('',*,*,#1471,.F.);
#1471 = EDGE_CURVE('',#646,#262,#1472,.T.);
#1472 = LINE('',#1473,#1474);
#1473 = CARTESIAN_POINT('',(51.505615884171,3.917575356603,3.));
#1474 = VECTOR('',#1475,1.);
#1475 = DIRECTION('',(0.,0.,1.));
#1476 = ORIENTED_EDGE('',*,*,#645,.F.);
#1477 = ORIENTED_EDGE('',*,*,#1437,.T.);
#1478 = ORIENTED_EDGE('',*,*,#269,.F.);
#1479 = PLANE('',#1480);
#1480 = AXIS2_PLACEMENT_3D('',#1481,#1482,#1483);
#1481 = CARTESIAN_POINT('',(51.505615884171,3.917575356603,3.));
#1482 = DIRECTION('',(-0.964088070279,0.265582741806,0.));
#1483 = DIRECTION('',(-0.265582741806,-0.964088070279,0.));
#1484 = ADVANCED_FACE('',(#1485),#1491,.F.);
#1485 = FACE_BOUND('',#1486,.T.);
#1486 = EDGE_LOOP('',(#1487,#1488,#1489,#1490));
#1487 = ORIENTED_EDGE('',*,*,#1456,.F.);
#1488 = ORIENTED_EDGE('',*,*,#653,.F.);
#1489 = ORIENTED_EDGE('',*,*,#1471,.T.);
#1490 = ORIENTED_EDGE('',*,*,#261,.F.);
#1491 = PLANE('',#1492);
#1492 = AXIS2_PLACEMENT_3D('',#1493,#1494,#1495);
#1493 = CARTESIAN_POINT('',(52.75105328756,-4.170959716841,3.));
#1494 = DIRECTION('',(-0.988352455349,-0.152182206598,0.));
#1495 = DIRECTION('',(0.152182206598,-0.988352455349,0.));
#1496 = ADVANCED_FACE('',(#1497),#1515,.F.);
#1497 = FACE_BOUND('',#1498,.F.);
#1498 = EDGE_LOOP('',(#1499,#1508,#1513,#1514));
#1499 = ORIENTED_EDGE('',*,*,#1500,.F.);
#1500 = EDGE_CURVE('',#1501,#1501,#1503,.T.);
#1501 = VERTEX_POINT('',#1502);
#1502 = CARTESIAN_POINT('',(-75.40138861974,-4.75166172086,1.45));
#1503 = CIRCLE('',#1504,1.7);
#1504 = AXIS2_PLACEMENT_3D('',#1505,#1506,#1507);
#1505 = CARTESIAN_POINT('',(-73.70138861974,-4.75166172086,1.45));
#1506 = DIRECTION('',(0.,0.,-1.));
#1507 = DIRECTION('',(-1.,0.,0.));
#1508 = ORIENTED_EDGE('',*,*,#1509,.F.);
#1509 = EDGE_CURVE('',#415,#1501,#1510,.T.);
#1510 = B_SPLINE_CURVE_WITH_KNOTS('',1,(#1511,#1512),.UNSPECIFIED.,.F.,
  .F.,(2,2),(1.,2.55),.PIECEWISE_BEZIER_KNOTS.);
#1511 = CARTESIAN_POINT('',(-75.40138861974,-4.75166172086,3.));
#1512 = CARTESIAN_POINT('',(-75.40138861974,-4.75166172086,1.45));
#1513 = ORIENTED_EDGE('',*,*,#414,.T.);
#1514 = ORIENTED_EDGE('',*,*,#1509,.T.);
#1515 = CYLINDRICAL_SURFACE('',#1516,1.7);
#1516 = AXIS2_PLACEMENT_3D('',#1517,#1518,#1519);
#1517 = CARTESIAN_POINT('',(-73.70138861974,-4.75166172086,4.));
#1518 = DIRECTION('',(0.,0.,-1.));
#1519 = DIRECTION('',(-1.,0.,0.));
#1520 = ADVANCED_FACE('',(#1521),#1539,.F.);
#1521 = FACE_BOUND('',#1522,.F.);
#1522 = EDGE_LOOP('',(#1523,#1532,#1537,#1538));
#1523 = ORIENTED_EDGE('',*,*,#1524,.F.);
#1524 = EDGE_CURVE('',#1525,#1525,#1527,.T.);
#1525 = VERTEX_POINT('',#1526);
#1526 = CARTESIAN_POINT('',(-13.21803738572,-16.62038451986,1.45));
#1527 = CIRCLE('',#1528,1.7);
#1528 = AXIS2_PLACEMENT_3D('',#1529,#1530,#1531);
#1529 = CARTESIAN_POINT('',(-11.51803738572,-16.62038451986,1.45));
#1530 = DIRECTION('',(0.,0.,-1.));
#1531 = DIRECTION('',(-1.,0.,0.));
#1532 = ORIENTED_EDGE('',*,*,#1533,.F.);
#1533 = EDGE_CURVE('',#426,#1525,#1534,.T.);
#1534 = B_SPLINE_CURVE_WITH_KNOTS('',1,(#1535,#1536),.UNSPECIFIED.,.F.,
  .F.,(2,2),(1.,2.55),.PIECEWISE_BEZIER_KNOTS.);
#1535 = CARTESIAN_POINT('',(-13.21803738572,-16.62038451986,3.));
#1536 = CARTESIAN_POINT('',(-13.21803738572,-16.62038451986,1.45));
#1537 = ORIENTED_EDGE('',*,*,#425,.T.);
#1538 = ORIENTED_EDGE('',*,*,#1533,.T.);
#1539 = CYLINDRICAL_SURFACE('',#1540,1.7);
#1540 = AXIS2_PLACEMENT_3D('',#1541,#1542,#1543);
#1541 = CARTESIAN_POINT('',(-11.51803738572,-16.62038451986,4.));
#1542 = DIRECTION('',(0.,0.,-1.));
#1543 = DIRECTION('',(-1.,0.,0.));
#1544 = ADVANCED_FACE('',(#1545),#1563,.F.);
#1545 = FACE_BOUND('',#1546,.F.);
#1546 = EDGE_LOOP('',(#1547,#1556,#1561,#1562));
#1547 = ORIENTED_EDGE('',*,*,#1548,.F.);
#1548 = EDGE_CURVE('',#1549,#1549,#1551,.T.);
#1549 = VERTEX_POINT('',#1550);
#1550 = CARTESIAN_POINT('',(42.837388351725,-33.4582886089,1.45));
#1551 = CIRCLE('',#1552,1.7);
#1552 = AXIS2_PLACEMENT_3D('',#1553,#1554,#1555);
#1553 = CARTESIAN_POINT('',(44.537388351725,-33.4582886089,1.45));
#1554 = DIRECTION('',(0.,0.,-1.));
#1555 = DIRECTION('',(-1.,0.,0.));
#1556 = ORIENTED_EDGE('',*,*,#1557,.F.);
#1557 = EDGE_CURVE('',#437,#1549,#1558,.T.);
#1558 = B_SPLINE_CURVE_WITH_KNOTS('',1,(#1559,#1560),.UNSPECIFIED.,.F.,
  .F.,(2,2),(1.,2.55),.PIECEWISE_BEZIER_KNOTS.);
#1559 = CARTESIAN_POINT('',(42.837388351725,-33.4582886089,3.));
#1560 = CARTESIAN_POINT('',(42.837388351725,-33.4582886089,1.45));
#1561 = ORIENTED_EDGE('',*,*,#436,.T.);
#1562 = ORIENTED_EDGE('',*,*,#1557,.T.);
#1563 = CYLINDRICAL_SURFACE('',#1564,1.7);
#1564 = AXIS2_PLACEMENT_3D('',#1565,#1566,#1567);
#1565 = CARTESIAN_POINT('',(44.537388351725,-33.4582886089,4.));
#1566 = DIRECTION('',(0.,0.,-1.));
#1567 = DIRECTION('',(-1.,0.,0.));
#1568 = ADVANCED_FACE('',(#1569),#1587,.F.);
#1569 = FACE_BOUND('',#1570,.F.);
#1570 = EDGE_LOOP('',(#1571,#1580,#1585,#1586));
#1571 = ORIENTED_EDGE('',*,*,#1572,.F.);
#1572 = EDGE_CURVE('',#1573,#1573,#1575,.T.);
#1573 = VERTEX_POINT('',#1574);
#1574 = CARTESIAN_POINT('',(45.984053496371,22.559164116739,1.45));
#1575 = CIRCLE('',#1576,1.7);
#1576 = AXIS2_PLACEMENT_3D('',#1577,#1578,#1579);
#1577 = CARTESIAN_POINT('',(47.684053496371,22.559164116739,1.45));
#1578 = DIRECTION('',(0.,0.,-1.));
#1579 = DIRECTION('',(-1.,0.,0.));
#1580 = ORIENTED_EDGE('',*,*,#1581,.F.);
#1581 = EDGE_CURVE('',#448,#1573,#1582,.T.);
#1582 = B_SPLINE_CURVE_WITH_KNOTS('',1,(#1583,#1584),.UNSPECIFIED.,.F.,
  .F.,(2,2),(1.,2.55),.PIECEWISE_BEZIER_KNOTS.);
#1583 = CARTESIAN_POINT('',(45.984053496371,22.559164116739,3.));
#1584 = CARTESIAN_POINT('',(45.984053496371,22.559164116739,1.45));
#1585 = ORIENTED_EDGE('',*,*,#447,.T.);
#1586 = ORIENTED_EDGE('',*,*,#1581,.T.);
#1587 = CYLINDRICAL_SURFACE('',#1588,1.7);
#1588 = AXIS2_PLACEMENT_3D('',#1589,#1590,#1591);
#1589 = CARTESIAN_POINT('',(47.684053496371,22.559164116739,4.));
#1590 = DIRECTION('',(0.,0.,-1.));
#1591 = DIRECTION('',(-1.,0.,0.));
#1592 = ADVANCED_FACE('',(#1593),#1611,.F.);
#1593 = FACE_BOUND('',#1594,.F.);
#1594 = EDGE_LOOP('',(#1595,#1604,#1609,#1610));
#1595 = ORIENTED_EDGE('',*,*,#1596,.F.);
#1596 = EDGE_CURVE('',#1597,#1597,#1599,.T.);
#1597 = VERTEX_POINT('',#1598);
#1598 = CARTESIAN_POINT('',(-82.93837446358,54.853895526734,1.45));
#1599 = CIRCLE('',#1600,1.7);
#1600 = AXIS2_PLACEMENT_3D('',#1601,#1602,#1603);
#1601 = CARTESIAN_POINT('',(-81.23837446358,54.853895526734,1.45));
#1602 = DIRECTION('',(0.,0.,-1.));
#1603 = DIRECTION('',(-1.,0.,0.));
#1604 = ORIENTED_EDGE('',*,*,#1605,.F.);
#1605 = EDGE_CURVE('',#459,#1597,#1606,.T.);
#1606 = B_SPLINE_CURVE_WITH_KNOTS('',1,(#1607,#1608),.UNSPECIFIED.,.F.,
  .F.,(2,2),(1.,2.55),.PIECEWISE_BEZIER_KNOTS.);
#1607 = CARTESIAN_POINT('',(-82.93837446358,54.853895526734,3.));
#1608 = CARTESIAN_POINT('',(-82.93837446358,54.853895526734,1.45));
#1609 = ORIENTED_EDGE('',*,*,#458,.T.);
#1610 = ORIENTED_EDGE('',*,*,#1605,.T.);
#1611 = CYLINDRICAL_SURFACE('',#1612,1.7);
#1612 = AXIS2_PLACEMENT_3D('',#1613,#1614,#1615);
#1613 = CARTESIAN_POINT('',(-81.23837446358,54.853895526734,4.));
#1614 = DIRECTION('',(0.,0.,-1.));
#1615 = DIRECTION('',(-1.,0.,0.));
#1616 = ADVANCED_FACE('',(#1617),#1635,.F.);
#1617 = FACE_BOUND('',#1618,.F.);
#1618 = EDGE_LOOP('',(#1619,#1628,#1633,#1634));
#1619 = ORIENTED_EDGE('',*,*,#1620,.F.);
#1620 = EDGE_CURVE('',#1621,#1621,#1623,.T.);
#1621 = VERTEX_POINT('',#1622);
#1622 = CARTESIAN_POINT('',(-53.99040594039,85.007880863003,1.45));
#1623 = CIRCLE('',#1624,1.7);
#1624 = AXIS2_PLACEMENT_3D('',#1625,#1626,#1627);
#1625 = CARTESIAN_POINT('',(-52.29040594039,85.007880863003,1.45));
#1626 = DIRECTION('',(0.,0.,-1.));
#1627 = DIRECTION('',(-1.,0.,0.));
#1628 = ORIENTED_EDGE('',*,*,#1629,.F.);
#1629 = EDGE_CURVE('',#470,#1621,#1630,.T.);
#1630 = B_SPLINE_CURVE_WITH_KNOTS('',1,(#1631,#1632),.UNSPECIFIED.,.F.,
  .F.,(2,2),(1.,2.55),.PIECEWISE_BEZIER_KNOTS.);
#1631 = CARTESIAN_POINT('',(-53.99040594039,85.007880863003,3.));
#1632 = CARTESIAN_POINT('',(-53.99040594039,85.007880863003,1.45));
#1633 = ORIENTED_EDGE('',*,*,#469,.T.);
#1634 = ORIENTED_EDGE('',*,*,#1629,.T.);
#1635 = CYLINDRICAL_SURFACE('',#1636,1.7);
#1636 = AXIS2_PLACEMENT_3D('',#1637,#1638,#1639);
#1637 = CARTESIAN_POINT('',(-52.29040594039,85.007880863003,4.));
#1638 = DIRECTION('',(0.,0.,-1.));
#1639 = DIRECTION('',(-1.,0.,0.));
#1640 = ADVANCED_FACE('',(#1641),#1659,.F.);
#1641 = FACE_BOUND('',#1642,.F.);
#1642 = EDGE_LOOP('',(#1643,#1652,#1657,#1658));
#1643 = ORIENTED_EDGE('',*,*,#1644,.F.);
#1644 = EDGE_CURVE('',#1645,#1645,#1647,.T.);
#1645 = VERTEX_POINT('',#1646);
#1646 = CARTESIAN_POINT('',(-18.02597328653,95.013083618946,1.45));
#1647 = CIRCLE('',#1648,1.7);
#1648 = AXIS2_PLACEMENT_3D('',#1649,#1650,#1651);
#1649 = CARTESIAN_POINT('',(-16.32597328653,95.013083618946,1.45));
#1650 = DIRECTION('',(0.,0.,-1.));
#1651 = DIRECTION('',(-1.,0.,0.));
#1652 = ORIENTED_EDGE('',*,*,#1653,.F.);
#1653 = EDGE_CURVE('',#481,#1645,#1654,.T.);
#1654 = B_SPLINE_CURVE_WITH_KNOTS('',1,(#1655,#1656),.UNSPECIFIED.,.F.,
  .F.,(2,2),(1.,2.55),.PIECEWISE_BEZIER_KNOTS.);
#1655 = CARTESIAN_POINT('',(-18.02597328653,95.013083618946,3.));
#1656 = CARTESIAN_POINT('',(-18.02597328653,95.013083618946,1.45));
#1657 = ORIENTED_EDGE('',*,*,#480,.T.);
#1658 = ORIENTED_EDGE('',*,*,#1653,.T.);
#1659 = CYLINDRICAL_SURFACE('',#1660,1.7);
#1660 = AXIS2_PLACEMENT_3D('',#1661,#1662,#1663);
#1661 = CARTESIAN_POINT('',(-16.32597328653,95.013083618946,4.));
#1662 = DIRECTION('',(0.,0.,-1.));
#1663 = DIRECTION('',(-1.,0.,0.));
#1664 = ADVANCED_FACE('',(#1665),#1683,.F.);
#1665 = FACE_BOUND('',#1666,.F.);
#1666 = EDGE_LOOP('',(#1667,#1676,#1681,#1682));
#1667 = ORIENTED_EDGE('',*,*,#1668,.F.);
#1668 = EDGE_CURVE('',#1669,#1669,#1671,.T.);
#1669 = VERTEX_POINT('',#1670);
#1670 = CARTESIAN_POINT('',(39.999083441775,84.531427981148,1.45));
#1671 = CIRCLE('',#1672,1.7);
#1672 = AXIS2_PLACEMENT_3D('',#1673,#1674,#1675);
#1673 = CARTESIAN_POINT('',(41.699083441775,84.531427981148,1.45));
#1674 = DIRECTION('',(0.,0.,-1.));
#1675 = DIRECTION('',(-1.,0.,0.));
#1676 = ORIENTED_EDGE('',*,*,#1677,.F.);
#1677 = EDGE_CURVE('',#492,#1669,#1678,.T.);
#1678 = B_SPLINE_CURVE_WITH_KNOTS('',1,(#1679,#1680),.UNSPECIFIED.,.F.,
  .F.,(2,2),(1.,2.55),.PIECEWISE_BEZIER_KNOTS.);
#1679 = CARTESIAN_POINT('',(39.999083441775,84.531427981148,3.));
#1680 = CARTESIAN_POINT('',(39.999083441775,84.531427981148,1.45));
#1681 = ORIENTED_EDGE('',*,*,#491,.T.);
#1682 = ORIENTED_EDGE('',*,*,#1677,.T.);
#1683 = CYLINDRICAL_SURFACE('',#1684,1.7);
#1684 = AXIS2_PLACEMENT_3D('',#1685,#1686,#1687);
#1685 = CARTESIAN_POINT('',(41.699083441775,84.531427981148,4.));
#1686 = DIRECTION('',(0.,0.,-1.));
#1687 = DIRECTION('',(-1.,0.,0.));
#1688 = ADVANCED_FACE('',(#1689),#1699,.F.);
#1689 = FACE_BOUND('',#1690,.F.);
#1690 = EDGE_LOOP('',(#1691,#1692,#1697,#1698));
#1691 = ORIENTED_EDGE('',*,*,#799,.F.);
#1692 = ORIENTED_EDGE('',*,*,#1693,.F.);
#1693 = EDGE_CURVE('',#1501,#800,#1694,.T.);
#1694 = B_SPLINE_CURVE_WITH_KNOTS('',1,(#1695,#1696),.UNSPECIFIED.,.F.,
  .F.,(2,2),(2.041120196288E-15,2.05060966544),
  .PIECEWISE_BEZIER_KNOTS.);
#1695 = CARTESIAN_POINT('',(-75.40138861974,-4.75166172086,1.45));
#1696 = CARTESIAN_POINT('',(-76.85138861973,-4.75166172086,
    8.881784197001E-16));
#1697 = ORIENTED_EDGE('',*,*,#1500,.T.);
#1698 = ORIENTED_EDGE('',*,*,#1693,.T.);
#1699 = CONICAL_SURFACE('',#1700,1.7,0.785398163397);
#1700 = AXIS2_PLACEMENT_3D('',#1701,#1702,#1703);
#1701 = CARTESIAN_POINT('',(-73.70138861974,-4.75166172086,1.45));
#1702 = DIRECTION('',(0.,0.,-1.));
#1703 = DIRECTION('',(-1.,0.,0.));
#1704 = ADVANCED_FACE('',(#1705),#1715,.F.);
#1705 = FACE_BOUND('',#1706,.F.);
#1706 = EDGE_LOOP('',(#1707,#1708,#1713,#1714));
#1707 = ORIENTED_EDGE('',*,*,#810,.F.);
#1708 = ORIENTED_EDGE('',*,*,#1709,.F.);
#1709 = EDGE_CURVE('',#1525,#811,#1710,.T.);
#1710 = B_SPLINE_CURVE_WITH_KNOTS('',1,(#1711,#1712),.UNSPECIFIED.,.F.,
  .F.,(2,2),(-4.710277376049E-16,2.05060966544),
  .PIECEWISE_BEZIER_KNOTS.);
#1711 = CARTESIAN_POINT('',(-13.21803738572,-16.62038451986,1.45));
#1712 = CARTESIAN_POINT('',(-14.66803738571,-16.62038451986,0.));
#1713 = ORIENTED_EDGE('',*,*,#1524,.T.);
#1714 = ORIENTED_EDGE('',*,*,#1709,.T.);
#1715 = CONICAL_SURFACE('',#1716,1.7,0.785398163397);
#1716 = AXIS2_PLACEMENT_3D('',#1717,#1718,#1719);
#1717 = CARTESIAN_POINT('',(-11.51803738572,-16.62038451986,1.45));
#1718 = DIRECTION('',(0.,0.,-1.));
#1719 = DIRECTION('',(-1.,0.,0.));
#1720 = ADVANCED_FACE('',(#1721),#1731,.F.);
#1721 = FACE_BOUND('',#1722,.F.);
#1722 = EDGE_LOOP('',(#1723,#1724,#1729,#1730));
#1723 = ORIENTED_EDGE('',*,*,#821,.F.);
#1724 = ORIENTED_EDGE('',*,*,#1725,.F.);
#1725 = EDGE_CURVE('',#1549,#822,#1726,.T.);
#1726 = B_SPLINE_CURVE_WITH_KNOTS('',1,(#1727,#1728),.UNSPECIFIED.,.F.,
  .F.,(2,2),(2.041120196288E-15,2.05060966544),
  .PIECEWISE_BEZIER_KNOTS.);
#1727 = CARTESIAN_POINT('',(42.837388351725,-33.4582886089,1.45));
#1728 = CARTESIAN_POINT('',(41.387388351726,-33.4582886089,
    8.881784197001E-16));
#1729 = ORIENTED_EDGE('',*,*,#1548,.T.);
#1730 = ORIENTED_EDGE('',*,*,#1725,.T.);
#1731 = CONICAL_SURFACE('',#1732,1.7,0.785398163397);
#1732 = AXIS2_PLACEMENT_3D('',#1733,#1734,#1735);
#1733 = CARTESIAN_POINT('',(44.537388351725,-33.4582886089,1.45));
#1734 = DIRECTION('',(0.,0.,-1.));
#1735 = DIRECTION('',(-1.,0.,0.));
#1736 = ADVANCED_FACE('',(#1737),#1747,.F.);
#1737 = FACE_BOUND('',#1738,.F.);
#1738 = EDGE_LOOP('',(#1739,#1740,#1745,#1746));
#1739 = ORIENTED_EDGE('',*,*,#832,.F.);
#1740 = ORIENTED_EDGE('',*,*,#1741,.F.);
#1741 = EDGE_CURVE('',#1573,#833,#1742,.T.);
#1742 = B_SPLINE_CURVE_WITH_KNOTS('',1,(#1743,#1744),.UNSPECIFIED.,.F.,
  .F.,(2,2),(2.041120196288E-15,2.05060966544),
  .PIECEWISE_BEZIER_KNOTS.);
#1743 = CARTESIAN_POINT('',(45.984053496371,22.559164116739,1.45));
#1744 = CARTESIAN_POINT('',(44.534053496372,22.559164116739,
    8.881784197001E-16));
#1745 = ORIENTED_EDGE('',*,*,#1572,.T.);
#1746 = ORIENTED_EDGE('',*,*,#1741,.T.);
#1747 = CONICAL_SURFACE('',#1748,1.7,0.785398163397);
#1748 = AXIS2_PLACEMENT_3D('',#1749,#1750,#1751);
#1749 = CARTESIAN_POINT('',(47.684053496371,22.559164116739,1.45));
#1750 = DIRECTION('',(0.,0.,-1.));
#1751 = DIRECTION('',(-1.,0.,0.));
#1752 = ADVANCED_FACE('',(#1753),#1763,.F.);
#1753 = FACE_BOUND('',#1754,.F.);
#1754 = EDGE_LOOP('',(#1755,#1756,#1761,#1762));
#1755 = ORIENTED_EDGE('',*,*,#843,.F.);
#1756 = ORIENTED_EDGE('',*,*,#1757,.F.);
#1757 = EDGE_CURVE('',#1597,#844,#1758,.T.);
#1758 = B_SPLINE_CURVE_WITH_KNOTS('',1,(#1759,#1760),.UNSPECIFIED.,.F.,
  .F.,(2,2),(2.041120196288E-15,2.05060966544),
  .PIECEWISE_BEZIER_KNOTS.);
#1759 = CARTESIAN_POINT('',(-82.93837446358,54.853895526734,1.45));
#1760 = CARTESIAN_POINT('',(-84.38837446357,54.853895526734,
    8.881784197001E-16));
#1761 = ORIENTED_EDGE('',*,*,#1596,.T.);
#1762 = ORIENTED_EDGE('',*,*,#1757,.T.);
#1763 = CONICAL_SURFACE('',#1764,1.7,0.785398163397);
#1764 = AXIS2_PLACEMENT_3D('',#1765,#1766,#1767);
#1765 = CARTESIAN_POINT('',(-81.23837446358,54.853895526734,1.45));
#1766 = DIRECTION('',(0.,0.,-1.));
#1767 = DIRECTION('',(-1.,0.,0.));
#1768 = ADVANCED_FACE('',(#1769),#1779,.F.);
#1769 = FACE_BOUND('',#1770,.F.);
#1770 = EDGE_LOOP('',(#1771,#1772,#1777,#1778));
#1771 = ORIENTED_EDGE('',*,*,#854,.F.);
#1772 = ORIENTED_EDGE('',*,*,#1773,.F.);
#1773 = EDGE_CURVE('',#1621,#855,#1774,.T.);
#1774 = B_SPLINE_CURVE_WITH_KNOTS('',1,(#1775,#1776),.UNSPECIFIED.,.F.,
  .F.,(2,2),(2.041120196288E-15,2.05060966544),
  .PIECEWISE_BEZIER_KNOTS.);
#1775 = CARTESIAN_POINT('',(-53.99040594039,85.007880863003,1.45));
#1776 = CARTESIAN_POINT('',(-55.44040594038,85.007880863003,
    8.881784197001E-16));
#1777 = ORIENTED_EDGE('',*,*,#1620,.T.);
#1778 = ORIENTED_EDGE('',*,*,#1773,.T.);
#1779 = CONICAL_SURFACE('',#1780,1.7,0.785398163397);
#1780 = AXIS2_PLACEMENT_3D('',#1781,#1782,#1783);
#1781 = CARTESIAN_POINT('',(-52.29040594039,85.007880863003,1.45));
#1782 = DIRECTION('',(0.,0.,-1.));
#1783 = DIRECTION('',(-1.,0.,0.));
#1784 = ADVANCED_FACE('',(#1785),#1795,.F.);
#1785 = FACE_BOUND('',#1786,.F.);
#1786 = EDGE_LOOP('',(#1787,#1788,#1793,#1794));
#1787 = ORIENTED_EDGE('',*,*,#865,.F.);
#1788 = ORIENTED_EDGE('',*,*,#1789,.F.);
#1789 = EDGE_CURVE('',#1645,#866,#1790,.T.);
#1790 = B_SPLINE_CURVE_WITH_KNOTS('',1,(#1791,#1792),.UNSPECIFIED.,.F.,
  .F.,(2,2),(-4.710277376049E-16,2.05060966544),
  .PIECEWISE_BEZIER_KNOTS.);
#1791 = CARTESIAN_POINT('',(-18.02597328653,95.013083618946,1.45));
#1792 = CARTESIAN_POINT('',(-19.47597328652,95.013083618946,
    8.881784197001E-16));
#1793 = ORIENTED_EDGE('',*,*,#1644,.T.);
#1794 = ORIENTED_EDGE('',*,*,#1789,.T.);
#1795 = CONICAL_SURFACE('',#1796,1.7,0.785398163397);
#1796 = AXIS2_PLACEMENT_3D('',#1797,#1798,#1799);
#1797 = CARTESIAN_POINT('',(-16.32597328653,95.013083618946,1.45));
#1798 = DIRECTION('',(0.,0.,-1.));
#1799 = DIRECTION('',(-1.,0.,0.));
#1800 = ADVANCED_FACE('',(#1801),#1811,.F.);
#1801 = FACE_BOUND('',#1802,.F.);
#1802 = EDGE_LOOP('',(#1803,#1804,#1809,#1810));
#1803 = ORIENTED_EDGE('',*,*,#876,.F.);
#1804 = ORIENTED_EDGE('',*,*,#1805,.F.);
#1805 = EDGE_CURVE('',#1669,#877,#1806,.T.);
#1806 = B_SPLINE_CURVE_WITH_KNOTS('',1,(#1807,#1808),.UNSPECIFIED.,.F.,
  .F.,(2,2),(2.041120196288E-15,2.05060966544),
  .PIECEWISE_BEZIER_KNOTS.);
#1807 = CARTESIAN_POINT('',(39.999083441775,84.531427981148,1.45));
#1808 = CARTESIAN_POINT('',(38.549083441776,84.531427981148,
    8.881784197001E-16));
#1809 = ORIENTED_EDGE('',*,*,#1668,.T.);
#1810 = ORIENTED_EDGE('',*,*,#1805,.T.);
#1811 = CONICAL_SURFACE('',#1812,1.7,0.785398163397);
#1812 = AXIS2_PLACEMENT_3D('',#1813,#1814,#1815);
#1813 = CARTESIAN_POINT('',(41.699083441775,84.531427981148,1.45));
#1814 = DIRECTION('',(0.,0.,-1.));
#1815 = DIRECTION('',(-1.,0.,0.));
#1816 = ( GEOMETRIC_REPRESENTATION_CONTEXT(3) 
GLOBAL_UNCERTAINTY_ASSIGNED_CONTEXT((#1820)) 
GLOBAL_UNIT_ASSIGNED_CONTEXT((#1817,#1818,#1819)) REPRESENTATION_CONTEXT
('Context #1','3D Context with UNIT and UNCERTAINTY') );
#1817 = ( LENGTH_UNIT() NAMED_UNIT(*) SI_UNIT(.MILLI.,.METRE.) );
#1818 = ( NAMED_UNIT(*) PLANE_ANGLE_UNIT() SI_UNIT($,.RADIAN.) );
#1819 = ( NAMED_UNIT(*) SI_UNIT($,.STERADIAN.) SOLID_ANGLE_UNIT() );
#1820 = UNCERTAINTY_MEASURE_WITH_UNIT(LENGTH_MEASURE(2.E-06),#1817,
  'distance_accuracy_value','confusion accuracy');
#1821 = PRODUCT_RELATED_PRODUCT_CATEGORY('part',$,(#7));
#1822 = MECHANICAL_DESIGN_GEOMETRIC_PRESENTATION_REPRESENTATION('',(
    #1823),#1816);
#1823 = STYLED_ITEM('color',(#1824),#15);
#1824 = PRESENTATION_STYLE_ASSIGNMENT((#1825,#1831));
#1825 = SURFACE_STYLE_USAGE(.BOTH.,#1826);
#1826 = SURFACE_SIDE_STYLE('',(#1827));
#1827 = SURFACE_STYLE_FILL_AREA(#1828);
#1828 = FILL_AREA_STYLE('',(#1829));
#1829 = FILL_AREA_STYLE_COLOUR('',#1830);
#1830 = COLOUR_RGB('',0.23137255388,0.380392165758,0.705882360366);
#1831 = CURVE_STYLE('',#1832,POSITIVE_LENGTH_MEASURE(0.1),#1833);
#1832 = DRAUGHTING_PRE_DEFINED_CURVE_FONT('continuous');
#1833 = COLOUR_RGB('',0.678431390124,0.709803936702,0.741176476869);
ENDSEC;
END-ISO-10303-21;
