ISO-10303-21;
HEADER;
FILE_DESCRIPTION(('FreeCAD Model'),'2;1');
FILE_NAME('Open CASCADE Shape Model','2026-09-28T14:11:28',(''),(''),
  'Open CASCADE STEP processor 7.9','FreeCAD','Unknown');
FILE_SCHEMA(('AUTOMOTIVE_DESIGN { 1 0 10303 214 1 1 1 1 }'));
ENDSEC;
DATA;
#1 = APPLICATION_PROTOCOL_DEFINITION('international standard',
  'automotive_design',2000,#2);
#2 = APPLICATION_CONTEXT(
  'core data for automotive mechanical design processes');
#3 = SHAPE_DEFINITION_REPRESENTATION(#4,#10);
#4 = PRODUCT_DEFINITION_SHAPE('','',#5);
#5 = PRODUCT_DEFINITION('design','',#6,#9);
#6 = PRODUCT_DEFINITION_FORMATION('','',#7);
#7 = PRODUCT('Pocket','Pocket','',(#8));
#8 = PRODUCT_CONTEXT('',#2,'mechanical');
#9 = PRODUCT_DEFINITION_CONTEXT('part definition',#2,'design');
#10 = ADVANCED_BREP_SHAPE_REPRESENTATION('',(#11,#15),#1996);
#11 = AXIS2_PLACEMENT_3D('',#12,#13,#14);
#12 = CARTESIAN_POINT('',(0.,0.,0.));
#13 = DIRECTION('',(0.,0.,1.));
#14 = DIRECTION('',(1.,0.,-0.));
#15 = MANIFOLD_SOLID_BREP('',#16);
#16 = CLOSED_SHELL('',(#17,#57,#456,#480,#916,#933,#950,#967,#984,#1001,
    #1018,#1035,#1052,#1069,#1086,#1103,#1120,#1137,#1154,#1171,#1188,
    #1205,#1222,#1239,#1256,#1273,#1290,#1307,#1324,#1341,#1358,#1375,
    #1392,#1409,#1426,#1443,#1460,#1477,#1494,#1511,#1528,#1540,#1564,
    #1588,#1612,#1636,#1660,#1684,#1708,#1732,#1748,#1773,#1789,#1805,
    #1830,#1846,#1862,#1887,#1903,#1919,#1944,#1960,#1969,#1978,#1987));
#17 = ADVANCED_FACE('',(#18),#52,.F.);
#18 = FACE_BOUND('',#19,.T.);
#19 = EDGE_LOOP('',(#20,#30,#38,#46));
#20 = ORIENTED_EDGE('',*,*,#21,.T.);
#21 = EDGE_CURVE('',#22,#24,#26,.T.);
#22 = VERTEX_POINT('',#23);
#23 = CARTESIAN_POINT('',(89.389345871315,70.428910142173,3.));
#24 = VERTEX_POINT('',#25);
#25 = CARTESIAN_POINT('',(89.411983171957,64.466657339235,3.));
#26 = LINE('',#27,#28);
#27 = CARTESIAN_POINT('',(89.389345871318,70.428910142203,3.));
#28 = VECTOR('',#29,1.);
#29 = DIRECTION('',(3.796742309604E-03,-0.999992792348,0.));
#30 = ORIENTED_EDGE('',*,*,#31,.F.);
#31 = EDGE_CURVE('',#32,#24,#34,.T.);
#32 = VERTEX_POINT('',#33);
#33 = CARTESIAN_POINT('',(89.411983171955,64.466657340036,0.));
#34 = LINE('',#35,#36);
#35 = CARTESIAN_POINT('',(89.411983171956,64.466657339497,3.));
#36 = VECTOR('',#37,1.);
#37 = DIRECTION('',(0.,0.,1.));
#38 = ORIENTED_EDGE('',*,*,#39,.F.);
#39 = EDGE_CURVE('',#40,#32,#42,.T.);
#40 = VERTEX_POINT('',#41);
#41 = CARTESIAN_POINT('',(89.389345871316,70.428910142202,
    -2.168404344971E-16));
#42 = LINE('',#43,#44);
#43 = CARTESIAN_POINT('',(89.389345871318,70.428910142203,0.));
#44 = VECTOR('',#45,1.);
#45 = DIRECTION('',(3.79674230971E-03,-0.999992792348,0.));
#46 = ORIENTED_EDGE('',*,*,#47,.T.);
#47 = EDGE_CURVE('',#40,#22,#48,.T.);
#48 = LINE('',#49,#50);
#49 = CARTESIAN_POINT('',(89.389345871312,70.428910142202,3.));
#50 = VECTOR('',#51,1.);
#51 = DIRECTION('',(0.,0.,1.));
#52 = PLANE('',#53);
#53 = AXIS2_PLACEMENT_3D('',#54,#55,#56);
#54 = CARTESIAN_POINT('',(89.389345871318,70.428910142203,3.));
#55 = DIRECTION('',(-0.999992792348,-3.796742309604E-03,0.));
#56 = DIRECTION('',(3.796742309604E-03,-0.999992792348,0.));
#57 = ADVANCED_FACE('',(#58,#363,#374,#385,#396,#407,#418,#429,#440),
  #451,.F.);
#58 = FACE_BOUND('',#59,.T.);
#59 = EDGE_LOOP('',(#60,#68,#76,#84,#92,#100,#108,#116,#124,#132,#140,
    #148,#156,#164,#172,#180,#188,#196,#204,#212,#220,#228,#236,#244,
    #252,#260,#268,#276,#284,#292,#300,#308,#316,#324,#332,#340,#348,
    #356,#362));
#60 = ORIENTED_EDGE('',*,*,#61,.F.);
#61 = EDGE_CURVE('',#62,#22,#64,.T.);
#62 = VERTEX_POINT('',#63);
#63 = CARTESIAN_POINT('',(87.03958590856,91.348159674307,3.));
#64 = LINE('',#65,#66);
#65 = CARTESIAN_POINT('',(87.03958590856,91.348159674307,3.));
#66 = VECTOR('',#67,1.);
#67 = DIRECTION('',(0.111623285248,-0.993750593555,0.));
#68 = ORIENTED_EDGE('',*,*,#69,.F.);
#69 = EDGE_CURVE('',#70,#62,#72,.T.);
#70 = VERTEX_POINT('',#71);
#71 = CARTESIAN_POINT('',(63.421484627422,93.271001034143,3.));
#72 = LINE('',#73,#74);
#73 = CARTESIAN_POINT('',(63.421484627424,93.271001034143,3.));
#74 = VECTOR('',#75,1.);
#75 = DIRECTION('',(0.996702274255,-8.114540341604E-02,0.));
#76 = ORIENTED_EDGE('',*,*,#77,.F.);
#77 = EDGE_CURVE('',#78,#70,#80,.T.);
#78 = VERTEX_POINT('',#79);
#79 = CARTESIAN_POINT('',(60.796603643773,93.268957050612,3.));
#80 = LINE('',#81,#82);
#81 = CARTESIAN_POINT('',(60.796603643767,93.268957050612,3.));
#82 = VECTOR('',#83,1.);
#83 = DIRECTION('',(0.999999696817,7.786954625275E-04,0.));
#84 = ORIENTED_EDGE('',*,*,#85,.F.);
#85 = EDGE_CURVE('',#86,#78,#88,.T.);
#86 = VERTEX_POINT('',#87);
#87 = CARTESIAN_POINT('',(45.581633653953,92.654081702323,3.));
#88 = LINE('',#89,#90);
#89 = CARTESIAN_POINT('',(45.581633653953,92.654081702323,3.));
#90 = VECTOR('',#91,1.);
#91 = DIRECTION('',(0.99918441279,4.037956461493E-02,0.));
#92 = ORIENTED_EDGE('',*,*,#93,.F.);
#93 = EDGE_CURVE('',#94,#86,#96,.T.);
#94 = VERTEX_POINT('',#95);
#95 = CARTESIAN_POINT('',(45.364749812156,99.671799487338,3.));
#96 = LINE('',#97,#98);
#97 = CARTESIAN_POINT('',(45.364749812156,99.671799487344,3.));
#98 = VECTOR('',#99,1.);
#99 = DIRECTION('',(3.08904328184E-02,-0.999522776709,0.));
#100 = ORIENTED_EDGE('',*,*,#101,.F.);
#101 = EDGE_CURVE('',#102,#94,#104,.T.);
#102 = VERTEX_POINT('',#103);
#103 = CARTESIAN_POINT('',(21.232029201571,100.26638480345,3.));
#104 = LINE('',#105,#106);
#105 = CARTESIAN_POINT('',(21.232029201567,100.26638480345,3.));
#106 = VECTOR('',#107,1.);
#107 = DIRECTION('',(0.999696619178,-2.463066389908E-02,0.));
#108 = ORIENTED_EDGE('',*,*,#109,.F.);
#109 = EDGE_CURVE('',#110,#102,#112,.T.);
#110 = VERTEX_POINT('',#111);
#111 = CARTESIAN_POINT('',(18.86068044071,103.1277292105,3.));
#112 = LINE('',#113,#114);
#113 = CARTESIAN_POINT('',(18.86068044071,103.1277292105,3.));
#114 = VECTOR('',#115,1.);
#115 = DIRECTION('',(0.638100913412,-0.769952741604,0.));
#116 = ORIENTED_EDGE('',*,*,#117,.F.);
#117 = EDGE_CURVE('',#118,#110,#120,.T.);
#118 = VERTEX_POINT('',#119);
#119 = CARTESIAN_POINT('',(-1.738420937723,103.03127756282,3.));
#120 = LINE('',#121,#122);
#121 = CARTESIAN_POINT('',(-1.738420937725,103.03127756283,3.));
#122 = VECTOR('',#123,1.);
#123 = DIRECTION('',(0.999989038106,4.682271746048E-03,0.));
#124 = ORIENTED_EDGE('',*,*,#125,.F.);
#125 = EDGE_CURVE('',#126,#118,#128,.T.);
#126 = VERTEX_POINT('',#127);
#127 = CARTESIAN_POINT('',(-3.708916324367,100.14960323875,3.));
#128 = LINE('',#129,#130);
#129 = CARTESIAN_POINT('',(-3.708916324367,100.14960323875,3.));
#130 = VECTOR('',#131,1.);
#131 = DIRECTION('',(0.56445434032,0.825464292198,0.));
#132 = ORIENTED_EDGE('',*,*,#133,.F.);
#133 = EDGE_CURVE('',#134,#126,#136,.T.);
#134 = VERTEX_POINT('',#135);
#135 = CARTESIAN_POINT('',(-20.54196964158,100.05854787071,3.));
#136 = LINE('',#137,#138);
#137 = CARTESIAN_POINT('',(-20.54196964192,100.05854787071,3.));
#138 = VECTOR('',#139,1.);
#139 = DIRECTION('',(0.999985369951,5.409240627811E-03,0.));
#140 = ORIENTED_EDGE('',*,*,#141,.F.);
#141 = EDGE_CURVE('',#142,#134,#144,.T.);
#142 = VERTEX_POINT('',#143);
#143 = CARTESIAN_POINT('',(-23.46248001186,100.03746233017,3.));
#144 = LINE('',#145,#146);
#145 = CARTESIAN_POINT('',(-23.46248001185,100.03746233017,3.));
#146 = VECTOR('',#147,1.);
#147 = DIRECTION('',(0.999973938165,7.21962545591E-03,0.));
#148 = ORIENTED_EDGE('',*,*,#149,.F.);
#149 = EDGE_CURVE('',#150,#142,#152,.T.);
#150 = VERTEX_POINT('',#151);
#151 = CARTESIAN_POINT('',(-45.41228549276,97.937884527187,3.));
#152 = LINE('',#153,#154);
#153 = CARTESIAN_POINT('',(-45.41228549277,97.937884527188,3.));
#154 = VECTOR('',#155,1.);
#155 = DIRECTION('',(0.995456350685,9.521897857168E-02,0.));
#156 = ORIENTED_EDGE('',*,*,#157,.F.);
#157 = EDGE_CURVE('',#158,#150,#160,.T.);
#158 = VERTEX_POINT('',#159);
#159 = CARTESIAN_POINT('',(-52.49280542571,76.982059382006,3.));
#160 = LINE('',#161,#162);
#161 = CARTESIAN_POINT('',(-52.49280542572,76.982059382003,3.));
#162 = VECTOR('',#163,1.);
#163 = DIRECTION('',(0.320100427129,0.947383616362,0.));
#164 = ORIENTED_EDGE('',*,*,#165,.F.);
#165 = EDGE_CURVE('',#166,#158,#168,.T.);
#166 = VERTEX_POINT('',#167);
#167 = CARTESIAN_POINT('',(-53.52363260749,71.015720686891,3.));
#168 = LINE('',#169,#170);
#169 = CARTESIAN_POINT('',(-53.5236326075,71.01572068686,3.));
#170 = VECTOR('',#171,1.);
#171 = DIRECTION('',(0.170251443875,0.985400652455,0.));
#172 = ORIENTED_EDGE('',*,*,#173,.F.);
#173 = EDGE_CURVE('',#174,#166,#176,.T.);
#174 = VERTEX_POINT('',#175);
#175 = CARTESIAN_POINT('',(-55.6621835708,51.82653904558,3.));
#176 = LINE('',#177,#178);
#177 = CARTESIAN_POINT('',(-55.6621835708,51.82653904559,3.));
#178 = VECTOR('',#179,1.);
#179 = DIRECTION('',(0.11075995322,0.993847187833,0.));
#180 = ORIENTED_EDGE('',*,*,#181,.F.);
#181 = EDGE_CURVE('',#182,#174,#184,.T.);
#182 = VERTEX_POINT('',#183);
#183 = CARTESIAN_POINT('',(-56.01303762139,45.395075400095,3.));
#184 = LINE('',#185,#186);
#185 = CARTESIAN_POINT('',(-56.01303762139,45.395075400138,3.));
#186 = VECTOR('',#187,1.);
#187 = DIRECTION('',(5.447175960962E-02,0.998515311553,0.));
#188 = ORIENTED_EDGE('',*,*,#189,.F.);
#189 = EDGE_CURVE('',#190,#182,#192,.T.);
#190 = VERTEX_POINT('',#191);
#191 = CARTESIAN_POINT('',(-56.00967094242,25.444449255332,3.));
#192 = LINE('',#193,#194);
#193 = CARTESIAN_POINT('',(-56.00967094243,25.444449255295,3.));
#194 = VECTOR('',#195,1.);
#195 = DIRECTION('',(-1.687505390661E-04,0.999999985762,0.));
#196 = ORIENTED_EDGE('',*,*,#197,.F.);
#197 = EDGE_CURVE('',#198,#190,#200,.T.);
#198 = VERTEX_POINT('',#199);
#199 = CARTESIAN_POINT('',(-55.65664173809,18.986154278459,3.));
#200 = LINE('',#201,#202);
#201 = CARTESIAN_POINT('',(-55.65664173809,18.986154278477,3.));
#202 = VECTOR('',#203,1.);
#203 = DIRECTION('',(-5.458142637441E-02,0.998509322888,0.));
#204 = ORIENTED_EDGE('',*,*,#205,.F.);
#205 = EDGE_CURVE('',#206,#198,#208,.T.);
#206 = VERTEX_POINT('',#207);
#207 = CARTESIAN_POINT('',(-51.50561588417,3.917575356605,3.));
#208 = LINE('',#209,#210);
#209 = CARTESIAN_POINT('',(-51.50561588417,3.917575356603,3.));
#210 = VECTOR('',#211,1.);
#211 = DIRECTION('',(-0.265582741806,0.964088070279,0.));
#212 = ORIENTED_EDGE('',*,*,#213,.F.);
#213 = EDGE_CURVE('',#214,#206,#216,.T.);
#214 = VERTEX_POINT('',#215);
#215 = CARTESIAN_POINT('',(-52.75105328755,-4.170959716845,3.));
#216 = LINE('',#217,#218);
#217 = CARTESIAN_POINT('',(-52.75105328756,-4.170959716841,3.));
#218 = VECTOR('',#219,1.);
#219 = DIRECTION('',(0.152182206598,0.988352455349,0.));
#220 = ORIENTED_EDGE('',*,*,#221,.F.);
#221 = EDGE_CURVE('',#222,#214,#224,.T.);
#222 = VERTEX_POINT('',#223);
#223 = CARTESIAN_POINT('',(-64.21640808094,-15.0007881163,3.));
#224 = LINE('',#225,#226);
#225 = CARTESIAN_POINT('',(-64.21640808095,-15.00078811631,3.));
#226 = VECTOR('',#227,1.);
#227 = DIRECTION('',(0.726967644256,0.686671715017,0.));
#228 = ORIENTED_EDGE('',*,*,#229,.F.);
#229 = EDGE_CURVE('',#230,#222,#232,.T.);
#230 = VERTEX_POINT('',#231);
#231 = CARTESIAN_POINT('',(-53.03250195944,-33.18178307024,3.));
#232 = LINE('',#233,#234);
#233 = CARTESIAN_POINT('',(-53.03250195944,-33.18178307025,3.));
#234 = VECTOR('',#235,1.);
#235 = DIRECTION('',(-0.52394795703,0.851750279321,0.));
#236 = ORIENTED_EDGE('',*,*,#237,.F.);
#237 = EDGE_CURVE('',#238,#230,#240,.T.);
#238 = VERTEX_POINT('',#239);
#239 = CARTESIAN_POINT('',(-52.50098980667,-38.12149768515,3.));
#240 = LINE('',#241,#242);
#241 = CARTESIAN_POINT('',(-52.50098980668,-38.12149768517,3.));
#242 = VECTOR('',#243,1.);
#243 = DIRECTION('',(-0.106982246756,0.994260930983,0.));
#244 = ORIENTED_EDGE('',*,*,#245,.F.);
#245 = EDGE_CURVE('',#246,#238,#248,.T.);
#246 = VERTEX_POINT('',#247);
#247 = CARTESIAN_POINT('',(-37.16741212962,-56.89717106023,3.));
#248 = LINE('',#249,#250);
#249 = CARTESIAN_POINT('',(-37.16741212962,-56.89717106024,3.));
#250 = VECTOR('',#251,1.);
#251 = DIRECTION('',(-0.632537319932,0.774529882505,0.));
#252 = ORIENTED_EDGE('',*,*,#253,.F.);
#253 = EDGE_CURVE('',#254,#246,#256,.T.);
#254 = VERTEX_POINT('',#255);
#255 = CARTESIAN_POINT('',(-17.24519886166,-45.98637540399,3.));
#256 = LINE('',#257,#258);
#257 = CARTESIAN_POINT('',(-17.24519886178,-45.98637540406,3.));
#258 = VECTOR('',#259,1.);
#259 = DIRECTION('',(-0.877077493908,-0.48034890411,0.));
#260 = ORIENTED_EDGE('',*,*,#261,.F.);
#261 = EDGE_CURVE('',#262,#254,#264,.T.);
#262 = VERTEX_POINT('',#263);
#263 = CARTESIAN_POINT('',(-1.549978118132,-38.13915533977,3.));
#264 = LINE('',#265,#266);
#265 = CARTESIAN_POINT('',(-1.549978118131,-38.13915533977,3.));
#266 = VECTOR('',#267,1.);
#267 = DIRECTION('',(-0.89443608793,-0.447195801197,0.));
#268 = ORIENTED_EDGE('',*,*,#269,.F.);
#269 = EDGE_CURVE('',#270,#262,#272,.T.);
#270 = VERTEX_POINT('',#271);
#271 = CARTESIAN_POINT('',(1.863769287398,-21.26685824842,3.));
#272 = LINE('',#273,#274);
#273 = CARTESIAN_POINT('',(1.863769287397,-21.26685824843,3.));
#274 = VECTOR('',#275,1.);
#275 = DIRECTION('',(-0.198310166503,-0.980139315537,0.));
#276 = ORIENTED_EDGE('',*,*,#277,.F.);
#277 = EDGE_CURVE('',#278,#270,#280,.T.);
#278 = VERTEX_POINT('',#279);
#279 = CARTESIAN_POINT('',(21.938546149433,-27.27886087769,3.));
#280 = LINE('',#281,#282);
#281 = CARTESIAN_POINT('',(21.938546149429,-27.27886087769,3.));
#282 = VECTOR('',#283,1.);
#283 = DIRECTION('',(-0.957963168314,0.286891213099,0.));
#284 = ORIENTED_EDGE('',*,*,#285,.F.);
#285 = EDGE_CURVE('',#286,#278,#288,.T.);
#286 = VERTEX_POINT('',#287);
#287 = CARTESIAN_POINT('',(43.418929037058,-27.01381154885,3.));
#288 = LINE('',#289,#290);
#289 = CARTESIAN_POINT('',(43.418929037056,-27.01381154885,3.));
#290 = VECTOR('',#291,1.);
#291 = DIRECTION('',(-0.999923881575,-1.23381950448E-02,0.));
#292 = ORIENTED_EDGE('',*,*,#293,.F.);
#293 = EDGE_CURVE('',#294,#286,#296,.T.);
#294 = VERTEX_POINT('',#295);
#295 = CARTESIAN_POINT('',(46.119789483266,-12.60910778186,3.));
#296 = LINE('',#297,#298);
#297 = CARTESIAN_POINT('',(46.119789483265,-12.60910778187,3.));
#298 = VECTOR('',#299,1.);
#299 = DIRECTION('',(-0.184287117203,-0.98287245278,0.));
#300 = ORIENTED_EDGE('',*,*,#301,.F.);
#301 = EDGE_CURVE('',#302,#294,#304,.T.);
#302 = VERTEX_POINT('',#303);
#303 = CARTESIAN_POINT('',(59.782276547598,-13.40338462505,3.));
#304 = LINE('',#305,#306);
#305 = CARTESIAN_POINT('',(59.782276547547,-13.40338462505,3.));
#306 = VECTOR('',#307,1.);
#307 = DIRECTION('',(-0.998314397657,5.803760358914E-02,0.));
#308 = ORIENTED_EDGE('',*,*,#309,.F.);
#309 = EDGE_CURVE('',#310,#302,#312,.T.);
#310 = VERTEX_POINT('',#311);
#311 = CARTESIAN_POINT('',(63.488919798712,-13.4004982779,3.));
#312 = LINE('',#313,#314);
#313 = CARTESIAN_POINT('',(63.488919798702,-13.4004982779,3.));
#314 = VECTOR('',#315,1.);
#315 = DIRECTION('',(-0.999999696817,-7.786954625453E-04,0.));
#316 = ORIENTED_EDGE('',*,*,#317,.F.);
#317 = EDGE_CURVE('',#318,#310,#320,.T.);
#318 = VERTEX_POINT('',#319);
#319 = CARTESIAN_POINT('',(87.174588036211,-11.22378316333,3.));
#320 = LINE('',#321,#322);
#321 = CARTESIAN_POINT('',(87.174588036211,-11.22378316333,3.));
#322 = VECTOR('',#323,1.);
#323 = DIRECTION('',(-0.995803747808,-9.151445706595E-02,0.));
#324 = ORIENTED_EDGE('',*,*,#325,.F.);
#325 = EDGE_CURVE('',#326,#318,#328,.T.);
#326 = VERTEX_POINT('',#327);
#327 = CARTESIAN_POINT('',(89.416451955096,12.480552712794,3.));
#328 = LINE('',#329,#330);
#329 = CARTESIAN_POINT('',(89.416451955096,12.480552712793,3.));
#330 = VECTOR('',#331,1.);
#331 = DIRECTION('',(-9.415595360627E-02,-0.99555746012,0.));
#332 = ORIENTED_EDGE('',*,*,#333,.F.);
#333 = EDGE_CURVE('',#334,#326,#336,.T.);
#334 = VERTEX_POINT('',#335);
#335 = CARTESIAN_POINT('',(89.237075427186,18.949699753528,3.));
#336 = LINE('',#337,#338);
#337 = CARTESIAN_POINT('',(89.237075427187,18.949699753516,3.));
#338 = VECTOR('',#339,1.);
#339 = DIRECTION('',(2.771734981446E-02,-0.999615800455,0.));
#340 = ORIENTED_EDGE('',*,*,#341,.F.);
#341 = EDGE_CURVE('',#342,#334,#344,.T.);
#342 = VERTEX_POINT('',#343);
#343 = CARTESIAN_POINT('',(89.321562547488,38.807710755635,3.));
#344 = LINE('',#345,#346);
#345 = CARTESIAN_POINT('',(89.321562547488,38.807710755652,3.));
#346 = VECTOR('',#347,1.);
#347 = DIRECTION('',(-4.254522552138E-03,-0.999990949478,0.));
#348 = ORIENTED_EDGE('',*,*,#349,.F.);
#349 = EDGE_CURVE('',#350,#342,#352,.T.);
#350 = VERTEX_POINT('',#351);
#351 = CARTESIAN_POINT('',(89.460119976401,45.285956829922,3.));
#352 = LINE('',#353,#354);
#353 = CARTESIAN_POINT('',(89.460119976401,45.285956829922,3.));
#354 = VECTOR('',#355,1.);
#355 = DIRECTION('',(-2.138321801359E-02,-0.999771352854,0.));
#356 = ORIENTED_EDGE('',*,*,#357,.F.);
#357 = EDGE_CURVE('',#24,#350,#358,.T.);
#358 = LINE('',#359,#360);
#359 = CARTESIAN_POINT('',(89.411983171957,64.466657339497,3.));
#360 = VECTOR('',#361,1.);
#361 = DIRECTION('',(2.509639980566E-03,-0.999996850849,0.));
#362 = ORIENTED_EDGE('',*,*,#21,.F.);
#363 = FACE_BOUND('',#364,.T.);
#364 = EDGE_LOOP('',(#365));
#365 = ORIENTED_EDGE('',*,*,#366,.T.);
#366 = EDGE_CURVE('',#367,#367,#369,.T.);
#367 = VERTEX_POINT('',#368);
#368 = CARTESIAN_POINT('',(72.001388619747,-4.75166172086,3.));
#369 = CIRCLE('',#370,1.7);
#370 = AXIS2_PLACEMENT_3D('',#371,#372,#373);
#371 = CARTESIAN_POINT('',(73.701388619747,-4.75166172086,3.));
#372 = DIRECTION('',(0.,0.,-1.));
#373 = DIRECTION('',(-1.,0.,0.));
#374 = FACE_BOUND('',#375,.T.);
#375 = EDGE_LOOP('',(#376));
#376 = ORIENTED_EDGE('',*,*,#377,.T.);
#377 = EDGE_CURVE('',#378,#378,#380,.T.);
#378 = VERTEX_POINT('',#379);
#379 = CARTESIAN_POINT('',(9.818037385729,-16.62038451986,3.));
#380 = CIRCLE('',#381,1.7);
#381 = AXIS2_PLACEMENT_3D('',#382,#383,#384);
#382 = CARTESIAN_POINT('',(11.518037385729,-16.62038451986,3.));
#383 = DIRECTION('',(0.,0.,-1.));
#384 = DIRECTION('',(-1.,0.,0.));
#385 = FACE_BOUND('',#386,.T.);
#386 = EDGE_LOOP('',(#387));
#387 = ORIENTED_EDGE('',*,*,#388,.T.);
#388 = EDGE_CURVE('',#389,#389,#391,.T.);
#389 = VERTEX_POINT('',#390);
#390 = CARTESIAN_POINT('',(-46.23738835172,-33.4582886089,3.));
#391 = CIRCLE('',#392,1.7);
#392 = AXIS2_PLACEMENT_3D('',#393,#394,#395);
#393 = CARTESIAN_POINT('',(-44.53738835172,-33.4582886089,3.));
#394 = DIRECTION('',(0.,0.,-1.));
#395 = DIRECTION('',(-1.,0.,0.));
#396 = FACE_BOUND('',#397,.T.);
#397 = EDGE_LOOP('',(#398));
#398 = ORIENTED_EDGE('',*,*,#399,.T.);
#399 = EDGE_CURVE('',#400,#400,#402,.T.);
#400 = VERTEX_POINT('',#401);
#401 = CARTESIAN_POINT('',(-49.38405349637,22.559164116739,3.));
#402 = CIRCLE('',#403,1.7);
#403 = AXIS2_PLACEMENT_3D('',#404,#405,#406);
#404 = CARTESIAN_POINT('',(-47.68405349637,22.559164116739,3.));
#405 = DIRECTION('',(0.,0.,-1.));
#406 = DIRECTION('',(-1.,0.,0.));
#407 = FACE_BOUND('',#408,.T.);
#408 = EDGE_LOOP('',(#409));
#409 = ORIENTED_EDGE('',*,*,#410,.T.);
#410 = EDGE_CURVE('',#411,#411,#413,.T.);
#411 = VERTEX_POINT('',#412);
#412 = CARTESIAN_POINT('',(79.538374463585,54.853895526734,3.));
#413 = CIRCLE('',#414,1.7);
#414 = AXIS2_PLACEMENT_3D('',#415,#416,#417);
#415 = CARTESIAN_POINT('',(81.238374463585,54.853895526734,3.));
#416 = DIRECTION('',(0.,0.,-1.));
#417 = DIRECTION('',(-1.,0.,0.));
#418 = FACE_BOUND('',#419,.T.);
#419 = EDGE_LOOP('',(#420));
#420 = ORIENTED_EDGE('',*,*,#421,.T.);
#421 = EDGE_CURVE('',#422,#422,#424,.T.);
#422 = VERTEX_POINT('',#423);
#423 = CARTESIAN_POINT('',(50.590405940393,85.007880863003,3.));
#424 = CIRCLE('',#425,1.7);
#425 = AXIS2_PLACEMENT_3D('',#426,#427,#428);
#426 = CARTESIAN_POINT('',(52.290405940393,85.007880863003,3.));
#427 = DIRECTION('',(0.,0.,-1.));
#428 = DIRECTION('',(-1.,0.,0.));
#429 = FACE_BOUND('',#430,.T.);
#430 = EDGE_LOOP('',(#431));
#431 = ORIENTED_EDGE('',*,*,#432,.T.);
#432 = EDGE_CURVE('',#433,#433,#435,.T.);
#433 = VERTEX_POINT('',#434);
#434 = CARTESIAN_POINT('',(14.625973286532,95.013083618946,3.));
#435 = CIRCLE('',#436,1.7);
#436 = AXIS2_PLACEMENT_3D('',#437,#438,#439);
#437 = CARTESIAN_POINT('',(16.325973286532,95.013083618946,3.));
#438 = DIRECTION('',(0.,0.,-1.));
#439 = DIRECTION('',(-1.,0.,0.));
#440 = FACE_BOUND('',#441,.T.);
#441 = EDGE_LOOP('',(#442));
#442 = ORIENTED_EDGE('',*,*,#443,.T.);
#443 = EDGE_CURVE('',#444,#444,#446,.T.);
#444 = VERTEX_POINT('',#445);
#445 = CARTESIAN_POINT('',(-43.39908344177,84.531427981148,3.));
#446 = CIRCLE('',#447,1.7);
#447 = AXIS2_PLACEMENT_3D('',#448,#449,#450);
#448 = CARTESIAN_POINT('',(-41.69908344177,84.531427981148,3.));
#449 = DIRECTION('',(0.,0.,-1.));
#450 = DIRECTION('',(-1.,0.,0.));
#451 = PLANE('',#452);
#452 = AXIS2_PLACEMENT_3D('',#453,#454,#455);
#453 = CARTESIAN_POINT('',(11.760970759722,29.171150871107,3.));
#454 = DIRECTION('',(0.,0.,-1.));
#455 = DIRECTION('',(-1.,0.,0.));
#456 = ADVANCED_FACE('',(#457),#475,.F.);
#457 = FACE_BOUND('',#458,.T.);
#458 = EDGE_LOOP('',(#459,#460,#468,#474));
#459 = ORIENTED_EDGE('',*,*,#357,.T.);
#460 = ORIENTED_EDGE('',*,*,#461,.F.);
#461 = EDGE_CURVE('',#462,#350,#464,.T.);
#462 = VERTEX_POINT('',#463);
#463 = CARTESIAN_POINT('',(89.460119976401,45.285956829919,
    -4.336808689942E-16));
#464 = LINE('',#465,#466);
#465 = CARTESIAN_POINT('',(89.460119976401,45.285956829922,3.));
#466 = VECTOR('',#467,1.);
#467 = DIRECTION('',(0.,0.,1.));
#468 = ORIENTED_EDGE('',*,*,#469,.F.);
#469 = EDGE_CURVE('',#32,#462,#470,.T.);
#470 = LINE('',#471,#472);
#471 = CARTESIAN_POINT('',(89.411983171957,64.466657339497,0.));
#472 = VECTOR('',#473,1.);
#473 = DIRECTION('',(2.509639980556E-03,-0.999996850849,0.));
#474 = ORIENTED_EDGE('',*,*,#31,.T.);
#475 = PLANE('',#476);
#476 = AXIS2_PLACEMENT_3D('',#477,#478,#479);
#477 = CARTESIAN_POINT('',(89.411983171957,64.466657339497,3.));
#478 = DIRECTION('',(-0.999996850849,-2.509639980566E-03,0.));
#479 = DIRECTION('',(2.509639980566E-03,-0.999996850849,0.));
#480 = ADVANCED_FACE('',(#481,#779,#790,#801,#812,#823,#834,#845,#856,
    #867,#878,#889,#900),#911,.T.);
#481 = FACE_BOUND('',#482,.T.);
#482 = EDGE_LOOP('',(#483,#484,#485,#493,#501,#509,#517,#525,#533,#541,
    #549,#557,#565,#573,#581,#589,#597,#605,#613,#621,#629,#637,#645,
    #653,#661,#669,#677,#685,#693,#701,#709,#717,#725,#733,#741,#749,
    #757,#765,#773));
#483 = ORIENTED_EDGE('',*,*,#39,.T.);
#484 = ORIENTED_EDGE('',*,*,#469,.T.);
#485 = ORIENTED_EDGE('',*,*,#486,.T.);
#486 = EDGE_CURVE('',#462,#487,#489,.T.);
#487 = VERTEX_POINT('',#488);
#488 = CARTESIAN_POINT('',(89.321562547488,38.807710755654,
    -4.336808689942E-16));
#489 = LINE('',#490,#491);
#490 = CARTESIAN_POINT('',(89.460119976401,45.285956829922,0.));
#491 = VECTOR('',#492,1.);
#492 = DIRECTION('',(-2.138321801367E-02,-0.999771352854,0.));
#493 = ORIENTED_EDGE('',*,*,#494,.T.);
#494 = EDGE_CURVE('',#487,#495,#497,.T.);
#495 = VERTEX_POINT('',#496);
#496 = CARTESIAN_POINT('',(89.237075427187,18.949699753516,
    -1.084202172485E-16));
#497 = LINE('',#498,#499);
#498 = CARTESIAN_POINT('',(89.321562547488,38.807710755652,0.));
#499 = VECTOR('',#500,1.);
#500 = DIRECTION('',(-4.254522552102E-03,-0.999990949478,0.));
#501 = ORIENTED_EDGE('',*,*,#502,.T.);
#502 = EDGE_CURVE('',#495,#503,#505,.T.);
#503 = VERTEX_POINT('',#504);
#504 = CARTESIAN_POINT('',(89.416451955096,12.480552712793,
    -2.168404344971E-16));
#505 = LINE('',#506,#507);
#506 = CARTESIAN_POINT('',(89.237075427187,18.949699753516,0.));
#507 = VECTOR('',#508,1.);
#508 = DIRECTION('',(2.771734981441E-02,-0.999615800455,0.));
#509 = ORIENTED_EDGE('',*,*,#510,.T.);
#510 = EDGE_CURVE('',#503,#511,#513,.T.);
#511 = VERTEX_POINT('',#512);
#512 = CARTESIAN_POINT('',(87.174588036211,-11.22378316333,0.));
#513 = LINE('',#514,#515);
#514 = CARTESIAN_POINT('',(89.416451955096,12.480552712793,0.));
#515 = VECTOR('',#516,1.);
#516 = DIRECTION('',(-9.415595360627E-02,-0.99555746012,0.));
#517 = ORIENTED_EDGE('',*,*,#518,.T.);
#518 = EDGE_CURVE('',#511,#519,#521,.T.);
#519 = VERTEX_POINT('',#520);
#520 = CARTESIAN_POINT('',(63.488919798702,-13.4004982779,
    -2.168404344971E-16));
#521 = LINE('',#522,#523);
#522 = CARTESIAN_POINT('',(87.174588036211,-11.22378316333,0.));
#523 = VECTOR('',#524,1.);
#524 = DIRECTION('',(-0.995803747808,-9.151445706587E-02,0.));
#525 = ORIENTED_EDGE('',*,*,#526,.T.);
#526 = EDGE_CURVE('',#519,#527,#529,.T.);
#527 = VERTEX_POINT('',#528);
#528 = CARTESIAN_POINT('',(59.782276547547,-13.40338462505,
    -4.336808689942E-16));
#529 = LINE('',#530,#531);
#530 = CARTESIAN_POINT('',(63.488919798702,-13.4004982779,0.));
#531 = VECTOR('',#532,1.);
#532 = DIRECTION('',(-0.999999696817,-7.786954609162E-04,0.));
#533 = ORIENTED_EDGE('',*,*,#534,.T.);
#534 = EDGE_CURVE('',#527,#535,#537,.T.);
#535 = VERTEX_POINT('',#536);
#536 = CARTESIAN_POINT('',(46.119789483265,-12.60910778186,0.));
#537 = LINE('',#538,#539);
#538 = CARTESIAN_POINT('',(59.782276547547,-13.40338462505,0.));
#539 = VECTOR('',#540,1.);
#540 = DIRECTION('',(-0.998314397657,5.803760358869E-02,0.));
#541 = ORIENTED_EDGE('',*,*,#542,.T.);
#542 = EDGE_CURVE('',#535,#543,#545,.T.);
#543 = VERTEX_POINT('',#544);
#544 = CARTESIAN_POINT('',(43.418929037057,-27.01381154885,0.));
#545 = LINE('',#546,#547);
#546 = CARTESIAN_POINT('',(46.119789483265,-12.60910778187,0.));
#547 = VECTOR('',#548,1.);
#548 = DIRECTION('',(-0.184287117203,-0.98287245278,0.));
#549 = ORIENTED_EDGE('',*,*,#550,.T.);
#550 = EDGE_CURVE('',#543,#551,#553,.T.);
#551 = VERTEX_POINT('',#552);
#552 = CARTESIAN_POINT('',(21.938546149429,-27.27886087769,
    4.336808689942E-16));
#553 = LINE('',#554,#555);
#554 = CARTESIAN_POINT('',(43.418929037056,-27.01381154885,0.));
#555 = VECTOR('',#556,1.);
#556 = DIRECTION('',(-0.999923881575,-1.233819504469E-02,0.));
#557 = ORIENTED_EDGE('',*,*,#558,.T.);
#558 = EDGE_CURVE('',#551,#559,#561,.T.);
#559 = VERTEX_POINT('',#560);
#560 = CARTESIAN_POINT('',(1.863769287397,-21.26685824842,
    -4.336808689942E-16));
#561 = LINE('',#562,#563);
#562 = CARTESIAN_POINT('',(21.938546149429,-27.27886087769,0.));
#563 = VECTOR('',#564,1.);
#564 = DIRECTION('',(-0.957963168314,0.286891213099,0.));
#565 = ORIENTED_EDGE('',*,*,#566,.T.);
#566 = EDGE_CURVE('',#559,#567,#569,.T.);
#567 = VERTEX_POINT('',#568);
#568 = CARTESIAN_POINT('',(-1.549978118132,-38.13915533977,
    4.336808689942E-16));
#569 = LINE('',#570,#571);
#570 = CARTESIAN_POINT('',(1.863769287397,-21.26685824843,0.));
#571 = VECTOR('',#572,1.);
#572 = DIRECTION('',(-0.198310166503,-0.980139315537,0.));
#573 = ORIENTED_EDGE('',*,*,#574,.T.);
#574 = EDGE_CURVE('',#567,#575,#577,.T.);
#575 = VERTEX_POINT('',#576);
#576 = CARTESIAN_POINT('',(-17.24519886178,-45.98637540405,0.));
#577 = LINE('',#578,#579);
#578 = CARTESIAN_POINT('',(-1.549978118131,-38.13915533977,0.));
#579 = VECTOR('',#580,1.);
#580 = DIRECTION('',(-0.89443608793,-0.447195801198,0.));
#581 = ORIENTED_EDGE('',*,*,#582,.T.);
#582 = EDGE_CURVE('',#575,#583,#585,.T.);
#583 = VERTEX_POINT('',#584);
#584 = CARTESIAN_POINT('',(-37.16741212962,-56.89717106023,
    -6.505213034913E-16));
#585 = LINE('',#586,#587);
#586 = CARTESIAN_POINT('',(-17.24519886178,-45.98637540406,0.));
#587 = VECTOR('',#588,1.);
#588 = DIRECTION('',(-0.877077493908,-0.480348904111,0.));
#589 = ORIENTED_EDGE('',*,*,#590,.T.);
#590 = EDGE_CURVE('',#583,#591,#593,.T.);
#591 = VERTEX_POINT('',#592);
#592 = CARTESIAN_POINT('',(-52.50098980667,-38.12149768516,0.));
#593 = LINE('',#594,#595);
#594 = CARTESIAN_POINT('',(-37.16741212962,-56.89717106024,0.));
#595 = VECTOR('',#596,1.);
#596 = DIRECTION('',(-0.632537319932,0.774529882505,0.));
#597 = ORIENTED_EDGE('',*,*,#598,.T.);
#598 = EDGE_CURVE('',#591,#599,#601,.T.);
#599 = VERTEX_POINT('',#600);
#600 = CARTESIAN_POINT('',(-53.03250195944,-33.18178307025,
    -4.336808689942E-16));
#601 = LINE('',#602,#603);
#602 = CARTESIAN_POINT('',(-52.50098980668,-38.12149768517,0.));
#603 = VECTOR('',#604,1.);
#604 = DIRECTION('',(-0.106982246755,0.994260930983,0.));
#605 = ORIENTED_EDGE('',*,*,#606,.T.);
#606 = EDGE_CURVE('',#599,#607,#609,.T.);
#607 = VERTEX_POINT('',#608);
#608 = CARTESIAN_POINT('',(-64.21640808094,-15.0007881163,
    -4.336808689942E-16));
#609 = LINE('',#610,#611);
#610 = CARTESIAN_POINT('',(-53.03250195944,-33.18178307025,0.));
#611 = VECTOR('',#612,1.);
#612 = DIRECTION('',(-0.52394795703,0.851750279321,0.));
#613 = ORIENTED_EDGE('',*,*,#614,.T.);
#614 = EDGE_CURVE('',#607,#615,#617,.T.);
#615 = VERTEX_POINT('',#616);
#616 = CARTESIAN_POINT('',(-52.75105328756,-4.170959716842,0.));
#617 = LINE('',#618,#619);
#618 = CARTESIAN_POINT('',(-64.21640808095,-15.00078811631,0.));
#619 = VECTOR('',#620,1.);
#620 = DIRECTION('',(0.726967644256,0.686671715017,0.));
#621 = ORIENTED_EDGE('',*,*,#622,.T.);
#622 = EDGE_CURVE('',#615,#623,#625,.T.);
#623 = VERTEX_POINT('',#624);
#624 = CARTESIAN_POINT('',(-51.50561588417,3.917575356603,
    -1.084202172485E-16));
#625 = LINE('',#626,#627);
#626 = CARTESIAN_POINT('',(-52.75105328756,-4.170959716841,0.));
#627 = VECTOR('',#628,1.);
#628 = DIRECTION('',(0.152182206598,0.988352455349,0.));
#629 = ORIENTED_EDGE('',*,*,#630,.T.);
#630 = EDGE_CURVE('',#623,#631,#633,.T.);
#631 = VERTEX_POINT('',#632);
#632 = CARTESIAN_POINT('',(-55.65664173809,18.986154278476,
    -2.168404344971E-16));
#633 = LINE('',#634,#635);
#634 = CARTESIAN_POINT('',(-51.50561588417,3.917575356603,0.));
#635 = VECTOR('',#636,1.);
#636 = DIRECTION('',(-0.265582741806,0.964088070279,0.));
#637 = ORIENTED_EDGE('',*,*,#638,.T.);
#638 = EDGE_CURVE('',#631,#639,#641,.T.);
#639 = VERTEX_POINT('',#640);
#640 = CARTESIAN_POINT('',(-56.00967094242,25.444449255295,
    1.084202172485E-16));
#641 = LINE('',#642,#643);
#642 = CARTESIAN_POINT('',(-55.65664173809,18.986154278477,0.));
#643 = VECTOR('',#644,1.);
#644 = DIRECTION('',(-5.458142637504E-02,0.998509322888,0.));
#645 = ORIENTED_EDGE('',*,*,#646,.T.);
#646 = EDGE_CURVE('',#639,#647,#649,.T.);
#647 = VERTEX_POINT('',#648);
#648 = CARTESIAN_POINT('',(-56.01303762139,45.395075400137,
    1.084202172485E-16));
#649 = LINE('',#650,#651);
#650 = CARTESIAN_POINT('',(-56.00967094243,25.444449255295,0.));
#651 = VECTOR('',#652,1.);
#652 = DIRECTION('',(-1.687505388364E-04,0.999999985762,0.));
#653 = ORIENTED_EDGE('',*,*,#654,.T.);
#654 = EDGE_CURVE('',#647,#655,#657,.T.);
#655 = VERTEX_POINT('',#656);
#656 = CARTESIAN_POINT('',(-55.6621835708,51.82653904559,0.));
#657 = LINE('',#658,#659);
#658 = CARTESIAN_POINT('',(-56.01303762139,45.395075400138,0.));
#659 = VECTOR('',#660,1.);
#660 = DIRECTION('',(5.44717596098E-02,0.998515311553,0.));
#661 = ORIENTED_EDGE('',*,*,#662,.T.);
#662 = EDGE_CURVE('',#655,#663,#665,.T.);
#663 = VERTEX_POINT('',#664);
#664 = CARTESIAN_POINT('',(-53.52363260749,71.01572068686,0.));
#665 = LINE('',#666,#667);
#666 = CARTESIAN_POINT('',(-55.6621835708,51.82653904559,0.));
#667 = VECTOR('',#668,1.);
#668 = DIRECTION('',(0.11075995322,0.993847187833,0.));
#669 = ORIENTED_EDGE('',*,*,#670,.T.);
#670 = EDGE_CURVE('',#663,#671,#673,.T.);
#671 = VERTEX_POINT('',#672);
#672 = CARTESIAN_POINT('',(-52.49280542572,76.982059382003,
    -1.084202172485E-16));
#673 = LINE('',#674,#675);
#674 = CARTESIAN_POINT('',(-53.5236326075,71.01572068686,0.));
#675 = VECTOR('',#676,1.);
#676 = DIRECTION('',(0.170251443875,0.985400652455,0.));
#677 = ORIENTED_EDGE('',*,*,#678,.T.);
#678 = EDGE_CURVE('',#671,#679,#681,.T.);
#679 = VERTEX_POINT('',#680);
#680 = CARTESIAN_POINT('',(-45.41228549276,97.937884527188,
    -1.084202172485E-16));
#681 = LINE('',#682,#683);
#682 = CARTESIAN_POINT('',(-52.49280542572,76.982059382003,0.));
#683 = VECTOR('',#684,1.);
#684 = DIRECTION('',(0.320100427129,0.947383616362,0.));
#685 = ORIENTED_EDGE('',*,*,#686,.T.);
#686 = EDGE_CURVE('',#679,#687,#689,.T.);
#687 = VERTEX_POINT('',#688);
#688 = CARTESIAN_POINT('',(-23.46248001185,100.03746233017,
    1.084202172485E-16));
#689 = LINE('',#690,#691);
#690 = CARTESIAN_POINT('',(-45.41228549277,97.937884527188,0.));
#691 = VECTOR('',#692,1.);
#692 = DIRECTION('',(0.995456350685,9.521897857154E-02,0.));
#693 = ORIENTED_EDGE('',*,*,#694,.T.);
#694 = EDGE_CURVE('',#687,#695,#697,.T.);
#695 = VERTEX_POINT('',#696);
#696 = CARTESIAN_POINT('',(-20.54196964185,100.05854787071,
    -2.168404344971E-16));
#697 = LINE('',#698,#699);
#698 = CARTESIAN_POINT('',(-23.46248001185,100.03746233017,0.));
#699 = VECTOR('',#700,1.);
#700 = DIRECTION('',(0.999973938165,7.219625456286E-03,0.));
#701 = ORIENTED_EDGE('',*,*,#702,.T.);
#702 = EDGE_CURVE('',#695,#703,#705,.T.);
#703 = VERTEX_POINT('',#704);
#704 = CARTESIAN_POINT('',(-3.708916324367,100.14960323875,0.));
#705 = LINE('',#706,#707);
#706 = CARTESIAN_POINT('',(-20.54196964192,100.05854787071,0.));
#707 = VECTOR('',#708,1.);
#708 = DIRECTION('',(0.999985369951,5.409240627814E-03,0.));
#709 = ORIENTED_EDGE('',*,*,#710,.T.);
#710 = EDGE_CURVE('',#703,#711,#713,.T.);
#711 = VERTEX_POINT('',#712);
#712 = CARTESIAN_POINT('',(-1.738420937724,103.03127756283,
    -1.084202172485E-16));
#713 = LINE('',#714,#715);
#714 = CARTESIAN_POINT('',(-3.708916324367,100.14960323875,0.));
#715 = VECTOR('',#716,1.);
#716 = DIRECTION('',(0.56445434032,0.825464292198,0.));
#717 = ORIENTED_EDGE('',*,*,#718,.T.);
#718 = EDGE_CURVE('',#711,#719,#721,.T.);
#719 = VERTEX_POINT('',#720);
#720 = CARTESIAN_POINT('',(18.86068044071,103.1277292105,
    1.084202172485E-16));
#721 = LINE('',#722,#723);
#722 = CARTESIAN_POINT('',(-1.738420937725,103.03127756283,0.));
#723 = VECTOR('',#724,1.);
#724 = DIRECTION('',(0.999989038106,4.682271745996E-03,0.));
#725 = ORIENTED_EDGE('',*,*,#726,.T.);
#726 = EDGE_CURVE('',#719,#727,#729,.T.);
#727 = VERTEX_POINT('',#728);
#728 = CARTESIAN_POINT('',(21.232029201568,100.26638480345,
    -2.168404344971E-16));
#729 = LINE('',#730,#731);
#730 = CARTESIAN_POINT('',(18.86068044071,103.1277292105,0.));
#731 = VECTOR('',#732,1.);
#732 = DIRECTION('',(0.638100913411,-0.769952741604,0.));
#733 = ORIENTED_EDGE('',*,*,#734,.T.);
#734 = EDGE_CURVE('',#727,#735,#737,.T.);
#735 = VERTEX_POINT('',#736);
#736 = CARTESIAN_POINT('',(45.364749812156,99.671799487341,
    -1.084202172485E-16));
#737 = LINE('',#738,#739);
#738 = CARTESIAN_POINT('',(21.232029201567,100.26638480345,0.));
#739 = VECTOR('',#740,1.);
#740 = DIRECTION('',(0.999696619178,-2.463066389884E-02,0.));
#741 = ORIENTED_EDGE('',*,*,#742,.T.);
#742 = EDGE_CURVE('',#735,#743,#745,.T.);
#743 = VERTEX_POINT('',#744);
#744 = CARTESIAN_POINT('',(45.581633653953,92.654081702323,
    -2.168404344971E-16));
#745 = LINE('',#746,#747);
#746 = CARTESIAN_POINT('',(45.364749812156,99.671799487344,0.));
#747 = VECTOR('',#748,1.);
#748 = DIRECTION('',(3.089043281834E-02,-0.999522776709,0.));
#749 = ORIENTED_EDGE('',*,*,#750,.T.);
#750 = EDGE_CURVE('',#743,#751,#753,.T.);
#751 = VERTEX_POINT('',#752);
#752 = CARTESIAN_POINT('',(60.796603643766,93.268957050612,
    1.084202172485E-16));
#753 = LINE('',#754,#755);
#754 = CARTESIAN_POINT('',(45.581633653953,92.654081702323,0.));
#755 = VECTOR('',#756,1.);
#756 = DIRECTION('',(0.99918441279,4.037956461497E-02,0.));
#757 = ORIENTED_EDGE('',*,*,#758,.T.);
#758 = EDGE_CURVE('',#751,#759,#761,.T.);
#759 = VERTEX_POINT('',#760);
#760 = CARTESIAN_POINT('',(63.421484627424,93.271001034143,0.));
#761 = LINE('',#762,#763);
#762 = CARTESIAN_POINT('',(60.796603643767,93.268957050612,0.));
#763 = VECTOR('',#764,1.);
#764 = DIRECTION('',(0.999999696817,7.786954623884E-04,0.));
#765 = ORIENTED_EDGE('',*,*,#766,.T.);
#766 = EDGE_CURVE('',#759,#767,#769,.T.);
#767 = VERTEX_POINT('',#768);
#768 = CARTESIAN_POINT('',(87.03958590856,91.348159674307,0.));
#769 = LINE('',#770,#771);
#770 = CARTESIAN_POINT('',(63.421484627424,93.271001034143,0.));
#771 = VECTOR('',#772,1.);
#772 = DIRECTION('',(0.996702274255,-8.114540341604E-02,0.));
#773 = ORIENTED_EDGE('',*,*,#774,.T.);
#774 = EDGE_CURVE('',#767,#40,#775,.T.);
#775 = LINE('',#776,#777);
#776 = CARTESIAN_POINT('',(87.03958590856,91.348159674307,0.));
#777 = VECTOR('',#778,1.);
#778 = DIRECTION('',(0.111623285248,-0.993750593555,0.));
#779 = FACE_BOUND('',#780,.T.);
#780 = EDGE_LOOP('',(#781));
#781 = ORIENTED_EDGE('',*,*,#782,.F.);
#782 = EDGE_CURVE('',#783,#783,#785,.T.);
#783 = VERTEX_POINT('',#784);
#784 = CARTESIAN_POINT('',(70.551388619748,-4.75166172086,0.));
#785 = CIRCLE('',#786,3.149999999999);
#786 = AXIS2_PLACEMENT_3D('',#787,#788,#789);
#787 = CARTESIAN_POINT('',(73.701388619747,-4.75166172086,0.));
#788 = DIRECTION('',(0.,0.,-1.));
#789 = DIRECTION('',(-1.,0.,0.));
#790 = FACE_BOUND('',#791,.T.);
#791 = EDGE_LOOP('',(#792));
#792 = ORIENTED_EDGE('',*,*,#793,.F.);
#793 = EDGE_CURVE('',#794,#794,#796,.T.);
#794 = VERTEX_POINT('',#795);
#795 = CARTESIAN_POINT('',(68.488919798702,12.480552712793,0.));
#796 = CIRCLE('',#797,5.);
#797 = AXIS2_PLACEMENT_3D('',#798,#799,#800);
#798 = CARTESIAN_POINT('',(63.488919798702,12.480552712793,0.));
#799 = DIRECTION('',(0.,0.,-1.));
#800 = DIRECTION('',(1.,0.,0.));
#801 = FACE_BOUND('',#802,.T.);
#802 = EDGE_LOOP('',(#803));
#803 = ORIENTED_EDGE('',*,*,#804,.F.);
#804 = EDGE_CURVE('',#805,#805,#807,.T.);
#805 = VERTEX_POINT('',#806);
#806 = CARTESIAN_POINT('',(8.36803738573,-16.62038451986,0.));
#807 = CIRCLE('',#808,3.149999999999);
#808 = AXIS2_PLACEMENT_3D('',#809,#810,#811);
#809 = CARTESIAN_POINT('',(11.518037385729,-16.62038451986,0.));
#810 = DIRECTION('',(0.,0.,-1.));
#811 = DIRECTION('',(-1.,0.,0.));
#812 = FACE_BOUND('',#813,.T.);
#813 = EDGE_LOOP('',(#814));
#814 = ORIENTED_EDGE('',*,*,#815,.F.);
#815 = EDGE_CURVE('',#816,#816,#818,.T.);
#816 = VERTEX_POINT('',#817);
#817 = CARTESIAN_POINT('',(-47.68738835171,-33.4582886089,0.));
#818 = CIRCLE('',#819,3.149999999999);
#819 = AXIS2_PLACEMENT_3D('',#820,#821,#822);
#820 = CARTESIAN_POINT('',(-44.53738835172,-33.4582886089,0.));
#821 = DIRECTION('',(0.,0.,-1.));
#822 = DIRECTION('',(-1.,0.,0.));
#823 = FACE_BOUND('',#824,.T.);
#824 = EDGE_LOOP('',(#825));
#825 = ORIENTED_EDGE('',*,*,#826,.F.);
#826 = EDGE_CURVE('',#827,#827,#829,.T.);
#827 = VERTEX_POINT('',#828);
#828 = CARTESIAN_POINT('',(-29.99812607466,-25.07866756045,0.));
#829 = CIRCLE('',#830,5.);
#830 = AXIS2_PLACEMENT_3D('',#831,#832,#833);
#831 = CARTESIAN_POINT('',(-34.99812607466,-25.07866756045,0.));
#832 = DIRECTION('',(0.,0.,-1.));
#833 = DIRECTION('',(1.,0.,0.));
#834 = FACE_BOUND('',#835,.T.);
#835 = EDGE_LOOP('',(#836));
#836 = ORIENTED_EDGE('',*,*,#837,.F.);
#837 = EDGE_CURVE('',#838,#838,#840,.T.);
#838 = VERTEX_POINT('',#839);
#839 = CARTESIAN_POINT('',(-50.83405349636,22.559164116739,0.));
#840 = CIRCLE('',#841,3.149999999999);
#841 = AXIS2_PLACEMENT_3D('',#842,#843,#844);
#842 = CARTESIAN_POINT('',(-47.68405349637,22.559164116739,0.));
#843 = DIRECTION('',(0.,0.,-1.));
#844 = DIRECTION('',(-1.,0.,0.));
#845 = FACE_BOUND('',#846,.T.);
#846 = EDGE_LOOP('',(#847));
#847 = ORIENTED_EDGE('',*,*,#848,.F.);
#848 = EDGE_CURVE('',#849,#849,#851,.T.);
#849 = VERTEX_POINT('',#850);
#850 = CARTESIAN_POINT('',(78.088374463586,54.853895526734,0.));
#851 = CIRCLE('',#852,3.149999999999);
#852 = AXIS2_PLACEMENT_3D('',#853,#854,#855);
#853 = CARTESIAN_POINT('',(81.238374463585,54.853895526734,0.));
#854 = DIRECTION('',(0.,0.,-1.));
#855 = DIRECTION('',(-1.,0.,0.));
#856 = FACE_BOUND('',#857,.T.);
#857 = EDGE_LOOP('',(#858));
#858 = ORIENTED_EDGE('',*,*,#859,.F.);
#859 = EDGE_CURVE('',#860,#860,#862,.T.);
#860 = VERTEX_POINT('',#861);
#861 = CARTESIAN_POINT('',(80.230535267992,80.888534908254,0.));
#862 = CIRCLE('',#863,5.);
#863 = AXIS2_PLACEMENT_3D('',#864,#865,#866);
#864 = CARTESIAN_POINT('',(75.230535267992,80.888534908254,0.));
#865 = DIRECTION('',(0.,0.,-1.));
#866 = DIRECTION('',(1.,0.,0.));
#867 = FACE_BOUND('',#868,.T.);
#868 = EDGE_LOOP('',(#869));
#869 = ORIENTED_EDGE('',*,*,#870,.F.);
#870 = EDGE_CURVE('',#871,#871,#873,.T.);
#871 = VERTEX_POINT('',#872);
#872 = CARTESIAN_POINT('',(49.140405940394,85.007880863003,0.));
#873 = CIRCLE('',#874,3.149999999999);
#874 = AXIS2_PLACEMENT_3D('',#875,#876,#877);
#875 = CARTESIAN_POINT('',(52.290405940393,85.007880863003,0.));
#876 = DIRECTION('',(0.,0.,-1.));
#877 = DIRECTION('',(-1.,0.,0.));
#878 = FACE_BOUND('',#879,.T.);
#879 = EDGE_LOOP('',(#880));
#880 = ORIENTED_EDGE('',*,*,#881,.F.);
#881 = EDGE_CURVE('',#882,#882,#884,.T.);
#882 = VERTEX_POINT('',#883);
#883 = CARTESIAN_POINT('',(13.175973286533,95.013083618946,0.));
#884 = CIRCLE('',#885,3.149999999999);
#885 = AXIS2_PLACEMENT_3D('',#886,#887,#888);
#886 = CARTESIAN_POINT('',(16.325973286532,95.013083618946,0.));
#887 = DIRECTION('',(0.,0.,-1.));
#888 = DIRECTION('',(-1.,0.,0.));
#889 = FACE_BOUND('',#890,.T.);
#890 = EDGE_LOOP('',(#891));
#891 = ORIENTED_EDGE('',*,*,#892,.F.);
#892 = EDGE_CURVE('',#893,#893,#895,.T.);
#893 = VERTEX_POINT('',#894);
#894 = CARTESIAN_POINT('',(-18.46248001185,87.459971954596,0.));
#895 = CIRCLE('',#896,5.);
#896 = AXIS2_PLACEMENT_3D('',#897,#898,#899);
#897 = CARTESIAN_POINT('',(-23.46248001185,87.459971954596,0.));
#898 = DIRECTION('',(0.,0.,-1.));
#899 = DIRECTION('',(1.,0.,0.));
#900 = FACE_BOUND('',#901,.T.);
#901 = EDGE_LOOP('',(#902));
#902 = ORIENTED_EDGE('',*,*,#903,.F.);
#903 = EDGE_CURVE('',#904,#904,#906,.T.);
#904 = VERTEX_POINT('',#905);
#905 = CARTESIAN_POINT('',(-44.84908344176,84.531427981148,0.));
#906 = CIRCLE('',#907,3.149999999999);
#907 = AXIS2_PLACEMENT_3D('',#908,#909,#910);
#908 = CARTESIAN_POINT('',(-41.69908344177,84.531427981148,0.));
#909 = DIRECTION('',(0.,0.,-1.));
#910 = DIRECTION('',(-1.,0.,0.));
#911 = PLANE('',#912);
#912 = AXIS2_PLACEMENT_3D('',#913,#914,#915);
#913 = CARTESIAN_POINT('',(11.760970759722,29.171150871107,0.));
#914 = DIRECTION('',(0.,0.,-1.));
#915 = DIRECTION('',(-1.,0.,0.));
#916 = ADVANCED_FACE('',(#917),#928,.F.);
#917 = FACE_BOUND('',#918,.T.);
#918 = EDGE_LOOP('',(#919,#920,#921,#922));
#919 = ORIENTED_EDGE('',*,*,#61,.T.);
#920 = ORIENTED_EDGE('',*,*,#47,.F.);
#921 = ORIENTED_EDGE('',*,*,#774,.F.);
#922 = ORIENTED_EDGE('',*,*,#923,.T.);
#923 = EDGE_CURVE('',#767,#62,#924,.T.);
#924 = LINE('',#925,#926);
#925 = CARTESIAN_POINT('',(87.03958590856,91.348159674307,3.));
#926 = VECTOR('',#927,1.);
#927 = DIRECTION('',(0.,0.,1.));
#928 = PLANE('',#929);
#929 = AXIS2_PLACEMENT_3D('',#930,#931,#932);
#930 = CARTESIAN_POINT('',(87.03958590856,91.348159674307,3.));
#931 = DIRECTION('',(-0.993750593555,-0.111623285248,0.));
#932 = DIRECTION('',(0.111623285248,-0.993750593555,0.));
#933 = ADVANCED_FACE('',(#934),#945,.F.);
#934 = FACE_BOUND('',#935,.T.);
#935 = EDGE_LOOP('',(#936,#937,#938,#939));
#936 = ORIENTED_EDGE('',*,*,#69,.T.);
#937 = ORIENTED_EDGE('',*,*,#923,.F.);
#938 = ORIENTED_EDGE('',*,*,#766,.F.);
#939 = ORIENTED_EDGE('',*,*,#940,.T.);
#940 = EDGE_CURVE('',#759,#70,#941,.T.);
#941 = LINE('',#942,#943);
#942 = CARTESIAN_POINT('',(63.421484627424,93.271001034143,3.));
#943 = VECTOR('',#944,1.);
#944 = DIRECTION('',(0.,0.,1.));
#945 = PLANE('',#946);
#946 = AXIS2_PLACEMENT_3D('',#947,#948,#949);
#947 = CARTESIAN_POINT('',(63.421484627424,93.271001034143,3.));
#948 = DIRECTION('',(-8.114540341604E-02,-0.996702274255,0.));
#949 = DIRECTION('',(0.996702274255,-8.114540341604E-02,0.));
#950 = ADVANCED_FACE('',(#951),#962,.F.);
#951 = FACE_BOUND('',#952,.T.);
#952 = EDGE_LOOP('',(#953,#954,#955,#956));
#953 = ORIENTED_EDGE('',*,*,#77,.T.);
#954 = ORIENTED_EDGE('',*,*,#940,.F.);
#955 = ORIENTED_EDGE('',*,*,#758,.F.);
#956 = ORIENTED_EDGE('',*,*,#957,.T.);
#957 = EDGE_CURVE('',#751,#78,#958,.T.);
#958 = LINE('',#959,#960);
#959 = CARTESIAN_POINT('',(60.796603643767,93.268957050611,3.));
#960 = VECTOR('',#961,1.);
#961 = DIRECTION('',(0.,0.,1.));
#962 = PLANE('',#963);
#963 = AXIS2_PLACEMENT_3D('',#964,#965,#966);
#964 = CARTESIAN_POINT('',(60.796603643767,93.268957050612,3.));
#965 = DIRECTION('',(7.786954625275E-04,-0.999999696817,0.));
#966 = DIRECTION('',(0.999999696817,7.786954625275E-04,0.));
#967 = ADVANCED_FACE('',(#968),#979,.F.);
#968 = FACE_BOUND('',#969,.T.);
#969 = EDGE_LOOP('',(#970,#971,#972,#973));
#970 = ORIENTED_EDGE('',*,*,#85,.T.);
#971 = ORIENTED_EDGE('',*,*,#957,.F.);
#972 = ORIENTED_EDGE('',*,*,#750,.F.);
#973 = ORIENTED_EDGE('',*,*,#974,.T.);
#974 = EDGE_CURVE('',#743,#86,#975,.T.);
#975 = LINE('',#976,#977);
#976 = CARTESIAN_POINT('',(45.581633653953,92.654081702323,3.));
#977 = VECTOR('',#978,1.);
#978 = DIRECTION('',(0.,0.,1.));
#979 = PLANE('',#980);
#980 = AXIS2_PLACEMENT_3D('',#981,#982,#983);
#981 = CARTESIAN_POINT('',(45.581633653953,92.654081702323,3.));
#982 = DIRECTION('',(4.037956461493E-02,-0.99918441279,0.));
#983 = DIRECTION('',(0.99918441279,4.037956461493E-02,0.));
#984 = ADVANCED_FACE('',(#985),#996,.F.);
#985 = FACE_BOUND('',#986,.T.);
#986 = EDGE_LOOP('',(#987,#988,#989,#990));
#987 = ORIENTED_EDGE('',*,*,#93,.T.);
#988 = ORIENTED_EDGE('',*,*,#974,.F.);
#989 = ORIENTED_EDGE('',*,*,#742,.F.);
#990 = ORIENTED_EDGE('',*,*,#991,.T.);
#991 = EDGE_CURVE('',#735,#94,#992,.T.);
#992 = LINE('',#993,#994);
#993 = CARTESIAN_POINT('',(45.364749812156,99.671799487338,3.));
#994 = VECTOR('',#995,1.);
#995 = DIRECTION('',(0.,0.,1.));
#996 = PLANE('',#997);
#997 = AXIS2_PLACEMENT_3D('',#998,#999,#1000);
#998 = CARTESIAN_POINT('',(45.364749812156,99.671799487344,3.));
#999 = DIRECTION('',(-0.999522776709,-3.08904328184E-02,0.));
#1000 = DIRECTION('',(3.08904328184E-02,-0.999522776709,0.));
#1001 = ADVANCED_FACE('',(#1002),#1013,.F.);
#1002 = FACE_BOUND('',#1003,.T.);
#1003 = EDGE_LOOP('',(#1004,#1005,#1006,#1007));
#1004 = ORIENTED_EDGE('',*,*,#101,.T.);
#1005 = ORIENTED_EDGE('',*,*,#991,.F.);
#1006 = ORIENTED_EDGE('',*,*,#734,.F.);
#1007 = ORIENTED_EDGE('',*,*,#1008,.T.);
#1008 = EDGE_CURVE('',#727,#102,#1009,.T.);
#1009 = LINE('',#1010,#1011);
#1010 = CARTESIAN_POINT('',(21.23202920157,100.26638480345,3.));
#1011 = VECTOR('',#1012,1.);
#1012 = DIRECTION('',(0.,0.,1.));
#1013 = PLANE('',#1014);
#1014 = AXIS2_PLACEMENT_3D('',#1015,#1016,#1017);
#1015 = CARTESIAN_POINT('',(21.232029201567,100.26638480345,3.));
#1016 = DIRECTION('',(-2.463066389908E-02,-0.999696619178,0.));
#1017 = DIRECTION('',(0.999696619178,-2.463066389908E-02,0.));
#1018 = ADVANCED_FACE('',(#1019),#1030,.F.);
#1019 = FACE_BOUND('',#1020,.T.);
#1020 = EDGE_LOOP('',(#1021,#1022,#1023,#1024));
#1021 = ORIENTED_EDGE('',*,*,#109,.T.);
#1022 = ORIENTED_EDGE('',*,*,#1008,.F.);
#1023 = ORIENTED_EDGE('',*,*,#726,.F.);
#1024 = ORIENTED_EDGE('',*,*,#1025,.T.);
#1025 = EDGE_CURVE('',#719,#110,#1026,.T.);
#1026 = LINE('',#1027,#1028);
#1027 = CARTESIAN_POINT('',(18.86068044071,103.1277292105,3.));
#1028 = VECTOR('',#1029,1.);
#1029 = DIRECTION('',(0.,0.,1.));
#1030 = PLANE('',#1031);
#1031 = AXIS2_PLACEMENT_3D('',#1032,#1033,#1034);
#1032 = CARTESIAN_POINT('',(18.86068044071,103.1277292105,3.));
#1033 = DIRECTION('',(-0.769952741604,-0.638100913412,0.));
#1034 = DIRECTION('',(0.638100913412,-0.769952741604,0.));
#1035 = ADVANCED_FACE('',(#1036),#1047,.F.);
#1036 = FACE_BOUND('',#1037,.T.);
#1037 = EDGE_LOOP('',(#1038,#1039,#1040,#1041));
#1038 = ORIENTED_EDGE('',*,*,#117,.T.);
#1039 = ORIENTED_EDGE('',*,*,#1025,.F.);
#1040 = ORIENTED_EDGE('',*,*,#718,.F.);
#1041 = ORIENTED_EDGE('',*,*,#1042,.T.);
#1042 = EDGE_CURVE('',#711,#118,#1043,.T.);
#1043 = LINE('',#1044,#1045);
#1044 = CARTESIAN_POINT('',(-1.738420937724,103.03127756282,3.));
#1045 = VECTOR('',#1046,1.);
#1046 = DIRECTION('',(0.,0.,1.));
#1047 = PLANE('',#1048);
#1048 = AXIS2_PLACEMENT_3D('',#1049,#1050,#1051);
#1049 = CARTESIAN_POINT('',(-1.738420937725,103.03127756283,3.));
#1050 = DIRECTION('',(4.682271746048E-03,-0.999989038106,0.));
#1051 = DIRECTION('',(0.999989038106,4.682271746048E-03,0.));
#1052 = ADVANCED_FACE('',(#1053),#1064,.F.);
#1053 = FACE_BOUND('',#1054,.T.);
#1054 = EDGE_LOOP('',(#1055,#1056,#1057,#1058));
#1055 = ORIENTED_EDGE('',*,*,#125,.T.);
#1056 = ORIENTED_EDGE('',*,*,#1042,.F.);
#1057 = ORIENTED_EDGE('',*,*,#710,.F.);
#1058 = ORIENTED_EDGE('',*,*,#1059,.T.);
#1059 = EDGE_CURVE('',#703,#126,#1060,.T.);
#1060 = LINE('',#1061,#1062);
#1061 = CARTESIAN_POINT('',(-3.708916324367,100.14960323875,3.));
#1062 = VECTOR('',#1063,1.);
#1063 = DIRECTION('',(0.,0.,1.));
#1064 = PLANE('',#1065);
#1065 = AXIS2_PLACEMENT_3D('',#1066,#1067,#1068);
#1066 = CARTESIAN_POINT('',(-3.708916324367,100.14960323875,3.));
#1067 = DIRECTION('',(0.825464292198,-0.56445434032,0.));
#1068 = DIRECTION('',(0.56445434032,0.825464292198,0.));
#1069 = ADVANCED_FACE('',(#1070),#1081,.F.);
#1070 = FACE_BOUND('',#1071,.T.);
#1071 = EDGE_LOOP('',(#1072,#1073,#1074,#1075));
#1072 = ORIENTED_EDGE('',*,*,#133,.T.);
#1073 = ORIENTED_EDGE('',*,*,#1059,.F.);
#1074 = ORIENTED_EDGE('',*,*,#702,.F.);
#1075 = ORIENTED_EDGE('',*,*,#1076,.T.);
#1076 = EDGE_CURVE('',#695,#134,#1077,.T.);
#1077 = LINE('',#1078,#1079);
#1078 = CARTESIAN_POINT('',(-20.54196964192,100.0585478707,3.));
#1079 = VECTOR('',#1080,1.);
#1080 = DIRECTION('',(0.,0.,1.));
#1081 = PLANE('',#1082);
#1082 = AXIS2_PLACEMENT_3D('',#1083,#1084,#1085);
#1083 = CARTESIAN_POINT('',(-20.54196964192,100.05854787071,3.));
#1084 = DIRECTION('',(5.409240627811E-03,-0.999985369951,0.));
#1085 = DIRECTION('',(0.999985369951,5.409240627811E-03,0.));
#1086 = ADVANCED_FACE('',(#1087),#1098,.F.);
#1087 = FACE_BOUND('',#1088,.T.);
#1088 = EDGE_LOOP('',(#1089,#1090,#1091,#1092));
#1089 = ORIENTED_EDGE('',*,*,#141,.T.);
#1090 = ORIENTED_EDGE('',*,*,#1076,.F.);
#1091 = ORIENTED_EDGE('',*,*,#694,.F.);
#1092 = ORIENTED_EDGE('',*,*,#1093,.T.);
#1093 = EDGE_CURVE('',#687,#142,#1094,.T.);
#1094 = LINE('',#1095,#1096);
#1095 = CARTESIAN_POINT('',(-23.46248001185,100.03746233017,3.));
#1096 = VECTOR('',#1097,1.);
#1097 = DIRECTION('',(0.,0.,1.));
#1098 = PLANE('',#1099);
#1099 = AXIS2_PLACEMENT_3D('',#1100,#1101,#1102);
#1100 = CARTESIAN_POINT('',(-23.46248001185,100.03746233017,3.));
#1101 = DIRECTION('',(7.21962545591E-03,-0.999973938165,0.));
#1102 = DIRECTION('',(0.999973938165,7.21962545591E-03,0.));
#1103 = ADVANCED_FACE('',(#1104),#1115,.F.);
#1104 = FACE_BOUND('',#1105,.T.);
#1105 = EDGE_LOOP('',(#1106,#1107,#1108,#1109));
#1106 = ORIENTED_EDGE('',*,*,#149,.T.);
#1107 = ORIENTED_EDGE('',*,*,#1093,.F.);
#1108 = ORIENTED_EDGE('',*,*,#686,.F.);
#1109 = ORIENTED_EDGE('',*,*,#1110,.T.);
#1110 = EDGE_CURVE('',#679,#150,#1111,.T.);
#1111 = LINE('',#1112,#1113);
#1112 = CARTESIAN_POINT('',(-45.41228549276,97.937884527186,3.));
#1113 = VECTOR('',#1114,1.);
#1114 = DIRECTION('',(0.,0.,1.));
#1115 = PLANE('',#1116);
#1116 = AXIS2_PLACEMENT_3D('',#1117,#1118,#1119);
#1117 = CARTESIAN_POINT('',(-45.41228549277,97.937884527188,3.));
#1118 = DIRECTION('',(9.521897857168E-02,-0.995456350685,0.));
#1119 = DIRECTION('',(0.995456350685,9.521897857168E-02,0.));
#1120 = ADVANCED_FACE('',(#1121),#1132,.F.);
#1121 = FACE_BOUND('',#1122,.T.);
#1122 = EDGE_LOOP('',(#1123,#1124,#1125,#1126));
#1123 = ORIENTED_EDGE('',*,*,#157,.T.);
#1124 = ORIENTED_EDGE('',*,*,#1110,.F.);
#1125 = ORIENTED_EDGE('',*,*,#678,.F.);
#1126 = ORIENTED_EDGE('',*,*,#1127,.T.);
#1127 = EDGE_CURVE('',#671,#158,#1128,.T.);
#1128 = LINE('',#1129,#1130);
#1129 = CARTESIAN_POINT('',(-52.49280542571,76.982059382003,3.));
#1130 = VECTOR('',#1131,1.);
#1131 = DIRECTION('',(0.,0.,1.));
#1132 = PLANE('',#1133);
#1133 = AXIS2_PLACEMENT_3D('',#1134,#1135,#1136);
#1134 = CARTESIAN_POINT('',(-52.49280542572,76.982059382003,3.));
#1135 = DIRECTION('',(0.947383616362,-0.320100427129,0.));
#1136 = DIRECTION('',(0.320100427129,0.947383616362,0.));
#1137 = ADVANCED_FACE('',(#1138),#1149,.F.);
#1138 = FACE_BOUND('',#1139,.T.);
#1139 = EDGE_LOOP('',(#1140,#1141,#1142,#1143));
#1140 = ORIENTED_EDGE('',*,*,#165,.T.);
#1141 = ORIENTED_EDGE('',*,*,#1127,.F.);
#1142 = ORIENTED_EDGE('',*,*,#670,.F.);
#1143 = ORIENTED_EDGE('',*,*,#1144,.T.);
#1144 = EDGE_CURVE('',#663,#166,#1145,.T.);
#1145 = LINE('',#1146,#1147);
#1146 = CARTESIAN_POINT('',(-53.52363260749,71.01572068686,3.));
#1147 = VECTOR('',#1148,1.);
#1148 = DIRECTION('',(0.,0.,1.));
#1149 = PLANE('',#1150);
#1150 = AXIS2_PLACEMENT_3D('',#1151,#1152,#1153);
#1151 = CARTESIAN_POINT('',(-53.5236326075,71.01572068686,3.));
#1152 = DIRECTION('',(0.985400652455,-0.170251443875,0.));
#1153 = DIRECTION('',(0.170251443875,0.985400652455,0.));
#1154 = ADVANCED_FACE('',(#1155),#1166,.F.);
#1155 = FACE_BOUND('',#1156,.T.);
#1156 = EDGE_LOOP('',(#1157,#1158,#1159,#1160));
#1157 = ORIENTED_EDGE('',*,*,#173,.T.);
#1158 = ORIENTED_EDGE('',*,*,#1144,.F.);
#1159 = ORIENTED_EDGE('',*,*,#662,.F.);
#1160 = ORIENTED_EDGE('',*,*,#1161,.T.);
#1161 = EDGE_CURVE('',#655,#174,#1162,.T.);
#1162 = LINE('',#1163,#1164);
#1163 = CARTESIAN_POINT('',(-55.6621835708,51.82653904559,3.));
#1164 = VECTOR('',#1165,1.);
#1165 = DIRECTION('',(0.,0.,1.));
#1166 = PLANE('',#1167);
#1167 = AXIS2_PLACEMENT_3D('',#1168,#1169,#1170);
#1168 = CARTESIAN_POINT('',(-55.6621835708,51.82653904559,3.));
#1169 = DIRECTION('',(0.993847187833,-0.11075995322,0.));
#1170 = DIRECTION('',(0.11075995322,0.993847187833,0.));
#1171 = ADVANCED_FACE('',(#1172),#1183,.F.);
#1172 = FACE_BOUND('',#1173,.T.);
#1173 = EDGE_LOOP('',(#1174,#1175,#1176,#1177));
#1174 = ORIENTED_EDGE('',*,*,#181,.T.);
#1175 = ORIENTED_EDGE('',*,*,#1161,.F.);
#1176 = ORIENTED_EDGE('',*,*,#654,.F.);
#1177 = ORIENTED_EDGE('',*,*,#1178,.T.);
#1178 = EDGE_CURVE('',#647,#182,#1179,.T.);
#1179 = LINE('',#1180,#1181);
#1180 = CARTESIAN_POINT('',(-56.01303762139,45.395075400138,3.));
#1181 = VECTOR('',#1182,1.);
#1182 = DIRECTION('',(0.,0.,1.));
#1183 = PLANE('',#1184);
#1184 = AXIS2_PLACEMENT_3D('',#1185,#1186,#1187);
#1185 = CARTESIAN_POINT('',(-56.01303762139,45.395075400138,3.));
#1186 = DIRECTION('',(0.998515311553,-5.447175960962E-02,0.));
#1187 = DIRECTION('',(5.447175960962E-02,0.998515311553,0.));
#1188 = ADVANCED_FACE('',(#1189),#1200,.F.);
#1189 = FACE_BOUND('',#1190,.T.);
#1190 = EDGE_LOOP('',(#1191,#1192,#1193,#1194));
#1191 = ORIENTED_EDGE('',*,*,#189,.T.);
#1192 = ORIENTED_EDGE('',*,*,#1178,.F.);
#1193 = ORIENTED_EDGE('',*,*,#646,.F.);
#1194 = ORIENTED_EDGE('',*,*,#1195,.T.);
#1195 = EDGE_CURVE('',#639,#190,#1196,.T.);
#1196 = LINE('',#1197,#1198);
#1197 = CARTESIAN_POINT('',(-56.00967094242,25.444449255295,3.));
#1198 = VECTOR('',#1199,1.);
#1199 = DIRECTION('',(0.,0.,1.));
#1200 = PLANE('',#1201);
#1201 = AXIS2_PLACEMENT_3D('',#1202,#1203,#1204);
#1202 = CARTESIAN_POINT('',(-56.00967094243,25.444449255295,3.));
#1203 = DIRECTION('',(0.999999985762,1.687505390661E-04,0.));
#1204 = DIRECTION('',(-1.687505390661E-04,0.999999985762,0.));
#1205 = ADVANCED_FACE('',(#1206),#1217,.F.);
#1206 = FACE_BOUND('',#1207,.T.);
#1207 = EDGE_LOOP('',(#1208,#1209,#1210,#1211));
#1208 = ORIENTED_EDGE('',*,*,#197,.T.);
#1209 = ORIENTED_EDGE('',*,*,#1195,.F.);
#1210 = ORIENTED_EDGE('',*,*,#638,.F.);
#1211 = ORIENTED_EDGE('',*,*,#1212,.T.);
#1212 = EDGE_CURVE('',#631,#198,#1213,.T.);
#1213 = LINE('',#1214,#1215);
#1214 = CARTESIAN_POINT('',(-55.65664173809,18.986154278475,3.));
#1215 = VECTOR('',#1216,1.);
#1216 = DIRECTION('',(0.,0.,1.));
#1217 = PLANE('',#1218);
#1218 = AXIS2_PLACEMENT_3D('',#1219,#1220,#1221);
#1219 = CARTESIAN_POINT('',(-55.65664173809,18.986154278477,3.));
#1220 = DIRECTION('',(0.998509322888,5.458142637441E-02,0.));
#1221 = DIRECTION('',(-5.458142637441E-02,0.998509322888,0.));
#1222 = ADVANCED_FACE('',(#1223),#1234,.F.);
#1223 = FACE_BOUND('',#1224,.T.);
#1224 = EDGE_LOOP('',(#1225,#1226,#1227,#1228));
#1225 = ORIENTED_EDGE('',*,*,#205,.T.);
#1226 = ORIENTED_EDGE('',*,*,#1212,.F.);
#1227 = ORIENTED_EDGE('',*,*,#630,.F.);
#1228 = ORIENTED_EDGE('',*,*,#1229,.T.);
#1229 = EDGE_CURVE('',#623,#206,#1230,.T.);
#1230 = LINE('',#1231,#1232);
#1231 = CARTESIAN_POINT('',(-51.50561588417,3.917575356603,3.));
#1232 = VECTOR('',#1233,1.);
#1233 = DIRECTION('',(0.,0.,1.));
#1234 = PLANE('',#1235);
#1235 = AXIS2_PLACEMENT_3D('',#1236,#1237,#1238);
#1236 = CARTESIAN_POINT('',(-51.50561588417,3.917575356603,3.));
#1237 = DIRECTION('',(0.964088070279,0.265582741806,0.));
#1238 = DIRECTION('',(-0.265582741806,0.964088070279,0.));
#1239 = ADVANCED_FACE('',(#1240),#1251,.F.);
#1240 = FACE_BOUND('',#1241,.T.);
#1241 = EDGE_LOOP('',(#1242,#1243,#1244,#1245));
#1242 = ORIENTED_EDGE('',*,*,#213,.T.);
#1243 = ORIENTED_EDGE('',*,*,#1229,.F.);
#1244 = ORIENTED_EDGE('',*,*,#622,.F.);
#1245 = ORIENTED_EDGE('',*,*,#1246,.T.);
#1246 = EDGE_CURVE('',#615,#214,#1247,.T.);
#1247 = LINE('',#1248,#1249);
#1248 = CARTESIAN_POINT('',(-52.75105328755,-4.170959716843,3.));
#1249 = VECTOR('',#1250,1.);
#1250 = DIRECTION('',(0.,0.,1.));
#1251 = PLANE('',#1252);
#1252 = AXIS2_PLACEMENT_3D('',#1253,#1254,#1255);
#1253 = CARTESIAN_POINT('',(-52.75105328756,-4.170959716841,3.));
#1254 = DIRECTION('',(0.988352455349,-0.152182206598,0.));
#1255 = DIRECTION('',(0.152182206598,0.988352455349,0.));
#1256 = ADVANCED_FACE('',(#1257),#1268,.F.);
#1257 = FACE_BOUND('',#1258,.T.);
#1258 = EDGE_LOOP('',(#1259,#1260,#1261,#1262));
#1259 = ORIENTED_EDGE('',*,*,#221,.T.);
#1260 = ORIENTED_EDGE('',*,*,#1246,.F.);
#1261 = ORIENTED_EDGE('',*,*,#614,.F.);
#1262 = ORIENTED_EDGE('',*,*,#1263,.T.);
#1263 = EDGE_CURVE('',#607,#222,#1264,.T.);
#1264 = LINE('',#1265,#1266);
#1265 = CARTESIAN_POINT('',(-64.21640808094,-15.0007881163,3.));
#1266 = VECTOR('',#1267,1.);
#1267 = DIRECTION('',(0.,0.,1.));
#1268 = PLANE('',#1269);
#1269 = AXIS2_PLACEMENT_3D('',#1270,#1271,#1272);
#1270 = CARTESIAN_POINT('',(-64.21640808095,-15.00078811631,3.));
#1271 = DIRECTION('',(0.686671715017,-0.726967644256,0.));
#1272 = DIRECTION('',(0.726967644256,0.686671715017,0.));
#1273 = ADVANCED_FACE('',(#1274),#1285,.F.);
#1274 = FACE_BOUND('',#1275,.T.);
#1275 = EDGE_LOOP('',(#1276,#1277,#1278,#1279));
#1276 = ORIENTED_EDGE('',*,*,#229,.T.);
#1277 = ORIENTED_EDGE('',*,*,#1263,.F.);
#1278 = ORIENTED_EDGE('',*,*,#606,.F.);
#1279 = ORIENTED_EDGE('',*,*,#1280,.T.);
#1280 = EDGE_CURVE('',#599,#230,#1281,.T.);
#1281 = LINE('',#1282,#1283);
#1282 = CARTESIAN_POINT('',(-53.03250195944,-33.18178307025,3.));
#1283 = VECTOR('',#1284,1.);
#1284 = DIRECTION('',(0.,0.,1.));
#1285 = PLANE('',#1286);
#1286 = AXIS2_PLACEMENT_3D('',#1287,#1288,#1289);
#1287 = CARTESIAN_POINT('',(-53.03250195944,-33.18178307025,3.));
#1288 = DIRECTION('',(0.851750279321,0.52394795703,0.));
#1289 = DIRECTION('',(-0.52394795703,0.851750279321,0.));
#1290 = ADVANCED_FACE('',(#1291),#1302,.F.);
#1291 = FACE_BOUND('',#1292,.T.);
#1292 = EDGE_LOOP('',(#1293,#1294,#1295,#1296));
#1293 = ORIENTED_EDGE('',*,*,#237,.T.);
#1294 = ORIENTED_EDGE('',*,*,#1280,.F.);
#1295 = ORIENTED_EDGE('',*,*,#598,.F.);
#1296 = ORIENTED_EDGE('',*,*,#1297,.T.);
#1297 = EDGE_CURVE('',#591,#238,#1298,.T.);
#1298 = LINE('',#1299,#1300);
#1299 = CARTESIAN_POINT('',(-52.50098980667,-38.12149768516,3.));
#1300 = VECTOR('',#1301,1.);
#1301 = DIRECTION('',(0.,0.,1.));
#1302 = PLANE('',#1303);
#1303 = AXIS2_PLACEMENT_3D('',#1304,#1305,#1306);
#1304 = CARTESIAN_POINT('',(-52.50098980668,-38.12149768517,3.));
#1305 = DIRECTION('',(0.994260930983,0.106982246756,0.));
#1306 = DIRECTION('',(-0.106982246756,0.994260930983,0.));
#1307 = ADVANCED_FACE('',(#1308),#1319,.F.);
#1308 = FACE_BOUND('',#1309,.T.);
#1309 = EDGE_LOOP('',(#1310,#1311,#1312,#1313));
#1310 = ORIENTED_EDGE('',*,*,#245,.T.);
#1311 = ORIENTED_EDGE('',*,*,#1297,.F.);
#1312 = ORIENTED_EDGE('',*,*,#590,.F.);
#1313 = ORIENTED_EDGE('',*,*,#1314,.T.);
#1314 = EDGE_CURVE('',#583,#246,#1315,.T.);
#1315 = LINE('',#1316,#1317);
#1316 = CARTESIAN_POINT('',(-37.16741212962,-56.89717106022,3.));
#1317 = VECTOR('',#1318,1.);
#1318 = DIRECTION('',(0.,0.,1.));
#1319 = PLANE('',#1320);
#1320 = AXIS2_PLACEMENT_3D('',#1321,#1322,#1323);
#1321 = CARTESIAN_POINT('',(-37.16741212962,-56.89717106024,3.));
#1322 = DIRECTION('',(0.774529882505,0.632537319932,0.));
#1323 = DIRECTION('',(-0.632537319932,0.774529882505,0.));
#1324 = ADVANCED_FACE('',(#1325),#1336,.F.);
#1325 = FACE_BOUND('',#1326,.T.);
#1326 = EDGE_LOOP('',(#1327,#1328,#1329,#1330));
#1327 = ORIENTED_EDGE('',*,*,#253,.T.);
#1328 = ORIENTED_EDGE('',*,*,#1314,.F.);
#1329 = ORIENTED_EDGE('',*,*,#582,.F.);
#1330 = ORIENTED_EDGE('',*,*,#1331,.T.);
#1331 = EDGE_CURVE('',#575,#254,#1332,.T.);
#1332 = LINE('',#1333,#1334);
#1333 = CARTESIAN_POINT('',(-17.24519886178,-45.98637540405,3.));
#1334 = VECTOR('',#1335,1.);
#1335 = DIRECTION('',(0.,0.,1.));
#1336 = PLANE('',#1337);
#1337 = AXIS2_PLACEMENT_3D('',#1338,#1339,#1340);
#1338 = CARTESIAN_POINT('',(-17.24519886178,-45.98637540406,3.));
#1339 = DIRECTION('',(-0.48034890411,0.877077493908,0.));
#1340 = DIRECTION('',(-0.877077493908,-0.48034890411,0.));
#1341 = ADVANCED_FACE('',(#1342),#1353,.F.);
#1342 = FACE_BOUND('',#1343,.T.);
#1343 = EDGE_LOOP('',(#1344,#1345,#1346,#1347));
#1344 = ORIENTED_EDGE('',*,*,#261,.T.);
#1345 = ORIENTED_EDGE('',*,*,#1331,.F.);
#1346 = ORIENTED_EDGE('',*,*,#574,.F.);
#1347 = ORIENTED_EDGE('',*,*,#1348,.T.);
#1348 = EDGE_CURVE('',#567,#262,#1349,.T.);
#1349 = LINE('',#1350,#1351);
#1350 = CARTESIAN_POINT('',(-1.549978118132,-38.13915533977,3.));
#1351 = VECTOR('',#1352,1.);
#1352 = DIRECTION('',(0.,0.,1.));
#1353 = PLANE('',#1354);
#1354 = AXIS2_PLACEMENT_3D('',#1355,#1356,#1357);
#1355 = CARTESIAN_POINT('',(-1.549978118131,-38.13915533977,3.));
#1356 = DIRECTION('',(-0.447195801197,0.89443608793,0.));
#1357 = DIRECTION('',(-0.89443608793,-0.447195801197,0.));
#1358 = ADVANCED_FACE('',(#1359),#1370,.F.);
#1359 = FACE_BOUND('',#1360,.T.);
#1360 = EDGE_LOOP('',(#1361,#1362,#1363,#1364));
#1361 = ORIENTED_EDGE('',*,*,#269,.T.);
#1362 = ORIENTED_EDGE('',*,*,#1348,.F.);
#1363 = ORIENTED_EDGE('',*,*,#566,.F.);
#1364 = ORIENTED_EDGE('',*,*,#1365,.T.);
#1365 = EDGE_CURVE('',#559,#270,#1366,.T.);
#1366 = LINE('',#1367,#1368);
#1367 = CARTESIAN_POINT('',(1.863769287398,-21.26685824842,3.));
#1368 = VECTOR('',#1369,1.);
#1369 = DIRECTION('',(0.,0.,1.));
#1370 = PLANE('',#1371);
#1371 = AXIS2_PLACEMENT_3D('',#1372,#1373,#1374);
#1372 = CARTESIAN_POINT('',(1.863769287397,-21.26685824843,3.));
#1373 = DIRECTION('',(-0.980139315537,0.198310166503,0.));
#1374 = DIRECTION('',(-0.198310166503,-0.980139315537,0.));
#1375 = ADVANCED_FACE('',(#1376),#1387,.F.);
#1376 = FACE_BOUND('',#1377,.T.);
#1377 = EDGE_LOOP('',(#1378,#1379,#1380,#1381));
#1378 = ORIENTED_EDGE('',*,*,#277,.T.);
#1379 = ORIENTED_EDGE('',*,*,#1365,.F.);
#1380 = ORIENTED_EDGE('',*,*,#558,.F.);
#1381 = ORIENTED_EDGE('',*,*,#1382,.T.);
#1382 = EDGE_CURVE('',#551,#278,#1383,.T.);
#1383 = LINE('',#1384,#1385);
#1384 = CARTESIAN_POINT('',(21.938546149429,-27.27886087769,3.));
#1385 = VECTOR('',#1386,1.);
#1386 = DIRECTION('',(0.,0.,1.));
#1387 = PLANE('',#1388);
#1388 = AXIS2_PLACEMENT_3D('',#1389,#1390,#1391);
#1389 = CARTESIAN_POINT('',(21.938546149429,-27.27886087769,3.));
#1390 = DIRECTION('',(0.286891213099,0.957963168314,0.));
#1391 = DIRECTION('',(-0.957963168314,0.286891213099,0.));
#1392 = ADVANCED_FACE('',(#1393),#1404,.F.);
#1393 = FACE_BOUND('',#1394,.T.);
#1394 = EDGE_LOOP('',(#1395,#1396,#1397,#1398));
#1395 = ORIENTED_EDGE('',*,*,#285,.T.);
#1396 = ORIENTED_EDGE('',*,*,#1382,.F.);
#1397 = ORIENTED_EDGE('',*,*,#550,.F.);
#1398 = ORIENTED_EDGE('',*,*,#1399,.T.);
#1399 = EDGE_CURVE('',#543,#286,#1400,.T.);
#1400 = LINE('',#1401,#1402);
#1401 = CARTESIAN_POINT('',(43.418929037058,-27.01381154885,3.));
#1402 = VECTOR('',#1403,1.);
#1403 = DIRECTION('',(0.,0.,1.));
#1404 = PLANE('',#1405);
#1405 = AXIS2_PLACEMENT_3D('',#1406,#1407,#1408);
#1406 = CARTESIAN_POINT('',(43.418929037056,-27.01381154885,3.));
#1407 = DIRECTION('',(-1.23381950448E-02,0.999923881575,0.));
#1408 = DIRECTION('',(-0.999923881575,-1.23381950448E-02,0.));
#1409 = ADVANCED_FACE('',(#1410),#1421,.F.);
#1410 = FACE_BOUND('',#1411,.T.);
#1411 = EDGE_LOOP('',(#1412,#1413,#1414,#1415));
#1412 = ORIENTED_EDGE('',*,*,#293,.T.);
#1413 = ORIENTED_EDGE('',*,*,#1399,.F.);
#1414 = ORIENTED_EDGE('',*,*,#542,.F.);
#1415 = ORIENTED_EDGE('',*,*,#1416,.T.);
#1416 = EDGE_CURVE('',#535,#294,#1417,.T.);
#1417 = LINE('',#1418,#1419);
#1418 = CARTESIAN_POINT('',(46.119789483265,-12.60910778186,3.));
#1419 = VECTOR('',#1420,1.);
#1420 = DIRECTION('',(0.,0.,1.));
#1421 = PLANE('',#1422);
#1422 = AXIS2_PLACEMENT_3D('',#1423,#1424,#1425);
#1423 = CARTESIAN_POINT('',(46.119789483265,-12.60910778187,3.));
#1424 = DIRECTION('',(-0.98287245278,0.184287117203,0.));
#1425 = DIRECTION('',(-0.184287117203,-0.98287245278,0.));
#1426 = ADVANCED_FACE('',(#1427),#1438,.F.);
#1427 = FACE_BOUND('',#1428,.T.);
#1428 = EDGE_LOOP('',(#1429,#1430,#1431,#1432));
#1429 = ORIENTED_EDGE('',*,*,#301,.T.);
#1430 = ORIENTED_EDGE('',*,*,#1416,.F.);
#1431 = ORIENTED_EDGE('',*,*,#534,.F.);
#1432 = ORIENTED_EDGE('',*,*,#1433,.T.);
#1433 = EDGE_CURVE('',#527,#302,#1434,.T.);
#1434 = LINE('',#1435,#1436);
#1435 = CARTESIAN_POINT('',(59.782276547547,-13.40338462505,3.));
#1436 = VECTOR('',#1437,1.);
#1437 = DIRECTION('',(0.,0.,1.));
#1438 = PLANE('',#1439);
#1439 = AXIS2_PLACEMENT_3D('',#1440,#1441,#1442);
#1440 = CARTESIAN_POINT('',(59.782276547547,-13.40338462505,3.));
#1441 = DIRECTION('',(5.803760358914E-02,0.998314397657,0.));
#1442 = DIRECTION('',(-0.998314397657,5.803760358914E-02,0.));
#1443 = ADVANCED_FACE('',(#1444),#1455,.F.);
#1444 = FACE_BOUND('',#1445,.T.);
#1445 = EDGE_LOOP('',(#1446,#1447,#1448,#1449));
#1446 = ORIENTED_EDGE('',*,*,#309,.T.);
#1447 = ORIENTED_EDGE('',*,*,#1433,.F.);
#1448 = ORIENTED_EDGE('',*,*,#526,.F.);
#1449 = ORIENTED_EDGE('',*,*,#1450,.T.);
#1450 = EDGE_CURVE('',#519,#310,#1451,.T.);
#1451 = LINE('',#1452,#1453);
#1452 = CARTESIAN_POINT('',(63.488919798702,-13.4004982779,3.));
#1453 = VECTOR('',#1454,1.);
#1454 = DIRECTION('',(0.,0.,1.));
#1455 = PLANE('',#1456);
#1456 = AXIS2_PLACEMENT_3D('',#1457,#1458,#1459);
#1457 = CARTESIAN_POINT('',(63.488919798702,-13.4004982779,3.));
#1458 = DIRECTION('',(-7.786954625453E-04,0.999999696817,0.));
#1459 = DIRECTION('',(-0.999999696817,-7.786954625453E-04,0.));
#1460 = ADVANCED_FACE('',(#1461),#1472,.F.);
#1461 = FACE_BOUND('',#1462,.T.);
#1462 = EDGE_LOOP('',(#1463,#1464,#1465,#1466));
#1463 = ORIENTED_EDGE('',*,*,#317,.T.);
#1464 = ORIENTED_EDGE('',*,*,#1450,.F.);
#1465 = ORIENTED_EDGE('',*,*,#518,.F.);
#1466 = ORIENTED_EDGE('',*,*,#1467,.T.);
#1467 = EDGE_CURVE('',#511,#318,#1468,.T.);
#1468 = LINE('',#1469,#1470);
#1469 = CARTESIAN_POINT('',(87.174588036211,-11.22378316333,3.));
#1470 = VECTOR('',#1471,1.);
#1471 = DIRECTION('',(0.,0.,1.));
#1472 = PLANE('',#1473);
#1473 = AXIS2_PLACEMENT_3D('',#1474,#1475,#1476);
#1474 = CARTESIAN_POINT('',(87.174588036211,-11.22378316333,3.));
#1475 = DIRECTION('',(-9.151445706595E-02,0.995803747808,0.));
#1476 = DIRECTION('',(-0.995803747808,-9.151445706595E-02,0.));
#1477 = ADVANCED_FACE('',(#1478),#1489,.F.);
#1478 = FACE_BOUND('',#1479,.T.);
#1479 = EDGE_LOOP('',(#1480,#1481,#1482,#1483));
#1480 = ORIENTED_EDGE('',*,*,#325,.T.);
#1481 = ORIENTED_EDGE('',*,*,#1467,.F.);
#1482 = ORIENTED_EDGE('',*,*,#510,.F.);
#1483 = ORIENTED_EDGE('',*,*,#1484,.T.);
#1484 = EDGE_CURVE('',#503,#326,#1485,.T.);
#1485 = LINE('',#1486,#1487);
#1486 = CARTESIAN_POINT('',(89.416451955096,12.480552712793,3.));
#1487 = VECTOR('',#1488,1.);
#1488 = DIRECTION('',(0.,0.,1.));
#1489 = PLANE('',#1490);
#1490 = AXIS2_PLACEMENT_3D('',#1491,#1492,#1493);
#1491 = CARTESIAN_POINT('',(89.416451955096,12.480552712793,3.));
#1492 = DIRECTION('',(-0.99555746012,9.415595360627E-02,0.));
#1493 = DIRECTION('',(-9.415595360627E-02,-0.99555746012,0.));
#1494 = ADVANCED_FACE('',(#1495),#1506,.F.);
#1495 = FACE_BOUND('',#1496,.T.);
#1496 = EDGE_LOOP('',(#1497,#1498,#1499,#1500));
#1497 = ORIENTED_EDGE('',*,*,#333,.T.);
#1498 = ORIENTED_EDGE('',*,*,#1484,.F.);
#1499 = ORIENTED_EDGE('',*,*,#502,.F.);
#1500 = ORIENTED_EDGE('',*,*,#1501,.T.);
#1501 = EDGE_CURVE('',#495,#334,#1502,.T.);
#1502 = LINE('',#1503,#1504);
#1503 = CARTESIAN_POINT('',(89.237075427186,18.949699753516,3.));
#1504 = VECTOR('',#1505,1.);
#1505 = DIRECTION('',(0.,0.,1.));
#1506 = PLANE('',#1507);
#1507 = AXIS2_PLACEMENT_3D('',#1508,#1509,#1510);
#1508 = CARTESIAN_POINT('',(89.237075427187,18.949699753516,3.));
#1509 = DIRECTION('',(-0.999615800455,-2.771734981446E-02,0.));
#1510 = DIRECTION('',(2.771734981446E-02,-0.999615800455,0.));
#1511 = ADVANCED_FACE('',(#1512),#1523,.F.);
#1512 = FACE_BOUND('',#1513,.T.);
#1513 = EDGE_LOOP('',(#1514,#1515,#1516,#1517));
#1514 = ORIENTED_EDGE('',*,*,#341,.T.);
#1515 = ORIENTED_EDGE('',*,*,#1501,.F.);
#1516 = ORIENTED_EDGE('',*,*,#494,.F.);
#1517 = ORIENTED_EDGE('',*,*,#1518,.T.);
#1518 = EDGE_CURVE('',#487,#342,#1519,.T.);
#1519 = LINE('',#1520,#1521);
#1520 = CARTESIAN_POINT('',(89.321562547489,38.807710755652,3.));
#1521 = VECTOR('',#1522,1.);
#1522 = DIRECTION('',(0.,0.,1.));
#1523 = PLANE('',#1524);
#1524 = AXIS2_PLACEMENT_3D('',#1525,#1526,#1527);
#1525 = CARTESIAN_POINT('',(89.321562547488,38.807710755652,3.));
#1526 = DIRECTION('',(-0.999990949478,4.254522552138E-03,0.));
#1527 = DIRECTION('',(-4.254522552138E-03,-0.999990949478,0.));
#1528 = ADVANCED_FACE('',(#1529),#1535,.F.);
#1529 = FACE_BOUND('',#1530,.T.);
#1530 = EDGE_LOOP('',(#1531,#1532,#1533,#1534));
#1531 = ORIENTED_EDGE('',*,*,#349,.T.);
#1532 = ORIENTED_EDGE('',*,*,#1518,.F.);
#1533 = ORIENTED_EDGE('',*,*,#486,.F.);
#1534 = ORIENTED_EDGE('',*,*,#461,.T.);
#1535 = PLANE('',#1536);
#1536 = AXIS2_PLACEMENT_3D('',#1537,#1538,#1539);
#1537 = CARTESIAN_POINT('',(89.460119976401,45.285956829922,3.));
#1538 = DIRECTION('',(-0.999771352854,2.138321801359E-02,0.));
#1539 = DIRECTION('',(-2.138321801359E-02,-0.999771352854,0.));
#1540 = ADVANCED_FACE('',(#1541),#1559,.F.);
#1541 = FACE_BOUND('',#1542,.F.);
#1542 = EDGE_LOOP('',(#1543,#1552,#1557,#1558));
#1543 = ORIENTED_EDGE('',*,*,#1544,.F.);
#1544 = EDGE_CURVE('',#1545,#1545,#1547,.T.);
#1545 = VERTEX_POINT('',#1546);
#1546 = CARTESIAN_POINT('',(72.001388619747,-4.75166172086,1.45));
#1547 = CIRCLE('',#1548,1.7);
#1548 = AXIS2_PLACEMENT_3D('',#1549,#1550,#1551);
#1549 = CARTESIAN_POINT('',(73.701388619747,-4.75166172086,1.45));
#1550 = DIRECTION('',(0.,0.,-1.));
#1551 = DIRECTION('',(-1.,0.,0.));
#1552 = ORIENTED_EDGE('',*,*,#1553,.F.);
#1553 = EDGE_CURVE('',#367,#1545,#1554,.T.);
#1554 = B_SPLINE_CURVE_WITH_KNOTS('',1,(#1555,#1556),.UNSPECIFIED.,.F.,
  .F.,(2,2),(1.,2.55),.PIECEWISE_BEZIER_KNOTS.);
#1555 = CARTESIAN_POINT('',(72.001388619747,-4.75166172086,3.));
#1556 = CARTESIAN_POINT('',(72.001388619747,-4.75166172086,1.45));
#1557 = ORIENTED_EDGE('',*,*,#366,.T.);
#1558 = ORIENTED_EDGE('',*,*,#1553,.T.);
#1559 = CYLINDRICAL_SURFACE('',#1560,1.7);
#1560 = AXIS2_PLACEMENT_3D('',#1561,#1562,#1563);
#1561 = CARTESIAN_POINT('',(73.701388619747,-4.75166172086,4.));
#1562 = DIRECTION('',(0.,0.,-1.));
#1563 = DIRECTION('',(1.,0.,0.));
#1564 = ADVANCED_FACE('',(#1565),#1583,.F.);
#1565 = FACE_BOUND('',#1566,.F.);
#1566 = EDGE_LOOP('',(#1567,#1576,#1581,#1582));
#1567 = ORIENTED_EDGE('',*,*,#1568,.F.);
#1568 = EDGE_CURVE('',#1569,#1569,#1571,.T.);
#1569 = VERTEX_POINT('',#1570);
#1570 = CARTESIAN_POINT('',(9.818037385729,-16.62038451986,1.45));
#1571 = CIRCLE('',#1572,1.7);
#1572 = AXIS2_PLACEMENT_3D('',#1573,#1574,#1575);
#1573 = CARTESIAN_POINT('',(11.518037385729,-16.62038451986,1.45));
#1574 = DIRECTION('',(0.,0.,-1.));
#1575 = DIRECTION('',(-1.,0.,0.));
#1576 = ORIENTED_EDGE('',*,*,#1577,.F.);
#1577 = EDGE_CURVE('',#378,#1569,#1578,.T.);
#1578 = B_SPLINE_CURVE_WITH_KNOTS('',1,(#1579,#1580),.UNSPECIFIED.,.F.,
  .F.,(2,2),(1.,2.55),.PIECEWISE_BEZIER_KNOTS.);
#1579 = CARTESIAN_POINT('',(9.818037385729,-16.62038451986,3.));
#1580 = CARTESIAN_POINT('',(9.818037385729,-16.62038451986,1.45));
#1581 = ORIENTED_EDGE('',*,*,#377,.T.);
#1582 = ORIENTED_EDGE('',*,*,#1577,.T.);
#1583 = CYLINDRICAL_SURFACE('',#1584,1.7);
#1584 = AXIS2_PLACEMENT_3D('',#1585,#1586,#1587);
#1585 = CARTESIAN_POINT('',(11.518037385729,-16.62038451986,4.));
#1586 = DIRECTION('',(0.,0.,-1.));
#1587 = DIRECTION('',(1.,0.,0.));
#1588 = ADVANCED_FACE('',(#1589),#1607,.F.);
#1589 = FACE_BOUND('',#1590,.F.);
#1590 = EDGE_LOOP('',(#1591,#1600,#1605,#1606));
#1591 = ORIENTED_EDGE('',*,*,#1592,.F.);
#1592 = EDGE_CURVE('',#1593,#1593,#1595,.T.);
#1593 = VERTEX_POINT('',#1594);
#1594 = CARTESIAN_POINT('',(-46.23738835172,-33.4582886089,1.45));
#1595 = CIRCLE('',#1596,1.7);
#1596 = AXIS2_PLACEMENT_3D('',#1597,#1598,#1599);
#1597 = CARTESIAN_POINT('',(-44.53738835172,-33.4582886089,1.45));
#1598 = DIRECTION('',(0.,0.,-1.));
#1599 = DIRECTION('',(-1.,0.,0.));
#1600 = ORIENTED_EDGE('',*,*,#1601,.F.);
#1601 = EDGE_CURVE('',#389,#1593,#1602,.T.);
#1602 = B_SPLINE_CURVE_WITH_KNOTS('',1,(#1603,#1604),.UNSPECIFIED.,.F.,
  .F.,(2,2),(1.,2.55),.PIECEWISE_BEZIER_KNOTS.);
#1603 = CARTESIAN_POINT('',(-46.23738835172,-33.4582886089,3.));
#1604 = CARTESIAN_POINT('',(-46.23738835172,-33.4582886089,1.45));
#1605 = ORIENTED_EDGE('',*,*,#388,.T.);
#1606 = ORIENTED_EDGE('',*,*,#1601,.T.);
#1607 = CYLINDRICAL_SURFACE('',#1608,1.7);
#1608 = AXIS2_PLACEMENT_3D('',#1609,#1610,#1611);
#1609 = CARTESIAN_POINT('',(-44.53738835172,-33.4582886089,4.));
#1610 = DIRECTION('',(0.,0.,-1.));
#1611 = DIRECTION('',(1.,0.,0.));
#1612 = ADVANCED_FACE('',(#1613),#1631,.F.);
#1613 = FACE_BOUND('',#1614,.F.);
#1614 = EDGE_LOOP('',(#1615,#1624,#1629,#1630));
#1615 = ORIENTED_EDGE('',*,*,#1616,.F.);
#1616 = EDGE_CURVE('',#1617,#1617,#1619,.T.);
#1617 = VERTEX_POINT('',#1618);
#1618 = CARTESIAN_POINT('',(-49.38405349637,22.559164116739,1.45));
#1619 = CIRCLE('',#1620,1.7);
#1620 = AXIS2_PLACEMENT_3D('',#1621,#1622,#1623);
#1621 = CARTESIAN_POINT('',(-47.68405349637,22.559164116739,1.45));
#1622 = DIRECTION('',(0.,0.,-1.));
#1623 = DIRECTION('',(-1.,0.,0.));
#1624 = ORIENTED_EDGE('',*,*,#1625,.F.);
#1625 = EDGE_CURVE('',#400,#1617,#1626,.T.);
#1626 = B_SPLINE_CURVE_WITH_KNOTS('',1,(#1627,#1628),.UNSPECIFIED.,.F.,
  .F.,(2,2),(1.,2.55),.PIECEWISE_BEZIER_KNOTS.);
#1627 = CARTESIAN_POINT('',(-49.38405349637,22.559164116739,3.));
#1628 = CARTESIAN_POINT('',(-49.38405349637,22.559164116739,1.45));
#1629 = ORIENTED_EDGE('',*,*,#399,.T.);
#1630 = ORIENTED_EDGE('',*,*,#1625,.T.);
#1631 = CYLINDRICAL_SURFACE('',#1632,1.7);
#1632 = AXIS2_PLACEMENT_3D('',#1633,#1634,#1635);
#1633 = CARTESIAN_POINT('',(-47.68405349637,22.559164116739,4.));
#1634 = DIRECTION('',(0.,0.,-1.));
#1635 = DIRECTION('',(1.,0.,0.));
#1636 = ADVANCED_FACE('',(#1637),#1655,.F.);
#1637 = FACE_BOUND('',#1638,.F.);
#1638 = EDGE_LOOP('',(#1639,#1648,#1653,#1654));
#1639 = ORIENTED_EDGE('',*,*,#1640,.F.);
#1640 = EDGE_CURVE('',#1641,#1641,#1643,.T.);
#1641 = VERTEX_POINT('',#1642);
#1642 = CARTESIAN_POINT('',(79.538374463585,54.853895526734,1.45));
#1643 = CIRCLE('',#1644,1.7);
#1644 = AXIS2_PLACEMENT_3D('',#1645,#1646,#1647);
#1645 = CARTESIAN_POINT('',(81.238374463585,54.853895526734,1.45));
#1646 = DIRECTION('',(0.,0.,-1.));
#1647 = DIRECTION('',(-1.,0.,0.));
#1648 = ORIENTED_EDGE('',*,*,#1649,.F.);
#1649 = EDGE_CURVE('',#411,#1641,#1650,.T.);
#1650 = B_SPLINE_CURVE_WITH_KNOTS('',1,(#1651,#1652),.UNSPECIFIED.,.F.,
  .F.,(2,2),(1.,2.55),.PIECEWISE_BEZIER_KNOTS.);
#1651 = CARTESIAN_POINT('',(79.538374463585,54.853895526734,3.));
#1652 = CARTESIAN_POINT('',(79.538374463585,54.853895526734,1.45));
#1653 = ORIENTED_EDGE('',*,*,#410,.T.);
#1654 = ORIENTED_EDGE('',*,*,#1649,.T.);
#1655 = CYLINDRICAL_SURFACE('',#1656,1.7);
#1656 = AXIS2_PLACEMENT_3D('',#1657,#1658,#1659);
#1657 = CARTESIAN_POINT('',(81.238374463585,54.853895526734,4.));
#1658 = DIRECTION('',(0.,0.,-1.));
#1659 = DIRECTION('',(1.,0.,0.));
#1660 = ADVANCED_FACE('',(#1661),#1679,.F.);
#1661 = FACE_BOUND('',#1662,.F.);
#1662 = EDGE_LOOP('',(#1663,#1672,#1677,#1678));
#1663 = ORIENTED_EDGE('',*,*,#1664,.F.);
#1664 = EDGE_CURVE('',#1665,#1665,#1667,.T.);
#1665 = VERTEX_POINT('',#1666);
#1666 = CARTESIAN_POINT('',(50.590405940393,85.007880863003,1.45));
#1667 = CIRCLE('',#1668,1.7);
#1668 = AXIS2_PLACEMENT_3D('',#1669,#1670,#1671);
#1669 = CARTESIAN_POINT('',(52.290405940393,85.007880863003,1.45));
#1670 = DIRECTION('',(0.,0.,-1.));
#1671 = DIRECTION('',(-1.,0.,0.));
#1672 = ORIENTED_EDGE('',*,*,#1673,.F.);
#1673 = EDGE_CURVE('',#422,#1665,#1674,.T.);
#1674 = B_SPLINE_CURVE_WITH_KNOTS('',1,(#1675,#1676),.UNSPECIFIED.,.F.,
  .F.,(2,2),(1.,2.55),.PIECEWISE_BEZIER_KNOTS.);
#1675 = CARTESIAN_POINT('',(50.590405940393,85.007880863003,3.));
#1676 = CARTESIAN_POINT('',(50.590405940393,85.007880863003,1.45));
#1677 = ORIENTED_EDGE('',*,*,#421,.T.);
#1678 = ORIENTED_EDGE('',*,*,#1673,.T.);
#1679 = CYLINDRICAL_SURFACE('',#1680,1.7);
#1680 = AXIS2_PLACEMENT_3D('',#1681,#1682,#1683);
#1681 = CARTESIAN_POINT('',(52.290405940393,85.007880863003,4.));
#1682 = DIRECTION('',(0.,0.,-1.));
#1683 = DIRECTION('',(1.,0.,0.));
#1684 = ADVANCED_FACE('',(#1685),#1703,.F.);
#1685 = FACE_BOUND('',#1686,.F.);
#1686 = EDGE_LOOP('',(#1687,#1696,#1701,#1702));
#1687 = ORIENTED_EDGE('',*,*,#1688,.F.);
#1688 = EDGE_CURVE('',#1689,#1689,#1691,.T.);
#1689 = VERTEX_POINT('',#1690);
#1690 = CARTESIAN_POINT('',(14.625973286532,95.013083618946,1.45));
#1691 = CIRCLE('',#1692,1.7);
#1692 = AXIS2_PLACEMENT_3D('',#1693,#1694,#1695);
#1693 = CARTESIAN_POINT('',(16.325973286532,95.013083618946,1.45));
#1694 = DIRECTION('',(0.,0.,-1.));
#1695 = DIRECTION('',(-1.,0.,0.));
#1696 = ORIENTED_EDGE('',*,*,#1697,.F.);
#1697 = EDGE_CURVE('',#433,#1689,#1698,.T.);
#1698 = B_SPLINE_CURVE_WITH_KNOTS('',1,(#1699,#1700),.UNSPECIFIED.,.F.,
  .F.,(2,2),(1.,2.55),.PIECEWISE_BEZIER_KNOTS.);
#1699 = CARTESIAN_POINT('',(14.625973286532,95.013083618946,3.));
#1700 = CARTESIAN_POINT('',(14.625973286532,95.013083618946,1.45));
#1701 = ORIENTED_EDGE('',*,*,#432,.T.);
#1702 = ORIENTED_EDGE('',*,*,#1697,.T.);
#1703 = CYLINDRICAL_SURFACE('',#1704,1.7);
#1704 = AXIS2_PLACEMENT_3D('',#1705,#1706,#1707);
#1705 = CARTESIAN_POINT('',(16.325973286532,95.013083618946,4.));
#1706 = DIRECTION('',(0.,0.,-1.));
#1707 = DIRECTION('',(1.,0.,0.));
#1708 = ADVANCED_FACE('',(#1709),#1727,.F.);
#1709 = FACE_BOUND('',#1710,.F.);
#1710 = EDGE_LOOP('',(#1711,#1720,#1725,#1726));
#1711 = ORIENTED_EDGE('',*,*,#1712,.F.);
#1712 = EDGE_CURVE('',#1713,#1713,#1715,.T.);
#1713 = VERTEX_POINT('',#1714);
#1714 = CARTESIAN_POINT('',(-43.39908344177,84.531427981148,1.45));
#1715 = CIRCLE('',#1716,1.7);
#1716 = AXIS2_PLACEMENT_3D('',#1717,#1718,#1719);
#1717 = CARTESIAN_POINT('',(-41.69908344177,84.531427981148,1.45));
#1718 = DIRECTION('',(0.,0.,-1.));
#1719 = DIRECTION('',(-1.,0.,0.));
#1720 = ORIENTED_EDGE('',*,*,#1721,.F.);
#1721 = EDGE_CURVE('',#444,#1713,#1722,.T.);
#1722 = B_SPLINE_CURVE_WITH_KNOTS('',1,(#1723,#1724),.UNSPECIFIED.,.F.,
  .F.,(2,2),(1.,2.55),.PIECEWISE_BEZIER_KNOTS.);
#1723 = CARTESIAN_POINT('',(-43.39908344177,84.531427981148,3.));
#1724 = CARTESIAN_POINT('',(-43.39908344177,84.531427981148,1.45));
#1725 = ORIENTED_EDGE('',*,*,#443,.T.);
#1726 = ORIENTED_EDGE('',*,*,#1721,.T.);
#1727 = CYLINDRICAL_SURFACE('',#1728,1.7);
#1728 = AXIS2_PLACEMENT_3D('',#1729,#1730,#1731);
#1729 = CARTESIAN_POINT('',(-41.69908344177,84.531427981148,4.));
#1730 = DIRECTION('',(0.,0.,-1.));
#1731 = DIRECTION('',(1.,0.,0.));
#1732 = ADVANCED_FACE('',(#1733),#1743,.F.);
#1733 = FACE_BOUND('',#1734,.F.);
#1734 = EDGE_LOOP('',(#1735,#1736,#1741,#1742));
#1735 = ORIENTED_EDGE('',*,*,#782,.F.);
#1736 = ORIENTED_EDGE('',*,*,#1737,.F.);
#1737 = EDGE_CURVE('',#1545,#783,#1738,.T.);
#1738 = B_SPLINE_CURVE_WITH_KNOTS('',1,(#1739,#1740),.UNSPECIFIED.,.F.,
  .F.,(2,2),(2.041120196288E-15,2.05060966544),
  .PIECEWISE_BEZIER_KNOTS.);
#1739 = CARTESIAN_POINT('',(72.001388619747,-4.75166172086,1.45));
#1740 = CARTESIAN_POINT('',(70.551388619748,-4.75166172086,
    8.881784197001E-16));
#1741 = ORIENTED_EDGE('',*,*,#1544,.T.);
#1742 = ORIENTED_EDGE('',*,*,#1737,.T.);
#1743 = CONICAL_SURFACE('',#1744,1.7,0.785398163397);
#1744 = AXIS2_PLACEMENT_3D('',#1745,#1746,#1747);
#1745 = CARTESIAN_POINT('',(73.701388619747,-4.75166172086,1.45));
#1746 = DIRECTION('',(0.,0.,-1.));
#1747 = DIRECTION('',(1.,0.,0.));
#1748 = ADVANCED_FACE('',(#1749),#1768,.F.);
#1749 = FACE_BOUND('',#1750,.F.);
#1750 = EDGE_LOOP('',(#1751,#1759,#1766,#1767));
#1751 = ORIENTED_EDGE('',*,*,#1752,.T.);
#1752 = EDGE_CURVE('',#794,#1753,#1755,.T.);
#1753 = VERTEX_POINT('',#1754);
#1754 = CARTESIAN_POINT('',(68.488919798702,12.480552712793,2.));
#1755 = LINE('',#1756,#1757);
#1756 = CARTESIAN_POINT('',(68.488919798702,12.480552712793,0.));
#1757 = VECTOR('',#1758,1.);
#1758 = DIRECTION('',(0.,0.,1.));
#1759 = ORIENTED_EDGE('',*,*,#1760,.T.);
#1760 = EDGE_CURVE('',#1753,#1753,#1761,.T.);
#1761 = CIRCLE('',#1762,5.);
#1762 = AXIS2_PLACEMENT_3D('',#1763,#1764,#1765);
#1763 = CARTESIAN_POINT('',(63.488919798702,12.480552712793,2.));
#1764 = DIRECTION('',(0.,0.,-1.));
#1765 = DIRECTION('',(1.,0.,0.));
#1766 = ORIENTED_EDGE('',*,*,#1752,.F.);
#1767 = ORIENTED_EDGE('',*,*,#793,.F.);
#1768 = CYLINDRICAL_SURFACE('',#1769,5.);
#1769 = AXIS2_PLACEMENT_3D('',#1770,#1771,#1772);
#1770 = CARTESIAN_POINT('',(63.488919798702,12.480552712793,0.));
#1771 = DIRECTION('',(0.,0.,-1.));
#1772 = DIRECTION('',(1.,0.,0.));
#1773 = ADVANCED_FACE('',(#1774),#1784,.F.);
#1774 = FACE_BOUND('',#1775,.F.);
#1775 = EDGE_LOOP('',(#1776,#1777,#1782,#1783));
#1776 = ORIENTED_EDGE('',*,*,#804,.F.);
#1777 = ORIENTED_EDGE('',*,*,#1778,.F.);
#1778 = EDGE_CURVE('',#1569,#805,#1779,.T.);
#1779 = B_SPLINE_CURVE_WITH_KNOTS('',1,(#1780,#1781),.UNSPECIFIED.,.F.,
  .F.,(2,2),(-4.710277376049E-16,2.05060966544),
  .PIECEWISE_BEZIER_KNOTS.);
#1780 = CARTESIAN_POINT('',(9.818037385729,-16.62038451986,1.45));
#1781 = CARTESIAN_POINT('',(8.36803738573,-16.62038451986,0.));
#1782 = ORIENTED_EDGE('',*,*,#1568,.T.);
#1783 = ORIENTED_EDGE('',*,*,#1778,.T.);
#1784 = CONICAL_SURFACE('',#1785,1.7,0.785398163397);
#1785 = AXIS2_PLACEMENT_3D('',#1786,#1787,#1788);
#1786 = CARTESIAN_POINT('',(11.518037385729,-16.62038451986,1.45));
#1787 = DIRECTION('',(0.,0.,-1.));
#1788 = DIRECTION('',(1.,0.,0.));
#1789 = ADVANCED_FACE('',(#1790),#1800,.F.);
#1790 = FACE_BOUND('',#1791,.F.);
#1791 = EDGE_LOOP('',(#1792,#1793,#1798,#1799));
#1792 = ORIENTED_EDGE('',*,*,#815,.F.);
#1793 = ORIENTED_EDGE('',*,*,#1794,.F.);
#1794 = EDGE_CURVE('',#1593,#816,#1795,.T.);
#1795 = B_SPLINE_CURVE_WITH_KNOTS('',1,(#1796,#1797),.UNSPECIFIED.,.F.,
  .F.,(2,2),(2.041120196288E-15,2.05060966544),
  .PIECEWISE_BEZIER_KNOTS.);
#1796 = CARTESIAN_POINT('',(-46.23738835172,-33.4582886089,1.45));
#1797 = CARTESIAN_POINT('',(-47.68738835171,-33.4582886089,
    8.881784197001E-16));
#1798 = ORIENTED_EDGE('',*,*,#1592,.T.);
#1799 = ORIENTED_EDGE('',*,*,#1794,.T.);
#1800 = CONICAL_SURFACE('',#1801,1.7,0.785398163397);
#1801 = AXIS2_PLACEMENT_3D('',#1802,#1803,#1804);
#1802 = CARTESIAN_POINT('',(-44.53738835172,-33.4582886089,1.45));
#1803 = DIRECTION('',(0.,0.,-1.));
#1804 = DIRECTION('',(1.,0.,0.));
#1805 = ADVANCED_FACE('',(#1806),#1825,.F.);
#1806 = FACE_BOUND('',#1807,.F.);
#1807 = EDGE_LOOP('',(#1808,#1816,#1823,#1824));
#1808 = ORIENTED_EDGE('',*,*,#1809,.T.);
#1809 = EDGE_CURVE('',#827,#1810,#1812,.T.);
#1810 = VERTEX_POINT('',#1811);
#1811 = CARTESIAN_POINT('',(-29.99812607466,-25.07866756045,2.));
#1812 = LINE('',#1813,#1814);
#1813 = CARTESIAN_POINT('',(-29.99812607466,-25.07866756045,0.));
#1814 = VECTOR('',#1815,1.);
#1815 = DIRECTION('',(0.,0.,1.));
#1816 = ORIENTED_EDGE('',*,*,#1817,.T.);
#1817 = EDGE_CURVE('',#1810,#1810,#1818,.T.);
#1818 = CIRCLE('',#1819,5.);
#1819 = AXIS2_PLACEMENT_3D('',#1820,#1821,#1822);
#1820 = CARTESIAN_POINT('',(-34.99812607466,-25.07866756045,2.));
#1821 = DIRECTION('',(0.,0.,-1.));
#1822 = DIRECTION('',(1.,0.,0.));
#1823 = ORIENTED_EDGE('',*,*,#1809,.F.);
#1824 = ORIENTED_EDGE('',*,*,#826,.F.);
#1825 = CYLINDRICAL_SURFACE('',#1826,5.);
#1826 = AXIS2_PLACEMENT_3D('',#1827,#1828,#1829);
#1827 = CARTESIAN_POINT('',(-34.99812607466,-25.07866756045,0.));
#1828 = DIRECTION('',(0.,0.,-1.));
#1829 = DIRECTION('',(1.,0.,0.));
#1830 = ADVANCED_FACE('',(#1831),#1841,.F.);
#1831 = FACE_BOUND('',#1832,.F.);
#1832 = EDGE_LOOP('',(#1833,#1834,#1839,#1840));
#1833 = ORIENTED_EDGE('',*,*,#837,.F.);
#1834 = ORIENTED_EDGE('',*,*,#1835,.F.);
#1835 = EDGE_CURVE('',#1617,#838,#1836,.T.);
#1836 = B_SPLINE_CURVE_WITH_KNOTS('',1,(#1837,#1838),.UNSPECIFIED.,.F.,
  .F.,(2,2),(2.041120196288E-15,2.05060966544),
  .PIECEWISE_BEZIER_KNOTS.);
#1837 = CARTESIAN_POINT('',(-49.38405349637,22.559164116739,1.45));
#1838 = CARTESIAN_POINT('',(-50.83405349636,22.559164116739,
    8.881784197001E-16));
#1839 = ORIENTED_EDGE('',*,*,#1616,.T.);
#1840 = ORIENTED_EDGE('',*,*,#1835,.T.);
#1841 = CONICAL_SURFACE('',#1842,1.7,0.785398163397);
#1842 = AXIS2_PLACEMENT_3D('',#1843,#1844,#1845);
#1843 = CARTESIAN_POINT('',(-47.68405349637,22.559164116739,1.45));
#1844 = DIRECTION('',(0.,0.,-1.));
#1845 = DIRECTION('',(1.,0.,0.));
#1846 = ADVANCED_FACE('',(#1847),#1857,.F.);
#1847 = FACE_BOUND('',#1848,.F.);
#1848 = EDGE_LOOP('',(#1849,#1850,#1855,#1856));
#1849 = ORIENTED_EDGE('',*,*,#848,.F.);
#1850 = ORIENTED_EDGE('',*,*,#1851,.F.);
#1851 = EDGE_CURVE('',#1641,#849,#1852,.T.);
#1852 = B_SPLINE_CURVE_WITH_KNOTS('',1,(#1853,#1854),.UNSPECIFIED.,.F.,
  .F.,(2,2),(2.041120196288E-15,2.05060966544),
  .PIECEWISE_BEZIER_KNOTS.);
#1853 = CARTESIAN_POINT('',(79.538374463585,54.853895526734,1.45));
#1854 = CARTESIAN_POINT('',(78.088374463586,54.853895526734,
    8.881784197001E-16));
#1855 = ORIENTED_EDGE('',*,*,#1640,.T.);
#1856 = ORIENTED_EDGE('',*,*,#1851,.T.);
#1857 = CONICAL_SURFACE('',#1858,1.7,0.785398163397);
#1858 = AXIS2_PLACEMENT_3D('',#1859,#1860,#1861);
#1859 = CARTESIAN_POINT('',(81.238374463585,54.853895526734,1.45));
#1860 = DIRECTION('',(0.,0.,-1.));
#1861 = DIRECTION('',(1.,0.,0.));
#1862 = ADVANCED_FACE('',(#1863),#1882,.F.);
#1863 = FACE_BOUND('',#1864,.F.);
#1864 = EDGE_LOOP('',(#1865,#1873,#1880,#1881));
#1865 = ORIENTED_EDGE('',*,*,#1866,.T.);
#1866 = EDGE_CURVE('',#860,#1867,#1869,.T.);
#1867 = VERTEX_POINT('',#1868);
#1868 = CARTESIAN_POINT('',(80.230535267992,80.888534908254,2.));
#1869 = LINE('',#1870,#1871);
#1870 = CARTESIAN_POINT('',(80.230535267992,80.888534908254,0.));
#1871 = VECTOR('',#1872,1.);
#1872 = DIRECTION('',(0.,0.,1.));
#1873 = ORIENTED_EDGE('',*,*,#1874,.T.);
#1874 = EDGE_CURVE('',#1867,#1867,#1875,.T.);
#1875 = CIRCLE('',#1876,5.);
#1876 = AXIS2_PLACEMENT_3D('',#1877,#1878,#1879);
#1877 = CARTESIAN_POINT('',(75.230535267992,80.888534908254,2.));
#1878 = DIRECTION('',(0.,0.,-1.));
#1879 = DIRECTION('',(1.,0.,0.));
#1880 = ORIENTED_EDGE('',*,*,#1866,.F.);
#1881 = ORIENTED_EDGE('',*,*,#859,.F.);
#1882 = CYLINDRICAL_SURFACE('',#1883,5.);
#1883 = AXIS2_PLACEMENT_3D('',#1884,#1885,#1886);
#1884 = CARTESIAN_POINT('',(75.230535267992,80.888534908254,0.));
#1885 = DIRECTION('',(0.,0.,-1.));
#1886 = DIRECTION('',(1.,0.,0.));
#1887 = ADVANCED_FACE('',(#1888),#1898,.F.);
#1888 = FACE_BOUND('',#1889,.F.);
#1889 = EDGE_LOOP('',(#1890,#1891,#1896,#1897));
#1890 = ORIENTED_EDGE('',*,*,#870,.F.);
#1891 = ORIENTED_EDGE('',*,*,#1892,.F.);
#1892 = EDGE_CURVE('',#1665,#871,#1893,.T.);
#1893 = B_SPLINE_CURVE_WITH_KNOTS('',1,(#1894,#1895),.UNSPECIFIED.,.F.,
  .F.,(2,2),(2.041120196288E-15,2.05060966544),
  .PIECEWISE_BEZIER_KNOTS.);
#1894 = CARTESIAN_POINT('',(50.590405940393,85.007880863003,1.45));
#1895 = CARTESIAN_POINT('',(49.140405940394,85.007880863003,
    8.881784197001E-16));
#1896 = ORIENTED_EDGE('',*,*,#1664,.T.);
#1897 = ORIENTED_EDGE('',*,*,#1892,.T.);
#1898 = CONICAL_SURFACE('',#1899,1.7,0.785398163397);
#1899 = AXIS2_PLACEMENT_3D('',#1900,#1901,#1902);
#1900 = CARTESIAN_POINT('',(52.290405940393,85.007880863003,1.45));
#1901 = DIRECTION('',(0.,0.,-1.));
#1902 = DIRECTION('',(1.,0.,0.));
#1903 = ADVANCED_FACE('',(#1904),#1914,.F.);
#1904 = FACE_BOUND('',#1905,.F.);
#1905 = EDGE_LOOP('',(#1906,#1907,#1912,#1913));
#1906 = ORIENTED_EDGE('',*,*,#881,.F.);
#1907 = ORIENTED_EDGE('',*,*,#1908,.F.);
#1908 = EDGE_CURVE('',#1689,#882,#1909,.T.);
#1909 = B_SPLINE_CURVE_WITH_KNOTS('',1,(#1910,#1911),.UNSPECIFIED.,.F.,
  .F.,(2,2),(-4.710277376049E-16,2.05060966544),
  .PIECEWISE_BEZIER_KNOTS.);
#1910 = CARTESIAN_POINT('',(14.625973286532,95.013083618946,1.45));
#1911 = CARTESIAN_POINT('',(13.175973286533,95.013083618946,0.));
#1912 = ORIENTED_EDGE('',*,*,#1688,.T.);
#1913 = ORIENTED_EDGE('',*,*,#1908,.T.);
#1914 = CONICAL_SURFACE('',#1915,1.7,0.785398163397);
#1915 = AXIS2_PLACEMENT_3D('',#1916,#1917,#1918);
#1916 = CARTESIAN_POINT('',(16.325973286532,95.013083618946,1.45));
#1917 = DIRECTION('',(0.,0.,-1.));
#1918 = DIRECTION('',(1.,0.,0.));
#1919 = ADVANCED_FACE('',(#1920),#1939,.F.);
#1920 = FACE_BOUND('',#1921,.F.);
#1921 = EDGE_LOOP('',(#1922,#1930,#1937,#1938));
#1922 = ORIENTED_EDGE('',*,*,#1923,.T.);
#1923 = EDGE_CURVE('',#893,#1924,#1926,.T.);
#1924 = VERTEX_POINT('',#1925);
#1925 = CARTESIAN_POINT('',(-18.46248001185,87.459971954596,2.));
#1926 = LINE('',#1927,#1928);
#1927 = CARTESIAN_POINT('',(-18.46248001185,87.459971954596,0.));
#1928 = VECTOR('',#1929,1.);
#1929 = DIRECTION('',(0.,0.,1.));
#1930 = ORIENTED_EDGE('',*,*,#1931,.T.);
#1931 = EDGE_CURVE('',#1924,#1924,#1932,.T.);
#1932 = CIRCLE('',#1933,5.);
#1933 = AXIS2_PLACEMENT_3D('',#1934,#1935,#1936);
#1934 = CARTESIAN_POINT('',(-23.46248001185,87.459971954596,2.));
#1935 = DIRECTION('',(0.,0.,-1.));
#1936 = DIRECTION('',(1.,0.,0.));
#1937 = ORIENTED_EDGE('',*,*,#1923,.F.);
#1938 = ORIENTED_EDGE('',*,*,#892,.F.);
#1939 = CYLINDRICAL_SURFACE('',#1940,5.);
#1940 = AXIS2_PLACEMENT_3D('',#1941,#1942,#1943);
#1941 = CARTESIAN_POINT('',(-23.46248001185,87.459971954596,0.));
#1942 = DIRECTION('',(0.,0.,-1.));
#1943 = DIRECTION('',(1.,0.,0.));
#1944 = ADVANCED_FACE('',(#1945),#1955,.F.);
#1945 = FACE_BOUND('',#1946,.F.);
#1946 = EDGE_LOOP('',(#1947,#1948,#1953,#1954));
#1947 = ORIENTED_EDGE('',*,*,#903,.F.);
#1948 = ORIENTED_EDGE('',*,*,#1949,.F.);
#1949 = EDGE_CURVE('',#1713,#904,#1950,.T.);
#1950 = B_SPLINE_CURVE_WITH_KNOTS('',1,(#1951,#1952),.UNSPECIFIED.,.F.,
  .F.,(2,2),(2.041120196288E-15,2.05060966544),
  .PIECEWISE_BEZIER_KNOTS.);
#1951 = CARTESIAN_POINT('',(-43.39908344177,84.531427981148,1.45));
#1952 = CARTESIAN_POINT('',(-44.84908344176,84.531427981148,
    8.881784197001E-16));
#1953 = ORIENTED_EDGE('',*,*,#1712,.T.);
#1954 = ORIENTED_EDGE('',*,*,#1949,.T.);
#1955 = CONICAL_SURFACE('',#1956,1.7,0.785398163397);
#1956 = AXIS2_PLACEMENT_3D('',#1957,#1958,#1959);
#1957 = CARTESIAN_POINT('',(-41.69908344177,84.531427981148,1.45));
#1958 = DIRECTION('',(0.,0.,-1.));
#1959 = DIRECTION('',(1.,0.,0.));
#1960 = ADVANCED_FACE('',(#1961),#1964,.F.);
#1961 = FACE_BOUND('',#1962,.T.);
#1962 = EDGE_LOOP('',(#1963));
#1963 = ORIENTED_EDGE('',*,*,#1760,.T.);
#1964 = PLANE('',#1965);
#1965 = AXIS2_PLACEMENT_3D('',#1966,#1967,#1968);
#1966 = CARTESIAN_POINT('',(20.064712245044,38.937598003798,2.));
#1967 = DIRECTION('',(0.,0.,1.));
#1968 = DIRECTION('',(1.,0.,0.));
#1969 = ADVANCED_FACE('',(#1970),#1973,.F.);
#1970 = FACE_BOUND('',#1971,.T.);
#1971 = EDGE_LOOP('',(#1972));
#1972 = ORIENTED_EDGE('',*,*,#1817,.T.);
#1973 = PLANE('',#1974);
#1974 = AXIS2_PLACEMENT_3D('',#1975,#1976,#1977);
#1975 = CARTESIAN_POINT('',(20.064712245044,38.937598003798,2.));
#1976 = DIRECTION('',(0.,0.,1.));
#1977 = DIRECTION('',(1.,0.,0.));
#1978 = ADVANCED_FACE('',(#1979),#1982,.F.);
#1979 = FACE_BOUND('',#1980,.T.);
#1980 = EDGE_LOOP('',(#1981));
#1981 = ORIENTED_EDGE('',*,*,#1874,.T.);
#1982 = PLANE('',#1983);
#1983 = AXIS2_PLACEMENT_3D('',#1984,#1985,#1986);
#1984 = CARTESIAN_POINT('',(20.064712245044,38.937598003798,2.));
#1985 = DIRECTION('',(0.,0.,1.));
#1986 = DIRECTION('',(1.,0.,0.));
#1987 = ADVANCED_FACE('',(#1988),#1991,.F.);
#1988 = FACE_BOUND('',#1989,.T.);
#1989 = EDGE_LOOP('',(#1990));
#1990 = ORIENTED_EDGE('',*,*,#1931,.T.);
#1991 = PLANE('',#1992);
#1992 = AXIS2_PLACEMENT_3D('',#1993,#1994,#1995);
#1993 = CARTESIAN_POINT('',(20.064712245044,38.937598003798,2.));
#1994 = DIRECTION('',(0.,0.,1.));
#1995 = DIRECTION('',(1.,0.,0.));
#1996 = ( GEOMETRIC_REPRESENTATION_CONTEXT(3) 
GLOBAL_UNCERTAINTY_ASSIGNED_CONTEXT((#2000)) 
GLOBAL_UNIT_ASSIGNED_CONTEXT((#1997,#1998,#1999)) REPRESENTATION_CONTEXT
('Context #1','3D Context with UNIT and UNCERTAINTY') );
#1997 = ( LENGTH_UNIT() NAMED_UNIT(*) SI_UNIT(.MILLI.,.METRE.) );
#1998 = ( NAMED_UNIT(*) PLANE_ANGLE_UNIT() SI_UNIT($,.RADIAN.) );
#1999 = ( NAMED_UNIT(*) SI_UNIT($,.STERADIAN.) SOLID_ANGLE_UNIT() );
#2000 = UNCERTAINTY_MEASURE_WITH_UNIT(LENGTH_MEASURE(1.E-07),#1997,
  'distance_accuracy_value','confusion accuracy');
#2001 = PRODUCT_RELATED_PRODUCT_CATEGORY('part',$,(#7));
#2002 = MECHANICAL_DESIGN_GEOMETRIC_PRESENTATION_REPRESENTATION('',(
    #2003),#1996);
#2003 = STYLED_ITEM('color',(#2004),#15);
#2004 = PRESENTATION_STYLE_ASSIGNMENT((#2005,#2011));
#2005 = SURFACE_STYLE_USAGE(.BOTH.,#2006);
#2006 = SURFACE_SIDE_STYLE('',(#2007));
#2007 = SURFACE_STYLE_FILL_AREA(#2008);
#2008 = FILL_AREA_STYLE('',(#2009));
#2009 = FILL_AREA_STYLE_COLOUR('',#2010);
#2010 = COLOUR_RGB('',0.447058818107,0.474509808674,0.501960817233);
#2011 = CURVE_STYLE('',#2012,POSITIVE_LENGTH_MEASURE(0.1),#2013);
#2012 = DRAUGHTING_PRE_DEFINED_CURVE_FONT('continuous');
#2013 = COLOUR_RGB('',0.678431390124,0.709803936702,0.741176476869);
ENDSEC;
END-ISO-10303-21;
