ISO-10303-21;
HEADER;
FILE_DESCRIPTION(('FreeCAD Model'),'2;1');
FILE_NAME('Open CASCADE Shape Model','2026-09-28T14:02:26',(''),(''),
  'Open CASCADE STEP processor 7.9','FreeCAD','Unknown');
FILE_SCHEMA(('AUTOMOTIVE_DESIGN { 1 0 10303 214 1 1 1 1 }'));
ENDSEC;
DATA;
#1 = APPLICATION_PROTOCOL_DEFINITION('international standard',
  'automotive_design',2000,#2);
#2 = APPLICATION_CONTEXT(
  'core data for automotive mechanical design processes');
#3 = SHAPE_DEFINITION_REPRESENTATION(#4,#10);
#4 = PRODUCT_DEFINITION_SHAPE('','',#5);
#5 = PRODUCT_DEFINITION('design','',#6,#9);
#6 = PRODUCT_DEFINITION_FORMATION('','',#7);
#7 = PRODUCT('Part 44','Part 44','',(#8));
#8 = PRODUCT_CONTEXT('',#2,'mechanical');
#9 = PRODUCT_DEFINITION_CONTEXT('part definition',#2,'design');
#10 = ADVANCED_BREP_SHAPE_REPRESENTATION('',(#11,#15),#1816);
#11 = AXIS2_PLACEMENT_3D('',#12,#13,#14);
#12 = CARTESIAN_POINT('',(0.,0.,0.));
#13 = DIRECTION('',(0.,0.,1.));
#14 = DIRECTION('',(1.,0.,-0.));
#15 = MANIFOLD_SOLID_BREP('',#16);
#16 = CLOSED_SHELL('',(#17,#57,#88,#119,#504,#889,#906,#923,#940,#957,
    #974,#991,#1008,#1025,#1042,#1059,#1076,#1093,#1110,#1127,#1144,
    #1161,#1178,#1195,#1212,#1229,#1246,#1263,#1280,#1297,#1314,#1331,
    #1348,#1365,#1382,#1399,#1416,#1433,#1450,#1467,#1484,#1496,#1520,
    #1544,#1568,#1592,#1616,#1640,#1664,#1688,#1704,#1720,#1736,#1752,
    #1768,#1784,#1800));
#17 = ADVANCED_FACE('',(#18),#52,.F.);
#18 = FACE_BOUND('',#19,.T.);
#19 = EDGE_LOOP('',(#20,#30,#38,#46));
#20 = ORIENTED_EDGE('',*,*,#21,.T.);
#21 = EDGE_CURVE('',#22,#24,#26,.T.);
#22 = VERTEX_POINT('',#23);
#23 = CARTESIAN_POINT('',(89.389345871315,70.428910142173,3.));
#24 = VERTEX_POINT('',#25);
#25 = CARTESIAN_POINT('',(89.411983171957,64.466657339235,3.));
#26 = LINE('',#27,#28);
#27 = CARTESIAN_POINT('',(89.389345871318,70.428910142203,3.));
#28 = VECTOR('',#29,1.);
#29 = DIRECTION('',(3.796742309604E-03,-0.999992792348,0.));
#30 = ORIENTED_EDGE('',*,*,#31,.F.);
#31 = EDGE_CURVE('',#32,#24,#34,.T.);
#32 = VERTEX_POINT('',#33);
#33 = CARTESIAN_POINT('',(89.411983171955,64.466657340036,0.));
#34 = LINE('',#35,#36);
#35 = CARTESIAN_POINT('',(89.411983171956,64.466657339497,3.));
#36 = VECTOR('',#37,1.);
#37 = DIRECTION('',(0.,0.,1.));
#38 = ORIENTED_EDGE('',*,*,#39,.F.);
#39 = EDGE_CURVE('',#40,#32,#42,.T.);
#40 = VERTEX_POINT('',#41);
#41 = CARTESIAN_POINT('',(89.389345871316,70.428910142202,
    -2.168404344971E-16));
#42 = LINE('',#43,#44);
#43 = CARTESIAN_POINT('',(89.389345871318,70.428910142203,0.));
#44 = VECTOR('',#45,1.);
#45 = DIRECTION('',(3.79674230971E-03,-0.999992792348,0.));
#46 = ORIENTED_EDGE('',*,*,#47,.T.);
#47 = EDGE_CURVE('',#40,#22,#48,.T.);
#48 = LINE('',#49,#50);
#49 = CARTESIAN_POINT('',(89.389345871312,70.428910142202,3.));
#50 = VECTOR('',#51,1.);
#51 = DIRECTION('',(0.,0.,1.));
#52 = PLANE('',#53);
#53 = AXIS2_PLACEMENT_3D('',#54,#55,#56);
#54 = CARTESIAN_POINT('',(89.389345871318,70.428910142203,3.));
#55 = DIRECTION('',(-0.999992792348,-3.796742309604E-03,0.));
#56 = DIRECTION('',(3.796742309604E-03,-0.999992792348,0.));
#57 = ADVANCED_FACE('',(#58),#83,.F.);
#58 = FACE_BOUND('',#59,.T.);
#59 = EDGE_LOOP('',(#60,#68,#69,#77));
#60 = ORIENTED_EDGE('',*,*,#61,.T.);
#61 = EDGE_CURVE('',#62,#22,#64,.T.);
#62 = VERTEX_POINT('',#63);
#63 = CARTESIAN_POINT('',(87.03958590856,91.348159674307,3.));
#64 = LINE('',#65,#66);
#65 = CARTESIAN_POINT('',(87.03958590856,91.348159674307,3.));
#66 = VECTOR('',#67,1.);
#67 = DIRECTION('',(0.111623285248,-0.993750593555,0.));
#68 = ORIENTED_EDGE('',*,*,#47,.F.);
#69 = ORIENTED_EDGE('',*,*,#70,.F.);
#70 = EDGE_CURVE('',#71,#40,#73,.T.);
#71 = VERTEX_POINT('',#72);
#72 = CARTESIAN_POINT('',(87.03958590856,91.348159674307,0.));
#73 = LINE('',#74,#75);
#74 = CARTESIAN_POINT('',(87.03958590856,91.348159674307,0.));
#75 = VECTOR('',#76,1.);
#76 = DIRECTION('',(0.111623285248,-0.993750593555,0.));
#77 = ORIENTED_EDGE('',*,*,#78,.T.);
#78 = EDGE_CURVE('',#71,#62,#79,.T.);
#79 = LINE('',#80,#81);
#80 = CARTESIAN_POINT('',(87.03958590856,91.348159674307,3.));
#81 = VECTOR('',#82,1.);
#82 = DIRECTION('',(0.,0.,1.));
#83 = PLANE('',#84);
#84 = AXIS2_PLACEMENT_3D('',#85,#86,#87);
#85 = CARTESIAN_POINT('',(87.03958590856,91.348159674307,3.));
#86 = DIRECTION('',(-0.993750593555,-0.111623285248,0.));
#87 = DIRECTION('',(0.111623285248,-0.993750593555,0.));
#88 = ADVANCED_FACE('',(#89),#114,.F.);
#89 = FACE_BOUND('',#90,.T.);
#90 = EDGE_LOOP('',(#91,#99,#107,#113));
#91 = ORIENTED_EDGE('',*,*,#92,.T.);
#92 = EDGE_CURVE('',#24,#93,#95,.T.);
#93 = VERTEX_POINT('',#94);
#94 = CARTESIAN_POINT('',(89.460119976401,45.285956829922,3.));
#95 = LINE('',#96,#97);
#96 = CARTESIAN_POINT('',(89.411983171957,64.466657339497,3.));
#97 = VECTOR('',#98,1.);
#98 = DIRECTION('',(2.509639980567E-03,-0.999996850849,0.));
#99 = ORIENTED_EDGE('',*,*,#100,.F.);
#100 = EDGE_CURVE('',#101,#93,#103,.T.);
#101 = VERTEX_POINT('',#102);
#102 = CARTESIAN_POINT('',(89.460119976401,45.285956829919,
    -4.336808689942E-16));
#103 = LINE('',#104,#105);
#104 = CARTESIAN_POINT('',(89.460119976401,45.285956829922,3.));
#105 = VECTOR('',#106,1.);
#106 = DIRECTION('',(0.,0.,1.));
#107 = ORIENTED_EDGE('',*,*,#108,.F.);
#108 = EDGE_CURVE('',#32,#101,#109,.T.);
#109 = LINE('',#110,#111);
#110 = CARTESIAN_POINT('',(89.411983171957,64.466657339497,0.));
#111 = VECTOR('',#112,1.);
#112 = DIRECTION('',(2.509639980557E-03,-0.999996850849,0.));
#113 = ORIENTED_EDGE('',*,*,#31,.T.);
#114 = PLANE('',#115);
#115 = AXIS2_PLACEMENT_3D('',#116,#117,#118);
#116 = CARTESIAN_POINT('',(89.411983171957,64.466657339497,3.));
#117 = DIRECTION('',(-0.999996850849,-2.509639980567E-03,0.));
#118 = DIRECTION('',(2.509639980567E-03,-0.999996850849,0.));
#119 = ADVANCED_FACE('',(#120,#411,#422,#433,#444,#455,#466,#477,#488),
  #499,.F.);
#120 = FACE_BOUND('',#121,.T.);
#121 = EDGE_LOOP('',(#122,#123,#131,#139,#147,#155,#163,#171,#179,#187,
    #195,#203,#211,#219,#227,#235,#243,#251,#259,#267,#275,#283,#291,
    #299,#307,#315,#323,#331,#339,#347,#355,#363,#371,#379,#387,#395,
    #403,#409,#410));
#122 = ORIENTED_EDGE('',*,*,#61,.F.);
#123 = ORIENTED_EDGE('',*,*,#124,.F.);
#124 = EDGE_CURVE('',#125,#62,#127,.T.);
#125 = VERTEX_POINT('',#126);
#126 = CARTESIAN_POINT('',(63.421484627422,93.271001034143,3.));
#127 = LINE('',#128,#129);
#128 = CARTESIAN_POINT('',(63.421484627424,93.271001034143,3.));
#129 = VECTOR('',#130,1.);
#130 = DIRECTION('',(0.996702274255,-8.114540341607E-02,0.));
#131 = ORIENTED_EDGE('',*,*,#132,.F.);
#132 = EDGE_CURVE('',#133,#125,#135,.T.);
#133 = VERTEX_POINT('',#134);
#134 = CARTESIAN_POINT('',(60.796603643773,93.268957050612,3.));
#135 = LINE('',#136,#137);
#136 = CARTESIAN_POINT('',(60.796603643767,93.268957050612,3.));
#137 = VECTOR('',#138,1.);
#138 = DIRECTION('',(0.999999696817,7.786954625278E-04,0.));
#139 = ORIENTED_EDGE('',*,*,#140,.F.);
#140 = EDGE_CURVE('',#141,#133,#143,.T.);
#141 = VERTEX_POINT('',#142);
#142 = CARTESIAN_POINT('',(45.581633653953,92.654081702323,3.));
#143 = LINE('',#144,#145);
#144 = CARTESIAN_POINT('',(45.581633653953,92.654081702323,3.));
#145 = VECTOR('',#146,1.);
#146 = DIRECTION('',(0.99918441279,4.037956461495E-02,0.));
#147 = ORIENTED_EDGE('',*,*,#148,.F.);
#148 = EDGE_CURVE('',#149,#141,#151,.T.);
#149 = VERTEX_POINT('',#150);
#150 = CARTESIAN_POINT('',(45.364749812156,99.671799487338,3.));
#151 = LINE('',#152,#153);
#152 = CARTESIAN_POINT('',(45.364749812156,99.671799487344,3.));
#153 = VECTOR('',#154,1.);
#154 = DIRECTION('',(3.08904328184E-02,-0.999522776709,0.));
#155 = ORIENTED_EDGE('',*,*,#156,.F.);
#156 = EDGE_CURVE('',#157,#149,#159,.T.);
#157 = VERTEX_POINT('',#158);
#158 = CARTESIAN_POINT('',(21.232029201571,100.26638480345,3.));
#159 = LINE('',#160,#161);
#160 = CARTESIAN_POINT('',(21.232029201567,100.26638480345,3.));
#161 = VECTOR('',#162,1.);
#162 = DIRECTION('',(0.999696619178,-2.463066389908E-02,0.));
#163 = ORIENTED_EDGE('',*,*,#164,.F.);
#164 = EDGE_CURVE('',#165,#157,#167,.T.);
#165 = VERTEX_POINT('',#166);
#166 = CARTESIAN_POINT('',(18.86068044071,103.1277292105,3.));
#167 = LINE('',#168,#169);
#168 = CARTESIAN_POINT('',(18.86068044071,103.1277292105,3.));
#169 = VECTOR('',#170,1.);
#170 = DIRECTION('',(0.638100913412,-0.769952741604,0.));
#171 = ORIENTED_EDGE('',*,*,#172,.F.);
#172 = EDGE_CURVE('',#173,#165,#175,.T.);
#173 = VERTEX_POINT('',#174);
#174 = CARTESIAN_POINT('',(-1.738420937723,103.03127756282,3.));
#175 = LINE('',#176,#177);
#176 = CARTESIAN_POINT('',(-1.738420937725,103.03127756283,3.));
#177 = VECTOR('',#178,1.);
#178 = DIRECTION('',(0.999989038106,4.68227174605E-03,0.));
#179 = ORIENTED_EDGE('',*,*,#180,.F.);
#180 = EDGE_CURVE('',#181,#173,#183,.T.);
#181 = VERTEX_POINT('',#182);
#182 = CARTESIAN_POINT('',(-3.708916324367,100.14960323875,3.));
#183 = LINE('',#184,#185);
#184 = CARTESIAN_POINT('',(-3.708916324367,100.14960323875,3.));
#185 = VECTOR('',#186,1.);
#186 = DIRECTION('',(0.56445434032,0.825464292198,0.));
#187 = ORIENTED_EDGE('',*,*,#188,.F.);
#188 = EDGE_CURVE('',#189,#181,#191,.T.);
#189 = VERTEX_POINT('',#190);
#190 = CARTESIAN_POINT('',(-20.54196964158,100.05854787071,3.));
#191 = LINE('',#192,#193);
#192 = CARTESIAN_POINT('',(-20.54196964192,100.05854787071,3.));
#193 = VECTOR('',#194,1.);
#194 = DIRECTION('',(0.999985369951,5.409240627812E-03,0.));
#195 = ORIENTED_EDGE('',*,*,#196,.F.);
#196 = EDGE_CURVE('',#197,#189,#199,.T.);
#197 = VERTEX_POINT('',#198);
#198 = CARTESIAN_POINT('',(-23.46248001186,100.03746233017,3.));
#199 = LINE('',#200,#201);
#200 = CARTESIAN_POINT('',(-23.46248001185,100.03746233017,3.));
#201 = VECTOR('',#202,1.);
#202 = DIRECTION('',(0.999973938165,7.219625455913E-03,0.));
#203 = ORIENTED_EDGE('',*,*,#204,.F.);
#204 = EDGE_CURVE('',#205,#197,#207,.T.);
#205 = VERTEX_POINT('',#206);
#206 = CARTESIAN_POINT('',(-45.41228549276,97.937884527187,3.));
#207 = LINE('',#208,#209);
#208 = CARTESIAN_POINT('',(-45.41228549277,97.937884527188,3.));
#209 = VECTOR('',#210,1.);
#210 = DIRECTION('',(0.995456350685,9.521897857165E-02,0.));
#211 = ORIENTED_EDGE('',*,*,#212,.F.);
#212 = EDGE_CURVE('',#213,#205,#215,.T.);
#213 = VERTEX_POINT('',#214);
#214 = CARTESIAN_POINT('',(-52.49280542571,76.982059382006,3.));
#215 = LINE('',#216,#217);
#216 = CARTESIAN_POINT('',(-52.49280542572,76.982059382003,3.));
#217 = VECTOR('',#218,1.);
#218 = DIRECTION('',(0.320100427129,0.947383616362,0.));
#219 = ORIENTED_EDGE('',*,*,#220,.F.);
#220 = EDGE_CURVE('',#221,#213,#223,.T.);
#221 = VERTEX_POINT('',#222);
#222 = CARTESIAN_POINT('',(-53.52363260749,71.015720686891,3.));
#223 = LINE('',#224,#225);
#224 = CARTESIAN_POINT('',(-53.5236326075,71.01572068686,3.));
#225 = VECTOR('',#226,1.);
#226 = DIRECTION('',(0.170251443875,0.985400652455,0.));
#227 = ORIENTED_EDGE('',*,*,#228,.F.);
#228 = EDGE_CURVE('',#229,#221,#231,.T.);
#229 = VERTEX_POINT('',#230);
#230 = CARTESIAN_POINT('',(-55.6621835708,51.82653904558,3.));
#231 = LINE('',#232,#233);
#232 = CARTESIAN_POINT('',(-55.6621835708,51.82653904559,3.));
#233 = VECTOR('',#234,1.);
#234 = DIRECTION('',(0.11075995322,0.993847187833,0.));
#235 = ORIENTED_EDGE('',*,*,#236,.F.);
#236 = EDGE_CURVE('',#237,#229,#239,.T.);
#237 = VERTEX_POINT('',#238);
#238 = CARTESIAN_POINT('',(-56.01303762139,45.395075400095,3.));
#239 = LINE('',#240,#241);
#240 = CARTESIAN_POINT('',(-56.01303762139,45.395075400138,3.));
#241 = VECTOR('',#242,1.);
#242 = DIRECTION('',(5.447175960964E-02,0.998515311553,0.));
#243 = ORIENTED_EDGE('',*,*,#244,.F.);
#244 = EDGE_CURVE('',#245,#237,#247,.T.);
#245 = VERTEX_POINT('',#246);
#246 = CARTESIAN_POINT('',(-56.00967094242,25.444449255332,3.));
#247 = LINE('',#248,#249);
#248 = CARTESIAN_POINT('',(-56.00967094243,25.444449255295,3.));
#249 = VECTOR('',#250,1.);
#250 = DIRECTION('',(-1.687505390662E-04,0.999999985762,0.));
#251 = ORIENTED_EDGE('',*,*,#252,.F.);
#252 = EDGE_CURVE('',#253,#245,#255,.T.);
#253 = VERTEX_POINT('',#254);
#254 = CARTESIAN_POINT('',(-55.65664173809,18.986154278459,3.));
#255 = LINE('',#256,#257);
#256 = CARTESIAN_POINT('',(-55.65664173809,18.986154278477,3.));
#257 = VECTOR('',#258,1.);
#258 = DIRECTION('',(-5.458142637439E-02,0.998509322888,0.));
#259 = ORIENTED_EDGE('',*,*,#260,.F.);
#260 = EDGE_CURVE('',#261,#253,#263,.T.);
#261 = VERTEX_POINT('',#262);
#262 = CARTESIAN_POINT('',(-51.50561588417,3.917575356605,3.));
#263 = LINE('',#264,#265);
#264 = CARTESIAN_POINT('',(-51.50561588417,3.917575356603,3.));
#265 = VECTOR('',#266,1.);
#266 = DIRECTION('',(-0.265582741806,0.964088070279,0.));
#267 = ORIENTED_EDGE('',*,*,#268,.F.);
#268 = EDGE_CURVE('',#269,#261,#271,.T.);
#269 = VERTEX_POINT('',#270);
#270 = CARTESIAN_POINT('',(-52.75105328755,-4.170959716845,3.));
#271 = LINE('',#272,#273);
#272 = CARTESIAN_POINT('',(-52.75105328756,-4.170959716841,3.));
#273 = VECTOR('',#274,1.);
#274 = DIRECTION('',(0.152182206598,0.988352455349,0.));
#275 = ORIENTED_EDGE('',*,*,#276,.F.);
#276 = EDGE_CURVE('',#277,#269,#279,.T.);
#277 = VERTEX_POINT('',#278);
#278 = CARTESIAN_POINT('',(-64.21640808094,-15.0007881163,3.));
#279 = LINE('',#280,#281);
#280 = CARTESIAN_POINT('',(-64.21640808095,-15.00078811631,3.));
#281 = VECTOR('',#282,1.);
#282 = DIRECTION('',(0.726967644256,0.686671715017,0.));
#283 = ORIENTED_EDGE('',*,*,#284,.F.);
#284 = EDGE_CURVE('',#285,#277,#287,.T.);
#285 = VERTEX_POINT('',#286);
#286 = CARTESIAN_POINT('',(-53.03250195944,-33.18178307024,3.));
#287 = LINE('',#288,#289);
#288 = CARTESIAN_POINT('',(-53.03250195944,-33.18178307025,3.));
#289 = VECTOR('',#290,1.);
#290 = DIRECTION('',(-0.52394795703,0.851750279321,0.));
#291 = ORIENTED_EDGE('',*,*,#292,.F.);
#292 = EDGE_CURVE('',#293,#285,#295,.T.);
#293 = VERTEX_POINT('',#294);
#294 = CARTESIAN_POINT('',(-52.50098980667,-38.12149768515,3.));
#295 = LINE('',#296,#297);
#296 = CARTESIAN_POINT('',(-52.50098980668,-38.12149768517,3.));
#297 = VECTOR('',#298,1.);
#298 = DIRECTION('',(-0.106982246756,0.994260930983,0.));
#299 = ORIENTED_EDGE('',*,*,#300,.F.);
#300 = EDGE_CURVE('',#301,#293,#303,.T.);
#301 = VERTEX_POINT('',#302);
#302 = CARTESIAN_POINT('',(-37.16741212962,-56.89717106023,3.));
#303 = LINE('',#304,#305);
#304 = CARTESIAN_POINT('',(-37.16741212962,-56.89717106024,3.));
#305 = VECTOR('',#306,1.);
#306 = DIRECTION('',(-0.632537319932,0.774529882505,0.));
#307 = ORIENTED_EDGE('',*,*,#308,.F.);
#308 = EDGE_CURVE('',#309,#301,#311,.T.);
#309 = VERTEX_POINT('',#310);
#310 = CARTESIAN_POINT('',(-17.24519886166,-45.98637540399,3.));
#311 = LINE('',#312,#313);
#312 = CARTESIAN_POINT('',(-17.24519886178,-45.98637540406,3.));
#313 = VECTOR('',#314,1.);
#314 = DIRECTION('',(-0.877077493908,-0.48034890411,0.));
#315 = ORIENTED_EDGE('',*,*,#316,.F.);
#316 = EDGE_CURVE('',#317,#309,#319,.T.);
#317 = VERTEX_POINT('',#318);
#318 = CARTESIAN_POINT('',(-1.549978118132,-38.13915533977,3.));
#319 = LINE('',#320,#321);
#320 = CARTESIAN_POINT('',(-1.549978118131,-38.13915533977,3.));
#321 = VECTOR('',#322,1.);
#322 = DIRECTION('',(-0.89443608793,-0.447195801197,0.));
#323 = ORIENTED_EDGE('',*,*,#324,.F.);
#324 = EDGE_CURVE('',#325,#317,#327,.T.);
#325 = VERTEX_POINT('',#326);
#326 = CARTESIAN_POINT('',(1.863769287398,-21.26685824842,3.));
#327 = LINE('',#328,#329);
#328 = CARTESIAN_POINT('',(1.863769287397,-21.26685824843,3.));
#329 = VECTOR('',#330,1.);
#330 = DIRECTION('',(-0.198310166503,-0.980139315537,0.));
#331 = ORIENTED_EDGE('',*,*,#332,.F.);
#332 = EDGE_CURVE('',#333,#325,#335,.T.);
#333 = VERTEX_POINT('',#334);
#334 = CARTESIAN_POINT('',(21.938546149433,-27.27886087769,3.));
#335 = LINE('',#336,#337);
#336 = CARTESIAN_POINT('',(21.938546149429,-27.27886087769,3.));
#337 = VECTOR('',#338,1.);
#338 = DIRECTION('',(-0.957963168314,0.286891213099,0.));
#339 = ORIENTED_EDGE('',*,*,#340,.F.);
#340 = EDGE_CURVE('',#341,#333,#343,.T.);
#341 = VERTEX_POINT('',#342);
#342 = CARTESIAN_POINT('',(43.418929037058,-27.01381154885,3.));
#343 = LINE('',#344,#345);
#344 = CARTESIAN_POINT('',(43.418929037056,-27.01381154885,3.));
#345 = VECTOR('',#346,1.);
#346 = DIRECTION('',(-0.999923881575,-1.233819504481E-02,0.));
#347 = ORIENTED_EDGE('',*,*,#348,.F.);
#348 = EDGE_CURVE('',#349,#341,#351,.T.);
#349 = VERTEX_POINT('',#350);
#350 = CARTESIAN_POINT('',(46.119789483266,-12.60910778186,3.));
#351 = LINE('',#352,#353);
#352 = CARTESIAN_POINT('',(46.119789483265,-12.60910778187,3.));
#353 = VECTOR('',#354,1.);
#354 = DIRECTION('',(-0.184287117203,-0.98287245278,0.));
#355 = ORIENTED_EDGE('',*,*,#356,.F.);
#356 = EDGE_CURVE('',#357,#349,#359,.T.);
#357 = VERTEX_POINT('',#358);
#358 = CARTESIAN_POINT('',(59.782276547598,-13.40338462505,3.));
#359 = LINE('',#360,#361);
#360 = CARTESIAN_POINT('',(59.782276547547,-13.40338462505,3.));
#361 = VECTOR('',#362,1.);
#362 = DIRECTION('',(-0.998314397657,5.803760358913E-02,0.));
#363 = ORIENTED_EDGE('',*,*,#364,.F.);
#364 = EDGE_CURVE('',#365,#357,#367,.T.);
#365 = VERTEX_POINT('',#366);
#366 = CARTESIAN_POINT('',(63.488919798712,-13.4004982779,3.));
#367 = LINE('',#368,#369);
#368 = CARTESIAN_POINT('',(63.488919798702,-13.4004982779,3.));
#369 = VECTOR('',#370,1.);
#370 = DIRECTION('',(-0.999999696817,-7.786954625456E-04,0.));
#371 = ORIENTED_EDGE('',*,*,#372,.F.);
#372 = EDGE_CURVE('',#373,#365,#375,.T.);
#373 = VERTEX_POINT('',#374);
#374 = CARTESIAN_POINT('',(87.174588036211,-11.22378316333,3.));
#375 = LINE('',#376,#377);
#376 = CARTESIAN_POINT('',(87.174588036211,-11.22378316333,3.));
#377 = VECTOR('',#378,1.);
#378 = DIRECTION('',(-0.995803747808,-9.151445706597E-02,0.));
#379 = ORIENTED_EDGE('',*,*,#380,.F.);
#380 = EDGE_CURVE('',#381,#373,#383,.T.);
#381 = VERTEX_POINT('',#382);
#382 = CARTESIAN_POINT('',(89.416451955096,12.480552712794,3.));
#383 = LINE('',#384,#385);
#384 = CARTESIAN_POINT('',(89.416451955096,12.480552712793,3.));
#385 = VECTOR('',#386,1.);
#386 = DIRECTION('',(-9.415595360627E-02,-0.99555746012,0.));
#387 = ORIENTED_EDGE('',*,*,#388,.F.);
#388 = EDGE_CURVE('',#389,#381,#391,.T.);
#389 = VERTEX_POINT('',#390);
#390 = CARTESIAN_POINT('',(89.237075427186,18.949699753528,3.));
#391 = LINE('',#392,#393);
#392 = CARTESIAN_POINT('',(89.237075427187,18.949699753516,3.));
#393 = VECTOR('',#394,1.);
#394 = DIRECTION('',(2.771734981446E-02,-0.999615800455,0.));
#395 = ORIENTED_EDGE('',*,*,#396,.F.);
#396 = EDGE_CURVE('',#397,#389,#399,.T.);
#397 = VERTEX_POINT('',#398);
#398 = CARTESIAN_POINT('',(89.321562547488,38.807710755635,3.));
#399 = LINE('',#400,#401);
#400 = CARTESIAN_POINT('',(89.321562547488,38.807710755652,3.));
#401 = VECTOR('',#402,1.);
#402 = DIRECTION('',(-4.254522552138E-03,-0.999990949478,0.));
#403 = ORIENTED_EDGE('',*,*,#404,.F.);
#404 = EDGE_CURVE('',#93,#397,#405,.T.);
#405 = LINE('',#406,#407);
#406 = CARTESIAN_POINT('',(89.460119976401,45.285956829922,3.));
#407 = VECTOR('',#408,1.);
#408 = DIRECTION('',(-2.138321801359E-02,-0.999771352854,0.));
#409 = ORIENTED_EDGE('',*,*,#92,.F.);
#410 = ORIENTED_EDGE('',*,*,#21,.F.);
#411 = FACE_BOUND('',#412,.T.);
#412 = EDGE_LOOP('',(#413));
#413 = ORIENTED_EDGE('',*,*,#414,.T.);
#414 = EDGE_CURVE('',#415,#415,#417,.T.);
#415 = VERTEX_POINT('',#416);
#416 = CARTESIAN_POINT('',(72.001388619747,-4.75166172086,3.));
#417 = CIRCLE('',#418,1.7);
#418 = AXIS2_PLACEMENT_3D('',#419,#420,#421);
#419 = CARTESIAN_POINT('',(73.701388619747,-4.75166172086,3.));
#420 = DIRECTION('',(0.,0.,-1.));
#421 = DIRECTION('',(-1.,0.,0.));
#422 = FACE_BOUND('',#423,.T.);
#423 = EDGE_LOOP('',(#424));
#424 = ORIENTED_EDGE('',*,*,#425,.T.);
#425 = EDGE_CURVE('',#426,#426,#428,.T.);
#426 = VERTEX_POINT('',#427);
#427 = CARTESIAN_POINT('',(9.818037385729,-16.62038451986,3.));
#428 = CIRCLE('',#429,1.7);
#429 = AXIS2_PLACEMENT_3D('',#430,#431,#432);
#430 = CARTESIAN_POINT('',(11.518037385729,-16.62038451986,3.));
#431 = DIRECTION('',(0.,0.,-1.));
#432 = DIRECTION('',(-1.,0.,0.));
#433 = FACE_BOUND('',#434,.T.);
#434 = EDGE_LOOP('',(#435));
#435 = ORIENTED_EDGE('',*,*,#436,.T.);
#436 = EDGE_CURVE('',#437,#437,#439,.T.);
#437 = VERTEX_POINT('',#438);
#438 = CARTESIAN_POINT('',(-46.23738835172,-33.4582886089,3.));
#439 = CIRCLE('',#440,1.7);
#440 = AXIS2_PLACEMENT_3D('',#441,#442,#443);
#441 = CARTESIAN_POINT('',(-44.53738835172,-33.4582886089,3.));
#442 = DIRECTION('',(0.,0.,-1.));
#443 = DIRECTION('',(-1.,0.,0.));
#444 = FACE_BOUND('',#445,.T.);
#445 = EDGE_LOOP('',(#446));
#446 = ORIENTED_EDGE('',*,*,#447,.T.);
#447 = EDGE_CURVE('',#448,#448,#450,.T.);
#448 = VERTEX_POINT('',#449);
#449 = CARTESIAN_POINT('',(-49.38405349637,22.559164116739,3.));
#450 = CIRCLE('',#451,1.7);
#451 = AXIS2_PLACEMENT_3D('',#452,#453,#454);
#452 = CARTESIAN_POINT('',(-47.68405349637,22.559164116739,3.));
#453 = DIRECTION('',(0.,0.,-1.));
#454 = DIRECTION('',(-1.,0.,0.));
#455 = FACE_BOUND('',#456,.T.);
#456 = EDGE_LOOP('',(#457));
#457 = ORIENTED_EDGE('',*,*,#458,.T.);
#458 = EDGE_CURVE('',#459,#459,#461,.T.);
#459 = VERTEX_POINT('',#460);
#460 = CARTESIAN_POINT('',(79.538374463585,54.853895526734,3.));
#461 = CIRCLE('',#462,1.7);
#462 = AXIS2_PLACEMENT_3D('',#463,#464,#465);
#463 = CARTESIAN_POINT('',(81.238374463585,54.853895526734,3.));
#464 = DIRECTION('',(0.,0.,-1.));
#465 = DIRECTION('',(-1.,0.,0.));
#466 = FACE_BOUND('',#467,.T.);
#467 = EDGE_LOOP('',(#468));
#468 = ORIENTED_EDGE('',*,*,#469,.T.);
#469 = EDGE_CURVE('',#470,#470,#472,.T.);
#470 = VERTEX_POINT('',#471);
#471 = CARTESIAN_POINT('',(50.590405940393,85.007880863003,3.));
#472 = CIRCLE('',#473,1.7);
#473 = AXIS2_PLACEMENT_3D('',#474,#475,#476);
#474 = CARTESIAN_POINT('',(52.290405940393,85.007880863003,3.));
#475 = DIRECTION('',(0.,0.,-1.));
#476 = DIRECTION('',(-1.,0.,0.));
#477 = FACE_BOUND('',#478,.T.);
#478 = EDGE_LOOP('',(#479));
#479 = ORIENTED_EDGE('',*,*,#480,.T.);
#480 = EDGE_CURVE('',#481,#481,#483,.T.);
#481 = VERTEX_POINT('',#482);
#482 = CARTESIAN_POINT('',(14.625973286532,95.013083618946,3.));
#483 = CIRCLE('',#484,1.7);
#484 = AXIS2_PLACEMENT_3D('',#485,#486,#487);
#485 = CARTESIAN_POINT('',(16.325973286532,95.013083618946,3.));
#486 = DIRECTION('',(0.,0.,-1.));
#487 = DIRECTION('',(-1.,0.,0.));
#488 = FACE_BOUND('',#489,.T.);
#489 = EDGE_LOOP('',(#490));
#490 = ORIENTED_EDGE('',*,*,#491,.T.);
#491 = EDGE_CURVE('',#492,#492,#494,.T.);
#492 = VERTEX_POINT('',#493);
#493 = CARTESIAN_POINT('',(-43.39908344177,84.531427981148,3.));
#494 = CIRCLE('',#495,1.7);
#495 = AXIS2_PLACEMENT_3D('',#496,#497,#498);
#496 = CARTESIAN_POINT('',(-41.69908344177,84.531427981148,3.));
#497 = DIRECTION('',(0.,0.,-1.));
#498 = DIRECTION('',(-1.,0.,0.));
#499 = PLANE('',#500);
#500 = AXIS2_PLACEMENT_3D('',#501,#502,#503);
#501 = CARTESIAN_POINT('',(11.760970759722,29.171150871107,3.));
#502 = DIRECTION('',(0.,0.,-1.));
#503 = DIRECTION('',(-1.,0.,0.));
#504 = ADVANCED_FACE('',(#505,#796,#807,#818,#829,#840,#851,#862,#873),
  #884,.T.);
#505 = FACE_BOUND('',#506,.T.);
#506 = EDGE_LOOP('',(#507,#508,#509,#517,#525,#533,#541,#549,#557,#565,
    #573,#581,#589,#597,#605,#613,#621,#629,#637,#645,#653,#661,#669,
    #677,#685,#693,#701,#709,#717,#725,#733,#741,#749,#757,#765,#773,
    #781,#789,#795));
#507 = ORIENTED_EDGE('',*,*,#39,.T.);
#508 = ORIENTED_EDGE('',*,*,#108,.T.);
#509 = ORIENTED_EDGE('',*,*,#510,.T.);
#510 = EDGE_CURVE('',#101,#511,#513,.T.);
#511 = VERTEX_POINT('',#512);
#512 = CARTESIAN_POINT('',(89.321562547488,38.807710755654,
    -4.336808689942E-16));
#513 = LINE('',#514,#515);
#514 = CARTESIAN_POINT('',(89.460119976401,45.285956829922,0.));
#515 = VECTOR('',#516,1.);
#516 = DIRECTION('',(-2.138321801367E-02,-0.999771352854,0.));
#517 = ORIENTED_EDGE('',*,*,#518,.T.);
#518 = EDGE_CURVE('',#511,#519,#521,.T.);
#519 = VERTEX_POINT('',#520);
#520 = CARTESIAN_POINT('',(89.237075427187,18.949699753516,
    -1.084202172485E-16));
#521 = LINE('',#522,#523);
#522 = CARTESIAN_POINT('',(89.321562547488,38.807710755652,0.));
#523 = VECTOR('',#524,1.);
#524 = DIRECTION('',(-4.254522552102E-03,-0.999990949478,0.));
#525 = ORIENTED_EDGE('',*,*,#526,.T.);
#526 = EDGE_CURVE('',#519,#527,#529,.T.);
#527 = VERTEX_POINT('',#528);
#528 = CARTESIAN_POINT('',(89.416451955096,12.480552712793,
    -2.168404344971E-16));
#529 = LINE('',#530,#531);
#530 = CARTESIAN_POINT('',(89.237075427187,18.949699753516,0.));
#531 = VECTOR('',#532,1.);
#532 = DIRECTION('',(2.771734981441E-02,-0.999615800455,0.));
#533 = ORIENTED_EDGE('',*,*,#534,.T.);
#534 = EDGE_CURVE('',#527,#535,#537,.T.);
#535 = VERTEX_POINT('',#536);
#536 = CARTESIAN_POINT('',(87.174588036211,-11.22378316333,0.));
#537 = LINE('',#538,#539);
#538 = CARTESIAN_POINT('',(89.416451955096,12.480552712793,0.));
#539 = VECTOR('',#540,1.);
#540 = DIRECTION('',(-9.415595360627E-02,-0.99555746012,0.));
#541 = ORIENTED_EDGE('',*,*,#542,.T.);
#542 = EDGE_CURVE('',#535,#543,#545,.T.);
#543 = VERTEX_POINT('',#544);
#544 = CARTESIAN_POINT('',(63.488919798702,-13.4004982779,
    -2.168404344971E-16));
#545 = LINE('',#546,#547);
#546 = CARTESIAN_POINT('',(87.174588036211,-11.22378316333,0.));
#547 = VECTOR('',#548,1.);
#548 = DIRECTION('',(-0.995803747808,-9.151445706589E-02,0.));
#549 = ORIENTED_EDGE('',*,*,#550,.T.);
#550 = EDGE_CURVE('',#543,#551,#553,.T.);
#551 = VERTEX_POINT('',#552);
#552 = CARTESIAN_POINT('',(59.782276547547,-13.40338462505,
    -4.336808689942E-16));
#553 = LINE('',#554,#555);
#554 = CARTESIAN_POINT('',(63.488919798702,-13.4004982779,0.));
#555 = VECTOR('',#556,1.);
#556 = DIRECTION('',(-0.999999696817,-7.786954609165E-04,0.));
#557 = ORIENTED_EDGE('',*,*,#558,.T.);
#558 = EDGE_CURVE('',#551,#559,#561,.T.);
#559 = VERTEX_POINT('',#560);
#560 = CARTESIAN_POINT('',(46.119789483265,-12.60910778186,0.));
#561 = LINE('',#562,#563);
#562 = CARTESIAN_POINT('',(59.782276547547,-13.40338462505,0.));
#563 = VECTOR('',#564,1.);
#564 = DIRECTION('',(-0.998314397657,5.803760358868E-02,0.));
#565 = ORIENTED_EDGE('',*,*,#566,.T.);
#566 = EDGE_CURVE('',#559,#567,#569,.T.);
#567 = VERTEX_POINT('',#568);
#568 = CARTESIAN_POINT('',(43.418929037057,-27.01381154885,0.));
#569 = LINE('',#570,#571);
#570 = CARTESIAN_POINT('',(46.119789483265,-12.60910778187,0.));
#571 = VECTOR('',#572,1.);
#572 = DIRECTION('',(-0.184287117203,-0.98287245278,0.));
#573 = ORIENTED_EDGE('',*,*,#574,.T.);
#574 = EDGE_CURVE('',#567,#575,#577,.T.);
#575 = VERTEX_POINT('',#576);
#576 = CARTESIAN_POINT('',(21.938546149429,-27.27886087769,
    4.336808689942E-16));
#577 = LINE('',#578,#579);
#578 = CARTESIAN_POINT('',(43.418929037056,-27.01381154885,0.));
#579 = VECTOR('',#580,1.);
#580 = DIRECTION('',(-0.999923881575,-1.23381950447E-02,0.));
#581 = ORIENTED_EDGE('',*,*,#582,.T.);
#582 = EDGE_CURVE('',#575,#583,#585,.T.);
#583 = VERTEX_POINT('',#584);
#584 = CARTESIAN_POINT('',(1.863769287397,-21.26685824842,
    -4.336808689942E-16));
#585 = LINE('',#586,#587);
#586 = CARTESIAN_POINT('',(21.938546149429,-27.27886087769,0.));
#587 = VECTOR('',#588,1.);
#588 = DIRECTION('',(-0.957963168314,0.286891213099,0.));
#589 = ORIENTED_EDGE('',*,*,#590,.T.);
#590 = EDGE_CURVE('',#583,#591,#593,.T.);
#591 = VERTEX_POINT('',#592);
#592 = CARTESIAN_POINT('',(-1.549978118132,-38.13915533977,
    4.336808689942E-16));
#593 = LINE('',#594,#595);
#594 = CARTESIAN_POINT('',(1.863769287397,-21.26685824843,0.));
#595 = VECTOR('',#596,1.);
#596 = DIRECTION('',(-0.198310166503,-0.980139315537,0.));
#597 = ORIENTED_EDGE('',*,*,#598,.T.);
#598 = EDGE_CURVE('',#591,#599,#601,.T.);
#599 = VERTEX_POINT('',#600);
#600 = CARTESIAN_POINT('',(-17.24519886178,-45.98637540405,0.));
#601 = LINE('',#602,#603);
#602 = CARTESIAN_POINT('',(-1.549978118131,-38.13915533977,0.));
#603 = VECTOR('',#604,1.);
#604 = DIRECTION('',(-0.89443608793,-0.447195801198,0.));
#605 = ORIENTED_EDGE('',*,*,#606,.T.);
#606 = EDGE_CURVE('',#599,#607,#609,.T.);
#607 = VERTEX_POINT('',#608);
#608 = CARTESIAN_POINT('',(-37.16741212962,-56.89717106023,
    -6.505213034913E-16));
#609 = LINE('',#610,#611);
#610 = CARTESIAN_POINT('',(-17.24519886178,-45.98637540406,0.));
#611 = VECTOR('',#612,1.);
#612 = DIRECTION('',(-0.877077493908,-0.480348904111,0.));
#613 = ORIENTED_EDGE('',*,*,#614,.T.);
#614 = EDGE_CURVE('',#607,#615,#617,.T.);
#615 = VERTEX_POINT('',#616);
#616 = CARTESIAN_POINT('',(-52.50098980667,-38.12149768516,0.));
#617 = LINE('',#618,#619);
#618 = CARTESIAN_POINT('',(-37.16741212962,-56.89717106024,0.));
#619 = VECTOR('',#620,1.);
#620 = DIRECTION('',(-0.632537319932,0.774529882505,0.));
#621 = ORIENTED_EDGE('',*,*,#622,.T.);
#622 = EDGE_CURVE('',#615,#623,#625,.T.);
#623 = VERTEX_POINT('',#624);
#624 = CARTESIAN_POINT('',(-53.03250195944,-33.18178307025,
    -4.336808689942E-16));
#625 = LINE('',#626,#627);
#626 = CARTESIAN_POINT('',(-52.50098980668,-38.12149768517,0.));
#627 = VECTOR('',#628,1.);
#628 = DIRECTION('',(-0.106982246755,0.994260930983,0.));
#629 = ORIENTED_EDGE('',*,*,#630,.T.);
#630 = EDGE_CURVE('',#623,#631,#633,.T.);
#631 = VERTEX_POINT('',#632);
#632 = CARTESIAN_POINT('',(-64.21640808094,-15.0007881163,
    -4.336808689942E-16));
#633 = LINE('',#634,#635);
#634 = CARTESIAN_POINT('',(-53.03250195944,-33.18178307025,0.));
#635 = VECTOR('',#636,1.);
#636 = DIRECTION('',(-0.52394795703,0.851750279321,0.));
#637 = ORIENTED_EDGE('',*,*,#638,.T.);
#638 = EDGE_CURVE('',#631,#639,#641,.T.);
#639 = VERTEX_POINT('',#640);
#640 = CARTESIAN_POINT('',(-52.75105328756,-4.170959716842,0.));
#641 = LINE('',#642,#643);
#642 = CARTESIAN_POINT('',(-64.21640808095,-15.00078811631,0.));
#643 = VECTOR('',#644,1.);
#644 = DIRECTION('',(0.726967644256,0.686671715017,0.));
#645 = ORIENTED_EDGE('',*,*,#646,.T.);
#646 = EDGE_CURVE('',#639,#647,#649,.T.);
#647 = VERTEX_POINT('',#648);
#648 = CARTESIAN_POINT('',(-51.50561588417,3.917575356603,
    -1.084202172485E-16));
#649 = LINE('',#650,#651);
#650 = CARTESIAN_POINT('',(-52.75105328756,-4.170959716841,0.));
#651 = VECTOR('',#652,1.);
#652 = DIRECTION('',(0.152182206598,0.988352455349,0.));
#653 = ORIENTED_EDGE('',*,*,#654,.T.);
#654 = EDGE_CURVE('',#647,#655,#657,.T.);
#655 = VERTEX_POINT('',#656);
#656 = CARTESIAN_POINT('',(-55.65664173809,18.986154278476,
    -2.168404344971E-16));
#657 = LINE('',#658,#659);
#658 = CARTESIAN_POINT('',(-51.50561588417,3.917575356603,0.));
#659 = VECTOR('',#660,1.);
#660 = DIRECTION('',(-0.265582741806,0.964088070279,0.));
#661 = ORIENTED_EDGE('',*,*,#662,.T.);
#662 = EDGE_CURVE('',#655,#663,#665,.T.);
#663 = VERTEX_POINT('',#664);
#664 = CARTESIAN_POINT('',(-56.00967094242,25.444449255295,
    1.084202172485E-16));
#665 = LINE('',#666,#667);
#666 = CARTESIAN_POINT('',(-55.65664173809,18.986154278477,0.));
#667 = VECTOR('',#668,1.);
#668 = DIRECTION('',(-5.458142637502E-02,0.998509322888,0.));
#669 = ORIENTED_EDGE('',*,*,#670,.T.);
#670 = EDGE_CURVE('',#663,#671,#673,.T.);
#671 = VERTEX_POINT('',#672);
#672 = CARTESIAN_POINT('',(-56.01303762139,45.395075400137,
    1.084202172485E-16));
#673 = LINE('',#674,#675);
#674 = CARTESIAN_POINT('',(-56.00967094243,25.444449255295,0.));
#675 = VECTOR('',#676,1.);
#676 = DIRECTION('',(-1.687505388365E-04,0.999999985762,0.));
#677 = ORIENTED_EDGE('',*,*,#678,.T.);
#678 = EDGE_CURVE('',#671,#679,#681,.T.);
#679 = VERTEX_POINT('',#680);
#680 = CARTESIAN_POINT('',(-55.6621835708,51.82653904559,0.));
#681 = LINE('',#682,#683);
#682 = CARTESIAN_POINT('',(-56.01303762139,45.395075400138,0.));
#683 = VECTOR('',#684,1.);
#684 = DIRECTION('',(5.447175960982E-02,0.998515311553,0.));
#685 = ORIENTED_EDGE('',*,*,#686,.T.);
#686 = EDGE_CURVE('',#679,#687,#689,.T.);
#687 = VERTEX_POINT('',#688);
#688 = CARTESIAN_POINT('',(-53.52363260749,71.01572068686,0.));
#689 = LINE('',#690,#691);
#690 = CARTESIAN_POINT('',(-55.6621835708,51.82653904559,0.));
#691 = VECTOR('',#692,1.);
#692 = DIRECTION('',(0.11075995322,0.993847187833,0.));
#693 = ORIENTED_EDGE('',*,*,#694,.T.);
#694 = EDGE_CURVE('',#687,#695,#697,.T.);
#695 = VERTEX_POINT('',#696);
#696 = CARTESIAN_POINT('',(-52.49280542572,76.982059382003,
    -1.084202172485E-16));
#697 = LINE('',#698,#699);
#698 = CARTESIAN_POINT('',(-53.5236326075,71.01572068686,0.));
#699 = VECTOR('',#700,1.);
#700 = DIRECTION('',(0.170251443875,0.985400652455,0.));
#701 = ORIENTED_EDGE('',*,*,#702,.T.);
#702 = EDGE_CURVE('',#695,#703,#705,.T.);
#703 = VERTEX_POINT('',#704);
#704 = CARTESIAN_POINT('',(-45.41228549276,97.937884527188,
    -1.084202172485E-16));
#705 = LINE('',#706,#707);
#706 = CARTESIAN_POINT('',(-52.49280542572,76.982059382003,0.));
#707 = VECTOR('',#708,1.);
#708 = DIRECTION('',(0.320100427129,0.947383616363,0.));
#709 = ORIENTED_EDGE('',*,*,#710,.T.);
#710 = EDGE_CURVE('',#703,#711,#713,.T.);
#711 = VERTEX_POINT('',#712);
#712 = CARTESIAN_POINT('',(-23.46248001185,100.03746233017,
    1.084202172485E-16));
#713 = LINE('',#714,#715);
#714 = CARTESIAN_POINT('',(-45.41228549277,97.937884527188,0.));
#715 = VECTOR('',#716,1.);
#716 = DIRECTION('',(0.995456350685,9.521897857151E-02,0.));
#717 = ORIENTED_EDGE('',*,*,#718,.T.);
#718 = EDGE_CURVE('',#711,#719,#721,.T.);
#719 = VERTEX_POINT('',#720);
#720 = CARTESIAN_POINT('',(-20.54196964185,100.05854787071,
    -2.168404344971E-16));
#721 = LINE('',#722,#723);
#722 = CARTESIAN_POINT('',(-23.46248001185,100.03746233017,0.));
#723 = VECTOR('',#724,1.);
#724 = DIRECTION('',(0.999973938165,7.219625456289E-03,0.));
#725 = ORIENTED_EDGE('',*,*,#726,.T.);
#726 = EDGE_CURVE('',#719,#727,#729,.T.);
#727 = VERTEX_POINT('',#728);
#728 = CARTESIAN_POINT('',(-3.708916324367,100.14960323875,0.));
#729 = LINE('',#730,#731);
#730 = CARTESIAN_POINT('',(-20.54196964192,100.05854787071,0.));
#731 = VECTOR('',#732,1.);
#732 = DIRECTION('',(0.999985369951,5.409240627815E-03,0.));
#733 = ORIENTED_EDGE('',*,*,#734,.T.);
#734 = EDGE_CURVE('',#727,#735,#737,.T.);
#735 = VERTEX_POINT('',#736);
#736 = CARTESIAN_POINT('',(-1.738420937724,103.03127756283,
    -1.084202172485E-16));
#737 = LINE('',#738,#739);
#738 = CARTESIAN_POINT('',(-3.708916324367,100.14960323875,0.));
#739 = VECTOR('',#740,1.);
#740 = DIRECTION('',(0.56445434032,0.825464292198,0.));
#741 = ORIENTED_EDGE('',*,*,#742,.T.);
#742 = EDGE_CURVE('',#735,#743,#745,.T.);
#743 = VERTEX_POINT('',#744);
#744 = CARTESIAN_POINT('',(18.86068044071,103.1277292105,
    1.084202172485E-16));
#745 = LINE('',#746,#747);
#746 = CARTESIAN_POINT('',(-1.738420937725,103.03127756283,0.));
#747 = VECTOR('',#748,1.);
#748 = DIRECTION('',(0.999989038106,4.682271745998E-03,0.));
#749 = ORIENTED_EDGE('',*,*,#750,.T.);
#750 = EDGE_CURVE('',#743,#751,#753,.T.);
#751 = VERTEX_POINT('',#752);
#752 = CARTESIAN_POINT('',(21.232029201568,100.26638480345,
    -2.168404344971E-16));
#753 = LINE('',#754,#755);
#754 = CARTESIAN_POINT('',(18.86068044071,103.1277292105,0.));
#755 = VECTOR('',#756,1.);
#756 = DIRECTION('',(0.638100913411,-0.769952741604,0.));
#757 = ORIENTED_EDGE('',*,*,#758,.T.);
#758 = EDGE_CURVE('',#751,#759,#761,.T.);
#759 = VERTEX_POINT('',#760);
#760 = CARTESIAN_POINT('',(45.364749812156,99.671799487341,
    -1.084202172485E-16));
#761 = LINE('',#762,#763);
#762 = CARTESIAN_POINT('',(21.232029201567,100.26638480345,0.));
#763 = VECTOR('',#764,1.);
#764 = DIRECTION('',(0.999696619178,-2.463066389884E-02,0.));
#765 = ORIENTED_EDGE('',*,*,#766,.T.);
#766 = EDGE_CURVE('',#759,#767,#769,.T.);
#767 = VERTEX_POINT('',#768);
#768 = CARTESIAN_POINT('',(45.581633653953,92.654081702323,
    -2.168404344971E-16));
#769 = LINE('',#770,#771);
#770 = CARTESIAN_POINT('',(45.364749812156,99.671799487344,0.));
#771 = VECTOR('',#772,1.);
#772 = DIRECTION('',(3.089043281834E-02,-0.999522776709,0.));
#773 = ORIENTED_EDGE('',*,*,#774,.T.);
#774 = EDGE_CURVE('',#767,#775,#777,.T.);
#775 = VERTEX_POINT('',#776);
#776 = CARTESIAN_POINT('',(60.796603643766,93.268957050612,
    1.084202172485E-16));
#777 = LINE('',#778,#779);
#778 = CARTESIAN_POINT('',(45.581633653953,92.654081702323,0.));
#779 = VECTOR('',#780,1.);
#780 = DIRECTION('',(0.99918441279,4.037956461499E-02,0.));
#781 = ORIENTED_EDGE('',*,*,#782,.T.);
#782 = EDGE_CURVE('',#775,#783,#785,.T.);
#783 = VERTEX_POINT('',#784);
#784 = CARTESIAN_POINT('',(63.421484627424,93.271001034143,0.));
#785 = LINE('',#786,#787);
#786 = CARTESIAN_POINT('',(60.796603643767,93.268957050612,0.));
#787 = VECTOR('',#788,1.);
#788 = DIRECTION('',(0.999999696817,7.786954623887E-04,0.));
#789 = ORIENTED_EDGE('',*,*,#790,.T.);
#790 = EDGE_CURVE('',#783,#71,#791,.T.);
#791 = LINE('',#792,#793);
#792 = CARTESIAN_POINT('',(63.421484627424,93.271001034143,0.));
#793 = VECTOR('',#794,1.);
#794 = DIRECTION('',(0.996702274255,-8.114540341607E-02,0.));
#795 = ORIENTED_EDGE('',*,*,#70,.T.);
#796 = FACE_BOUND('',#797,.T.);
#797 = EDGE_LOOP('',(#798));
#798 = ORIENTED_EDGE('',*,*,#799,.F.);
#799 = EDGE_CURVE('',#800,#800,#802,.T.);
#800 = VERTEX_POINT('',#801);
#801 = CARTESIAN_POINT('',(70.551388619748,-4.75166172086,0.));
#802 = CIRCLE('',#803,3.149999999999);
#803 = AXIS2_PLACEMENT_3D('',#804,#805,#806);
#804 = CARTESIAN_POINT('',(73.701388619747,-4.75166172086,0.));
#805 = DIRECTION('',(0.,0.,-1.));
#806 = DIRECTION('',(-1.,0.,0.));
#807 = FACE_BOUND('',#808,.T.);
#808 = EDGE_LOOP('',(#809));
#809 = ORIENTED_EDGE('',*,*,#810,.F.);
#810 = EDGE_CURVE('',#811,#811,#813,.T.);
#811 = VERTEX_POINT('',#812);
#812 = CARTESIAN_POINT('',(8.36803738573,-16.62038451986,0.));
#813 = CIRCLE('',#814,3.149999999999);
#814 = AXIS2_PLACEMENT_3D('',#815,#816,#817);
#815 = CARTESIAN_POINT('',(11.518037385729,-16.62038451986,0.));
#816 = DIRECTION('',(0.,0.,-1.));
#817 = DIRECTION('',(-1.,0.,0.));
#818 = FACE_BOUND('',#819,.T.);
#819 = EDGE_LOOP('',(#820));
#820 = ORIENTED_EDGE('',*,*,#821,.F.);
#821 = EDGE_CURVE('',#822,#822,#824,.T.);
#822 = VERTEX_POINT('',#823);
#823 = CARTESIAN_POINT('',(-47.68738835171,-33.4582886089,0.));
#824 = CIRCLE('',#825,3.149999999999);
#825 = AXIS2_PLACEMENT_3D('',#826,#827,#828);
#826 = CARTESIAN_POINT('',(-44.53738835172,-33.4582886089,0.));
#827 = DIRECTION('',(0.,0.,-1.));
#828 = DIRECTION('',(-1.,0.,0.));
#829 = FACE_BOUND('',#830,.T.);
#830 = EDGE_LOOP('',(#831));
#831 = ORIENTED_EDGE('',*,*,#832,.F.);
#832 = EDGE_CURVE('',#833,#833,#835,.T.);
#833 = VERTEX_POINT('',#834);
#834 = CARTESIAN_POINT('',(-50.83405349636,22.559164116739,0.));
#835 = CIRCLE('',#836,3.149999999999);
#836 = AXIS2_PLACEMENT_3D('',#837,#838,#839);
#837 = CARTESIAN_POINT('',(-47.68405349637,22.559164116739,0.));
#838 = DIRECTION('',(0.,0.,-1.));
#839 = DIRECTION('',(-1.,0.,0.));
#840 = FACE_BOUND('',#841,.T.);
#841 = EDGE_LOOP('',(#842));
#842 = ORIENTED_EDGE('',*,*,#843,.F.);
#843 = EDGE_CURVE('',#844,#844,#846,.T.);
#844 = VERTEX_POINT('',#845);
#845 = CARTESIAN_POINT('',(78.088374463586,54.853895526734,0.));
#846 = CIRCLE('',#847,3.149999999999);
#847 = AXIS2_PLACEMENT_3D('',#848,#849,#850);
#848 = CARTESIAN_POINT('',(81.238374463585,54.853895526734,0.));
#849 = DIRECTION('',(0.,0.,-1.));
#850 = DIRECTION('',(-1.,0.,0.));
#851 = FACE_BOUND('',#852,.T.);
#852 = EDGE_LOOP('',(#853));
#853 = ORIENTED_EDGE('',*,*,#854,.F.);
#854 = EDGE_CURVE('',#855,#855,#857,.T.);
#855 = VERTEX_POINT('',#856);
#856 = CARTESIAN_POINT('',(49.140405940394,85.007880863003,0.));
#857 = CIRCLE('',#858,3.149999999999);
#858 = AXIS2_PLACEMENT_3D('',#859,#860,#861);
#859 = CARTESIAN_POINT('',(52.290405940393,85.007880863003,0.));
#860 = DIRECTION('',(0.,0.,-1.));
#861 = DIRECTION('',(-1.,0.,0.));
#862 = FACE_BOUND('',#863,.T.);
#863 = EDGE_LOOP('',(#864));
#864 = ORIENTED_EDGE('',*,*,#865,.F.);
#865 = EDGE_CURVE('',#866,#866,#868,.T.);
#866 = VERTEX_POINT('',#867);
#867 = CARTESIAN_POINT('',(13.175973286533,95.013083618946,0.));
#868 = CIRCLE('',#869,3.149999999999);
#869 = AXIS2_PLACEMENT_3D('',#870,#871,#872);
#870 = CARTESIAN_POINT('',(16.325973286532,95.013083618946,0.));
#871 = DIRECTION('',(0.,0.,-1.));
#872 = DIRECTION('',(-1.,0.,0.));
#873 = FACE_BOUND('',#874,.T.);
#874 = EDGE_LOOP('',(#875));
#875 = ORIENTED_EDGE('',*,*,#876,.F.);
#876 = EDGE_CURVE('',#877,#877,#879,.T.);
#877 = VERTEX_POINT('',#878);
#878 = CARTESIAN_POINT('',(-44.84908344176,84.531427981148,0.));
#879 = CIRCLE('',#880,3.149999999999);
#880 = AXIS2_PLACEMENT_3D('',#881,#882,#883);
#881 = CARTESIAN_POINT('',(-41.69908344177,84.531427981148,0.));
#882 = DIRECTION('',(0.,0.,-1.));
#883 = DIRECTION('',(-1.,0.,0.));
#884 = PLANE('',#885);
#885 = AXIS2_PLACEMENT_3D('',#886,#887,#888);
#886 = CARTESIAN_POINT('',(11.760970759722,29.171150871107,0.));
#887 = DIRECTION('',(0.,0.,-1.));
#888 = DIRECTION('',(-1.,0.,0.));
#889 = ADVANCED_FACE('',(#890),#901,.F.);
#890 = FACE_BOUND('',#891,.T.);
#891 = EDGE_LOOP('',(#892,#893,#894,#895));
#892 = ORIENTED_EDGE('',*,*,#124,.T.);
#893 = ORIENTED_EDGE('',*,*,#78,.F.);
#894 = ORIENTED_EDGE('',*,*,#790,.F.);
#895 = ORIENTED_EDGE('',*,*,#896,.T.);
#896 = EDGE_CURVE('',#783,#125,#897,.T.);
#897 = LINE('',#898,#899);
#898 = CARTESIAN_POINT('',(63.421484627424,93.271001034143,3.));
#899 = VECTOR('',#900,1.);
#900 = DIRECTION('',(0.,0.,1.));
#901 = PLANE('',#902);
#902 = AXIS2_PLACEMENT_3D('',#903,#904,#905);
#903 = CARTESIAN_POINT('',(63.421484627424,93.271001034143,3.));
#904 = DIRECTION('',(-8.114540341607E-02,-0.996702274255,0.));
#905 = DIRECTION('',(0.996702274255,-8.114540341607E-02,0.));
#906 = ADVANCED_FACE('',(#907),#918,.F.);
#907 = FACE_BOUND('',#908,.T.);
#908 = EDGE_LOOP('',(#909,#910,#916,#917));
#909 = ORIENTED_EDGE('',*,*,#404,.T.);
#910 = ORIENTED_EDGE('',*,*,#911,.F.);
#911 = EDGE_CURVE('',#511,#397,#912,.T.);
#912 = LINE('',#913,#914);
#913 = CARTESIAN_POINT('',(89.321562547489,38.807710755652,3.));
#914 = VECTOR('',#915,1.);
#915 = DIRECTION('',(0.,0.,1.));
#916 = ORIENTED_EDGE('',*,*,#510,.F.);
#917 = ORIENTED_EDGE('',*,*,#100,.T.);
#918 = PLANE('',#919);
#919 = AXIS2_PLACEMENT_3D('',#920,#921,#922);
#920 = CARTESIAN_POINT('',(89.460119976401,45.285956829922,3.));
#921 = DIRECTION('',(-0.999771352854,2.138321801359E-02,0.));
#922 = DIRECTION('',(-2.138321801359E-02,-0.999771352854,0.));
#923 = ADVANCED_FACE('',(#924),#935,.F.);
#924 = FACE_BOUND('',#925,.T.);
#925 = EDGE_LOOP('',(#926,#927,#928,#929));
#926 = ORIENTED_EDGE('',*,*,#132,.T.);
#927 = ORIENTED_EDGE('',*,*,#896,.F.);
#928 = ORIENTED_EDGE('',*,*,#782,.F.);
#929 = ORIENTED_EDGE('',*,*,#930,.T.);
#930 = EDGE_CURVE('',#775,#133,#931,.T.);
#931 = LINE('',#932,#933);
#932 = CARTESIAN_POINT('',(60.796603643767,93.268957050611,3.));
#933 = VECTOR('',#934,1.);
#934 = DIRECTION('',(0.,0.,1.));
#935 = PLANE('',#936);
#936 = AXIS2_PLACEMENT_3D('',#937,#938,#939);
#937 = CARTESIAN_POINT('',(60.796603643767,93.268957050612,3.));
#938 = DIRECTION('',(7.786954625278E-04,-0.999999696817,0.));
#939 = DIRECTION('',(0.999999696817,7.786954625278E-04,0.));
#940 = ADVANCED_FACE('',(#941),#952,.F.);
#941 = FACE_BOUND('',#942,.T.);
#942 = EDGE_LOOP('',(#943,#944,#950,#951));
#943 = ORIENTED_EDGE('',*,*,#396,.T.);
#944 = ORIENTED_EDGE('',*,*,#945,.F.);
#945 = EDGE_CURVE('',#519,#389,#946,.T.);
#946 = LINE('',#947,#948);
#947 = CARTESIAN_POINT('',(89.237075427186,18.949699753516,3.));
#948 = VECTOR('',#949,1.);
#949 = DIRECTION('',(0.,0.,1.));
#950 = ORIENTED_EDGE('',*,*,#518,.F.);
#951 = ORIENTED_EDGE('',*,*,#911,.T.);
#952 = PLANE('',#953);
#953 = AXIS2_PLACEMENT_3D('',#954,#955,#956);
#954 = CARTESIAN_POINT('',(89.321562547488,38.807710755652,3.));
#955 = DIRECTION('',(-0.999990949478,4.254522552138E-03,0.));
#956 = DIRECTION('',(-4.254522552138E-03,-0.999990949478,0.));
#957 = ADVANCED_FACE('',(#958),#969,.F.);
#958 = FACE_BOUND('',#959,.T.);
#959 = EDGE_LOOP('',(#960,#961,#962,#963));
#960 = ORIENTED_EDGE('',*,*,#140,.T.);
#961 = ORIENTED_EDGE('',*,*,#930,.F.);
#962 = ORIENTED_EDGE('',*,*,#774,.F.);
#963 = ORIENTED_EDGE('',*,*,#964,.T.);
#964 = EDGE_CURVE('',#767,#141,#965,.T.);
#965 = LINE('',#966,#967);
#966 = CARTESIAN_POINT('',(45.581633653953,92.654081702323,3.));
#967 = VECTOR('',#968,1.);
#968 = DIRECTION('',(0.,0.,1.));
#969 = PLANE('',#970);
#970 = AXIS2_PLACEMENT_3D('',#971,#972,#973);
#971 = CARTESIAN_POINT('',(45.581633653953,92.654081702323,3.));
#972 = DIRECTION('',(4.037956461495E-02,-0.99918441279,0.));
#973 = DIRECTION('',(0.99918441279,4.037956461495E-02,0.));
#974 = ADVANCED_FACE('',(#975),#986,.F.);
#975 = FACE_BOUND('',#976,.T.);
#976 = EDGE_LOOP('',(#977,#978,#984,#985));
#977 = ORIENTED_EDGE('',*,*,#388,.T.);
#978 = ORIENTED_EDGE('',*,*,#979,.F.);
#979 = EDGE_CURVE('',#527,#381,#980,.T.);
#980 = LINE('',#981,#982);
#981 = CARTESIAN_POINT('',(89.416451955096,12.480552712793,3.));
#982 = VECTOR('',#983,1.);
#983 = DIRECTION('',(0.,0.,1.));
#984 = ORIENTED_EDGE('',*,*,#526,.F.);
#985 = ORIENTED_EDGE('',*,*,#945,.T.);
#986 = PLANE('',#987);
#987 = AXIS2_PLACEMENT_3D('',#988,#989,#990);
#988 = CARTESIAN_POINT('',(89.237075427187,18.949699753516,3.));
#989 = DIRECTION('',(-0.999615800455,-2.771734981446E-02,0.));
#990 = DIRECTION('',(2.771734981446E-02,-0.999615800455,0.));
#991 = ADVANCED_FACE('',(#992),#1003,.F.);
#992 = FACE_BOUND('',#993,.T.);
#993 = EDGE_LOOP('',(#994,#995,#996,#997));
#994 = ORIENTED_EDGE('',*,*,#148,.T.);
#995 = ORIENTED_EDGE('',*,*,#964,.F.);
#996 = ORIENTED_EDGE('',*,*,#766,.F.);
#997 = ORIENTED_EDGE('',*,*,#998,.T.);
#998 = EDGE_CURVE('',#759,#149,#999,.T.);
#999 = LINE('',#1000,#1001);
#1000 = CARTESIAN_POINT('',(45.364749812156,99.671799487338,3.));
#1001 = VECTOR('',#1002,1.);
#1002 = DIRECTION('',(0.,0.,1.));
#1003 = PLANE('',#1004);
#1004 = AXIS2_PLACEMENT_3D('',#1005,#1006,#1007);
#1005 = CARTESIAN_POINT('',(45.364749812156,99.671799487344,3.));
#1006 = DIRECTION('',(-0.999522776709,-3.08904328184E-02,0.));
#1007 = DIRECTION('',(3.08904328184E-02,-0.999522776709,0.));
#1008 = ADVANCED_FACE('',(#1009),#1020,.F.);
#1009 = FACE_BOUND('',#1010,.T.);
#1010 = EDGE_LOOP('',(#1011,#1012,#1018,#1019));
#1011 = ORIENTED_EDGE('',*,*,#380,.T.);
#1012 = ORIENTED_EDGE('',*,*,#1013,.F.);
#1013 = EDGE_CURVE('',#535,#373,#1014,.T.);
#1014 = LINE('',#1015,#1016);
#1015 = CARTESIAN_POINT('',(87.174588036211,-11.22378316333,3.));
#1016 = VECTOR('',#1017,1.);
#1017 = DIRECTION('',(0.,0.,1.));
#1018 = ORIENTED_EDGE('',*,*,#534,.F.);
#1019 = ORIENTED_EDGE('',*,*,#979,.T.);
#1020 = PLANE('',#1021);
#1021 = AXIS2_PLACEMENT_3D('',#1022,#1023,#1024);
#1022 = CARTESIAN_POINT('',(89.416451955096,12.480552712793,3.));
#1023 = DIRECTION('',(-0.99555746012,9.415595360627E-02,0.));
#1024 = DIRECTION('',(-9.415595360627E-02,-0.99555746012,0.));
#1025 = ADVANCED_FACE('',(#1026),#1037,.F.);
#1026 = FACE_BOUND('',#1027,.T.);
#1027 = EDGE_LOOP('',(#1028,#1029,#1030,#1031));
#1028 = ORIENTED_EDGE('',*,*,#156,.T.);
#1029 = ORIENTED_EDGE('',*,*,#998,.F.);
#1030 = ORIENTED_EDGE('',*,*,#758,.F.);
#1031 = ORIENTED_EDGE('',*,*,#1032,.T.);
#1032 = EDGE_CURVE('',#751,#157,#1033,.T.);
#1033 = LINE('',#1034,#1035);
#1034 = CARTESIAN_POINT('',(21.23202920157,100.26638480345,3.));
#1035 = VECTOR('',#1036,1.);
#1036 = DIRECTION('',(0.,0.,1.));
#1037 = PLANE('',#1038);
#1038 = AXIS2_PLACEMENT_3D('',#1039,#1040,#1041);
#1039 = CARTESIAN_POINT('',(21.232029201567,100.26638480345,3.));
#1040 = DIRECTION('',(-2.463066389908E-02,-0.999696619178,0.));
#1041 = DIRECTION('',(0.999696619178,-2.463066389908E-02,0.));
#1042 = ADVANCED_FACE('',(#1043),#1054,.F.);
#1043 = FACE_BOUND('',#1044,.T.);
#1044 = EDGE_LOOP('',(#1045,#1046,#1052,#1053));
#1045 = ORIENTED_EDGE('',*,*,#372,.T.);
#1046 = ORIENTED_EDGE('',*,*,#1047,.F.);
#1047 = EDGE_CURVE('',#543,#365,#1048,.T.);
#1048 = LINE('',#1049,#1050);
#1049 = CARTESIAN_POINT('',(63.488919798702,-13.4004982779,3.));
#1050 = VECTOR('',#1051,1.);
#1051 = DIRECTION('',(0.,0.,1.));
#1052 = ORIENTED_EDGE('',*,*,#542,.F.);
#1053 = ORIENTED_EDGE('',*,*,#1013,.T.);
#1054 = PLANE('',#1055);
#1055 = AXIS2_PLACEMENT_3D('',#1056,#1057,#1058);
#1056 = CARTESIAN_POINT('',(87.174588036211,-11.22378316333,3.));
#1057 = DIRECTION('',(-9.151445706597E-02,0.995803747808,0.));
#1058 = DIRECTION('',(-0.995803747808,-9.151445706597E-02,0.));
#1059 = ADVANCED_FACE('',(#1060),#1071,.F.);
#1060 = FACE_BOUND('',#1061,.T.);
#1061 = EDGE_LOOP('',(#1062,#1063,#1064,#1065));
#1062 = ORIENTED_EDGE('',*,*,#164,.T.);
#1063 = ORIENTED_EDGE('',*,*,#1032,.F.);
#1064 = ORIENTED_EDGE('',*,*,#750,.F.);
#1065 = ORIENTED_EDGE('',*,*,#1066,.T.);
#1066 = EDGE_CURVE('',#743,#165,#1067,.T.);
#1067 = LINE('',#1068,#1069);
#1068 = CARTESIAN_POINT('',(18.86068044071,103.1277292105,3.));
#1069 = VECTOR('',#1070,1.);
#1070 = DIRECTION('',(0.,0.,1.));
#1071 = PLANE('',#1072);
#1072 = AXIS2_PLACEMENT_3D('',#1073,#1074,#1075);
#1073 = CARTESIAN_POINT('',(18.86068044071,103.1277292105,3.));
#1074 = DIRECTION('',(-0.769952741604,-0.638100913412,0.));
#1075 = DIRECTION('',(0.638100913412,-0.769952741604,0.));
#1076 = ADVANCED_FACE('',(#1077),#1088,.F.);
#1077 = FACE_BOUND('',#1078,.T.);
#1078 = EDGE_LOOP('',(#1079,#1080,#1086,#1087));
#1079 = ORIENTED_EDGE('',*,*,#364,.T.);
#1080 = ORIENTED_EDGE('',*,*,#1081,.F.);
#1081 = EDGE_CURVE('',#551,#357,#1082,.T.);
#1082 = LINE('',#1083,#1084);
#1083 = CARTESIAN_POINT('',(59.782276547547,-13.40338462505,3.));
#1084 = VECTOR('',#1085,1.);
#1085 = DIRECTION('',(0.,0.,1.));
#1086 = ORIENTED_EDGE('',*,*,#550,.F.);
#1087 = ORIENTED_EDGE('',*,*,#1047,.T.);
#1088 = PLANE('',#1089);
#1089 = AXIS2_PLACEMENT_3D('',#1090,#1091,#1092);
#1090 = CARTESIAN_POINT('',(63.488919798702,-13.4004982779,3.));
#1091 = DIRECTION('',(-7.786954625456E-04,0.999999696817,0.));
#1092 = DIRECTION('',(-0.999999696817,-7.786954625456E-04,0.));
#1093 = ADVANCED_FACE('',(#1094),#1105,.F.);
#1094 = FACE_BOUND('',#1095,.T.);
#1095 = EDGE_LOOP('',(#1096,#1097,#1098,#1099));
#1096 = ORIENTED_EDGE('',*,*,#172,.T.);
#1097 = ORIENTED_EDGE('',*,*,#1066,.F.);
#1098 = ORIENTED_EDGE('',*,*,#742,.F.);
#1099 = ORIENTED_EDGE('',*,*,#1100,.T.);
#1100 = EDGE_CURVE('',#735,#173,#1101,.T.);
#1101 = LINE('',#1102,#1103);
#1102 = CARTESIAN_POINT('',(-1.738420937724,103.03127756282,3.));
#1103 = VECTOR('',#1104,1.);
#1104 = DIRECTION('',(0.,0.,1.));
#1105 = PLANE('',#1106);
#1106 = AXIS2_PLACEMENT_3D('',#1107,#1108,#1109);
#1107 = CARTESIAN_POINT('',(-1.738420937725,103.03127756283,3.));
#1108 = DIRECTION('',(4.68227174605E-03,-0.999989038106,0.));
#1109 = DIRECTION('',(0.999989038106,4.68227174605E-03,0.));
#1110 = ADVANCED_FACE('',(#1111),#1122,.F.);
#1111 = FACE_BOUND('',#1112,.T.);
#1112 = EDGE_LOOP('',(#1113,#1114,#1120,#1121));
#1113 = ORIENTED_EDGE('',*,*,#356,.T.);
#1114 = ORIENTED_EDGE('',*,*,#1115,.F.);
#1115 = EDGE_CURVE('',#559,#349,#1116,.T.);
#1116 = LINE('',#1117,#1118);
#1117 = CARTESIAN_POINT('',(46.119789483265,-12.60910778186,3.));
#1118 = VECTOR('',#1119,1.);
#1119 = DIRECTION('',(0.,0.,1.));
#1120 = ORIENTED_EDGE('',*,*,#558,.F.);
#1121 = ORIENTED_EDGE('',*,*,#1081,.T.);
#1122 = PLANE('',#1123);
#1123 = AXIS2_PLACEMENT_3D('',#1124,#1125,#1126);
#1124 = CARTESIAN_POINT('',(59.782276547547,-13.40338462505,3.));
#1125 = DIRECTION('',(5.803760358913E-02,0.998314397657,0.));
#1126 = DIRECTION('',(-0.998314397657,5.803760358913E-02,0.));
#1127 = ADVANCED_FACE('',(#1128),#1139,.F.);
#1128 = FACE_BOUND('',#1129,.T.);
#1129 = EDGE_LOOP('',(#1130,#1131,#1132,#1133));
#1130 = ORIENTED_EDGE('',*,*,#180,.T.);
#1131 = ORIENTED_EDGE('',*,*,#1100,.F.);
#1132 = ORIENTED_EDGE('',*,*,#734,.F.);
#1133 = ORIENTED_EDGE('',*,*,#1134,.T.);
#1134 = EDGE_CURVE('',#727,#181,#1135,.T.);
#1135 = LINE('',#1136,#1137);
#1136 = CARTESIAN_POINT('',(-3.708916324367,100.14960323875,3.));
#1137 = VECTOR('',#1138,1.);
#1138 = DIRECTION('',(0.,0.,1.));
#1139 = PLANE('',#1140);
#1140 = AXIS2_PLACEMENT_3D('',#1141,#1142,#1143);
#1141 = CARTESIAN_POINT('',(-3.708916324367,100.14960323875,3.));
#1142 = DIRECTION('',(0.825464292198,-0.56445434032,0.));
#1143 = DIRECTION('',(0.56445434032,0.825464292198,0.));
#1144 = ADVANCED_FACE('',(#1145),#1156,.F.);
#1145 = FACE_BOUND('',#1146,.T.);
#1146 = EDGE_LOOP('',(#1147,#1148,#1154,#1155));
#1147 = ORIENTED_EDGE('',*,*,#348,.T.);
#1148 = ORIENTED_EDGE('',*,*,#1149,.F.);
#1149 = EDGE_CURVE('',#567,#341,#1150,.T.);
#1150 = LINE('',#1151,#1152);
#1151 = CARTESIAN_POINT('',(43.418929037058,-27.01381154885,3.));
#1152 = VECTOR('',#1153,1.);
#1153 = DIRECTION('',(0.,0.,1.));
#1154 = ORIENTED_EDGE('',*,*,#566,.F.);
#1155 = ORIENTED_EDGE('',*,*,#1115,.T.);
#1156 = PLANE('',#1157);
#1157 = AXIS2_PLACEMENT_3D('',#1158,#1159,#1160);
#1158 = CARTESIAN_POINT('',(46.119789483265,-12.60910778187,3.));
#1159 = DIRECTION('',(-0.98287245278,0.184287117203,0.));
#1160 = DIRECTION('',(-0.184287117203,-0.98287245278,0.));
#1161 = ADVANCED_FACE('',(#1162),#1173,.F.);
#1162 = FACE_BOUND('',#1163,.T.);
#1163 = EDGE_LOOP('',(#1164,#1165,#1166,#1167));
#1164 = ORIENTED_EDGE('',*,*,#188,.T.);
#1165 = ORIENTED_EDGE('',*,*,#1134,.F.);
#1166 = ORIENTED_EDGE('',*,*,#726,.F.);
#1167 = ORIENTED_EDGE('',*,*,#1168,.T.);
#1168 = EDGE_CURVE('',#719,#189,#1169,.T.);
#1169 = LINE('',#1170,#1171);
#1170 = CARTESIAN_POINT('',(-20.54196964192,100.0585478707,3.));
#1171 = VECTOR('',#1172,1.);
#1172 = DIRECTION('',(0.,0.,1.));
#1173 = PLANE('',#1174);
#1174 = AXIS2_PLACEMENT_3D('',#1175,#1176,#1177);
#1175 = CARTESIAN_POINT('',(-20.54196964192,100.05854787071,3.));
#1176 = DIRECTION('',(5.409240627812E-03,-0.999985369951,0.));
#1177 = DIRECTION('',(0.999985369951,5.409240627812E-03,0.));
#1178 = ADVANCED_FACE('',(#1179),#1190,.F.);
#1179 = FACE_BOUND('',#1180,.T.);
#1180 = EDGE_LOOP('',(#1181,#1182,#1188,#1189));
#1181 = ORIENTED_EDGE('',*,*,#340,.T.);
#1182 = ORIENTED_EDGE('',*,*,#1183,.F.);
#1183 = EDGE_CURVE('',#575,#333,#1184,.T.);
#1184 = LINE('',#1185,#1186);
#1185 = CARTESIAN_POINT('',(21.938546149429,-27.27886087769,3.));
#1186 = VECTOR('',#1187,1.);
#1187 = DIRECTION('',(0.,0.,1.));
#1188 = ORIENTED_EDGE('',*,*,#574,.F.);
#1189 = ORIENTED_EDGE('',*,*,#1149,.T.);
#1190 = PLANE('',#1191);
#1191 = AXIS2_PLACEMENT_3D('',#1192,#1193,#1194);
#1192 = CARTESIAN_POINT('',(43.418929037056,-27.01381154885,3.));
#1193 = DIRECTION('',(-1.233819504481E-02,0.999923881575,0.));
#1194 = DIRECTION('',(-0.999923881575,-1.233819504481E-02,0.));
#1195 = ADVANCED_FACE('',(#1196),#1207,.F.);
#1196 = FACE_BOUND('',#1197,.T.);
#1197 = EDGE_LOOP('',(#1198,#1199,#1200,#1201));
#1198 = ORIENTED_EDGE('',*,*,#196,.T.);
#1199 = ORIENTED_EDGE('',*,*,#1168,.F.);
#1200 = ORIENTED_EDGE('',*,*,#718,.F.);
#1201 = ORIENTED_EDGE('',*,*,#1202,.T.);
#1202 = EDGE_CURVE('',#711,#197,#1203,.T.);
#1203 = LINE('',#1204,#1205);
#1204 = CARTESIAN_POINT('',(-23.46248001185,100.03746233017,3.));
#1205 = VECTOR('',#1206,1.);
#1206 = DIRECTION('',(0.,0.,1.));
#1207 = PLANE('',#1208);
#1208 = AXIS2_PLACEMENT_3D('',#1209,#1210,#1211);
#1209 = CARTESIAN_POINT('',(-23.46248001185,100.03746233017,3.));
#1210 = DIRECTION('',(7.219625455913E-03,-0.999973938165,0.));
#1211 = DIRECTION('',(0.999973938165,7.219625455913E-03,0.));
#1212 = ADVANCED_FACE('',(#1213),#1224,.F.);
#1213 = FACE_BOUND('',#1214,.T.);
#1214 = EDGE_LOOP('',(#1215,#1216,#1222,#1223));
#1215 = ORIENTED_EDGE('',*,*,#332,.T.);
#1216 = ORIENTED_EDGE('',*,*,#1217,.F.);
#1217 = EDGE_CURVE('',#583,#325,#1218,.T.);
#1218 = LINE('',#1219,#1220);
#1219 = CARTESIAN_POINT('',(1.863769287398,-21.26685824842,3.));
#1220 = VECTOR('',#1221,1.);
#1221 = DIRECTION('',(0.,0.,1.));
#1222 = ORIENTED_EDGE('',*,*,#582,.F.);
#1223 = ORIENTED_EDGE('',*,*,#1183,.T.);
#1224 = PLANE('',#1225);
#1225 = AXIS2_PLACEMENT_3D('',#1226,#1227,#1228);
#1226 = CARTESIAN_POINT('',(21.938546149429,-27.27886087769,3.));
#1227 = DIRECTION('',(0.286891213099,0.957963168314,0.));
#1228 = DIRECTION('',(-0.957963168314,0.286891213099,0.));
#1229 = ADVANCED_FACE('',(#1230),#1241,.F.);
#1230 = FACE_BOUND('',#1231,.T.);
#1231 = EDGE_LOOP('',(#1232,#1233,#1234,#1235));
#1232 = ORIENTED_EDGE('',*,*,#204,.T.);
#1233 = ORIENTED_EDGE('',*,*,#1202,.F.);
#1234 = ORIENTED_EDGE('',*,*,#710,.F.);
#1235 = ORIENTED_EDGE('',*,*,#1236,.T.);
#1236 = EDGE_CURVE('',#703,#205,#1237,.T.);
#1237 = LINE('',#1238,#1239);
#1238 = CARTESIAN_POINT('',(-45.41228549276,97.937884527186,3.));
#1239 = VECTOR('',#1240,1.);
#1240 = DIRECTION('',(0.,0.,1.));
#1241 = PLANE('',#1242);
#1242 = AXIS2_PLACEMENT_3D('',#1243,#1244,#1245);
#1243 = CARTESIAN_POINT('',(-45.41228549277,97.937884527188,3.));
#1244 = DIRECTION('',(9.521897857165E-02,-0.995456350685,0.));
#1245 = DIRECTION('',(0.995456350685,9.521897857165E-02,0.));
#1246 = ADVANCED_FACE('',(#1247),#1258,.F.);
#1247 = FACE_BOUND('',#1248,.T.);
#1248 = EDGE_LOOP('',(#1249,#1250,#1256,#1257));
#1249 = ORIENTED_EDGE('',*,*,#324,.T.);
#1250 = ORIENTED_EDGE('',*,*,#1251,.F.);
#1251 = EDGE_CURVE('',#591,#317,#1252,.T.);
#1252 = LINE('',#1253,#1254);
#1253 = CARTESIAN_POINT('',(-1.549978118132,-38.13915533977,3.));
#1254 = VECTOR('',#1255,1.);
#1255 = DIRECTION('',(0.,0.,1.));
#1256 = ORIENTED_EDGE('',*,*,#590,.F.);
#1257 = ORIENTED_EDGE('',*,*,#1217,.T.);
#1258 = PLANE('',#1259);
#1259 = AXIS2_PLACEMENT_3D('',#1260,#1261,#1262);
#1260 = CARTESIAN_POINT('',(1.863769287397,-21.26685824843,3.));
#1261 = DIRECTION('',(-0.980139315537,0.198310166503,0.));
#1262 = DIRECTION('',(-0.198310166503,-0.980139315537,0.));
#1263 = ADVANCED_FACE('',(#1264),#1275,.F.);
#1264 = FACE_BOUND('',#1265,.T.);
#1265 = EDGE_LOOP('',(#1266,#1267,#1268,#1269));
#1266 = ORIENTED_EDGE('',*,*,#212,.T.);
#1267 = ORIENTED_EDGE('',*,*,#1236,.F.);
#1268 = ORIENTED_EDGE('',*,*,#702,.F.);
#1269 = ORIENTED_EDGE('',*,*,#1270,.T.);
#1270 = EDGE_CURVE('',#695,#213,#1271,.T.);
#1271 = LINE('',#1272,#1273);
#1272 = CARTESIAN_POINT('',(-52.49280542571,76.982059382003,3.));
#1273 = VECTOR('',#1274,1.);
#1274 = DIRECTION('',(0.,0.,1.));
#1275 = PLANE('',#1276);
#1276 = AXIS2_PLACEMENT_3D('',#1277,#1278,#1279);
#1277 = CARTESIAN_POINT('',(-52.49280542572,76.982059382003,3.));
#1278 = DIRECTION('',(0.947383616362,-0.320100427129,0.));
#1279 = DIRECTION('',(0.320100427129,0.947383616362,0.));
#1280 = ADVANCED_FACE('',(#1281),#1292,.F.);
#1281 = FACE_BOUND('',#1282,.T.);
#1282 = EDGE_LOOP('',(#1283,#1284,#1290,#1291));
#1283 = ORIENTED_EDGE('',*,*,#316,.T.);
#1284 = ORIENTED_EDGE('',*,*,#1285,.F.);
#1285 = EDGE_CURVE('',#599,#309,#1286,.T.);
#1286 = LINE('',#1287,#1288);
#1287 = CARTESIAN_POINT('',(-17.24519886178,-45.98637540405,3.));
#1288 = VECTOR('',#1289,1.);
#1289 = DIRECTION('',(0.,0.,1.));
#1290 = ORIENTED_EDGE('',*,*,#598,.F.);
#1291 = ORIENTED_EDGE('',*,*,#1251,.T.);
#1292 = PLANE('',#1293);
#1293 = AXIS2_PLACEMENT_3D('',#1294,#1295,#1296);
#1294 = CARTESIAN_POINT('',(-1.549978118131,-38.13915533977,3.));
#1295 = DIRECTION('',(-0.447195801197,0.89443608793,0.));
#1296 = DIRECTION('',(-0.89443608793,-0.447195801197,0.));
#1297 = ADVANCED_FACE('',(#1298),#1309,.F.);
#1298 = FACE_BOUND('',#1299,.T.);
#1299 = EDGE_LOOP('',(#1300,#1301,#1302,#1303));
#1300 = ORIENTED_EDGE('',*,*,#220,.T.);
#1301 = ORIENTED_EDGE('',*,*,#1270,.F.);
#1302 = ORIENTED_EDGE('',*,*,#694,.F.);
#1303 = ORIENTED_EDGE('',*,*,#1304,.T.);
#1304 = EDGE_CURVE('',#687,#221,#1305,.T.);
#1305 = LINE('',#1306,#1307);
#1306 = CARTESIAN_POINT('',(-53.52363260749,71.01572068686,3.));
#1307 = VECTOR('',#1308,1.);
#1308 = DIRECTION('',(0.,0.,1.));
#1309 = PLANE('',#1310);
#1310 = AXIS2_PLACEMENT_3D('',#1311,#1312,#1313);
#1311 = CARTESIAN_POINT('',(-53.5236326075,71.01572068686,3.));
#1312 = DIRECTION('',(0.985400652455,-0.170251443875,0.));
#1313 = DIRECTION('',(0.170251443875,0.985400652455,0.));
#1314 = ADVANCED_FACE('',(#1315),#1326,.F.);
#1315 = FACE_BOUND('',#1316,.T.);
#1316 = EDGE_LOOP('',(#1317,#1318,#1324,#1325));
#1317 = ORIENTED_EDGE('',*,*,#308,.T.);
#1318 = ORIENTED_EDGE('',*,*,#1319,.F.);
#1319 = EDGE_CURVE('',#607,#301,#1320,.T.);
#1320 = LINE('',#1321,#1322);
#1321 = CARTESIAN_POINT('',(-37.16741212962,-56.89717106022,3.));
#1322 = VECTOR('',#1323,1.);
#1323 = DIRECTION('',(0.,0.,1.));
#1324 = ORIENTED_EDGE('',*,*,#606,.F.);
#1325 = ORIENTED_EDGE('',*,*,#1285,.T.);
#1326 = PLANE('',#1327);
#1327 = AXIS2_PLACEMENT_3D('',#1328,#1329,#1330);
#1328 = CARTESIAN_POINT('',(-17.24519886178,-45.98637540406,3.));
#1329 = DIRECTION('',(-0.48034890411,0.877077493908,0.));
#1330 = DIRECTION('',(-0.877077493908,-0.48034890411,0.));
#1331 = ADVANCED_FACE('',(#1332),#1343,.F.);
#1332 = FACE_BOUND('',#1333,.T.);
#1333 = EDGE_LOOP('',(#1334,#1335,#1336,#1337));
#1334 = ORIENTED_EDGE('',*,*,#228,.T.);
#1335 = ORIENTED_EDGE('',*,*,#1304,.F.);
#1336 = ORIENTED_EDGE('',*,*,#686,.F.);
#1337 = ORIENTED_EDGE('',*,*,#1338,.T.);
#1338 = EDGE_CURVE('',#679,#229,#1339,.T.);
#1339 = LINE('',#1340,#1341);
#1340 = CARTESIAN_POINT('',(-55.6621835708,51.82653904559,3.));
#1341 = VECTOR('',#1342,1.);
#1342 = DIRECTION('',(0.,0.,1.));
#1343 = PLANE('',#1344);
#1344 = AXIS2_PLACEMENT_3D('',#1345,#1346,#1347);
#1345 = CARTESIAN_POINT('',(-55.6621835708,51.82653904559,3.));
#1346 = DIRECTION('',(0.993847187833,-0.11075995322,0.));
#1347 = DIRECTION('',(0.11075995322,0.993847187833,0.));
#1348 = ADVANCED_FACE('',(#1349),#1360,.F.);
#1349 = FACE_BOUND('',#1350,.T.);
#1350 = EDGE_LOOP('',(#1351,#1352,#1358,#1359));
#1351 = ORIENTED_EDGE('',*,*,#300,.T.);
#1352 = ORIENTED_EDGE('',*,*,#1353,.F.);
#1353 = EDGE_CURVE('',#615,#293,#1354,.T.);
#1354 = LINE('',#1355,#1356);
#1355 = CARTESIAN_POINT('',(-52.50098980667,-38.12149768516,3.));
#1356 = VECTOR('',#1357,1.);
#1357 = DIRECTION('',(0.,0.,1.));
#1358 = ORIENTED_EDGE('',*,*,#614,.F.);
#1359 = ORIENTED_EDGE('',*,*,#1319,.T.);
#1360 = PLANE('',#1361);
#1361 = AXIS2_PLACEMENT_3D('',#1362,#1363,#1364);
#1362 = CARTESIAN_POINT('',(-37.16741212962,-56.89717106024,3.));
#1363 = DIRECTION('',(0.774529882505,0.632537319932,0.));
#1364 = DIRECTION('',(-0.632537319932,0.774529882505,0.));
#1365 = ADVANCED_FACE('',(#1366),#1377,.F.);
#1366 = FACE_BOUND('',#1367,.T.);
#1367 = EDGE_LOOP('',(#1368,#1369,#1370,#1371));
#1368 = ORIENTED_EDGE('',*,*,#236,.T.);
#1369 = ORIENTED_EDGE('',*,*,#1338,.F.);
#1370 = ORIENTED_EDGE('',*,*,#678,.F.);
#1371 = ORIENTED_EDGE('',*,*,#1372,.T.);
#1372 = EDGE_CURVE('',#671,#237,#1373,.T.);
#1373 = LINE('',#1374,#1375);
#1374 = CARTESIAN_POINT('',(-56.01303762139,45.395075400138,3.));
#1375 = VECTOR('',#1376,1.);
#1376 = DIRECTION('',(0.,0.,1.));
#1377 = PLANE('',#1378);
#1378 = AXIS2_PLACEMENT_3D('',#1379,#1380,#1381);
#1379 = CARTESIAN_POINT('',(-56.01303762139,45.395075400138,3.));
#1380 = DIRECTION('',(0.998515311553,-5.447175960964E-02,0.));
#1381 = DIRECTION('',(5.447175960964E-02,0.998515311553,0.));
#1382 = ADVANCED_FACE('',(#1383),#1394,.F.);
#1383 = FACE_BOUND('',#1384,.T.);
#1384 = EDGE_LOOP('',(#1385,#1386,#1392,#1393));
#1385 = ORIENTED_EDGE('',*,*,#292,.T.);
#1386 = ORIENTED_EDGE('',*,*,#1387,.F.);
#1387 = EDGE_CURVE('',#623,#285,#1388,.T.);
#1388 = LINE('',#1389,#1390);
#1389 = CARTESIAN_POINT('',(-53.03250195944,-33.18178307025,3.));
#1390 = VECTOR('',#1391,1.);
#1391 = DIRECTION('',(0.,0.,1.));
#1392 = ORIENTED_EDGE('',*,*,#622,.F.);
#1393 = ORIENTED_EDGE('',*,*,#1353,.T.);
#1394 = PLANE('',#1395);
#1395 = AXIS2_PLACEMENT_3D('',#1396,#1397,#1398);
#1396 = CARTESIAN_POINT('',(-52.50098980668,-38.12149768517,3.));
#1397 = DIRECTION('',(0.994260930983,0.106982246756,0.));
#1398 = DIRECTION('',(-0.106982246756,0.994260930983,0.));
#1399 = ADVANCED_FACE('',(#1400),#1411,.F.);
#1400 = FACE_BOUND('',#1401,.T.);
#1401 = EDGE_LOOP('',(#1402,#1403,#1404,#1405));
#1402 = ORIENTED_EDGE('',*,*,#244,.T.);
#1403 = ORIENTED_EDGE('',*,*,#1372,.F.);
#1404 = ORIENTED_EDGE('',*,*,#670,.F.);
#1405 = ORIENTED_EDGE('',*,*,#1406,.T.);
#1406 = EDGE_CURVE('',#663,#245,#1407,.T.);
#1407 = LINE('',#1408,#1409);
#1408 = CARTESIAN_POINT('',(-56.00967094242,25.444449255295,3.));
#1409 = VECTOR('',#1410,1.);
#1410 = DIRECTION('',(0.,0.,1.));
#1411 = PLANE('',#1412);
#1412 = AXIS2_PLACEMENT_3D('',#1413,#1414,#1415);
#1413 = CARTESIAN_POINT('',(-56.00967094243,25.444449255295,3.));
#1414 = DIRECTION('',(0.999999985762,1.687505390662E-04,0.));
#1415 = DIRECTION('',(-1.687505390662E-04,0.999999985762,0.));
#1416 = ADVANCED_FACE('',(#1417),#1428,.F.);
#1417 = FACE_BOUND('',#1418,.T.);
#1418 = EDGE_LOOP('',(#1419,#1420,#1426,#1427));
#1419 = ORIENTED_EDGE('',*,*,#284,.T.);
#1420 = ORIENTED_EDGE('',*,*,#1421,.F.);
#1421 = EDGE_CURVE('',#631,#277,#1422,.T.);
#1422 = LINE('',#1423,#1424);
#1423 = CARTESIAN_POINT('',(-64.21640808094,-15.0007881163,3.));
#1424 = VECTOR('',#1425,1.);
#1425 = DIRECTION('',(0.,0.,1.));
#1426 = ORIENTED_EDGE('',*,*,#630,.F.);
#1427 = ORIENTED_EDGE('',*,*,#1387,.T.);
#1428 = PLANE('',#1429);
#1429 = AXIS2_PLACEMENT_3D('',#1430,#1431,#1432);
#1430 = CARTESIAN_POINT('',(-53.03250195944,-33.18178307025,3.));
#1431 = DIRECTION('',(0.851750279321,0.52394795703,0.));
#1432 = DIRECTION('',(-0.52394795703,0.851750279321,0.));
#1433 = ADVANCED_FACE('',(#1434),#1445,.F.);
#1434 = FACE_BOUND('',#1435,.T.);
#1435 = EDGE_LOOP('',(#1436,#1437,#1438,#1439));
#1436 = ORIENTED_EDGE('',*,*,#252,.T.);
#1437 = ORIENTED_EDGE('',*,*,#1406,.F.);
#1438 = ORIENTED_EDGE('',*,*,#662,.F.);
#1439 = ORIENTED_EDGE('',*,*,#1440,.T.);
#1440 = EDGE_CURVE('',#655,#253,#1441,.T.);
#1441 = LINE('',#1442,#1443);
#1442 = CARTESIAN_POINT('',(-55.65664173809,18.986154278475,3.));
#1443 = VECTOR('',#1444,1.);
#1444 = DIRECTION('',(0.,0.,1.));
#1445 = PLANE('',#1446);
#1446 = AXIS2_PLACEMENT_3D('',#1447,#1448,#1449);
#1447 = CARTESIAN_POINT('',(-55.65664173809,18.986154278477,3.));
#1448 = DIRECTION('',(0.998509322888,5.458142637439E-02,0.));
#1449 = DIRECTION('',(-5.458142637439E-02,0.998509322888,0.));
#1450 = ADVANCED_FACE('',(#1451),#1462,.F.);
#1451 = FACE_BOUND('',#1452,.T.);
#1452 = EDGE_LOOP('',(#1453,#1454,#1460,#1461));
#1453 = ORIENTED_EDGE('',*,*,#276,.T.);
#1454 = ORIENTED_EDGE('',*,*,#1455,.F.);
#1455 = EDGE_CURVE('',#639,#269,#1456,.T.);
#1456 = LINE('',#1457,#1458);
#1457 = CARTESIAN_POINT('',(-52.75105328755,-4.170959716843,3.));
#1458 = VECTOR('',#1459,1.);
#1459 = DIRECTION('',(0.,0.,1.));
#1460 = ORIENTED_EDGE('',*,*,#638,.F.);
#1461 = ORIENTED_EDGE('',*,*,#1421,.T.);
#1462 = PLANE('',#1463);
#1463 = AXIS2_PLACEMENT_3D('',#1464,#1465,#1466);
#1464 = CARTESIAN_POINT('',(-64.21640808095,-15.00078811631,3.));
#1465 = DIRECTION('',(0.686671715017,-0.726967644256,0.));
#1466 = DIRECTION('',(0.726967644256,0.686671715017,0.));
#1467 = ADVANCED_FACE('',(#1468),#1479,.F.);
#1468 = FACE_BOUND('',#1469,.T.);
#1469 = EDGE_LOOP('',(#1470,#1471,#1472,#1473));
#1470 = ORIENTED_EDGE('',*,*,#260,.T.);
#1471 = ORIENTED_EDGE('',*,*,#1440,.F.);
#1472 = ORIENTED_EDGE('',*,*,#654,.F.);
#1473 = ORIENTED_EDGE('',*,*,#1474,.T.);
#1474 = EDGE_CURVE('',#647,#261,#1475,.T.);
#1475 = LINE('',#1476,#1477);
#1476 = CARTESIAN_POINT('',(-51.50561588417,3.917575356603,3.));
#1477 = VECTOR('',#1478,1.);
#1478 = DIRECTION('',(0.,0.,1.));
#1479 = PLANE('',#1480);
#1480 = AXIS2_PLACEMENT_3D('',#1481,#1482,#1483);
#1481 = CARTESIAN_POINT('',(-51.50561588417,3.917575356603,3.));
#1482 = DIRECTION('',(0.964088070279,0.265582741806,0.));
#1483 = DIRECTION('',(-0.265582741806,0.964088070279,0.));
#1484 = ADVANCED_FACE('',(#1485),#1491,.F.);
#1485 = FACE_BOUND('',#1486,.T.);
#1486 = EDGE_LOOP('',(#1487,#1488,#1489,#1490));
#1487 = ORIENTED_EDGE('',*,*,#268,.T.);
#1488 = ORIENTED_EDGE('',*,*,#1474,.F.);
#1489 = ORIENTED_EDGE('',*,*,#646,.F.);
#1490 = ORIENTED_EDGE('',*,*,#1455,.T.);
#1491 = PLANE('',#1492);
#1492 = AXIS2_PLACEMENT_3D('',#1493,#1494,#1495);
#1493 = CARTESIAN_POINT('',(-52.75105328756,-4.170959716841,3.));
#1494 = DIRECTION('',(0.988352455349,-0.152182206598,0.));
#1495 = DIRECTION('',(0.152182206598,0.988352455349,0.));
#1496 = ADVANCED_FACE('',(#1497),#1515,.F.);
#1497 = FACE_BOUND('',#1498,.F.);
#1498 = EDGE_LOOP('',(#1499,#1508,#1513,#1514));
#1499 = ORIENTED_EDGE('',*,*,#1500,.F.);
#1500 = EDGE_CURVE('',#1501,#1501,#1503,.T.);
#1501 = VERTEX_POINT('',#1502);
#1502 = CARTESIAN_POINT('',(72.001388619747,-4.75166172086,1.45));
#1503 = CIRCLE('',#1504,1.7);
#1504 = AXIS2_PLACEMENT_3D('',#1505,#1506,#1507);
#1505 = CARTESIAN_POINT('',(73.701388619747,-4.75166172086,1.45));
#1506 = DIRECTION('',(0.,0.,-1.));
#1507 = DIRECTION('',(-1.,0.,0.));
#1508 = ORIENTED_EDGE('',*,*,#1509,.F.);
#1509 = EDGE_CURVE('',#415,#1501,#1510,.T.);
#1510 = B_SPLINE_CURVE_WITH_KNOTS('',1,(#1511,#1512),.UNSPECIFIED.,.F.,
  .F.,(2,2),(1.,2.55),.PIECEWISE_BEZIER_KNOTS.);
#1511 = CARTESIAN_POINT('',(72.001388619747,-4.75166172086,3.));
#1512 = CARTESIAN_POINT('',(72.001388619747,-4.75166172086,1.45));
#1513 = ORIENTED_EDGE('',*,*,#414,.T.);
#1514 = ORIENTED_EDGE('',*,*,#1509,.T.);
#1515 = CYLINDRICAL_SURFACE('',#1516,1.7);
#1516 = AXIS2_PLACEMENT_3D('',#1517,#1518,#1519);
#1517 = CARTESIAN_POINT('',(73.701388619747,-4.75166172086,4.));
#1518 = DIRECTION('',(0.,0.,-1.));
#1519 = DIRECTION('',(1.,0.,0.));
#1520 = ADVANCED_FACE('',(#1521),#1539,.F.);
#1521 = FACE_BOUND('',#1522,.F.);
#1522 = EDGE_LOOP('',(#1523,#1532,#1537,#1538));
#1523 = ORIENTED_EDGE('',*,*,#1524,.F.);
#1524 = EDGE_CURVE('',#1525,#1525,#1527,.T.);
#1525 = VERTEX_POINT('',#1526);
#1526 = CARTESIAN_POINT('',(9.818037385729,-16.62038451986,1.45));
#1527 = CIRCLE('',#1528,1.7);
#1528 = AXIS2_PLACEMENT_3D('',#1529,#1530,#1531);
#1529 = CARTESIAN_POINT('',(11.518037385729,-16.62038451986,1.45));
#1530 = DIRECTION('',(0.,0.,-1.));
#1531 = DIRECTION('',(-1.,0.,0.));
#1532 = ORIENTED_EDGE('',*,*,#1533,.F.);
#1533 = EDGE_CURVE('',#426,#1525,#1534,.T.);
#1534 = B_SPLINE_CURVE_WITH_KNOTS('',1,(#1535,#1536),.UNSPECIFIED.,.F.,
  .F.,(2,2),(1.,2.55),.PIECEWISE_BEZIER_KNOTS.);
#1535 = CARTESIAN_POINT('',(9.818037385729,-16.62038451986,3.));
#1536 = CARTESIAN_POINT('',(9.818037385729,-16.62038451986,1.45));
#1537 = ORIENTED_EDGE('',*,*,#425,.T.);
#1538 = ORIENTED_EDGE('',*,*,#1533,.T.);
#1539 = CYLINDRICAL_SURFACE('',#1540,1.7);
#1540 = AXIS2_PLACEMENT_3D('',#1541,#1542,#1543);
#1541 = CARTESIAN_POINT('',(11.518037385729,-16.62038451986,4.));
#1542 = DIRECTION('',(0.,0.,-1.));
#1543 = DIRECTION('',(1.,0.,0.));
#1544 = ADVANCED_FACE('',(#1545),#1563,.F.);
#1545 = FACE_BOUND('',#1546,.F.);
#1546 = EDGE_LOOP('',(#1547,#1556,#1561,#1562));
#1547 = ORIENTED_EDGE('',*,*,#1548,.F.);
#1548 = EDGE_CURVE('',#1549,#1549,#1551,.T.);
#1549 = VERTEX_POINT('',#1550);
#1550 = CARTESIAN_POINT('',(-46.23738835172,-33.4582886089,1.45));
#1551 = CIRCLE('',#1552,1.7);
#1552 = AXIS2_PLACEMENT_3D('',#1553,#1554,#1555);
#1553 = CARTESIAN_POINT('',(-44.53738835172,-33.4582886089,1.45));
#1554 = DIRECTION('',(0.,0.,-1.));
#1555 = DIRECTION('',(-1.,0.,0.));
#1556 = ORIENTED_EDGE('',*,*,#1557,.F.);
#1557 = EDGE_CURVE('',#437,#1549,#1558,.T.);
#1558 = B_SPLINE_CURVE_WITH_KNOTS('',1,(#1559,#1560),.UNSPECIFIED.,.F.,
  .F.,(2,2),(1.,2.55),.PIECEWISE_BEZIER_KNOTS.);
#1559 = CARTESIAN_POINT('',(-46.23738835172,-33.4582886089,3.));
#1560 = CARTESIAN_POINT('',(-46.23738835172,-33.4582886089,1.45));
#1561 = ORIENTED_EDGE('',*,*,#436,.T.);
#1562 = ORIENTED_EDGE('',*,*,#1557,.T.);
#1563 = CYLINDRICAL_SURFACE('',#1564,1.7);
#1564 = AXIS2_PLACEMENT_3D('',#1565,#1566,#1567);
#1565 = CARTESIAN_POINT('',(-44.53738835172,-33.4582886089,4.));
#1566 = DIRECTION('',(0.,0.,-1.));
#1567 = DIRECTION('',(1.,0.,0.));
#1568 = ADVANCED_FACE('',(#1569),#1587,.F.);
#1569 = FACE_BOUND('',#1570,.F.);
#1570 = EDGE_LOOP('',(#1571,#1580,#1585,#1586));
#1571 = ORIENTED_EDGE('',*,*,#1572,.F.);
#1572 = EDGE_CURVE('',#1573,#1573,#1575,.T.);
#1573 = VERTEX_POINT('',#1574);
#1574 = CARTESIAN_POINT('',(-49.38405349637,22.559164116739,1.45));
#1575 = CIRCLE('',#1576,1.7);
#1576 = AXIS2_PLACEMENT_3D('',#1577,#1578,#1579);
#1577 = CARTESIAN_POINT('',(-47.68405349637,22.559164116739,1.45));
#1578 = DIRECTION('',(0.,0.,-1.));
#1579 = DIRECTION('',(-1.,0.,0.));
#1580 = ORIENTED_EDGE('',*,*,#1581,.F.);
#1581 = EDGE_CURVE('',#448,#1573,#1582,.T.);
#1582 = B_SPLINE_CURVE_WITH_KNOTS('',1,(#1583,#1584),.UNSPECIFIED.,.F.,
  .F.,(2,2),(1.,2.55),.PIECEWISE_BEZIER_KNOTS.);
#1583 = CARTESIAN_POINT('',(-49.38405349637,22.559164116739,3.));
#1584 = CARTESIAN_POINT('',(-49.38405349637,22.559164116739,1.45));
#1585 = ORIENTED_EDGE('',*,*,#447,.T.);
#1586 = ORIENTED_EDGE('',*,*,#1581,.T.);
#1587 = CYLINDRICAL_SURFACE('',#1588,1.7);
#1588 = AXIS2_PLACEMENT_3D('',#1589,#1590,#1591);
#1589 = CARTESIAN_POINT('',(-47.68405349637,22.559164116739,4.));
#1590 = DIRECTION('',(0.,0.,-1.));
#1591 = DIRECTION('',(1.,0.,0.));
#1592 = ADVANCED_FACE('',(#1593),#1611,.F.);
#1593 = FACE_BOUND('',#1594,.F.);
#1594 = EDGE_LOOP('',(#1595,#1604,#1609,#1610));
#1595 = ORIENTED_EDGE('',*,*,#1596,.F.);
#1596 = EDGE_CURVE('',#1597,#1597,#1599,.T.);
#1597 = VERTEX_POINT('',#1598);
#1598 = CARTESIAN_POINT('',(79.538374463585,54.853895526734,1.45));
#1599 = CIRCLE('',#1600,1.7);
#1600 = AXIS2_PLACEMENT_3D('',#1601,#1602,#1603);
#1601 = CARTESIAN_POINT('',(81.238374463585,54.853895526734,1.45));
#1602 = DIRECTION('',(0.,0.,-1.));
#1603 = DIRECTION('',(-1.,0.,0.));
#1604 = ORIENTED_EDGE('',*,*,#1605,.F.);
#1605 = EDGE_CURVE('',#459,#1597,#1606,.T.);
#1606 = B_SPLINE_CURVE_WITH_KNOTS('',1,(#1607,#1608),.UNSPECIFIED.,.F.,
  .F.,(2,2),(1.,2.55),.PIECEWISE_BEZIER_KNOTS.);
#1607 = CARTESIAN_POINT('',(79.538374463585,54.853895526734,3.));
#1608 = CARTESIAN_POINT('',(79.538374463585,54.853895526734,1.45));
#1609 = ORIENTED_EDGE('',*,*,#458,.T.);
#1610 = ORIENTED_EDGE('',*,*,#1605,.T.);
#1611 = CYLINDRICAL_SURFACE('',#1612,1.7);
#1612 = AXIS2_PLACEMENT_3D('',#1613,#1614,#1615);
#1613 = CARTESIAN_POINT('',(81.238374463585,54.853895526734,4.));
#1614 = DIRECTION('',(0.,0.,-1.));
#1615 = DIRECTION('',(1.,0.,0.));
#1616 = ADVANCED_FACE('',(#1617),#1635,.F.);
#1617 = FACE_BOUND('',#1618,.F.);
#1618 = EDGE_LOOP('',(#1619,#1628,#1633,#1634));
#1619 = ORIENTED_EDGE('',*,*,#1620,.F.);
#1620 = EDGE_CURVE('',#1621,#1621,#1623,.T.);
#1621 = VERTEX_POINT('',#1622);
#1622 = CARTESIAN_POINT('',(50.590405940393,85.007880863003,1.45));
#1623 = CIRCLE('',#1624,1.7);
#1624 = AXIS2_PLACEMENT_3D('',#1625,#1626,#1627);
#1625 = CARTESIAN_POINT('',(52.290405940393,85.007880863003,1.45));
#1626 = DIRECTION('',(0.,0.,-1.));
#1627 = DIRECTION('',(-1.,0.,0.));
#1628 = ORIENTED_EDGE('',*,*,#1629,.F.);
#1629 = EDGE_CURVE('',#470,#1621,#1630,.T.);
#1630 = B_SPLINE_CURVE_WITH_KNOTS('',1,(#1631,#1632),.UNSPECIFIED.,.F.,
  .F.,(2,2),(1.,2.55),.PIECEWISE_BEZIER_KNOTS.);
#1631 = CARTESIAN_POINT('',(50.590405940393,85.007880863003,3.));
#1632 = CARTESIAN_POINT('',(50.590405940393,85.007880863003,1.45));
#1633 = ORIENTED_EDGE('',*,*,#469,.T.);
#1634 = ORIENTED_EDGE('',*,*,#1629,.T.);
#1635 = CYLINDRICAL_SURFACE('',#1636,1.7);
#1636 = AXIS2_PLACEMENT_3D('',#1637,#1638,#1639);
#1637 = CARTESIAN_POINT('',(52.290405940393,85.007880863003,4.));
#1638 = DIRECTION('',(0.,0.,-1.));
#1639 = DIRECTION('',(1.,0.,0.));
#1640 = ADVANCED_FACE('',(#1641),#1659,.F.);
#1641 = FACE_BOUND('',#1642,.F.);
#1642 = EDGE_LOOP('',(#1643,#1652,#1657,#1658));
#1643 = ORIENTED_EDGE('',*,*,#1644,.F.);
#1644 = EDGE_CURVE('',#1645,#1645,#1647,.T.);
#1645 = VERTEX_POINT('',#1646);
#1646 = CARTESIAN_POINT('',(14.625973286532,95.013083618946,1.45));
#1647 = CIRCLE('',#1648,1.7);
#1648 = AXIS2_PLACEMENT_3D('',#1649,#1650,#1651);
#1649 = CARTESIAN_POINT('',(16.325973286532,95.013083618946,1.45));
#1650 = DIRECTION('',(0.,0.,-1.));
#1651 = DIRECTION('',(-1.,0.,0.));
#1652 = ORIENTED_EDGE('',*,*,#1653,.F.);
#1653 = EDGE_CURVE('',#481,#1645,#1654,.T.);
#1654 = B_SPLINE_CURVE_WITH_KNOTS('',1,(#1655,#1656),.UNSPECIFIED.,.F.,
  .F.,(2,2),(1.,2.55),.PIECEWISE_BEZIER_KNOTS.);
#1655 = CARTESIAN_POINT('',(14.625973286532,95.013083618946,3.));
#1656 = CARTESIAN_POINT('',(14.625973286532,95.013083618946,1.45));
#1657 = ORIENTED_EDGE('',*,*,#480,.T.);
#1658 = ORIENTED_EDGE('',*,*,#1653,.T.);
#1659 = CYLINDRICAL_SURFACE('',#1660,1.7);
#1660 = AXIS2_PLACEMENT_3D('',#1661,#1662,#1663);
#1661 = CARTESIAN_POINT('',(16.325973286532,95.013083618946,4.));
#1662 = DIRECTION('',(0.,0.,-1.));
#1663 = DIRECTION('',(1.,0.,0.));
#1664 = ADVANCED_FACE('',(#1665),#1683,.F.);
#1665 = FACE_BOUND('',#1666,.F.);
#1666 = EDGE_LOOP('',(#1667,#1676,#1681,#1682));
#1667 = ORIENTED_EDGE('',*,*,#1668,.F.);
#1668 = EDGE_CURVE('',#1669,#1669,#1671,.T.);
#1669 = VERTEX_POINT('',#1670);
#1670 = CARTESIAN_POINT('',(-43.39908344177,84.531427981148,1.45));
#1671 = CIRCLE('',#1672,1.7);
#1672 = AXIS2_PLACEMENT_3D('',#1673,#1674,#1675);
#1673 = CARTESIAN_POINT('',(-41.69908344177,84.531427981148,1.45));
#1674 = DIRECTION('',(0.,0.,-1.));
#1675 = DIRECTION('',(-1.,0.,0.));
#1676 = ORIENTED_EDGE('',*,*,#1677,.F.);
#1677 = EDGE_CURVE('',#492,#1669,#1678,.T.);
#1678 = B_SPLINE_CURVE_WITH_KNOTS('',1,(#1679,#1680),.UNSPECIFIED.,.F.,
  .F.,(2,2),(1.,2.55),.PIECEWISE_BEZIER_KNOTS.);
#1679 = CARTESIAN_POINT('',(-43.39908344177,84.531427981148,3.));
#1680 = CARTESIAN_POINT('',(-43.39908344177,84.531427981148,1.45));
#1681 = ORIENTED_EDGE('',*,*,#491,.T.);
#1682 = ORIENTED_EDGE('',*,*,#1677,.T.);
#1683 = CYLINDRICAL_SURFACE('',#1684,1.7);
#1684 = AXIS2_PLACEMENT_3D('',#1685,#1686,#1687);
#1685 = CARTESIAN_POINT('',(-41.69908344177,84.531427981148,4.));
#1686 = DIRECTION('',(0.,0.,-1.));
#1687 = DIRECTION('',(1.,0.,0.));
#1688 = ADVANCED_FACE('',(#1689),#1699,.F.);
#1689 = FACE_BOUND('',#1690,.F.);
#1690 = EDGE_LOOP('',(#1691,#1692,#1697,#1698));
#1691 = ORIENTED_EDGE('',*,*,#799,.F.);
#1692 = ORIENTED_EDGE('',*,*,#1693,.F.);
#1693 = EDGE_CURVE('',#1501,#800,#1694,.T.);
#1694 = B_SPLINE_CURVE_WITH_KNOTS('',1,(#1695,#1696),.UNSPECIFIED.,.F.,
  .F.,(2,2),(2.041120196288E-15,2.05060966544),
  .PIECEWISE_BEZIER_KNOTS.);
#1695 = CARTESIAN_POINT('',(72.001388619747,-4.75166172086,1.45));
#1696 = CARTESIAN_POINT('',(70.551388619748,-4.75166172086,
    8.881784197001E-16));
#1697 = ORIENTED_EDGE('',*,*,#1500,.T.);
#1698 = ORIENTED_EDGE('',*,*,#1693,.T.);
#1699 = CONICAL_SURFACE('',#1700,1.7,0.785398163397);
#1700 = AXIS2_PLACEMENT_3D('',#1701,#1702,#1703);
#1701 = CARTESIAN_POINT('',(73.701388619747,-4.75166172086,1.45));
#1702 = DIRECTION('',(0.,0.,-1.));
#1703 = DIRECTION('',(1.,0.,0.));
#1704 = ADVANCED_FACE('',(#1705),#1715,.F.);
#1705 = FACE_BOUND('',#1706,.F.);
#1706 = EDGE_LOOP('',(#1707,#1708,#1713,#1714));
#1707 = ORIENTED_EDGE('',*,*,#810,.F.);
#1708 = ORIENTED_EDGE('',*,*,#1709,.F.);
#1709 = EDGE_CURVE('',#1525,#811,#1710,.T.);
#1710 = B_SPLINE_CURVE_WITH_KNOTS('',1,(#1711,#1712),.UNSPECIFIED.,.F.,
  .F.,(2,2),(-4.710277376049E-16,2.05060966544),
  .PIECEWISE_BEZIER_KNOTS.);
#1711 = CARTESIAN_POINT('',(9.818037385729,-16.62038451986,1.45));
#1712 = CARTESIAN_POINT('',(8.36803738573,-16.62038451986,0.));
#1713 = ORIENTED_EDGE('',*,*,#1524,.T.);
#1714 = ORIENTED_EDGE('',*,*,#1709,.T.);
#1715 = CONICAL_SURFACE('',#1716,1.7,0.785398163397);
#1716 = AXIS2_PLACEMENT_3D('',#1717,#1718,#1719);
#1717 = CARTESIAN_POINT('',(11.518037385729,-16.62038451986,1.45));
#1718 = DIRECTION('',(0.,0.,-1.));
#1719 = DIRECTION('',(1.,0.,0.));
#1720 = ADVANCED_FACE('',(#1721),#1731,.F.);
#1721 = FACE_BOUND('',#1722,.F.);
#1722 = EDGE_LOOP('',(#1723,#1724,#1729,#1730));
#1723 = ORIENTED_EDGE('',*,*,#821,.F.);
#1724 = ORIENTED_EDGE('',*,*,#1725,.F.);
#1725 = EDGE_CURVE('',#1549,#822,#1726,.T.);
#1726 = B_SPLINE_CURVE_WITH_KNOTS('',1,(#1727,#1728),.UNSPECIFIED.,.F.,
  .F.,(2,2),(2.041120196288E-15,2.05060966544),
  .PIECEWISE_BEZIER_KNOTS.);
#1727 = CARTESIAN_POINT('',(-46.23738835172,-33.4582886089,1.45));
#1728 = CARTESIAN_POINT('',(-47.68738835171,-33.4582886089,
    8.881784197001E-16));
#1729 = ORIENTED_EDGE('',*,*,#1548,.T.);
#1730 = ORIENTED_EDGE('',*,*,#1725,.T.);
#1731 = CONICAL_SURFACE('',#1732,1.7,0.785398163397);
#1732 = AXIS2_PLACEMENT_3D('',#1733,#1734,#1735);
#1733 = CARTESIAN_POINT('',(-44.53738835172,-33.4582886089,1.45));
#1734 = DIRECTION('',(0.,0.,-1.));
#1735 = DIRECTION('',(1.,0.,0.));
#1736 = ADVANCED_FACE('',(#1737),#1747,.F.);
#1737 = FACE_BOUND('',#1738,.F.);
#1738 = EDGE_LOOP('',(#1739,#1740,#1745,#1746));
#1739 = ORIENTED_EDGE('',*,*,#832,.F.);
#1740 = ORIENTED_EDGE('',*,*,#1741,.F.);
#1741 = EDGE_CURVE('',#1573,#833,#1742,.T.);
#1742 = B_SPLINE_CURVE_WITH_KNOTS('',1,(#1743,#1744),.UNSPECIFIED.,.F.,
  .F.,(2,2),(2.041120196288E-15,2.05060966544),
  .PIECEWISE_BEZIER_KNOTS.);
#1743 = CARTESIAN_POINT('',(-49.38405349637,22.559164116739,1.45));
#1744 = CARTESIAN_POINT('',(-50.83405349636,22.559164116739,
    8.881784197001E-16));
#1745 = ORIENTED_EDGE('',*,*,#1572,.T.);
#1746 = ORIENTED_EDGE('',*,*,#1741,.T.);
#1747 = CONICAL_SURFACE('',#1748,1.7,0.785398163397);
#1748 = AXIS2_PLACEMENT_3D('',#1749,#1750,#1751);
#1749 = CARTESIAN_POINT('',(-47.68405349637,22.559164116739,1.45));
#1750 = DIRECTION('',(0.,0.,-1.));
#1751 = DIRECTION('',(1.,0.,0.));
#1752 = ADVANCED_FACE('',(#1753),#1763,.F.);
#1753 = FACE_BOUND('',#1754,.F.);
#1754 = EDGE_LOOP('',(#1755,#1756,#1761,#1762));
#1755 = ORIENTED_EDGE('',*,*,#843,.F.);
#1756 = ORIENTED_EDGE('',*,*,#1757,.F.);
#1757 = EDGE_CURVE('',#1597,#844,#1758,.T.);
#1758 = B_SPLINE_CURVE_WITH_KNOTS('',1,(#1759,#1760),.UNSPECIFIED.,.F.,
  .F.,(2,2),(2.041120196288E-15,2.05060966544),
  .PIECEWISE_BEZIER_KNOTS.);
#1759 = CARTESIAN_POINT('',(79.538374463585,54.853895526734,1.45));
#1760 = CARTESIAN_POINT('',(78.088374463586,54.853895526734,
    8.881784197001E-16));
#1761 = ORIENTED_EDGE('',*,*,#1596,.T.);
#1762 = ORIENTED_EDGE('',*,*,#1757,.T.);
#1763 = CONICAL_SURFACE('',#1764,1.7,0.785398163397);
#1764 = AXIS2_PLACEMENT_3D('',#1765,#1766,#1767);
#1765 = CARTESIAN_POINT('',(81.238374463585,54.853895526734,1.45));
#1766 = DIRECTION('',(0.,0.,-1.));
#1767 = DIRECTION('',(1.,0.,0.));
#1768 = ADVANCED_FACE('',(#1769),#1779,.F.);
#1769 = FACE_BOUND('',#1770,.F.);
#1770 = EDGE_LOOP('',(#1771,#1772,#1777,#1778));
#1771 = ORIENTED_EDGE('',*,*,#854,.F.);
#1772 = ORIENTED_EDGE('',*,*,#1773,.F.);
#1773 = EDGE_CURVE('',#1621,#855,#1774,.T.);
#1774 = B_SPLINE_CURVE_WITH_KNOTS('',1,(#1775,#1776),.UNSPECIFIED.,.F.,
  .F.,(2,2),(2.041120196288E-15,2.05060966544),
  .PIECEWISE_BEZIER_KNOTS.);
#1775 = CARTESIAN_POINT('',(50.590405940393,85.007880863003,1.45));
#1776 = CARTESIAN_POINT('',(49.140405940394,85.007880863003,
    8.881784197001E-16));
#1777 = ORIENTED_EDGE('',*,*,#1620,.T.);
#1778 = ORIENTED_EDGE('',*,*,#1773,.T.);
#1779 = CONICAL_SURFACE('',#1780,1.7,0.785398163397);
#1780 = AXIS2_PLACEMENT_3D('',#1781,#1782,#1783);
#1781 = CARTESIAN_POINT('',(52.290405940393,85.007880863003,1.45));
#1782 = DIRECTION('',(0.,0.,-1.));
#1783 = DIRECTION('',(1.,0.,0.));
#1784 = ADVANCED_FACE('',(#1785),#1795,.F.);
#1785 = FACE_BOUND('',#1786,.F.);
#1786 = EDGE_LOOP('',(#1787,#1788,#1793,#1794));
#1787 = ORIENTED_EDGE('',*,*,#865,.F.);
#1788 = ORIENTED_EDGE('',*,*,#1789,.F.);
#1789 = EDGE_CURVE('',#1645,#866,#1790,.T.);
#1790 = B_SPLINE_CURVE_WITH_KNOTS('',1,(#1791,#1792),.UNSPECIFIED.,.F.,
  .F.,(2,2),(-4.710277376049E-16,2.05060966544),
  .PIECEWISE_BEZIER_KNOTS.);
#1791 = CARTESIAN_POINT('',(14.625973286532,95.013083618946,1.45));
#1792 = CARTESIAN_POINT('',(13.175973286533,95.013083618946,0.));
#1793 = ORIENTED_EDGE('',*,*,#1644,.T.);
#1794 = ORIENTED_EDGE('',*,*,#1789,.T.);
#1795 = CONICAL_SURFACE('',#1796,1.7,0.785398163397);
#1796 = AXIS2_PLACEMENT_3D('',#1797,#1798,#1799);
#1797 = CARTESIAN_POINT('',(16.325973286532,95.013083618946,1.45));
#1798 = DIRECTION('',(0.,0.,-1.));
#1799 = DIRECTION('',(1.,0.,0.));
#1800 = ADVANCED_FACE('',(#1801),#1811,.F.);
#1801 = FACE_BOUND('',#1802,.F.);
#1802 = EDGE_LOOP('',(#1803,#1804,#1809,#1810));
#1803 = ORIENTED_EDGE('',*,*,#876,.F.);
#1804 = ORIENTED_EDGE('',*,*,#1805,.F.);
#1805 = EDGE_CURVE('',#1669,#877,#1806,.T.);
#1806 = B_SPLINE_CURVE_WITH_KNOTS('',1,(#1807,#1808),.UNSPECIFIED.,.F.,
  .F.,(2,2),(2.041120196288E-15,2.05060966544),
  .PIECEWISE_BEZIER_KNOTS.);
#1807 = CARTESIAN_POINT('',(-43.39908344177,84.531427981148,1.45));
#1808 = CARTESIAN_POINT('',(-44.84908344176,84.531427981148,
    8.881784197001E-16));
#1809 = ORIENTED_EDGE('',*,*,#1668,.T.);
#1810 = ORIENTED_EDGE('',*,*,#1805,.T.);
#1811 = CONICAL_SURFACE('',#1812,1.7,0.785398163397);
#1812 = AXIS2_PLACEMENT_3D('',#1813,#1814,#1815);
#1813 = CARTESIAN_POINT('',(-41.69908344177,84.531427981148,1.45));
#1814 = DIRECTION('',(0.,0.,-1.));
#1815 = DIRECTION('',(1.,0.,0.));
#1816 = ( GEOMETRIC_REPRESENTATION_CONTEXT(3) 
GLOBAL_UNCERTAINTY_ASSIGNED_CONTEXT((#1820)) 
GLOBAL_UNIT_ASSIGNED_CONTEXT((#1817,#1818,#1819)) REPRESENTATION_CONTEXT
('Context #1','3D Context with UNIT and UNCERTAINTY') );
#1817 = ( LENGTH_UNIT() NAMED_UNIT(*) SI_UNIT(.MILLI.,.METRE.) );
#1818 = ( NAMED_UNIT(*) PLANE_ANGLE_UNIT() SI_UNIT($,.RADIAN.) );
#1819 = ( NAMED_UNIT(*) SI_UNIT($,.STERADIAN.) SOLID_ANGLE_UNIT() );
#1820 = UNCERTAINTY_MEASURE_WITH_UNIT(LENGTH_MEASURE(2.E-06),#1817,
  'distance_accuracy_value','confusion accuracy');
#1821 = PRODUCT_RELATED_PRODUCT_CATEGORY('part',$,(#7));
#1822 = MECHANICAL_DESIGN_GEOMETRIC_PRESENTATION_REPRESENTATION('',(
    #1823),#1816);
#1823 = STYLED_ITEM('color',(#1824),#15);
#1824 = PRESENTATION_STYLE_ASSIGNMENT((#1825,#1831));
#1825 = SURFACE_STYLE_USAGE(.BOTH.,#1826);
#1826 = SURFACE_SIDE_STYLE('',(#1827));
#1827 = SURFACE_STYLE_FILL_AREA(#1828);
#1828 = FILL_AREA_STYLE('',(#1829));
#1829 = FILL_AREA_STYLE_COLOUR('',#1830);
#1830 = COLOUR_RGB('',0.917647049334,0.917647049334,0.917647049334);
#1831 = CURVE_STYLE('',#1832,POSITIVE_LENGTH_MEASURE(0.1),#1833);
#1832 = DRAUGHTING_PRE_DEFINED_CURVE_FONT('continuous');
#1833 = COLOUR_RGB('',0.678431390124,0.709803936702,0.741176476869);
ENDSEC;
END-ISO-10303-21;
